M48
;GenerationSoftware,Autodesk,EAGLE,9.6.2*%
;CreationDate,2024-07-22T04:23:52Z*%
FMAT,2
ICI,OFF
METRIC,TZ,000.000
T6C0.350
T5C0.500
T4C0.914
T3C1.000
T2C1.200
T1C3.200
%
G90
M71
T1
X4064Y-3810
X45466Y85090
X45466Y-3810
X4064Y85090
T2
X3175Y7707
X3175Y43347
X45974Y31964
X45974Y26964
X45974Y21804
X45974Y16804
X45974Y11644
X45974Y6644
X3175Y63667
X3175Y68667
X3175Y73827
X3175Y78827
X3175Y53507
X3175Y58507
X3175Y48347
X3175Y33187
X3175Y38187
X3175Y23027
X3175Y28027
X3175Y12867
X3175Y17867
X3175Y2707
T3
X18161Y37084
X10541Y37084
X18161Y77851
X30861Y26924
X18161Y26924
X10541Y26924
X30861Y16764
X28321Y16764
X18161Y16764
X10541Y77851
X30861Y67564
X28321Y67564
X18161Y67564
X10541Y67564
X30861Y77851
X28321Y77851
X10541Y16764
X30861Y57277
X28321Y57277
X18161Y57277
X10541Y57277
X30861Y6604
X28321Y6604
X28321Y26924
X18161Y6604
X10541Y6604
X30861Y47244
X28321Y47244
X18161Y47244
X10541Y47244
X30861Y37084
X28321Y37084
T4
X44958Y75057
X42418Y75057
X47498Y64135
X44958Y64135
X42418Y64135
X43815Y54102
X46355Y54102
X43815Y57658
X46355Y57658
X47498Y69596
X44958Y69596
X42418Y69596
X47498Y75057
T5
X4064Y-1587
X4064Y87313
X4064Y82868
X6286Y85090
X1841Y85090
X2477Y86678
X5651Y86678
X5651Y83503
X2477Y83503
X4064Y-6032
X6286Y-3810
X1841Y-3810
X2477Y-2223
X5651Y-2223
X5651Y-5398
X2477Y-5398
X45466Y87313
X45466Y82868
X47688Y85090
X43244Y85090
X43878Y86678
X47053Y86678
X47053Y83503
X43878Y83503
X45466Y-1587
X45466Y-6032
X47688Y-3810
X43244Y-3810
X43878Y-2223
X47053Y-2223
X47053Y-5398
X43878Y-5398
T6
X41092Y46172
X41059Y49543
X41529Y42799
X40323Y45656
X33528Y85725
X34544Y85725
X35560Y85725
X36576Y85725
X37592Y85725
X37592Y84709
X36576Y84709
X35560Y84709
X34544Y84709
X33528Y84709
X41910Y41529
X33020Y45720
X33020Y42418
X32512Y51181
X32512Y55626
X32893Y59309
X32385Y62484
X32258Y65913
X45212Y66929
X41021Y66548
X48006Y58166
X41656Y27940
X45593Y23749
X46101Y19304
X41402Y18288
X41656Y20447
X46228Y14097
X41529Y14478
X27638Y41021
X29083Y41021
X37310Y39878
X47038Y42545
X47117Y41636
X37368Y38969
X29083Y40112
X27559Y40112
X25146Y70759
X27432Y70759
X29004Y70759
X47117Y40640
X39827Y47714
X27432Y53848
X31496Y35306
X26670Y33020
X30607Y31750
X30480Y22225
X30607Y25146
X24892Y24257
X25019Y19177
X30099Y19177
X24892Y15113
X30480Y14859
X30480Y10541
X25019Y10414
X37465Y-3175
X36322Y-3175
X35179Y-3175
X34036Y-3175
X32893Y-3175
X32893Y-2159
X34036Y-2159
X35179Y-2159
X36322Y-2159
X37465Y-2159
X41704Y53975
X40338Y53975
X37338Y46482
X43053Y49784
X37338Y36322
X43990Y49784
X37338Y26162
X44899Y49841
X46228Y1270
X46355Y29210
X37465Y16002
X45974Y49784
X46990Y49784
X37338Y5715
X41583Y31877
X28321Y50673
X33909Y74549
X42037Y8763
X24768Y61468
X27432Y29083
X29083Y29083
X48116Y39878
X48108Y49886
X35179Y19304
X27638Y20828
X23368Y57912
X45847Y9017
X43815Y30480
X41402Y30226
X29004Y29992
X24311Y30353
X24219Y59652
X29004Y69850
X27432Y69850
X25146Y69850
M30