G04 EAGLE Gerber RS-274X export*
G75*
%MOMM*%
%FSLAX34Y34*%
%LPD*%
%INTop Copper*%
%IPPOS*%
%AMOC8*
5,1,8,0,0,1.08239X$1,22.5*%
G01*
%ADD10R,1.700000X2.550000*%
%ADD11R,0.450000X1.675000*%
%ADD12C,1.508000*%
%ADD13R,0.500000X1.000000*%
%ADD14R,0.650000X0.900000*%
%ADD15R,0.900000X0.650000*%
%ADD16R,1.400000X0.900000*%
%ADD17C,1.800000*%
%ADD18C,1.422400*%
%ADD19R,0.900000X0.950000*%
%ADD20C,6.000000*%
%ADD21C,1.008000*%
%ADD22C,0.304800*%
%ADD23C,0.254000*%
%ADD24C,0.756400*%


D10*
X358140Y134670D03*
X358140Y172670D03*
X358140Y236270D03*
X358140Y274270D03*
X358140Y337870D03*
X358140Y375870D03*
X358140Y31800D03*
X358140Y69800D03*
X358140Y439470D03*
X358140Y477470D03*
X358140Y539800D03*
X358140Y577800D03*
X358140Y745540D03*
X358140Y783540D03*
X358140Y640130D03*
X358140Y678130D03*
D11*
X482790Y443820D03*
X476290Y443820D03*
X469790Y443820D03*
X463290Y443820D03*
X456790Y443820D03*
X450290Y443820D03*
X443790Y443820D03*
X437290Y443820D03*
X430790Y443820D03*
X424290Y443820D03*
X417790Y443820D03*
X411290Y443820D03*
X411290Y374060D03*
X417790Y374060D03*
X424290Y374060D03*
X430790Y374060D03*
X437290Y374060D03*
X443790Y374060D03*
X450290Y374060D03*
X456790Y374060D03*
X463290Y374060D03*
X469790Y374060D03*
X476290Y374060D03*
X482790Y374060D03*
D12*
X105410Y167640D03*
X181610Y167640D03*
X283210Y167640D03*
X308610Y167640D03*
X105410Y269240D03*
X181610Y269240D03*
X283210Y269240D03*
X308610Y269240D03*
X105410Y370840D03*
X181610Y370840D03*
X283210Y370840D03*
X308610Y370840D03*
X105410Y472440D03*
X181610Y472440D03*
X283210Y472440D03*
X308610Y472440D03*
X105410Y66040D03*
X181610Y66040D03*
X283210Y66040D03*
X308610Y66040D03*
X105410Y572770D03*
X181610Y572770D03*
X283210Y572770D03*
X308610Y572770D03*
X105410Y778510D03*
X181610Y778510D03*
X283210Y778510D03*
X308610Y778510D03*
X105410Y675640D03*
X181610Y675640D03*
X283210Y675640D03*
X308610Y675640D03*
D13*
X382120Y160180D03*
X395120Y160180D03*
X388620Y180180D03*
X382120Y261780D03*
X395120Y261780D03*
X388620Y281780D03*
X382120Y363380D03*
X395120Y363380D03*
X388620Y383380D03*
X380850Y57310D03*
X393850Y57310D03*
X387350Y77310D03*
X382120Y464980D03*
X395120Y464980D03*
X388620Y484980D03*
X382120Y565310D03*
X395120Y565310D03*
X388620Y585310D03*
X382120Y771050D03*
X395120Y771050D03*
X388620Y791050D03*
X382120Y665640D03*
X395120Y665640D03*
X388620Y685640D03*
D14*
X388250Y101600D03*
X373750Y101600D03*
D15*
X433070Y486040D03*
X433070Y471540D03*
D14*
X389520Y508000D03*
X375020Y508000D03*
D15*
X421640Y486040D03*
X421640Y471540D03*
D14*
X388250Y716280D03*
X373750Y716280D03*
D15*
X410210Y486040D03*
X410210Y471540D03*
D14*
X388250Y612140D03*
X373750Y612140D03*
D15*
X410210Y521600D03*
X410210Y507100D03*
X468630Y486040D03*
X468630Y471540D03*
D14*
X389520Y203200D03*
X375020Y203200D03*
D15*
X455930Y486040D03*
X455930Y471540D03*
D14*
X388250Y308610D03*
X373750Y308610D03*
D15*
X444500Y486040D03*
X444500Y471540D03*
D14*
X409310Y19050D03*
X423810Y19050D03*
D15*
X480060Y486040D03*
X480060Y471540D03*
D14*
X388250Y408940D03*
X373750Y408940D03*
D16*
X388620Y142850D03*
X388620Y123850D03*
X388620Y244450D03*
X388620Y225450D03*
X388620Y346050D03*
X388620Y327050D03*
X388620Y38710D03*
X388620Y19710D03*
X388620Y447650D03*
X388620Y428650D03*
X388620Y547980D03*
X388620Y528980D03*
X388620Y753720D03*
X388620Y734720D03*
X388620Y648310D03*
X388620Y629310D03*
D17*
X40750Y77070D02*
X22750Y77070D01*
X22750Y27070D02*
X40750Y27070D01*
X40750Y178670D02*
X22750Y178670D01*
X22750Y128670D02*
X40750Y128670D01*
X40750Y280270D02*
X22750Y280270D01*
X22750Y230270D02*
X40750Y230270D01*
X40750Y381870D02*
X22750Y381870D01*
X22750Y331870D02*
X40750Y331870D01*
X40750Y483470D02*
X22750Y483470D01*
X22750Y433470D02*
X40750Y433470D01*
X40750Y585070D02*
X22750Y585070D01*
X22750Y535070D02*
X40750Y535070D01*
X40750Y788270D02*
X22750Y788270D01*
X22750Y738270D02*
X40750Y738270D01*
X40750Y686670D02*
X22750Y686670D01*
X22750Y636670D02*
X40750Y636670D01*
X450740Y66440D02*
X468740Y66440D01*
X468740Y116440D02*
X450740Y116440D01*
X450740Y168040D02*
X468740Y168040D01*
X468740Y218040D02*
X450740Y218040D01*
X450740Y269640D02*
X468740Y269640D01*
X468740Y319640D02*
X450740Y319640D01*
D18*
X424180Y634238D02*
X424180Y648462D01*
X449580Y648462D02*
X449580Y634238D01*
X474980Y634238D02*
X474980Y648462D01*
X424180Y743458D02*
X424180Y757682D01*
X449580Y757682D02*
X449580Y743458D01*
X474980Y743458D02*
X474980Y757682D01*
X424180Y703072D02*
X424180Y688848D01*
X449580Y688848D02*
X449580Y703072D01*
X474980Y703072D02*
X474980Y688848D01*
X463550Y583692D02*
X463550Y569468D01*
X438150Y569468D02*
X438150Y583692D01*
X463550Y548132D02*
X463550Y533908D01*
X438150Y533908D02*
X438150Y548132D01*
D19*
X461390Y607060D03*
X445390Y607060D03*
X461390Y510540D03*
X445390Y510540D03*
D20*
X40640Y850900D03*
D21*
X40640Y873125D03*
X40640Y828675D03*
X62865Y850900D03*
X18415Y850900D03*
X24765Y866775D03*
X56515Y866775D03*
X56515Y835025D03*
X24765Y835025D03*
D20*
X40640Y-38100D03*
D21*
X40640Y-15875D03*
X40640Y-60325D03*
X62865Y-38100D03*
X18415Y-38100D03*
X24765Y-22225D03*
X56515Y-22225D03*
X56515Y-53975D03*
X24765Y-53975D03*
D20*
X454660Y850900D03*
D21*
X454660Y873125D03*
X454660Y828675D03*
X476885Y850900D03*
X432435Y850900D03*
X438785Y866775D03*
X470535Y866775D03*
X470535Y835025D03*
X438785Y835025D03*
D20*
X454660Y-38100D03*
D21*
X454660Y-15875D03*
X454660Y-60325D03*
X476885Y-38100D03*
X432435Y-38100D03*
X438785Y-22225D03*
X470535Y-22225D03*
X470535Y-53975D03*
X438785Y-53975D03*
D22*
X480060Y464820D02*
X480060Y471540D01*
X480060Y464820D02*
X476250Y461010D01*
X468746Y461010D02*
X467984Y460248D01*
X465328Y460248D01*
X463290Y458210D02*
X463290Y443820D01*
X468746Y461010D02*
X476250Y461010D01*
X465328Y460248D02*
X463290Y458210D01*
X456790Y463024D02*
X456790Y443820D01*
X458586Y464820D02*
X466090Y464820D01*
X468630Y467360D01*
X468630Y471540D01*
X458586Y464820D02*
X456790Y463024D01*
X455930Y468630D02*
X455930Y471540D01*
X450290Y462990D02*
X450290Y443820D01*
X450290Y462990D02*
X455930Y468630D01*
X444500Y471540D02*
X444500Y458470D01*
X443230Y457200D01*
X443230Y444380D01*
X443790Y443820D01*
X433070Y459740D02*
X433070Y471540D01*
X437290Y455520D02*
X437290Y443820D01*
X437290Y455520D02*
X433070Y459740D01*
X421640Y463550D02*
X421640Y471540D01*
X430790Y454400D02*
X430790Y443820D01*
X430790Y454400D02*
X421640Y463550D01*
X424290Y453280D02*
X424290Y443820D01*
X420370Y457200D02*
X414020Y457200D01*
X420370Y457200D02*
X424290Y453280D01*
X414020Y457200D02*
X410210Y461010D01*
D23*
X410921Y461721D01*
D24*
X410921Y461721D03*
X410591Y495427D03*
D23*
X410591Y506719D01*
X410210Y507100D01*
D22*
X417790Y443820D02*
X417790Y430490D01*
X415290Y427990D01*
D24*
X415290Y427990D03*
X403225Y456565D03*
D23*
X403225Y468503D01*
X406262Y471540D02*
X410210Y471540D01*
X406262Y471540D02*
X403225Y468503D01*
D22*
X395120Y771050D02*
X473550Y771050D01*
X474980Y769620D01*
X474980Y750570D01*
X474980Y695960D01*
X474980Y669290D01*
X474980Y661670D01*
X474980Y641350D01*
X471010Y665640D02*
X395120Y665640D01*
X471010Y665640D02*
X474980Y661670D01*
X471330Y665640D02*
X471010Y665640D01*
X471330Y665640D02*
X474980Y669290D01*
X416720Y57310D02*
X393850Y57310D01*
X425850Y66440D02*
X459740Y66440D01*
X425850Y66440D02*
X416720Y57310D01*
D23*
X303287Y299720D02*
X298771Y304236D01*
X295022Y304236D01*
X293765Y305493D01*
X291348Y306494D01*
X288732Y306494D01*
X287528Y305995D01*
X287528Y330951D01*
X290129Y333552D01*
X346846Y333552D01*
X346846Y323963D01*
X348483Y322326D01*
X353822Y322326D01*
X353822Y309361D01*
X356362Y306821D01*
X358891Y304292D01*
X367706Y304292D01*
X367706Y302953D01*
X369343Y301316D01*
X369686Y301316D01*
X369686Y300207D01*
X370173Y299720D01*
X303287Y299720D01*
X278045Y296405D02*
X275628Y297406D01*
X273012Y297406D01*
X270595Y296405D01*
X269338Y295148D01*
X258329Y295148D01*
X254254Y299223D01*
X254254Y431674D01*
X262890Y423038D01*
X262890Y407715D01*
X265419Y405186D01*
X265419Y405186D01*
X269014Y401591D01*
X269014Y399814D01*
X270015Y397397D01*
X271865Y395547D01*
X274282Y394546D01*
X276898Y394546D01*
X278892Y395372D01*
X278892Y380237D01*
X277356Y379601D01*
X274449Y376694D01*
X272876Y372896D01*
X272876Y368784D01*
X274449Y364986D01*
X277356Y362079D01*
X278892Y361443D01*
X278892Y341111D01*
X282183Y337820D01*
X281421Y337058D01*
X278892Y334529D01*
X278892Y295558D01*
X278045Y296405D01*
X290029Y435152D02*
X346846Y435152D01*
X346846Y425563D01*
X348483Y423926D01*
X353822Y423926D01*
X353822Y414528D01*
X295812Y414528D01*
X294555Y415785D01*
X292138Y416786D01*
X289522Y416786D01*
X287528Y415960D01*
X287528Y432651D01*
X290029Y435152D01*
X455733Y599516D02*
X457072Y599516D01*
X457072Y591223D01*
X455168Y589319D01*
X455168Y593609D01*
X449708Y599069D01*
X449708Y599516D01*
X451047Y599516D01*
X452684Y601153D01*
X452684Y612967D01*
X451047Y614604D01*
X439733Y614604D01*
X438096Y612967D01*
X438096Y611378D01*
X429779Y611378D01*
X428498Y612659D01*
X428498Y625304D01*
X429791Y625840D01*
X432578Y628627D01*
X434086Y632268D01*
X434086Y650432D01*
X432578Y654073D01*
X429791Y656860D01*
X426150Y658368D01*
X422210Y658368D01*
X418569Y656860D01*
X415782Y654073D01*
X414274Y650432D01*
X414274Y639583D01*
X413258Y640599D01*
X410729Y643128D01*
X398414Y643128D01*
X398414Y653967D01*
X396777Y655604D01*
X392938Y655604D01*
X392938Y656830D01*
X395120Y656830D01*
X395120Y665640D01*
X395120Y665640D01*
X395120Y656830D01*
X398122Y656830D01*
X399091Y657090D01*
X399959Y657591D01*
X400669Y658301D01*
X401170Y659169D01*
X401430Y660138D01*
X401430Y665640D01*
X395120Y665640D01*
X395120Y665640D01*
X401430Y665640D01*
X401430Y671142D01*
X401170Y672111D01*
X400669Y672979D01*
X399959Y673689D01*
X399091Y674190D01*
X398122Y674450D01*
X395120Y674450D01*
X395120Y665640D01*
X395120Y665640D01*
X395120Y674450D01*
X392938Y674450D01*
X392938Y678507D01*
X393914Y679483D01*
X393914Y691797D01*
X392277Y693434D01*
X384963Y693434D01*
X383326Y691797D01*
X383326Y689958D01*
X373971Y689958D01*
X369434Y685421D01*
X369434Y692037D01*
X367797Y693674D01*
X348483Y693674D01*
X346846Y692037D01*
X346846Y682498D01*
X333491Y682498D01*
X330962Y679969D01*
X330951Y679958D01*
X318007Y679958D01*
X317371Y681494D01*
X314464Y684401D01*
X310666Y685974D01*
X306554Y685974D01*
X302756Y684401D01*
X299849Y681494D01*
X298276Y677696D01*
X298276Y673584D01*
X299849Y669786D01*
X302756Y666879D01*
X306554Y665306D01*
X310666Y665306D01*
X314464Y666879D01*
X317371Y669786D01*
X318007Y671322D01*
X334529Y671322D01*
X337069Y673862D01*
X346846Y673862D01*
X346846Y664223D01*
X348483Y662586D01*
X367797Y662586D01*
X369434Y664223D01*
X369434Y673812D01*
X370039Y673812D01*
X377549Y681322D01*
X383326Y681322D01*
X383326Y679483D01*
X384302Y678507D01*
X384302Y673434D01*
X378463Y673434D01*
X376826Y671797D01*
X376826Y669958D01*
X375561Y669958D01*
X370332Y664729D01*
X370332Y642101D01*
X372861Y639572D01*
X377941Y634492D01*
X378826Y634492D01*
X378826Y623653D01*
X380463Y622016D01*
X384302Y622016D01*
X384302Y619434D01*
X383843Y619434D01*
X382206Y617797D01*
X382206Y606483D01*
X383843Y604846D01*
X392657Y604846D01*
X394294Y606483D01*
X394294Y617797D01*
X392938Y619153D01*
X392938Y622016D01*
X396777Y622016D01*
X398414Y623653D01*
X398414Y634492D01*
X405892Y634492D01*
X405892Y545827D01*
X404688Y546326D01*
X402072Y546326D01*
X399655Y545325D01*
X398414Y544084D01*
X398414Y553637D01*
X396777Y555274D01*
X393890Y555274D01*
X393890Y556500D01*
X395120Y556500D01*
X395120Y565310D01*
X395120Y565310D01*
X395120Y556500D01*
X398122Y556500D01*
X399091Y556760D01*
X399959Y557261D01*
X400669Y557971D01*
X401170Y558839D01*
X401430Y559808D01*
X401430Y565310D01*
X395120Y565310D01*
X395120Y565310D01*
X401430Y565310D01*
X401430Y570812D01*
X401170Y571781D01*
X400669Y572649D01*
X399959Y573359D01*
X399091Y573860D01*
X398122Y574120D01*
X395120Y574120D01*
X395120Y565310D01*
X395120Y565310D01*
X395120Y574120D01*
X393890Y574120D01*
X393890Y579129D01*
X393914Y579153D01*
X393914Y591467D01*
X392277Y593104D01*
X384963Y593104D01*
X383326Y591467D01*
X383326Y589628D01*
X376511Y589628D01*
X369434Y582551D01*
X369434Y591707D01*
X367797Y593344D01*
X348483Y593344D01*
X346846Y591707D01*
X346846Y582118D01*
X337251Y582118D01*
X332221Y577088D01*
X318007Y577088D01*
X317371Y578624D01*
X314464Y581531D01*
X310666Y583104D01*
X306554Y583104D01*
X302756Y581531D01*
X299849Y578624D01*
X298276Y574826D01*
X298276Y570714D01*
X299849Y566916D01*
X302756Y564009D01*
X306554Y562436D01*
X310666Y562436D01*
X314464Y564009D01*
X317371Y566916D01*
X318007Y568452D01*
X335799Y568452D01*
X338328Y570981D01*
X338328Y570981D01*
X340829Y573482D01*
X346846Y573482D01*
X346846Y563893D01*
X348483Y562256D01*
X367797Y562256D01*
X369434Y563893D01*
X369434Y573482D01*
X372579Y573482D01*
X380089Y580992D01*
X383326Y580992D01*
X383326Y579153D01*
X384963Y577516D01*
X385254Y577516D01*
X385254Y573104D01*
X378463Y573104D01*
X376826Y571467D01*
X376826Y569628D01*
X375561Y569628D01*
X374131Y568198D01*
X371602Y565669D01*
X371602Y541771D01*
X375412Y537961D01*
X377941Y535432D01*
X379621Y535432D01*
X378826Y534637D01*
X378826Y523323D01*
X380463Y521686D01*
X385202Y521686D01*
X385202Y515294D01*
X385113Y515294D01*
X383476Y513657D01*
X383476Y502343D01*
X384931Y500888D01*
X379609Y500888D01*
X381064Y502343D01*
X381064Y513657D01*
X379427Y515294D01*
X370613Y515294D01*
X368976Y513657D01*
X368976Y512318D01*
X366279Y512318D01*
X362458Y516139D01*
X362458Y524256D01*
X367797Y524256D01*
X369434Y525893D01*
X369434Y553707D01*
X367797Y555344D01*
X348483Y555344D01*
X346846Y553707D01*
X346846Y544118D01*
X290029Y544118D01*
X287528Y546619D01*
X287528Y563373D01*
X289064Y564009D01*
X291971Y566916D01*
X293544Y570714D01*
X293544Y574826D01*
X291971Y578624D01*
X289064Y581531D01*
X287528Y582167D01*
X287528Y635812D01*
X346846Y635812D01*
X346846Y626223D01*
X348483Y624586D01*
X352552Y624586D01*
X352552Y612891D01*
X355081Y610362D01*
X357621Y607822D01*
X367706Y607822D01*
X367706Y606483D01*
X369343Y604846D01*
X378157Y604846D01*
X379794Y606483D01*
X379794Y617797D01*
X378157Y619434D01*
X369343Y619434D01*
X367706Y617797D01*
X367706Y616458D01*
X361199Y616458D01*
X361188Y616469D01*
X361188Y624586D01*
X367797Y624586D01*
X369434Y626223D01*
X369434Y654037D01*
X367797Y655674D01*
X348483Y655674D01*
X346846Y654037D01*
X346846Y644448D01*
X287528Y644448D01*
X287528Y666243D01*
X289064Y666879D01*
X291971Y669786D01*
X293544Y673584D01*
X293544Y677696D01*
X291971Y681494D01*
X289064Y684401D01*
X285266Y685974D01*
X281154Y685974D01*
X277356Y684401D01*
X274449Y681494D01*
X272876Y677696D01*
X272876Y673584D01*
X274449Y669786D01*
X277356Y666879D01*
X278892Y666243D01*
X278892Y640831D01*
X279593Y640130D01*
X278892Y639429D01*
X278892Y582167D01*
X277356Y581531D01*
X274449Y578624D01*
X272876Y574826D01*
X272876Y570714D01*
X274449Y566916D01*
X277356Y564009D01*
X278892Y563373D01*
X278892Y543041D01*
X281421Y540512D01*
X282793Y539140D01*
X281421Y537768D01*
X278892Y535239D01*
X278892Y511712D01*
X277635Y510455D01*
X276634Y508038D01*
X276634Y505422D01*
X277635Y503005D01*
X279485Y501155D01*
X280130Y500888D01*
X272299Y500888D01*
X268478Y504709D01*
X268478Y695420D01*
X268745Y694775D01*
X270595Y692925D01*
X273012Y691924D01*
X275628Y691924D01*
X278045Y692925D01*
X279302Y694182D01*
X285058Y694182D01*
X286315Y692925D01*
X288732Y691924D01*
X291348Y691924D01*
X293765Y692925D01*
X295615Y694775D01*
X296616Y697192D01*
X296616Y699808D01*
X295615Y702225D01*
X294796Y703044D01*
X295615Y703863D01*
X296616Y706280D01*
X296616Y708896D01*
X295615Y711313D01*
X293765Y713163D01*
X291348Y714164D01*
X288732Y714164D01*
X286315Y713163D01*
X285058Y711906D01*
X279302Y711906D01*
X278045Y713163D01*
X275628Y714164D01*
X273012Y714164D01*
X270595Y713163D01*
X268745Y711313D01*
X268478Y710668D01*
X268478Y753861D01*
X272299Y757682D01*
X339609Y757682D01*
X343419Y761492D01*
X372629Y761492D01*
X376826Y765689D01*
X376826Y764893D01*
X378463Y763256D01*
X384302Y763256D01*
X384302Y761014D01*
X380463Y761014D01*
X378826Y759377D01*
X378826Y748063D01*
X380463Y746426D01*
X396777Y746426D01*
X398414Y748063D01*
X398414Y759377D01*
X396777Y761014D01*
X392938Y761014D01*
X392938Y762240D01*
X395120Y762240D01*
X395120Y771050D01*
X395120Y771050D01*
X395120Y762240D01*
X398122Y762240D01*
X399091Y762500D01*
X399959Y763001D01*
X400669Y763711D01*
X401170Y764579D01*
X401430Y765548D01*
X401430Y771050D01*
X395120Y771050D01*
X395120Y771050D01*
X401430Y771050D01*
X401430Y776552D01*
X401170Y777521D01*
X400669Y778389D01*
X399959Y779099D01*
X399091Y779600D01*
X398122Y779860D01*
X395120Y779860D01*
X395120Y771050D01*
X395120Y771050D01*
X395120Y779860D01*
X392938Y779860D01*
X392938Y783917D01*
X393914Y784893D01*
X393914Y797207D01*
X392277Y798844D01*
X384963Y798844D01*
X383326Y797207D01*
X383326Y795368D01*
X377781Y795368D01*
X370271Y787858D01*
X369434Y787858D01*
X369434Y797447D01*
X367797Y799084D01*
X348483Y799084D01*
X346846Y797447D01*
X346846Y787858D01*
X334711Y787858D01*
X329681Y782828D01*
X318007Y782828D01*
X317371Y784364D01*
X314464Y787271D01*
X310666Y788844D01*
X306554Y788844D01*
X302756Y787271D01*
X299849Y784364D01*
X298276Y780566D01*
X298276Y776454D01*
X299849Y772656D01*
X302756Y769749D01*
X306554Y768176D01*
X310666Y768176D01*
X314464Y769749D01*
X317371Y772656D01*
X318007Y774192D01*
X333259Y774192D01*
X338289Y779222D01*
X346846Y779222D01*
X346846Y770128D01*
X339841Y770128D01*
X336031Y766318D01*
X268721Y766318D01*
X259842Y757439D01*
X259842Y684795D01*
X255778Y688859D01*
X255778Y693518D01*
X257035Y694775D01*
X258036Y697192D01*
X258036Y699808D01*
X257035Y702225D01*
X256216Y703044D01*
X257035Y703863D01*
X258036Y706280D01*
X258036Y708896D01*
X257035Y711313D01*
X255185Y713163D01*
X252768Y714164D01*
X250152Y714164D01*
X247735Y713163D01*
X246478Y711906D01*
X244789Y711906D01*
X242841Y709958D01*
X240312Y707429D01*
X240312Y693882D01*
X242570Y691624D01*
X242570Y683388D01*
X245099Y680858D01*
X245099Y680858D01*
X250190Y675768D01*
X250190Y620757D01*
X248986Y621256D01*
X246370Y621256D01*
X243953Y620255D01*
X242103Y618405D01*
X241102Y615988D01*
X241102Y613372D01*
X242062Y611054D01*
X242062Y603091D01*
X240877Y603091D01*
X238460Y602090D01*
X236611Y600240D01*
X235609Y597823D01*
X235609Y595207D01*
X236611Y592790D01*
X238460Y590941D01*
X240792Y589975D01*
X240792Y578115D01*
X240256Y578651D01*
X240256Y580428D01*
X239255Y582845D01*
X237405Y584695D01*
X234988Y585696D01*
X232372Y585696D01*
X231521Y585343D01*
X231521Y793559D01*
X229723Y797900D01*
X226400Y801223D01*
X222059Y803021D01*
X218440Y803021D01*
X218440Y880618D01*
X440545Y880618D01*
X434524Y877142D01*
X428418Y871036D01*
X424101Y863558D01*
X421866Y855217D01*
X421866Y846583D01*
X424101Y838242D01*
X428418Y830764D01*
X434524Y824658D01*
X442002Y820341D01*
X450343Y818106D01*
X458977Y818106D01*
X467318Y820341D01*
X474796Y824658D01*
X480902Y830764D01*
X483616Y835465D01*
X483616Y764377D01*
X483311Y764797D01*
X482095Y766013D01*
X480704Y767023D01*
X479173Y767804D01*
X477538Y768335D01*
X475996Y768579D01*
X475996Y751586D01*
X473964Y751586D01*
X473964Y768579D01*
X472422Y768335D01*
X470787Y767804D01*
X469256Y767023D01*
X467865Y766013D01*
X466649Y764797D01*
X465639Y763406D01*
X464858Y761875D01*
X464327Y760240D01*
X464058Y758542D01*
X464058Y751586D01*
X473964Y751586D01*
X473964Y749554D01*
X464058Y749554D01*
X464058Y742598D01*
X464327Y740900D01*
X464858Y739265D01*
X465639Y737734D01*
X466649Y736343D01*
X467865Y735127D01*
X469256Y734117D01*
X470787Y733336D01*
X472422Y732805D01*
X473964Y732561D01*
X473964Y749554D01*
X475996Y749554D01*
X475996Y732561D01*
X477538Y732805D01*
X479173Y733336D01*
X480704Y734117D01*
X482095Y735127D01*
X483311Y736343D01*
X483616Y736763D01*
X483616Y709767D01*
X483311Y710187D01*
X482095Y711403D01*
X480704Y712413D01*
X479173Y713194D01*
X477538Y713725D01*
X475996Y713969D01*
X475996Y696976D01*
X473964Y696976D01*
X473964Y713969D01*
X472422Y713725D01*
X470787Y713194D01*
X469256Y712413D01*
X467865Y711403D01*
X466649Y710187D01*
X465639Y708796D01*
X464858Y707265D01*
X464327Y705630D01*
X464058Y703932D01*
X464058Y696976D01*
X473964Y696976D01*
X473964Y694944D01*
X464058Y694944D01*
X464058Y687988D01*
X464327Y686290D01*
X464858Y684655D01*
X465639Y683124D01*
X466649Y681733D01*
X467865Y680517D01*
X469256Y679507D01*
X470787Y678726D01*
X472422Y678195D01*
X473964Y677951D01*
X473964Y694944D01*
X475996Y694944D01*
X475996Y677951D01*
X477538Y678195D01*
X479173Y678726D01*
X480704Y679507D01*
X482095Y680517D01*
X483311Y681733D01*
X483616Y682153D01*
X483616Y655157D01*
X483311Y655577D01*
X482095Y656793D01*
X480704Y657803D01*
X479173Y658584D01*
X477538Y659115D01*
X475996Y659359D01*
X475996Y642366D01*
X473964Y642366D01*
X473964Y659359D01*
X472422Y659115D01*
X470787Y658584D01*
X469256Y657803D01*
X467865Y656793D01*
X466649Y655577D01*
X465639Y654186D01*
X464858Y652655D01*
X464327Y651020D01*
X464058Y649322D01*
X464058Y642366D01*
X473964Y642366D01*
X473964Y640334D01*
X464058Y640334D01*
X464058Y633378D01*
X464327Y631680D01*
X464858Y630045D01*
X465639Y628514D01*
X466649Y627123D01*
X467865Y625907D01*
X469256Y624897D01*
X470787Y624116D01*
X472422Y623585D01*
X473964Y623341D01*
X473964Y640334D01*
X475996Y640334D01*
X475996Y623341D01*
X477538Y623585D01*
X479173Y624116D01*
X480704Y624897D01*
X482095Y625907D01*
X483311Y627123D01*
X483616Y627543D01*
X483616Y560081D01*
X480579Y563118D01*
X471209Y563118D01*
X471948Y563857D01*
X473456Y567498D01*
X473456Y585662D01*
X471948Y589303D01*
X469161Y592090D01*
X465708Y593520D01*
X465708Y599516D01*
X467047Y599516D01*
X468684Y601153D01*
X468684Y612967D01*
X467047Y614604D01*
X455733Y614604D01*
X454096Y612967D01*
X454096Y601153D01*
X455733Y599516D01*
X439674Y686878D02*
X439674Y705042D01*
X439674Y686878D02*
X441182Y683237D01*
X443969Y680450D01*
X447610Y678942D01*
X451550Y678942D01*
X455191Y680450D01*
X457978Y683237D01*
X459486Y686878D01*
X459486Y705042D01*
X457978Y708683D01*
X455191Y711470D01*
X451550Y712978D01*
X447610Y712978D01*
X443969Y711470D01*
X441182Y708683D01*
X439674Y705042D01*
X439674Y650432D02*
X439674Y632268D01*
X441182Y628627D01*
X443969Y625840D01*
X447610Y624332D01*
X451550Y624332D01*
X455191Y625840D01*
X457978Y628627D01*
X459486Y632268D01*
X459486Y650432D01*
X457978Y654073D01*
X455191Y656860D01*
X451550Y658368D01*
X447610Y658368D01*
X443969Y656860D01*
X441182Y654073D01*
X439674Y650432D01*
X367797Y761084D02*
X348483Y761084D01*
X346846Y759447D01*
X346846Y749858D01*
X344022Y749858D01*
X342815Y751065D01*
X340398Y752066D01*
X337782Y752066D01*
X335365Y751065D01*
X333515Y749215D01*
X332514Y746798D01*
X332514Y744182D01*
X333515Y741765D01*
X335365Y739915D01*
X337782Y738914D01*
X340398Y738914D01*
X342815Y739915D01*
X344122Y741222D01*
X346846Y741222D01*
X346846Y731633D01*
X348483Y729996D01*
X353822Y729996D01*
X353822Y717031D01*
X358891Y711962D01*
X367706Y711962D01*
X367706Y710623D01*
X369343Y708986D01*
X378157Y708986D01*
X379794Y710623D01*
X379794Y721937D01*
X378157Y723574D01*
X369343Y723574D01*
X367706Y721937D01*
X367706Y720598D01*
X362469Y720598D01*
X362458Y720609D01*
X362458Y729996D01*
X367797Y729996D01*
X369434Y731633D01*
X369434Y759447D01*
X367797Y761084D01*
X293544Y776454D02*
X293544Y780566D01*
X291971Y784364D01*
X289064Y787271D01*
X285266Y788844D01*
X281154Y788844D01*
X277356Y787271D01*
X274449Y784364D01*
X272876Y780566D01*
X272876Y776454D01*
X274449Y772656D01*
X277356Y769749D01*
X281154Y768176D01*
X285266Y768176D01*
X289064Y769749D01*
X291971Y772656D01*
X293544Y776454D01*
X398414Y740377D02*
X398414Y729063D01*
X398414Y740377D02*
X396777Y742014D01*
X380463Y742014D01*
X378826Y740377D01*
X378826Y729063D01*
X380463Y727426D01*
X384302Y727426D01*
X384302Y723574D01*
X383843Y723574D01*
X382206Y721937D01*
X382206Y710623D01*
X383843Y708986D01*
X392657Y708986D01*
X394294Y710623D01*
X394294Y721937D01*
X392938Y723293D01*
X392938Y727426D01*
X396777Y727426D01*
X398414Y729063D01*
X414274Y741488D02*
X414274Y759652D01*
X414274Y741488D02*
X415782Y737847D01*
X418569Y735060D01*
X419862Y734524D01*
X419862Y712006D01*
X418569Y711470D01*
X415782Y708683D01*
X414274Y705042D01*
X414274Y686878D01*
X415782Y683237D01*
X418569Y680450D01*
X422210Y678942D01*
X426150Y678942D01*
X429791Y680450D01*
X432578Y683237D01*
X434086Y686878D01*
X434086Y705042D01*
X432578Y708683D01*
X429791Y711470D01*
X428498Y712006D01*
X428498Y734524D01*
X429791Y735060D01*
X432578Y737847D01*
X434086Y741488D01*
X434086Y759652D01*
X432578Y763293D01*
X429791Y766080D01*
X426150Y767588D01*
X422210Y767588D01*
X418569Y766080D01*
X415782Y763293D01*
X414274Y759652D01*
X439674Y759652D02*
X439674Y741488D01*
X441182Y737847D01*
X443969Y735060D01*
X447610Y733552D01*
X451550Y733552D01*
X455191Y735060D01*
X457978Y737847D01*
X459486Y741488D01*
X459486Y759652D01*
X457978Y763293D01*
X455191Y766080D01*
X451550Y767588D01*
X447610Y767588D01*
X443969Y766080D01*
X441182Y763293D01*
X439674Y759652D01*
X395120Y464980D02*
X395120Y456170D01*
X395120Y464980D02*
X395120Y464980D01*
X395120Y456170D01*
X396649Y456170D01*
X396649Y455257D01*
X396780Y454942D01*
X396777Y454944D01*
X392938Y454944D01*
X392938Y456170D01*
X395120Y456170D01*
X398414Y250107D02*
X398414Y238793D01*
X398414Y250107D02*
X396777Y251744D01*
X392938Y251744D01*
X392938Y252970D01*
X395120Y252970D01*
X395120Y261780D01*
X395120Y261780D01*
X395120Y252970D01*
X398122Y252970D01*
X399091Y253230D01*
X399959Y253731D01*
X400669Y254441D01*
X401170Y255309D01*
X401430Y256278D01*
X401430Y261780D01*
X395120Y261780D01*
X395120Y261780D01*
X401430Y261780D01*
X401430Y267282D01*
X401170Y268251D01*
X400669Y269119D01*
X399959Y269829D01*
X399091Y270330D01*
X398122Y270590D01*
X395120Y270590D01*
X395120Y261780D01*
X395120Y261780D01*
X395120Y270590D01*
X392938Y270590D01*
X392938Y274647D01*
X393914Y275623D01*
X393914Y286512D01*
X415809Y286512D01*
X418338Y289041D01*
X422910Y293613D01*
X422910Y199909D01*
X420359Y197358D01*
X395379Y197358D01*
X395564Y197543D01*
X395564Y208857D01*
X393927Y210494D01*
X393838Y210494D01*
X393838Y218156D01*
X396777Y218156D01*
X398414Y219793D01*
X398414Y231107D01*
X396777Y232744D01*
X380463Y232744D01*
X378826Y231107D01*
X378826Y219793D01*
X380463Y218156D01*
X385202Y218156D01*
X385202Y210494D01*
X385113Y210494D01*
X383476Y208857D01*
X383476Y197543D01*
X383661Y197358D01*
X380879Y197358D01*
X381064Y197543D01*
X381064Y208857D01*
X379427Y210494D01*
X370613Y210494D01*
X368976Y208857D01*
X368976Y207518D01*
X366279Y207518D01*
X362458Y211339D01*
X362458Y220726D01*
X367797Y220726D01*
X369434Y222363D01*
X369434Y250177D01*
X367797Y251814D01*
X348483Y251814D01*
X346846Y250177D01*
X346846Y240588D01*
X288759Y240588D01*
X287528Y241819D01*
X287528Y259843D01*
X289064Y260479D01*
X291971Y263386D01*
X293544Y267184D01*
X293544Y271296D01*
X291971Y275094D01*
X289064Y278001D01*
X287528Y278637D01*
X287528Y285080D01*
X289522Y284254D01*
X292138Y284254D01*
X294555Y285255D01*
X295812Y286512D01*
X346846Y286512D01*
X346846Y278588D01*
X337251Y278588D01*
X332221Y273558D01*
X318007Y273558D01*
X317371Y275094D01*
X314464Y278001D01*
X310666Y279574D01*
X306554Y279574D01*
X302756Y278001D01*
X299849Y275094D01*
X298276Y271296D01*
X298276Y267184D01*
X299849Y263386D01*
X302756Y260479D01*
X306554Y258906D01*
X310666Y258906D01*
X314464Y260479D01*
X317371Y263386D01*
X318007Y264922D01*
X335799Y264922D01*
X340829Y269952D01*
X346846Y269952D01*
X346846Y260363D01*
X348483Y258726D01*
X367461Y258726D01*
X367805Y257895D01*
X369655Y256045D01*
X372072Y255044D01*
X374688Y255044D01*
X376826Y255930D01*
X376826Y255623D01*
X378463Y253986D01*
X384302Y253986D01*
X384302Y251744D01*
X380463Y251744D01*
X378826Y250107D01*
X378826Y238793D01*
X380463Y237156D01*
X396777Y237156D01*
X398414Y238793D01*
X398414Y148507D02*
X398414Y137193D01*
X398414Y148507D02*
X396777Y150144D01*
X392938Y150144D01*
X392938Y151370D01*
X395120Y151370D01*
X395120Y160180D01*
X395120Y160180D01*
X395120Y151370D01*
X398122Y151370D01*
X399091Y151630D01*
X399959Y152131D01*
X400669Y152841D01*
X401170Y153709D01*
X401430Y154678D01*
X401430Y160180D01*
X395120Y160180D01*
X395120Y160180D01*
X401430Y160180D01*
X401430Y165682D01*
X401170Y166651D01*
X400669Y167519D01*
X399959Y168229D01*
X399091Y168730D01*
X398122Y168990D01*
X395120Y168990D01*
X395120Y160180D01*
X395120Y160180D01*
X395120Y168990D01*
X392938Y168990D01*
X392938Y173047D01*
X393914Y174023D01*
X393914Y186337D01*
X392277Y187974D01*
X384963Y187974D01*
X383326Y186337D01*
X383326Y184498D01*
X377781Y184498D01*
X370271Y176988D01*
X369434Y176988D01*
X369434Y186577D01*
X367797Y188214D01*
X356264Y188214D01*
X356772Y188722D01*
X420359Y188722D01*
X422910Y186171D01*
X422910Y169038D01*
X428752Y163196D01*
X428752Y117591D01*
X431281Y115062D01*
X432562Y113781D01*
X435091Y111252D01*
X440123Y111252D01*
X440742Y109759D01*
X444059Y106442D01*
X448394Y104646D01*
X471086Y104646D01*
X475421Y106442D01*
X478738Y109759D01*
X480534Y114094D01*
X480534Y118786D01*
X478738Y123121D01*
X475421Y126438D01*
X471086Y128234D01*
X448394Y128234D01*
X444059Y126438D01*
X440742Y123121D01*
X439402Y119888D01*
X438669Y119888D01*
X437388Y121169D01*
X437388Y163722D01*
X439763Y163722D01*
X440742Y161359D01*
X444059Y158042D01*
X448394Y156246D01*
X471086Y156246D01*
X475421Y158042D01*
X478738Y161359D01*
X480534Y165694D01*
X480534Y170386D01*
X478738Y174721D01*
X475421Y178038D01*
X471086Y179834D01*
X448394Y179834D01*
X444059Y178038D01*
X440742Y174721D01*
X439763Y172358D01*
X438269Y172358D01*
X436118Y174509D01*
X436118Y289041D01*
X437399Y290322D01*
X439939Y290322D01*
X442468Y292851D01*
X443749Y294132D01*
X446278Y296661D01*
X446278Y302779D01*
X444726Y304331D01*
X444726Y306108D01*
X443725Y308525D01*
X441875Y310375D01*
X439458Y311376D01*
X436842Y311376D01*
X436118Y311076D01*
X436118Y329681D01*
X437399Y330962D01*
X447255Y330962D01*
X444059Y329638D01*
X440742Y326321D01*
X438946Y321986D01*
X438946Y317294D01*
X440742Y312959D01*
X444059Y309642D01*
X448394Y307846D01*
X471086Y307846D01*
X475421Y309642D01*
X478472Y312693D01*
X478472Y276587D01*
X475421Y279638D01*
X471086Y281434D01*
X448394Y281434D01*
X444059Y279638D01*
X440742Y276321D01*
X438946Y271986D01*
X438946Y267294D01*
X440742Y262959D01*
X444059Y259642D01*
X448394Y257846D01*
X471086Y257846D01*
X475421Y259642D01*
X478738Y262959D01*
X479551Y264922D01*
X481849Y264922D01*
X483616Y266689D01*
X483616Y-22665D01*
X480902Y-17964D01*
X474796Y-11858D01*
X467318Y-7541D01*
X458977Y-5306D01*
X450343Y-5306D01*
X442002Y-7541D01*
X434524Y-11858D01*
X428418Y-17964D01*
X424101Y-25442D01*
X421866Y-33783D01*
X421866Y-42417D01*
X424101Y-50758D01*
X428418Y-58236D01*
X434524Y-64342D01*
X439665Y-67310D01*
X219710Y-67310D01*
X219710Y11049D01*
X222059Y11049D01*
X226400Y12847D01*
X229723Y16170D01*
X231521Y20511D01*
X231521Y572897D01*
X232372Y572544D01*
X234149Y572544D01*
X236220Y570473D01*
X236220Y330072D01*
X234487Y328340D01*
X231958Y325810D01*
X231958Y298912D01*
X234487Y296383D01*
X235959Y294911D01*
X238488Y292382D01*
X241261Y292382D01*
X252222Y281421D01*
X252222Y281421D01*
X254751Y278892D01*
X261101Y278892D01*
X264922Y275071D01*
X264922Y262371D01*
X271272Y256021D01*
X271272Y227849D01*
X271261Y227838D01*
X268732Y225309D01*
X268732Y209821D01*
X269804Y208749D01*
X269804Y206972D01*
X270805Y204555D01*
X272655Y202705D01*
X275072Y201704D01*
X277688Y201704D01*
X278892Y202203D01*
X278892Y177037D01*
X277356Y176401D01*
X274449Y173494D01*
X272876Y169696D01*
X272876Y165584D01*
X274449Y161786D01*
X277356Y158879D01*
X278892Y158243D01*
X278892Y136641D01*
X280863Y134670D01*
X278892Y132699D01*
X278892Y75437D01*
X277356Y74801D01*
X274449Y71894D01*
X272876Y68096D01*
X272876Y63984D01*
X274449Y60186D01*
X277356Y57279D01*
X278892Y56643D01*
X278892Y36311D01*
X287721Y27482D01*
X346846Y27482D01*
X346846Y17893D01*
X348483Y16256D01*
X353822Y16256D01*
X353822Y9641D01*
X358902Y4561D01*
X361431Y2032D01*
X422159Y2032D01*
X424688Y4561D01*
X424688Y4561D01*
X425599Y5472D01*
X425599Y5472D01*
X428128Y8001D01*
X428128Y11756D01*
X428217Y11756D01*
X429854Y13393D01*
X429854Y24707D01*
X428217Y26344D01*
X419403Y26344D01*
X417766Y24707D01*
X417766Y13393D01*
X419403Y11756D01*
X419492Y11756D01*
X419492Y11579D01*
X418581Y10668D01*
X365009Y10668D01*
X362458Y13219D01*
X362458Y16256D01*
X367797Y16256D01*
X369434Y17893D01*
X369434Y45707D01*
X367797Y47344D01*
X348483Y47344D01*
X346846Y45707D01*
X346846Y36118D01*
X291299Y36118D01*
X287528Y39889D01*
X287528Y56643D01*
X289064Y57279D01*
X291971Y60186D01*
X293544Y63984D01*
X293544Y68096D01*
X291971Y71894D01*
X289064Y74801D01*
X287528Y75437D01*
X287528Y129121D01*
X288759Y130352D01*
X346846Y130352D01*
X346846Y120763D01*
X348483Y119126D01*
X353822Y119126D01*
X353822Y103621D01*
X360161Y97282D01*
X367706Y97282D01*
X367706Y95943D01*
X369343Y94306D01*
X378157Y94306D01*
X379794Y95943D01*
X379794Y107257D01*
X378157Y108894D01*
X369343Y108894D01*
X367706Y107257D01*
X367706Y105918D01*
X363739Y105918D01*
X362458Y107199D01*
X362458Y119126D01*
X367797Y119126D01*
X369434Y120763D01*
X369434Y148577D01*
X367797Y150214D01*
X348483Y150214D01*
X346846Y148577D01*
X346846Y138988D01*
X288759Y138988D01*
X287528Y140219D01*
X287528Y158243D01*
X289064Y158879D01*
X291971Y161786D01*
X293544Y165584D01*
X293544Y169696D01*
X291971Y173494D01*
X289064Y176401D01*
X287528Y177037D01*
X287528Y230721D01*
X288759Y231952D01*
X346846Y231952D01*
X346846Y222363D01*
X348483Y220726D01*
X353822Y220726D01*
X353822Y207761D01*
X362701Y198882D01*
X368976Y198882D01*
X368976Y197543D01*
X369161Y197358D01*
X356772Y197358D01*
X355515Y198615D01*
X353098Y199616D01*
X350482Y199616D01*
X348065Y198615D01*
X346215Y196765D01*
X345214Y194348D01*
X345214Y191732D01*
X346215Y189315D01*
X347899Y187631D01*
X346846Y186577D01*
X346846Y177038D01*
X336031Y177038D01*
X333502Y174509D01*
X330951Y171958D01*
X318007Y171958D01*
X317371Y173494D01*
X314464Y176401D01*
X310666Y177974D01*
X306554Y177974D01*
X302756Y176401D01*
X299849Y173494D01*
X298276Y169696D01*
X298276Y165584D01*
X299849Y161786D01*
X302756Y158879D01*
X306554Y157306D01*
X310666Y157306D01*
X314464Y158879D01*
X317371Y161786D01*
X318007Y163322D01*
X334529Y163322D01*
X339609Y168402D01*
X346846Y168402D01*
X346846Y158763D01*
X348483Y157126D01*
X367797Y157126D01*
X368457Y157786D01*
X369075Y156295D01*
X370925Y154445D01*
X373342Y153444D01*
X375958Y153444D01*
X376981Y153868D01*
X378463Y152386D01*
X384302Y152386D01*
X384302Y150144D01*
X380463Y150144D01*
X378826Y148507D01*
X378826Y137193D01*
X380463Y135556D01*
X396777Y135556D01*
X398414Y137193D01*
X448394Y229834D02*
X471086Y229834D01*
X448394Y229834D02*
X444059Y228038D01*
X440742Y224721D01*
X438946Y220386D01*
X438946Y215694D01*
X440742Y211359D01*
X444059Y208042D01*
X448394Y206246D01*
X471086Y206246D01*
X475421Y208042D01*
X478738Y211359D01*
X480534Y215694D01*
X480534Y220386D01*
X478738Y224721D01*
X475421Y228038D01*
X471086Y229834D01*
X393850Y57310D02*
X393850Y48500D01*
X393850Y57310D02*
X393850Y57310D01*
X393850Y48500D01*
X396852Y48500D01*
X397821Y48760D01*
X398689Y49261D01*
X399399Y49971D01*
X399900Y50839D01*
X400160Y51808D01*
X400160Y57310D01*
X393850Y57310D01*
X393850Y57310D01*
X400160Y57310D01*
X400160Y62812D01*
X399900Y63781D01*
X399399Y64649D01*
X398689Y65359D01*
X397821Y65860D01*
X396852Y66120D01*
X393850Y66120D01*
X393850Y57310D01*
X393850Y57310D01*
X393850Y66120D01*
X391668Y66120D01*
X391668Y70177D01*
X392644Y71153D01*
X392644Y83467D01*
X391007Y85104D01*
X383693Y85104D01*
X382056Y83467D01*
X382056Y81628D01*
X380321Y81628D01*
X372811Y74118D01*
X369434Y74118D01*
X369434Y83707D01*
X367797Y85344D01*
X348483Y85344D01*
X346846Y83707D01*
X346846Y74118D01*
X339791Y74118D01*
X336031Y70358D01*
X318007Y70358D01*
X317371Y71894D01*
X314464Y74801D01*
X310666Y76374D01*
X306554Y76374D01*
X302756Y74801D01*
X299849Y71894D01*
X298276Y68096D01*
X298276Y63984D01*
X299849Y60186D01*
X302756Y57279D01*
X306554Y55706D01*
X310666Y55706D01*
X314464Y57279D01*
X317371Y60186D01*
X318007Y61722D01*
X339609Y61722D01*
X343369Y65482D01*
X346846Y65482D01*
X346846Y55893D01*
X348483Y54256D01*
X367461Y54256D01*
X367805Y53425D01*
X369655Y51575D01*
X372072Y50574D01*
X374688Y50574D01*
X375711Y50998D01*
X377193Y49516D01*
X383032Y49516D01*
X383032Y46004D01*
X380463Y46004D01*
X378826Y44367D01*
X378826Y33053D01*
X380463Y31416D01*
X396777Y31416D01*
X398414Y33053D01*
X398414Y44367D01*
X396777Y46004D01*
X391668Y46004D01*
X391668Y48500D01*
X393850Y48500D01*
X392657Y94306D02*
X383843Y94306D01*
X392657Y94306D02*
X394294Y95943D01*
X394294Y107257D01*
X392657Y108894D01*
X392568Y108894D01*
X392568Y116556D01*
X396777Y116556D01*
X398414Y118193D01*
X398414Y129507D01*
X396777Y131144D01*
X380463Y131144D01*
X378826Y129507D01*
X378826Y118193D01*
X380463Y116556D01*
X383932Y116556D01*
X383932Y108894D01*
X383843Y108894D01*
X382206Y107257D01*
X382206Y95943D01*
X383843Y94306D01*
X398414Y14732D02*
X398414Y14053D01*
X398414Y14732D02*
X403266Y14732D01*
X403266Y13393D01*
X404903Y11756D01*
X413717Y11756D01*
X415354Y13393D01*
X415354Y24707D01*
X413717Y26344D01*
X404903Y26344D01*
X403266Y24707D01*
X403266Y23368D01*
X398414Y23368D01*
X398414Y25367D01*
X396777Y27004D01*
X380463Y27004D01*
X378826Y25367D01*
X378826Y14053D01*
X380463Y12416D01*
X396777Y12416D01*
X398414Y14053D01*
X481235Y63440D02*
X481509Y65170D01*
X461010Y65170D01*
X461010Y67710D01*
X481509Y67710D01*
X481235Y69440D01*
X480611Y71357D01*
X479696Y73154D01*
X478511Y74785D01*
X477085Y76211D01*
X475454Y77396D01*
X473657Y78311D01*
X471740Y78935D01*
X469748Y79250D01*
X461010Y79250D01*
X461010Y67710D01*
X458470Y67710D01*
X458470Y79250D01*
X449732Y79250D01*
X447740Y78935D01*
X445823Y78311D01*
X444026Y77396D01*
X442395Y76211D01*
X440969Y74785D01*
X439784Y73154D01*
X438869Y71357D01*
X438245Y69440D01*
X437971Y67710D01*
X458470Y67710D01*
X458470Y65170D01*
X437971Y65170D01*
X438245Y63440D01*
X438869Y61523D01*
X439784Y59726D01*
X440969Y58095D01*
X442395Y56669D01*
X444026Y55484D01*
X445823Y54569D01*
X447740Y53945D01*
X449732Y53630D01*
X458470Y53630D01*
X458470Y65170D01*
X461010Y65170D01*
X461010Y53630D01*
X469748Y53630D01*
X471740Y53945D01*
X473657Y54569D01*
X475454Y55484D01*
X477085Y56669D01*
X478511Y58095D01*
X479696Y59726D01*
X480611Y61523D01*
X481235Y63440D01*
X395732Y488431D02*
X395732Y492241D01*
X395732Y488431D02*
X398261Y485902D01*
X402441Y481722D01*
X402916Y481722D01*
X402916Y481633D01*
X404553Y479996D01*
X415867Y479996D01*
X415925Y480054D01*
X415983Y479996D01*
X427297Y479996D01*
X427355Y480054D01*
X427413Y479996D01*
X438727Y479996D01*
X438785Y480054D01*
X438843Y479996D01*
X450157Y479996D01*
X450215Y480054D01*
X450273Y479996D01*
X461587Y479996D01*
X462280Y480689D01*
X462973Y479996D01*
X474287Y479996D01*
X474345Y480054D01*
X474403Y479996D01*
X483616Y479996D01*
X483616Y477584D01*
X474403Y477584D01*
X474345Y477526D01*
X474287Y477584D01*
X462973Y477584D01*
X462280Y476891D01*
X461587Y477584D01*
X450273Y477584D01*
X450215Y477526D01*
X450157Y477584D01*
X438843Y477584D01*
X438785Y477526D01*
X438727Y477584D01*
X427413Y477584D01*
X427355Y477526D01*
X427297Y477584D01*
X415983Y477584D01*
X415925Y477526D01*
X415867Y477584D01*
X404553Y477584D01*
X402916Y475947D01*
X402916Y473941D01*
X400898Y471923D01*
X400669Y472319D01*
X399959Y473029D01*
X399091Y473530D01*
X398122Y473790D01*
X395120Y473790D01*
X395120Y464980D01*
X395120Y464980D01*
X395120Y473790D01*
X392938Y473790D01*
X392938Y477847D01*
X393914Y478823D01*
X393914Y491137D01*
X392799Y492252D01*
X395721Y492252D01*
X395732Y492241D01*
X288785Y503005D02*
X286935Y501155D01*
X288785Y503005D02*
X289786Y505422D01*
X289786Y508038D01*
X288785Y510455D01*
X287528Y511712D01*
X287528Y531661D01*
X291349Y535482D01*
X346846Y535482D01*
X346846Y525893D01*
X348483Y524256D01*
X353822Y524256D01*
X353822Y512561D01*
X356351Y510032D01*
X362701Y503682D01*
X368976Y503682D01*
X368976Y502343D01*
X370431Y500888D01*
X286290Y500888D01*
X286935Y501155D01*
X346846Y491377D02*
X347721Y492252D01*
X346846Y491377D02*
X346846Y482854D01*
X343673Y482854D01*
X343419Y483108D01*
X339841Y483108D01*
X333491Y476758D01*
X318007Y476758D01*
X317371Y478294D01*
X314464Y481201D01*
X310666Y482774D01*
X306554Y482774D01*
X302756Y481201D01*
X299849Y478294D01*
X298276Y474496D01*
X298276Y470384D01*
X299849Y466586D01*
X302756Y463679D01*
X306554Y462106D01*
X310666Y462106D01*
X314464Y463679D01*
X317371Y466586D01*
X318007Y468122D01*
X337069Y468122D01*
X343673Y474726D01*
X346846Y474726D01*
X346846Y463563D01*
X348483Y461926D01*
X367461Y461926D01*
X367805Y461095D01*
X369655Y459245D01*
X372072Y458244D01*
X374688Y458244D01*
X376826Y459130D01*
X376826Y458823D01*
X378463Y457186D01*
X384302Y457186D01*
X384302Y454944D01*
X380463Y454944D01*
X378826Y453307D01*
X378826Y441993D01*
X380463Y440356D01*
X396777Y440356D01*
X398414Y441993D01*
X398414Y452076D01*
X399500Y450990D01*
X401917Y449989D01*
X404533Y449989D01*
X405230Y450278D01*
X405230Y443820D01*
X411290Y443820D01*
X411290Y443820D01*
X405230Y443820D01*
X405230Y434943D01*
X405490Y433974D01*
X405991Y433106D01*
X406701Y432396D01*
X407569Y431895D01*
X408538Y431635D01*
X409682Y431635D01*
X408714Y429298D01*
X408714Y426682D01*
X409715Y424265D01*
X411565Y422415D01*
X413982Y421414D01*
X416598Y421414D01*
X419015Y422415D01*
X420865Y424265D01*
X421866Y426682D01*
X421866Y428459D01*
X422108Y428701D01*
X422108Y432651D01*
X465472Y432651D01*
X465472Y429842D01*
X464805Y429175D01*
X463804Y426758D01*
X463804Y424142D01*
X464805Y421725D01*
X466019Y420511D01*
X465595Y420087D01*
X464594Y417670D01*
X464594Y415054D01*
X465595Y412637D01*
X466851Y411381D01*
X465595Y410125D01*
X464594Y407708D01*
X464594Y405092D01*
X465595Y402675D01*
X467445Y400825D01*
X469862Y399824D01*
X472478Y399824D01*
X474886Y400821D01*
X474582Y400088D01*
X474582Y397472D01*
X475583Y395055D01*
X477433Y393205D01*
X478282Y392853D01*
X478282Y385229D01*
X407883Y385229D01*
X406246Y383592D01*
X406246Y364528D01*
X407883Y362891D01*
X458972Y362891D01*
X458972Y348742D01*
X430034Y348742D01*
X420867Y339576D01*
X418338Y337046D01*
X418338Y324847D01*
X417134Y325346D01*
X414518Y325346D01*
X412101Y324345D01*
X410251Y322495D01*
X409250Y320078D01*
X409250Y317941D01*
X408527Y317218D01*
X406146Y314837D01*
X406146Y309433D01*
X403380Y306667D01*
X403380Y303784D01*
X394294Y303784D01*
X394294Y314267D01*
X392657Y315904D01*
X392568Y315904D01*
X392568Y319756D01*
X396777Y319756D01*
X398414Y321393D01*
X398414Y332707D01*
X396777Y334344D01*
X380463Y334344D01*
X378826Y332707D01*
X378826Y321393D01*
X380463Y319756D01*
X383932Y319756D01*
X383932Y315904D01*
X383843Y315904D01*
X382206Y314267D01*
X382206Y303784D01*
X379794Y303784D01*
X379794Y314267D01*
X378157Y315904D01*
X369343Y315904D01*
X367706Y314267D01*
X367706Y312928D01*
X362469Y312928D01*
X362458Y312939D01*
X362458Y322326D01*
X367797Y322326D01*
X369434Y323963D01*
X369434Y351777D01*
X367797Y353414D01*
X348483Y353414D01*
X346846Y351777D01*
X346846Y342188D01*
X290029Y342188D01*
X287528Y344689D01*
X287528Y361443D01*
X289064Y362079D01*
X291971Y364986D01*
X293544Y368784D01*
X293544Y372896D01*
X291971Y376694D01*
X289064Y379601D01*
X287528Y380237D01*
X287528Y395372D01*
X289522Y394546D01*
X292138Y394546D01*
X294555Y395547D01*
X295812Y396804D01*
X301311Y396804D01*
X305319Y400812D01*
X352310Y400812D01*
X355114Y398007D01*
X357644Y395478D01*
X361570Y395478D01*
X361950Y395098D01*
X361950Y394162D01*
X364698Y391414D01*
X348483Y391414D01*
X346846Y389777D01*
X346846Y380188D01*
X337251Y380188D01*
X332221Y375158D01*
X318007Y375158D01*
X317371Y376694D01*
X314464Y379601D01*
X310666Y381174D01*
X306554Y381174D01*
X302756Y379601D01*
X299849Y376694D01*
X298276Y372896D01*
X298276Y368784D01*
X299849Y364986D01*
X302756Y362079D01*
X306554Y360506D01*
X310666Y360506D01*
X314464Y362079D01*
X317371Y364986D01*
X318007Y366522D01*
X335799Y366522D01*
X340829Y371552D01*
X346846Y371552D01*
X346846Y361963D01*
X348483Y360326D01*
X367461Y360326D01*
X367805Y359495D01*
X369655Y357645D01*
X372072Y356644D01*
X374688Y356644D01*
X376826Y357530D01*
X376826Y357223D01*
X378463Y355586D01*
X384302Y355586D01*
X384302Y353344D01*
X380463Y353344D01*
X378826Y351707D01*
X378826Y340393D01*
X380463Y338756D01*
X396777Y338756D01*
X398414Y340393D01*
X398414Y351707D01*
X396777Y353344D01*
X392938Y353344D01*
X392938Y354570D01*
X395120Y354570D01*
X395120Y363380D01*
X395120Y363380D01*
X395120Y354570D01*
X398122Y354570D01*
X399091Y354830D01*
X399959Y355331D01*
X400669Y356041D01*
X401170Y356909D01*
X401430Y357878D01*
X401430Y363380D01*
X395120Y363380D01*
X395120Y363380D01*
X401430Y363380D01*
X401430Y368882D01*
X401170Y369851D01*
X400669Y370719D01*
X399959Y371429D01*
X399091Y371930D01*
X398122Y372190D01*
X395120Y372190D01*
X395120Y363380D01*
X395120Y363380D01*
X395120Y372190D01*
X392938Y372190D01*
X392938Y376247D01*
X393914Y377223D01*
X393914Y389537D01*
X392277Y391174D01*
X384963Y391174D01*
X383326Y389537D01*
X383326Y387698D01*
X379975Y387698D01*
X380259Y388384D01*
X380259Y391000D01*
X379258Y393417D01*
X378146Y394528D01*
X378673Y395055D01*
X379674Y397472D01*
X379674Y400088D01*
X378773Y402262D01*
X379794Y403283D01*
X379794Y414597D01*
X378157Y416234D01*
X369343Y416234D01*
X367706Y414597D01*
X367706Y413258D01*
X365009Y413258D01*
X362458Y415809D01*
X362458Y423926D01*
X367797Y423926D01*
X369434Y425563D01*
X369434Y453377D01*
X367797Y455014D01*
X348483Y455014D01*
X346846Y453377D01*
X346846Y443788D01*
X290029Y443788D01*
X287528Y446289D01*
X287528Y463043D01*
X289064Y463679D01*
X291971Y466586D01*
X293544Y470384D01*
X293544Y474496D01*
X291971Y478294D01*
X289064Y481201D01*
X285266Y482774D01*
X281154Y482774D01*
X277356Y481201D01*
X274449Y478294D01*
X272876Y474496D01*
X272876Y470384D01*
X274449Y466586D01*
X277356Y463679D01*
X278892Y463043D01*
X278892Y442711D01*
X282133Y439470D01*
X281421Y438758D01*
X278892Y436229D01*
X278892Y416287D01*
X277688Y416786D01*
X276098Y416786D01*
X276098Y428509D01*
X263398Y441209D01*
X263398Y497575D01*
X268721Y492252D01*
X272299Y492252D01*
X347721Y492252D01*
X383843Y401646D02*
X392657Y401646D01*
X394294Y403283D01*
X394294Y414597D01*
X392657Y416234D01*
X392568Y416234D01*
X392568Y421356D01*
X396777Y421356D01*
X398414Y422993D01*
X398414Y434307D01*
X396777Y435944D01*
X380463Y435944D01*
X378826Y434307D01*
X378826Y422993D01*
X380463Y421356D01*
X383932Y421356D01*
X383932Y416234D01*
X383843Y416234D01*
X382206Y414597D01*
X382206Y403283D01*
X383843Y401646D01*
X434182Y-64000D02*
X219710Y-64000D01*
X219710Y-60000D02*
X430182Y-60000D01*
X427127Y-56000D02*
X219710Y-56000D01*
X219710Y-52000D02*
X424818Y-52000D01*
X423362Y-48000D02*
X219710Y-48000D01*
X219710Y-44000D02*
X422290Y-44000D01*
X421866Y-40000D02*
X219710Y-40000D01*
X219710Y-36000D02*
X421866Y-36000D01*
X422344Y-32000D02*
X219710Y-32000D01*
X219710Y-28000D02*
X423415Y-28000D01*
X424933Y-24000D02*
X219710Y-24000D01*
X219710Y-20000D02*
X427243Y-20000D01*
X482077Y-20000D02*
X483616Y-20000D01*
X430382Y-16000D02*
X219710Y-16000D01*
X478938Y-16000D02*
X483616Y-16000D01*
X434382Y-12000D02*
X219710Y-12000D01*
X474938Y-12000D02*
X483616Y-12000D01*
X441207Y-8000D02*
X219710Y-8000D01*
X468113Y-8000D02*
X483616Y-8000D01*
X483616Y-4000D02*
X219710Y-4000D01*
X219710Y0D02*
X483616Y0D01*
X359463Y4000D02*
X219710Y4000D01*
X424127Y4000D02*
X483616Y4000D01*
X355463Y8000D02*
X219710Y8000D01*
X428127Y8000D02*
X483616Y8000D01*
X353822Y12000D02*
X224355Y12000D01*
X363677Y12000D02*
X404659Y12000D01*
X413961Y12000D02*
X419159Y12000D01*
X428461Y12000D02*
X483616Y12000D01*
X353822Y16000D02*
X229553Y16000D01*
X362458Y16000D02*
X378826Y16000D01*
X415354Y16000D02*
X417766Y16000D01*
X429854Y16000D02*
X483616Y16000D01*
X346846Y20000D02*
X231309Y20000D01*
X369434Y20000D02*
X378826Y20000D01*
X415354Y20000D02*
X417766Y20000D01*
X429854Y20000D02*
X483616Y20000D01*
X346846Y24000D02*
X231521Y24000D01*
X369434Y24000D02*
X378826Y24000D01*
X398414Y24000D02*
X403266Y24000D01*
X415354Y24000D02*
X417766Y24000D01*
X429854Y24000D02*
X483616Y24000D01*
X287203Y28000D02*
X231521Y28000D01*
X369434Y28000D02*
X483616Y28000D01*
X283203Y32000D02*
X231521Y32000D01*
X369434Y32000D02*
X379879Y32000D01*
X397361Y32000D02*
X483616Y32000D01*
X279203Y36000D02*
X231521Y36000D01*
X369434Y36000D02*
X378826Y36000D01*
X398414Y36000D02*
X483616Y36000D01*
X278892Y40000D02*
X231521Y40000D01*
X287528Y40000D02*
X346846Y40000D01*
X369434Y40000D02*
X378826Y40000D01*
X398414Y40000D02*
X483616Y40000D01*
X278892Y44000D02*
X231521Y44000D01*
X287528Y44000D02*
X346846Y44000D01*
X369434Y44000D02*
X378826Y44000D01*
X398414Y44000D02*
X483616Y44000D01*
X278892Y48000D02*
X231521Y48000D01*
X287528Y48000D02*
X383032Y48000D01*
X391668Y48000D02*
X483616Y48000D01*
X278892Y52000D02*
X231521Y52000D01*
X287528Y52000D02*
X369230Y52000D01*
X393850Y52000D02*
X393850Y52000D01*
X400160Y52000D02*
X483616Y52000D01*
X278892Y56000D02*
X231521Y56000D01*
X287528Y56000D02*
X305845Y56000D01*
X311375Y56000D02*
X346846Y56000D01*
X393850Y56000D02*
X393850Y56000D01*
X400160Y56000D02*
X443316Y56000D01*
X458470Y56000D02*
X461010Y56000D01*
X476164Y56000D02*
X483616Y56000D01*
X274636Y60000D02*
X231521Y60000D01*
X291784Y60000D02*
X300036Y60000D01*
X317184Y60000D02*
X346846Y60000D01*
X393850Y60000D02*
X393850Y60000D01*
X400160Y60000D02*
X439644Y60000D01*
X458470Y60000D02*
X461010Y60000D01*
X479836Y60000D02*
X483616Y60000D01*
X272876Y64000D02*
X231521Y64000D01*
X293544Y64000D02*
X298276Y64000D01*
X341887Y64000D02*
X346846Y64000D01*
X393850Y64000D02*
X393850Y64000D01*
X399774Y64000D02*
X438157Y64000D01*
X458470Y64000D02*
X461010Y64000D01*
X481323Y64000D02*
X483616Y64000D01*
X272876Y68000D02*
X231521Y68000D01*
X293544Y68000D02*
X298276Y68000D01*
X391668Y68000D02*
X438017Y68000D01*
X458470Y68000D02*
X461010Y68000D01*
X481463Y68000D02*
X483616Y68000D01*
X274556Y72000D02*
X231521Y72000D01*
X291864Y72000D02*
X299956Y72000D01*
X317264Y72000D02*
X337673Y72000D01*
X392644Y72000D02*
X439196Y72000D01*
X458470Y72000D02*
X461010Y72000D01*
X480284Y72000D02*
X483616Y72000D01*
X278892Y76000D02*
X231521Y76000D01*
X287528Y76000D02*
X305652Y76000D01*
X311568Y76000D02*
X346846Y76000D01*
X369434Y76000D02*
X374693Y76000D01*
X392644Y76000D02*
X442184Y76000D01*
X458470Y76000D02*
X461010Y76000D01*
X477296Y76000D02*
X483616Y76000D01*
X278892Y80000D02*
X231521Y80000D01*
X287528Y80000D02*
X346846Y80000D01*
X369434Y80000D02*
X378693Y80000D01*
X392644Y80000D02*
X483616Y80000D01*
X278892Y84000D02*
X231521Y84000D01*
X287528Y84000D02*
X347139Y84000D01*
X369141Y84000D02*
X382589Y84000D01*
X392111Y84000D02*
X483616Y84000D01*
X278892Y88000D02*
X231521Y88000D01*
X287528Y88000D02*
X483616Y88000D01*
X278892Y92000D02*
X231521Y92000D01*
X287528Y92000D02*
X483616Y92000D01*
X278892Y96000D02*
X231521Y96000D01*
X287528Y96000D02*
X367706Y96000D01*
X379794Y96000D02*
X382206Y96000D01*
X394294Y96000D02*
X483616Y96000D01*
X278892Y100000D02*
X231521Y100000D01*
X287528Y100000D02*
X357443Y100000D01*
X379794Y100000D02*
X382206Y100000D01*
X394294Y100000D02*
X483616Y100000D01*
X278892Y104000D02*
X231521Y104000D01*
X287528Y104000D02*
X353822Y104000D01*
X379794Y104000D02*
X382206Y104000D01*
X394294Y104000D02*
X483616Y104000D01*
X278892Y108000D02*
X231521Y108000D01*
X287528Y108000D02*
X353822Y108000D01*
X362458Y108000D02*
X368449Y108000D01*
X379051Y108000D02*
X382949Y108000D01*
X393551Y108000D02*
X442501Y108000D01*
X476979Y108000D02*
X483616Y108000D01*
X278892Y112000D02*
X231521Y112000D01*
X287528Y112000D02*
X353822Y112000D01*
X362458Y112000D02*
X383932Y112000D01*
X392568Y112000D02*
X434343Y112000D01*
X479667Y112000D02*
X483616Y112000D01*
X278892Y116000D02*
X231521Y116000D01*
X287528Y116000D02*
X353822Y116000D01*
X362458Y116000D02*
X383932Y116000D01*
X392568Y116000D02*
X430343Y116000D01*
X480534Y116000D02*
X483616Y116000D01*
X278892Y120000D02*
X231521Y120000D01*
X287528Y120000D02*
X347609Y120000D01*
X368671Y120000D02*
X378826Y120000D01*
X398414Y120000D02*
X428752Y120000D01*
X438557Y120000D02*
X439449Y120000D01*
X480031Y120000D02*
X483616Y120000D01*
X278892Y124000D02*
X231521Y124000D01*
X287528Y124000D02*
X346846Y124000D01*
X369434Y124000D02*
X378826Y124000D01*
X398414Y124000D02*
X428752Y124000D01*
X437388Y124000D02*
X441621Y124000D01*
X477859Y124000D02*
X483616Y124000D01*
X278892Y128000D02*
X231521Y128000D01*
X287528Y128000D02*
X346846Y128000D01*
X369434Y128000D02*
X378826Y128000D01*
X398414Y128000D02*
X428752Y128000D01*
X437388Y128000D02*
X447829Y128000D01*
X471651Y128000D02*
X483616Y128000D01*
X278892Y132000D02*
X231521Y132000D01*
X369434Y132000D02*
X428752Y132000D01*
X437388Y132000D02*
X483616Y132000D01*
X279533Y136000D02*
X231521Y136000D01*
X369434Y136000D02*
X380019Y136000D01*
X397221Y136000D02*
X428752Y136000D01*
X437388Y136000D02*
X483616Y136000D01*
X278892Y140000D02*
X231521Y140000D01*
X287747Y140000D02*
X346846Y140000D01*
X369434Y140000D02*
X378826Y140000D01*
X398414Y140000D02*
X428752Y140000D01*
X437388Y140000D02*
X483616Y140000D01*
X278892Y144000D02*
X231521Y144000D01*
X287528Y144000D02*
X346846Y144000D01*
X369434Y144000D02*
X378826Y144000D01*
X398414Y144000D02*
X428752Y144000D01*
X437388Y144000D02*
X483616Y144000D01*
X278892Y148000D02*
X231521Y148000D01*
X287528Y148000D02*
X346846Y148000D01*
X369434Y148000D02*
X378826Y148000D01*
X398414Y148000D02*
X428752Y148000D01*
X437388Y148000D02*
X483616Y148000D01*
X278892Y152000D02*
X231521Y152000D01*
X287528Y152000D02*
X384302Y152000D01*
X395120Y152000D02*
X395120Y152000D01*
X399732Y152000D02*
X428752Y152000D01*
X437388Y152000D02*
X483616Y152000D01*
X278892Y156000D02*
X231521Y156000D01*
X287528Y156000D02*
X369370Y156000D01*
X395120Y156000D02*
X395120Y156000D01*
X401430Y156000D02*
X428752Y156000D01*
X437388Y156000D02*
X483616Y156000D01*
X276236Y160000D02*
X231521Y160000D01*
X290184Y160000D02*
X301636Y160000D01*
X315584Y160000D02*
X346846Y160000D01*
X395120Y160000D02*
X395120Y160000D01*
X401430Y160000D02*
X428752Y160000D01*
X437388Y160000D02*
X442101Y160000D01*
X477379Y160000D02*
X483616Y160000D01*
X273532Y164000D02*
X231521Y164000D01*
X292888Y164000D02*
X298932Y164000D01*
X335207Y164000D02*
X346846Y164000D01*
X395120Y164000D02*
X395120Y164000D01*
X401430Y164000D02*
X427948Y164000D01*
X479832Y164000D02*
X483616Y164000D01*
X272876Y168000D02*
X231521Y168000D01*
X293544Y168000D02*
X298276Y168000D01*
X339207Y168000D02*
X346846Y168000D01*
X395120Y168000D02*
X395120Y168000D01*
X400188Y168000D02*
X423948Y168000D01*
X480534Y168000D02*
X483616Y168000D01*
X273831Y172000D02*
X231521Y172000D01*
X292589Y172000D02*
X299231Y172000D01*
X317989Y172000D02*
X330993Y172000D01*
X392938Y172000D02*
X422910Y172000D01*
X479865Y172000D02*
X483616Y172000D01*
X276956Y176000D02*
X231521Y176000D01*
X289464Y176000D02*
X302356Y176000D01*
X314864Y176000D02*
X334993Y176000D01*
X393914Y176000D02*
X422910Y176000D01*
X436118Y176000D02*
X442021Y176000D01*
X477459Y176000D02*
X483616Y176000D01*
X278892Y180000D02*
X231521Y180000D01*
X287528Y180000D02*
X346846Y180000D01*
X369434Y180000D02*
X373283Y180000D01*
X393914Y180000D02*
X422910Y180000D01*
X436118Y180000D02*
X483616Y180000D01*
X278892Y184000D02*
X231521Y184000D01*
X287528Y184000D02*
X346846Y184000D01*
X369434Y184000D02*
X377283Y184000D01*
X393914Y184000D02*
X422910Y184000D01*
X436118Y184000D02*
X483616Y184000D01*
X278892Y188000D02*
X231521Y188000D01*
X287528Y188000D02*
X347530Y188000D01*
X368011Y188000D02*
X421081Y188000D01*
X436118Y188000D02*
X483616Y188000D01*
X278892Y192000D02*
X231521Y192000D01*
X287528Y192000D02*
X345214Y192000D01*
X436118Y192000D02*
X483616Y192000D01*
X278892Y196000D02*
X231521Y196000D01*
X287528Y196000D02*
X345898Y196000D01*
X436118Y196000D02*
X483616Y196000D01*
X278892Y200000D02*
X231521Y200000D01*
X287528Y200000D02*
X361583Y200000D01*
X381064Y200000D02*
X383476Y200000D01*
X395564Y200000D02*
X422910Y200000D01*
X436118Y200000D02*
X483616Y200000D01*
X271360Y204000D02*
X231521Y204000D01*
X287528Y204000D02*
X357583Y204000D01*
X381064Y204000D02*
X383476Y204000D01*
X395564Y204000D02*
X422910Y204000D01*
X436118Y204000D02*
X483616Y204000D01*
X269804Y208000D02*
X231521Y208000D01*
X287528Y208000D02*
X353822Y208000D01*
X365797Y208000D02*
X368976Y208000D01*
X381064Y208000D02*
X383476Y208000D01*
X395564Y208000D02*
X422910Y208000D01*
X436118Y208000D02*
X444159Y208000D01*
X475320Y208000D02*
X483616Y208000D01*
X268732Y212000D02*
X231521Y212000D01*
X287528Y212000D02*
X353822Y212000D01*
X362458Y212000D02*
X385202Y212000D01*
X393838Y212000D02*
X422910Y212000D01*
X436118Y212000D02*
X440476Y212000D01*
X479004Y212000D02*
X483616Y212000D01*
X268732Y216000D02*
X231521Y216000D01*
X287528Y216000D02*
X353822Y216000D01*
X362458Y216000D02*
X385202Y216000D01*
X393838Y216000D02*
X422910Y216000D01*
X436118Y216000D02*
X438946Y216000D01*
X480534Y216000D02*
X483616Y216000D01*
X268732Y220000D02*
X231521Y220000D01*
X287528Y220000D02*
X353822Y220000D01*
X362458Y220000D02*
X378826Y220000D01*
X398414Y220000D02*
X422910Y220000D01*
X436118Y220000D02*
X438946Y220000D01*
X480534Y220000D02*
X483616Y220000D01*
X268732Y224000D02*
X231521Y224000D01*
X287528Y224000D02*
X346846Y224000D01*
X369434Y224000D02*
X378826Y224000D01*
X398414Y224000D02*
X422910Y224000D01*
X436118Y224000D02*
X440443Y224000D01*
X479037Y224000D02*
X483616Y224000D01*
X271272Y228000D02*
X231521Y228000D01*
X287528Y228000D02*
X346846Y228000D01*
X369434Y228000D02*
X378826Y228000D01*
X398414Y228000D02*
X422910Y228000D01*
X436118Y228000D02*
X444021Y228000D01*
X475459Y228000D02*
X483616Y228000D01*
X271272Y232000D02*
X231521Y232000D01*
X369434Y232000D02*
X379719Y232000D01*
X397521Y232000D02*
X422910Y232000D01*
X436118Y232000D02*
X483616Y232000D01*
X271272Y236000D02*
X231521Y236000D01*
X369434Y236000D02*
X422910Y236000D01*
X436118Y236000D02*
X483616Y236000D01*
X271272Y240000D02*
X231521Y240000D01*
X369434Y240000D02*
X378826Y240000D01*
X398414Y240000D02*
X422910Y240000D01*
X436118Y240000D02*
X483616Y240000D01*
X271272Y244000D02*
X231521Y244000D01*
X287528Y244000D02*
X346846Y244000D01*
X369434Y244000D02*
X378826Y244000D01*
X398414Y244000D02*
X422910Y244000D01*
X436118Y244000D02*
X483616Y244000D01*
X271272Y248000D02*
X231521Y248000D01*
X287528Y248000D02*
X346846Y248000D01*
X369434Y248000D02*
X378826Y248000D01*
X398414Y248000D02*
X422910Y248000D01*
X436118Y248000D02*
X483616Y248000D01*
X271272Y252000D02*
X231521Y252000D01*
X287528Y252000D02*
X384302Y252000D01*
X392938Y252000D02*
X422910Y252000D01*
X436118Y252000D02*
X483616Y252000D01*
X271272Y256000D02*
X231521Y256000D01*
X287528Y256000D02*
X369764Y256000D01*
X395120Y256000D02*
X395120Y256000D01*
X401355Y256000D02*
X422910Y256000D01*
X436118Y256000D02*
X483616Y256000D01*
X267293Y260000D02*
X231521Y260000D01*
X287907Y260000D02*
X303913Y260000D01*
X313307Y260000D02*
X347209Y260000D01*
X395120Y260000D02*
X395120Y260000D01*
X401430Y260000D02*
X422910Y260000D01*
X436118Y260000D02*
X443701Y260000D01*
X475779Y260000D02*
X483616Y260000D01*
X264922Y264000D02*
X231521Y264000D01*
X292225Y264000D02*
X299595Y264000D01*
X317625Y264000D02*
X346846Y264000D01*
X395120Y264000D02*
X395120Y264000D01*
X401430Y264000D02*
X422910Y264000D01*
X436118Y264000D02*
X440310Y264000D01*
X479170Y264000D02*
X483616Y264000D01*
X264922Y268000D02*
X231521Y268000D01*
X293544Y268000D02*
X298276Y268000D01*
X338877Y268000D02*
X346846Y268000D01*
X395120Y268000D02*
X395120Y268000D01*
X401237Y268000D02*
X422910Y268000D01*
X436118Y268000D02*
X438946Y268000D01*
X264922Y272000D02*
X231521Y272000D01*
X293252Y272000D02*
X298568Y272000D01*
X392938Y272000D02*
X422910Y272000D01*
X436118Y272000D02*
X438952Y272000D01*
X263993Y276000D02*
X231521Y276000D01*
X291064Y276000D02*
X300756Y276000D01*
X316464Y276000D02*
X334663Y276000D01*
X393914Y276000D02*
X422910Y276000D01*
X436118Y276000D02*
X440609Y276000D01*
X253643Y280000D02*
X231521Y280000D01*
X287528Y280000D02*
X346846Y280000D01*
X393914Y280000D02*
X422910Y280000D01*
X436118Y280000D02*
X444932Y280000D01*
X474548Y280000D02*
X478472Y280000D01*
X249643Y284000D02*
X231521Y284000D01*
X287528Y284000D02*
X346846Y284000D01*
X393914Y284000D02*
X422910Y284000D01*
X436118Y284000D02*
X478472Y284000D01*
X245643Y288000D02*
X231521Y288000D01*
X417297Y288000D02*
X422910Y288000D01*
X436118Y288000D02*
X478472Y288000D01*
X241643Y292000D02*
X231521Y292000D01*
X421297Y292000D02*
X422910Y292000D01*
X441617Y292000D02*
X478472Y292000D01*
X234870Y296000D02*
X231521Y296000D01*
X257477Y296000D02*
X270190Y296000D01*
X278450Y296000D02*
X278892Y296000D01*
X445617Y296000D02*
X478472Y296000D01*
X231958Y300000D02*
X231521Y300000D01*
X254254Y300000D02*
X278892Y300000D01*
X303007Y300000D02*
X369893Y300000D01*
X446278Y300000D02*
X478472Y300000D01*
X231958Y304000D02*
X231521Y304000D01*
X254254Y304000D02*
X278892Y304000D01*
X299007Y304000D02*
X367706Y304000D01*
X379794Y304000D02*
X382206Y304000D01*
X394294Y304000D02*
X403380Y304000D01*
X445057Y304000D02*
X478472Y304000D01*
X231958Y308000D02*
X231521Y308000D01*
X254254Y308000D02*
X278892Y308000D01*
X287528Y308000D02*
X355183Y308000D01*
X379794Y308000D02*
X382206Y308000D01*
X394294Y308000D02*
X404713Y308000D01*
X443942Y308000D02*
X448022Y308000D01*
X471458Y308000D02*
X478472Y308000D01*
X231958Y312000D02*
X231521Y312000D01*
X254254Y312000D02*
X278892Y312000D01*
X287528Y312000D02*
X353822Y312000D01*
X379794Y312000D02*
X382206Y312000D01*
X394294Y312000D02*
X406146Y312000D01*
X436118Y312000D02*
X441701Y312000D01*
X477779Y312000D02*
X478472Y312000D01*
X231958Y316000D02*
X231521Y316000D01*
X254254Y316000D02*
X278892Y316000D01*
X287528Y316000D02*
X353822Y316000D01*
X362458Y316000D02*
X383932Y316000D01*
X392568Y316000D02*
X407309Y316000D01*
X436118Y316000D02*
X439482Y316000D01*
X231958Y320000D02*
X231521Y320000D01*
X254254Y320000D02*
X278892Y320000D01*
X287528Y320000D02*
X353822Y320000D01*
X362458Y320000D02*
X380219Y320000D01*
X397021Y320000D02*
X409250Y320000D01*
X436118Y320000D02*
X438946Y320000D01*
X231958Y324000D02*
X231521Y324000D01*
X254254Y324000D02*
X278892Y324000D01*
X287528Y324000D02*
X346846Y324000D01*
X369434Y324000D02*
X378826Y324000D01*
X398414Y324000D02*
X411756Y324000D01*
X436118Y324000D02*
X439780Y324000D01*
X234148Y328000D02*
X231521Y328000D01*
X254254Y328000D02*
X278892Y328000D01*
X287528Y328000D02*
X346846Y328000D01*
X369434Y328000D02*
X378826Y328000D01*
X398414Y328000D02*
X418338Y328000D01*
X436118Y328000D02*
X442421Y328000D01*
X236220Y332000D02*
X231521Y332000D01*
X254254Y332000D02*
X278892Y332000D01*
X288577Y332000D02*
X346846Y332000D01*
X369434Y332000D02*
X378826Y332000D01*
X398414Y332000D02*
X418338Y332000D01*
X236220Y336000D02*
X231521Y336000D01*
X254254Y336000D02*
X280363Y336000D01*
X369434Y336000D02*
X418338Y336000D01*
X236220Y340000D02*
X231521Y340000D01*
X254254Y340000D02*
X280003Y340000D01*
X369434Y340000D02*
X379219Y340000D01*
X398021Y340000D02*
X421292Y340000D01*
X236220Y344000D02*
X231521Y344000D01*
X254254Y344000D02*
X278892Y344000D01*
X288217Y344000D02*
X346846Y344000D01*
X369434Y344000D02*
X378826Y344000D01*
X398414Y344000D02*
X425292Y344000D01*
X236220Y348000D02*
X231521Y348000D01*
X254254Y348000D02*
X278892Y348000D01*
X287528Y348000D02*
X346846Y348000D01*
X369434Y348000D02*
X378826Y348000D01*
X398414Y348000D02*
X429292Y348000D01*
X236220Y352000D02*
X231521Y352000D01*
X254254Y352000D02*
X278892Y352000D01*
X287528Y352000D02*
X347069Y352000D01*
X369211Y352000D02*
X379119Y352000D01*
X398121Y352000D02*
X458972Y352000D01*
X236220Y356000D02*
X231521Y356000D01*
X254254Y356000D02*
X278892Y356000D01*
X287528Y356000D02*
X378049Y356000D01*
X395120Y356000D02*
X395120Y356000D01*
X400628Y356000D02*
X458972Y356000D01*
X236220Y360000D02*
X231521Y360000D01*
X254254Y360000D02*
X278892Y360000D01*
X287528Y360000D02*
X367596Y360000D01*
X395120Y360000D02*
X395120Y360000D01*
X401430Y360000D02*
X458972Y360000D01*
X236220Y364000D02*
X231521Y364000D01*
X254254Y364000D02*
X275436Y364000D01*
X290984Y364000D02*
X300836Y364000D01*
X316384Y364000D02*
X346846Y364000D01*
X395120Y364000D02*
X395120Y364000D01*
X401430Y364000D02*
X406774Y364000D01*
X236220Y368000D02*
X231521Y368000D01*
X254254Y368000D02*
X273201Y368000D01*
X293219Y368000D02*
X298601Y368000D01*
X337277Y368000D02*
X346846Y368000D01*
X395120Y368000D02*
X395120Y368000D01*
X401430Y368000D02*
X406246Y368000D01*
X236220Y372000D02*
X231521Y372000D01*
X254254Y372000D02*
X272876Y372000D01*
X293544Y372000D02*
X298276Y372000D01*
X395120Y372000D02*
X395120Y372000D01*
X398831Y372000D02*
X406246Y372000D01*
X236220Y376000D02*
X231521Y376000D01*
X254254Y376000D02*
X274162Y376000D01*
X292258Y376000D02*
X299562Y376000D01*
X317658Y376000D02*
X333063Y376000D01*
X392938Y376000D02*
X406246Y376000D01*
X236220Y380000D02*
X231521Y380000D01*
X254254Y380000D02*
X278320Y380000D01*
X288100Y380000D02*
X303720Y380000D01*
X313500Y380000D02*
X337063Y380000D01*
X393914Y380000D02*
X406246Y380000D01*
X236220Y384000D02*
X231521Y384000D01*
X254254Y384000D02*
X278892Y384000D01*
X287528Y384000D02*
X346846Y384000D01*
X393914Y384000D02*
X406654Y384000D01*
X236220Y388000D02*
X231521Y388000D01*
X254254Y388000D02*
X278892Y388000D01*
X287528Y388000D02*
X346846Y388000D01*
X380100Y388000D02*
X383326Y388000D01*
X393914Y388000D02*
X478282Y388000D01*
X236220Y392000D02*
X231521Y392000D01*
X254254Y392000D02*
X278892Y392000D01*
X287528Y392000D02*
X364112Y392000D01*
X379845Y392000D02*
X478282Y392000D01*
X236220Y396000D02*
X231521Y396000D01*
X254254Y396000D02*
X271412Y396000D01*
X295008Y396000D02*
X357122Y396000D01*
X379064Y396000D02*
X475192Y396000D01*
X236220Y400000D02*
X231521Y400000D01*
X254254Y400000D02*
X269014Y400000D01*
X304507Y400000D02*
X353122Y400000D01*
X379674Y400000D02*
X469437Y400000D01*
X472903Y400000D02*
X474582Y400000D01*
X236220Y404000D02*
X231521Y404000D01*
X254254Y404000D02*
X266605Y404000D01*
X379794Y404000D02*
X382206Y404000D01*
X394294Y404000D02*
X465046Y404000D01*
X236220Y408000D02*
X231521Y408000D01*
X254254Y408000D02*
X262890Y408000D01*
X379794Y408000D02*
X382206Y408000D01*
X394294Y408000D02*
X464715Y408000D01*
X236220Y412000D02*
X231521Y412000D01*
X254254Y412000D02*
X262890Y412000D01*
X379794Y412000D02*
X382206Y412000D01*
X394294Y412000D02*
X466232Y412000D01*
X236220Y416000D02*
X231521Y416000D01*
X254254Y416000D02*
X262890Y416000D01*
X287528Y416000D02*
X287624Y416000D01*
X294036Y416000D02*
X353822Y416000D01*
X362458Y416000D02*
X369109Y416000D01*
X378391Y416000D02*
X383609Y416000D01*
X392891Y416000D02*
X464594Y416000D01*
X236220Y420000D02*
X231521Y420000D01*
X254254Y420000D02*
X262890Y420000D01*
X276098Y420000D02*
X278892Y420000D01*
X287528Y420000D02*
X353822Y420000D01*
X362458Y420000D02*
X383932Y420000D01*
X392568Y420000D02*
X465559Y420000D01*
X236220Y424000D02*
X231521Y424000D01*
X254254Y424000D02*
X261928Y424000D01*
X276098Y424000D02*
X278892Y424000D01*
X287528Y424000D02*
X348409Y424000D01*
X367871Y424000D02*
X378826Y424000D01*
X398414Y424000D02*
X409980Y424000D01*
X420600Y424000D02*
X463863Y424000D01*
X236220Y428000D02*
X231521Y428000D01*
X254254Y428000D02*
X257928Y428000D01*
X276098Y428000D02*
X278892Y428000D01*
X287528Y428000D02*
X346846Y428000D01*
X369434Y428000D02*
X378826Y428000D01*
X398414Y428000D02*
X408714Y428000D01*
X421866Y428000D02*
X464318Y428000D01*
X236220Y432000D02*
X231521Y432000D01*
X272607Y432000D02*
X278892Y432000D01*
X287528Y432000D02*
X346846Y432000D01*
X369434Y432000D02*
X378826Y432000D01*
X398414Y432000D02*
X407387Y432000D01*
X422108Y432000D02*
X465472Y432000D01*
X236220Y436000D02*
X231521Y436000D01*
X268607Y436000D02*
X278892Y436000D01*
X369434Y436000D02*
X405230Y436000D01*
X236220Y440000D02*
X231521Y440000D01*
X264607Y440000D02*
X281603Y440000D01*
X369434Y440000D02*
X405230Y440000D01*
X236220Y444000D02*
X231521Y444000D01*
X263398Y444000D02*
X278892Y444000D01*
X289817Y444000D02*
X346846Y444000D01*
X369434Y444000D02*
X378826Y444000D01*
X398414Y444000D02*
X405230Y444000D01*
X236220Y448000D02*
X231521Y448000D01*
X263398Y448000D02*
X278892Y448000D01*
X287528Y448000D02*
X346846Y448000D01*
X369434Y448000D02*
X378826Y448000D01*
X398414Y448000D02*
X405230Y448000D01*
X236220Y452000D02*
X231521Y452000D01*
X263398Y452000D02*
X278892Y452000D01*
X287528Y452000D02*
X346846Y452000D01*
X369434Y452000D02*
X378826Y452000D01*
X398414Y452000D02*
X398490Y452000D01*
X236220Y456000D02*
X231521Y456000D01*
X263398Y456000D02*
X278892Y456000D01*
X287528Y456000D02*
X384302Y456000D01*
X392938Y456000D02*
X396649Y456000D01*
X236220Y460000D02*
X231521Y460000D01*
X263398Y460000D02*
X278892Y460000D01*
X287528Y460000D02*
X368900Y460000D01*
X395120Y460000D02*
X395120Y460000D01*
X236220Y464000D02*
X231521Y464000D01*
X263398Y464000D02*
X277036Y464000D01*
X289384Y464000D02*
X302436Y464000D01*
X314784Y464000D02*
X346846Y464000D01*
X395120Y464000D02*
X395120Y464000D01*
X236220Y468000D02*
X231521Y468000D01*
X263398Y468000D02*
X273864Y468000D01*
X292556Y468000D02*
X299264Y468000D01*
X317956Y468000D02*
X346846Y468000D01*
X395120Y468000D02*
X395120Y468000D01*
X236220Y472000D02*
X231521Y472000D01*
X263398Y472000D02*
X272876Y472000D01*
X293544Y472000D02*
X298276Y472000D01*
X340947Y472000D02*
X346846Y472000D01*
X395120Y472000D02*
X395120Y472000D01*
X400853Y472000D02*
X400975Y472000D01*
X236220Y476000D02*
X231521Y476000D01*
X263398Y476000D02*
X273499Y476000D01*
X292921Y476000D02*
X298899Y476000D01*
X392938Y476000D02*
X402969Y476000D01*
X236220Y480000D02*
X231521Y480000D01*
X263398Y480000D02*
X276156Y480000D01*
X290264Y480000D02*
X301556Y480000D01*
X315664Y480000D02*
X336733Y480000D01*
X393914Y480000D02*
X404549Y480000D01*
X415871Y480000D02*
X415979Y480000D01*
X427301Y480000D02*
X427409Y480000D01*
X438731Y480000D02*
X438839Y480000D01*
X450161Y480000D02*
X450269Y480000D01*
X461591Y480000D02*
X462969Y480000D01*
X474291Y480000D02*
X474399Y480000D01*
X236220Y484000D02*
X231521Y484000D01*
X263398Y484000D02*
X346846Y484000D01*
X393914Y484000D02*
X400163Y484000D01*
X236220Y488000D02*
X231521Y488000D01*
X263398Y488000D02*
X346846Y488000D01*
X393914Y488000D02*
X396163Y488000D01*
X236220Y492000D02*
X231521Y492000D01*
X263398Y492000D02*
X347469Y492000D01*
X393051Y492000D02*
X395732Y492000D01*
X236220Y496000D02*
X231521Y496000D01*
X263398Y496000D02*
X264973Y496000D01*
X236220Y500000D02*
X231521Y500000D01*
X231521Y504000D02*
X236220Y504000D01*
X269187Y504000D02*
X277223Y504000D01*
X289197Y504000D02*
X362383Y504000D01*
X381064Y504000D02*
X383476Y504000D01*
X236220Y508000D02*
X231521Y508000D01*
X268478Y508000D02*
X276634Y508000D01*
X289786Y508000D02*
X358383Y508000D01*
X381064Y508000D02*
X383476Y508000D01*
X236220Y512000D02*
X231521Y512000D01*
X268478Y512000D02*
X278892Y512000D01*
X287528Y512000D02*
X354383Y512000D01*
X381064Y512000D02*
X383476Y512000D01*
X236220Y516000D02*
X231521Y516000D01*
X268478Y516000D02*
X278892Y516000D01*
X287528Y516000D02*
X353822Y516000D01*
X362597Y516000D02*
X385202Y516000D01*
X236220Y520000D02*
X231521Y520000D01*
X268478Y520000D02*
X278892Y520000D01*
X287528Y520000D02*
X353822Y520000D01*
X362458Y520000D02*
X385202Y520000D01*
X236220Y524000D02*
X231521Y524000D01*
X268478Y524000D02*
X278892Y524000D01*
X287528Y524000D02*
X353822Y524000D01*
X362458Y524000D02*
X378826Y524000D01*
X236220Y528000D02*
X231521Y528000D01*
X268478Y528000D02*
X278892Y528000D01*
X287528Y528000D02*
X346846Y528000D01*
X369434Y528000D02*
X378826Y528000D01*
X236220Y532000D02*
X231521Y532000D01*
X268478Y532000D02*
X278892Y532000D01*
X287867Y532000D02*
X346846Y532000D01*
X369434Y532000D02*
X378826Y532000D01*
X236220Y536000D02*
X231521Y536000D01*
X268478Y536000D02*
X279653Y536000D01*
X369434Y536000D02*
X377373Y536000D01*
X236220Y540000D02*
X231521Y540000D01*
X268478Y540000D02*
X281933Y540000D01*
X369434Y540000D02*
X373373Y540000D01*
X236220Y544000D02*
X231521Y544000D01*
X268478Y544000D02*
X278892Y544000D01*
X369434Y544000D02*
X371602Y544000D01*
X236220Y548000D02*
X231521Y548000D01*
X268478Y548000D02*
X278892Y548000D01*
X287528Y548000D02*
X346846Y548000D01*
X369434Y548000D02*
X371602Y548000D01*
X398414Y548000D02*
X405892Y548000D01*
X236220Y552000D02*
X231521Y552000D01*
X268478Y552000D02*
X278892Y552000D01*
X287528Y552000D02*
X346846Y552000D01*
X369434Y552000D02*
X371602Y552000D01*
X398414Y552000D02*
X405892Y552000D01*
X236220Y556000D02*
X231521Y556000D01*
X268478Y556000D02*
X278892Y556000D01*
X287528Y556000D02*
X371602Y556000D01*
X393890Y556000D02*
X405892Y556000D01*
X236220Y560000D02*
X231521Y560000D01*
X268478Y560000D02*
X278892Y560000D01*
X287528Y560000D02*
X371602Y560000D01*
X395120Y560000D02*
X395120Y560000D01*
X401430Y560000D02*
X405892Y560000D01*
X236220Y564000D02*
X231521Y564000D01*
X268478Y564000D02*
X277379Y564000D01*
X289041Y564000D02*
X302779Y564000D01*
X314441Y564000D02*
X346846Y564000D01*
X369434Y564000D02*
X371602Y564000D01*
X395120Y564000D02*
X395120Y564000D01*
X401430Y564000D02*
X405892Y564000D01*
X472007Y564000D02*
X483616Y564000D01*
X236220Y568000D02*
X231521Y568000D01*
X268478Y568000D02*
X274000Y568000D01*
X292420Y568000D02*
X299400Y568000D01*
X317820Y568000D02*
X346846Y568000D01*
X369434Y568000D02*
X373933Y568000D01*
X395120Y568000D02*
X395120Y568000D01*
X401430Y568000D02*
X405892Y568000D01*
X473456Y568000D02*
X483616Y568000D01*
X234693Y572000D02*
X231521Y572000D01*
X268478Y572000D02*
X272876Y572000D01*
X293544Y572000D02*
X298276Y572000D01*
X339347Y572000D02*
X346846Y572000D01*
X369434Y572000D02*
X377359Y572000D01*
X395120Y572000D02*
X395120Y572000D01*
X401044Y572000D02*
X405892Y572000D01*
X473456Y572000D02*
X483616Y572000D01*
X273362Y576000D02*
X268478Y576000D01*
X293058Y576000D02*
X298762Y576000D01*
X375097Y576000D02*
X385254Y576000D01*
X393890Y576000D02*
X405892Y576000D01*
X473456Y576000D02*
X483616Y576000D01*
X240792Y580000D02*
X240256Y580000D01*
X268478Y580000D02*
X275826Y580000D01*
X290594Y580000D02*
X301226Y580000D01*
X315994Y580000D02*
X335133Y580000D01*
X379097Y580000D02*
X383326Y580000D01*
X393914Y580000D02*
X405892Y580000D01*
X473456Y580000D02*
X483616Y580000D01*
X240792Y584000D02*
X238100Y584000D01*
X268478Y584000D02*
X278892Y584000D01*
X287528Y584000D02*
X346846Y584000D01*
X369434Y584000D02*
X370883Y584000D01*
X393914Y584000D02*
X405892Y584000D01*
X473456Y584000D02*
X483616Y584000D01*
X240792Y588000D02*
X231521Y588000D01*
X268478Y588000D02*
X278892Y588000D01*
X287528Y588000D02*
X346846Y588000D01*
X369434Y588000D02*
X374883Y588000D01*
X393914Y588000D02*
X405892Y588000D01*
X472488Y588000D02*
X483616Y588000D01*
X237401Y592000D02*
X231521Y592000D01*
X268478Y592000D02*
X278892Y592000D01*
X287528Y592000D02*
X347139Y592000D01*
X369141Y592000D02*
X383859Y592000D01*
X393381Y592000D02*
X405892Y592000D01*
X455168Y592000D02*
X457072Y592000D01*
X469251Y592000D02*
X483616Y592000D01*
X235609Y596000D02*
X231521Y596000D01*
X268478Y596000D02*
X278892Y596000D01*
X287528Y596000D02*
X405892Y596000D01*
X452777Y596000D02*
X457072Y596000D01*
X465708Y596000D02*
X483616Y596000D01*
X236511Y600000D02*
X231521Y600000D01*
X268478Y600000D02*
X278892Y600000D01*
X287528Y600000D02*
X405892Y600000D01*
X451531Y600000D02*
X455249Y600000D01*
X467531Y600000D02*
X483616Y600000D01*
X242062Y604000D02*
X231521Y604000D01*
X268478Y604000D02*
X278892Y604000D01*
X287528Y604000D02*
X405892Y604000D01*
X452684Y604000D02*
X454096Y604000D01*
X468684Y604000D02*
X483616Y604000D01*
X242062Y608000D02*
X231521Y608000D01*
X268478Y608000D02*
X278892Y608000D01*
X287528Y608000D02*
X357443Y608000D01*
X379794Y608000D02*
X382206Y608000D01*
X394294Y608000D02*
X405892Y608000D01*
X452684Y608000D02*
X454096Y608000D01*
X468684Y608000D02*
X483616Y608000D01*
X241670Y612000D02*
X231521Y612000D01*
X268478Y612000D02*
X278892Y612000D01*
X287528Y612000D02*
X353443Y612000D01*
X379794Y612000D02*
X382206Y612000D01*
X394294Y612000D02*
X405892Y612000D01*
X429157Y612000D02*
X438096Y612000D01*
X452684Y612000D02*
X454096Y612000D01*
X468684Y612000D02*
X483616Y612000D01*
X241107Y616000D02*
X231521Y616000D01*
X268478Y616000D02*
X278892Y616000D01*
X287528Y616000D02*
X352552Y616000D01*
X379794Y616000D02*
X382206Y616000D01*
X394294Y616000D02*
X405892Y616000D01*
X428498Y616000D02*
X483616Y616000D01*
X243698Y620000D02*
X231521Y620000D01*
X268478Y620000D02*
X278892Y620000D01*
X287528Y620000D02*
X352552Y620000D01*
X361188Y620000D02*
X384302Y620000D01*
X392938Y620000D02*
X405892Y620000D01*
X428498Y620000D02*
X483616Y620000D01*
X250190Y624000D02*
X231521Y624000D01*
X268478Y624000D02*
X278892Y624000D01*
X287528Y624000D02*
X352552Y624000D01*
X361188Y624000D02*
X378826Y624000D01*
X398414Y624000D02*
X405892Y624000D01*
X428498Y624000D02*
X471145Y624000D01*
X473964Y624000D02*
X475996Y624000D01*
X478815Y624000D02*
X483616Y624000D01*
X250190Y628000D02*
X231521Y628000D01*
X268478Y628000D02*
X278892Y628000D01*
X287528Y628000D02*
X346846Y628000D01*
X369434Y628000D02*
X378826Y628000D01*
X398414Y628000D02*
X405892Y628000D01*
X431951Y628000D02*
X441809Y628000D01*
X457351Y628000D02*
X466012Y628000D01*
X473964Y628000D02*
X475996Y628000D01*
X250190Y632000D02*
X231521Y632000D01*
X268478Y632000D02*
X278892Y632000D01*
X287528Y632000D02*
X346846Y632000D01*
X369434Y632000D02*
X378826Y632000D01*
X398414Y632000D02*
X405892Y632000D01*
X433975Y632000D02*
X439785Y632000D01*
X459375Y632000D02*
X464276Y632000D01*
X473964Y632000D02*
X475996Y632000D01*
X250190Y636000D02*
X231521Y636000D01*
X268478Y636000D02*
X278892Y636000D01*
X369434Y636000D02*
X376433Y636000D01*
X434086Y636000D02*
X439674Y636000D01*
X459486Y636000D02*
X464058Y636000D01*
X473964Y636000D02*
X475996Y636000D01*
X250190Y640000D02*
X231521Y640000D01*
X268478Y640000D02*
X279463Y640000D01*
X369434Y640000D02*
X372433Y640000D01*
X413857Y640000D02*
X414274Y640000D01*
X434086Y640000D02*
X439674Y640000D01*
X459486Y640000D02*
X464058Y640000D01*
X473964Y640000D02*
X475996Y640000D01*
X250190Y644000D02*
X231521Y644000D01*
X268478Y644000D02*
X278892Y644000D01*
X369434Y644000D02*
X370332Y644000D01*
X398414Y644000D02*
X414274Y644000D01*
X434086Y644000D02*
X439674Y644000D01*
X459486Y644000D02*
X464058Y644000D01*
X473964Y644000D02*
X475996Y644000D01*
X250190Y648000D02*
X231521Y648000D01*
X268478Y648000D02*
X278892Y648000D01*
X287528Y648000D02*
X346846Y648000D01*
X369434Y648000D02*
X370332Y648000D01*
X398414Y648000D02*
X414274Y648000D01*
X434086Y648000D02*
X439674Y648000D01*
X459486Y648000D02*
X464058Y648000D01*
X473964Y648000D02*
X475996Y648000D01*
X250190Y652000D02*
X231521Y652000D01*
X268478Y652000D02*
X278892Y652000D01*
X287528Y652000D02*
X346846Y652000D01*
X369434Y652000D02*
X370332Y652000D01*
X398414Y652000D02*
X414923Y652000D01*
X433437Y652000D02*
X440323Y652000D01*
X458837Y652000D02*
X464646Y652000D01*
X473964Y652000D02*
X475996Y652000D01*
X250190Y656000D02*
X231521Y656000D01*
X268478Y656000D02*
X278892Y656000D01*
X287528Y656000D02*
X370332Y656000D01*
X392938Y656000D02*
X417709Y656000D01*
X430651Y656000D02*
X443109Y656000D01*
X456051Y656000D02*
X467072Y656000D01*
X473964Y656000D02*
X475996Y656000D01*
X482888Y656000D02*
X483616Y656000D01*
X250190Y660000D02*
X231521Y660000D01*
X268478Y660000D02*
X278892Y660000D01*
X287528Y660000D02*
X370332Y660000D01*
X395120Y660000D02*
X395120Y660000D01*
X401393Y660000D02*
X483616Y660000D01*
X250190Y664000D02*
X231521Y664000D01*
X268478Y664000D02*
X278892Y664000D01*
X287528Y664000D02*
X347069Y664000D01*
X369211Y664000D02*
X370332Y664000D01*
X395120Y664000D02*
X395120Y664000D01*
X401430Y664000D02*
X483616Y664000D01*
X250190Y668000D02*
X231521Y668000D01*
X268478Y668000D02*
X276236Y668000D01*
X290184Y668000D02*
X301636Y668000D01*
X315584Y668000D02*
X346846Y668000D01*
X369434Y668000D02*
X373603Y668000D01*
X395120Y668000D02*
X395120Y668000D01*
X401430Y668000D02*
X483616Y668000D01*
X250190Y672000D02*
X231521Y672000D01*
X268478Y672000D02*
X273532Y672000D01*
X292888Y672000D02*
X298932Y672000D01*
X335207Y672000D02*
X346846Y672000D01*
X369434Y672000D02*
X377029Y672000D01*
X395120Y672000D02*
X395120Y672000D01*
X401200Y672000D02*
X483616Y672000D01*
X249958Y676000D02*
X231521Y676000D01*
X268478Y676000D02*
X272876Y676000D01*
X293544Y676000D02*
X298276Y676000D01*
X372227Y676000D02*
X384302Y676000D01*
X392938Y676000D02*
X483616Y676000D01*
X245958Y680000D02*
X231521Y680000D01*
X268478Y680000D02*
X273831Y680000D01*
X292589Y680000D02*
X299231Y680000D01*
X317989Y680000D02*
X330993Y680000D01*
X376227Y680000D02*
X383326Y680000D01*
X393914Y680000D02*
X419655Y680000D01*
X428705Y680000D02*
X445055Y680000D01*
X454105Y680000D02*
X468577Y680000D01*
X473964Y680000D02*
X475996Y680000D01*
X481383Y680000D02*
X483616Y680000D01*
X242570Y684000D02*
X231521Y684000D01*
X268478Y684000D02*
X276956Y684000D01*
X289464Y684000D02*
X302356Y684000D01*
X314864Y684000D02*
X346846Y684000D01*
X393914Y684000D02*
X415466Y684000D01*
X432894Y684000D02*
X440866Y684000D01*
X458294Y684000D02*
X465192Y684000D01*
X473964Y684000D02*
X475996Y684000D01*
X242570Y688000D02*
X231521Y688000D01*
X256637Y688000D02*
X259842Y688000D01*
X268478Y688000D02*
X346846Y688000D01*
X369434Y688000D02*
X372013Y688000D01*
X393914Y688000D02*
X414274Y688000D01*
X434086Y688000D02*
X439674Y688000D01*
X459486Y688000D02*
X464058Y688000D01*
X473964Y688000D02*
X475996Y688000D01*
X242194Y692000D02*
X231521Y692000D01*
X255778Y692000D02*
X259842Y692000D01*
X268478Y692000D02*
X272828Y692000D01*
X275812Y692000D02*
X288548Y692000D01*
X291532Y692000D02*
X346846Y692000D01*
X369434Y692000D02*
X383529Y692000D01*
X393711Y692000D02*
X414274Y692000D01*
X434086Y692000D02*
X439674Y692000D01*
X459486Y692000D02*
X464058Y692000D01*
X473964Y692000D02*
X475996Y692000D01*
X240312Y696000D02*
X231521Y696000D01*
X257542Y696000D02*
X259842Y696000D01*
X296122Y696000D02*
X414274Y696000D01*
X434086Y696000D02*
X439674Y696000D01*
X459486Y696000D02*
X473964Y696000D01*
X240312Y700000D02*
X231521Y700000D01*
X257956Y700000D02*
X259842Y700000D01*
X296536Y700000D02*
X414274Y700000D01*
X434086Y700000D02*
X439674Y700000D01*
X459486Y700000D02*
X464058Y700000D01*
X473964Y700000D02*
X475996Y700000D01*
X240312Y704000D02*
X231521Y704000D01*
X257092Y704000D02*
X259842Y704000D01*
X295672Y704000D02*
X414274Y704000D01*
X434086Y704000D02*
X439674Y704000D01*
X459486Y704000D02*
X464069Y704000D01*
X473964Y704000D02*
X475996Y704000D01*
X240883Y708000D02*
X231521Y708000D01*
X258036Y708000D02*
X259842Y708000D01*
X296616Y708000D02*
X415499Y708000D01*
X432861Y708000D02*
X440899Y708000D01*
X458261Y708000D02*
X465233Y708000D01*
X473964Y708000D02*
X475996Y708000D01*
X246572Y712000D02*
X231521Y712000D01*
X256348Y712000D02*
X259842Y712000D01*
X268478Y712000D02*
X269432Y712000D01*
X279208Y712000D02*
X285152Y712000D01*
X294928Y712000D02*
X358853Y712000D01*
X379794Y712000D02*
X382206Y712000D01*
X394294Y712000D02*
X419849Y712000D01*
X428511Y712000D02*
X445249Y712000D01*
X453911Y712000D02*
X468687Y712000D01*
X473964Y712000D02*
X475996Y712000D01*
X481273Y712000D02*
X483616Y712000D01*
X259842Y716000D02*
X231521Y716000D01*
X268478Y716000D02*
X354853Y716000D01*
X379794Y716000D02*
X382206Y716000D01*
X394294Y716000D02*
X419862Y716000D01*
X428498Y716000D02*
X483616Y716000D01*
X259842Y720000D02*
X231521Y720000D01*
X268478Y720000D02*
X353822Y720000D01*
X379794Y720000D02*
X382206Y720000D01*
X394294Y720000D02*
X419862Y720000D01*
X428498Y720000D02*
X483616Y720000D01*
X259842Y724000D02*
X231521Y724000D01*
X268478Y724000D02*
X353822Y724000D01*
X362458Y724000D02*
X384302Y724000D01*
X392938Y724000D02*
X419862Y724000D01*
X428498Y724000D02*
X483616Y724000D01*
X259842Y728000D02*
X231521Y728000D01*
X268478Y728000D02*
X353822Y728000D01*
X362458Y728000D02*
X379889Y728000D01*
X397351Y728000D02*
X419862Y728000D01*
X428498Y728000D02*
X483616Y728000D01*
X259842Y732000D02*
X231521Y732000D01*
X268478Y732000D02*
X346846Y732000D01*
X369434Y732000D02*
X378826Y732000D01*
X398414Y732000D02*
X419862Y732000D01*
X428498Y732000D02*
X483616Y732000D01*
X259842Y736000D02*
X231521Y736000D01*
X268478Y736000D02*
X346846Y736000D01*
X369434Y736000D02*
X378826Y736000D01*
X398414Y736000D02*
X417629Y736000D01*
X430731Y736000D02*
X443029Y736000D01*
X456131Y736000D02*
X466992Y736000D01*
X473964Y736000D02*
X475996Y736000D01*
X482968Y736000D02*
X483616Y736000D01*
X259842Y740000D02*
X231521Y740000D01*
X268478Y740000D02*
X335280Y740000D01*
X342900Y740000D02*
X346846Y740000D01*
X369434Y740000D02*
X378826Y740000D01*
X398414Y740000D02*
X414890Y740000D01*
X433470Y740000D02*
X440290Y740000D01*
X458870Y740000D02*
X464619Y740000D01*
X473964Y740000D02*
X475996Y740000D01*
X259842Y744000D02*
X231521Y744000D01*
X268478Y744000D02*
X332589Y744000D01*
X369434Y744000D02*
X414274Y744000D01*
X434086Y744000D02*
X439674Y744000D01*
X459486Y744000D02*
X464058Y744000D01*
X473964Y744000D02*
X475996Y744000D01*
X259842Y748000D02*
X231521Y748000D01*
X268478Y748000D02*
X333012Y748000D01*
X369434Y748000D02*
X378889Y748000D01*
X398351Y748000D02*
X414274Y748000D01*
X434086Y748000D02*
X439674Y748000D01*
X459486Y748000D02*
X464058Y748000D01*
X473964Y748000D02*
X475996Y748000D01*
X259842Y752000D02*
X231521Y752000D01*
X268478Y752000D02*
X337623Y752000D01*
X340557Y752000D02*
X346846Y752000D01*
X369434Y752000D02*
X378826Y752000D01*
X398414Y752000D02*
X414274Y752000D01*
X434086Y752000D02*
X439674Y752000D01*
X459486Y752000D02*
X464058Y752000D01*
X473964Y752000D02*
X475996Y752000D01*
X259842Y756000D02*
X231521Y756000D01*
X270617Y756000D02*
X346846Y756000D01*
X369434Y756000D02*
X378826Y756000D01*
X398414Y756000D02*
X414274Y756000D01*
X434086Y756000D02*
X439674Y756000D01*
X459486Y756000D02*
X464058Y756000D01*
X473964Y756000D02*
X475996Y756000D01*
X262403Y760000D02*
X231521Y760000D01*
X341927Y760000D02*
X347399Y760000D01*
X368881Y760000D02*
X379449Y760000D01*
X397791Y760000D02*
X414418Y760000D01*
X433942Y760000D02*
X439818Y760000D01*
X459342Y760000D02*
X464289Y760000D01*
X473964Y760000D02*
X475996Y760000D01*
X266403Y764000D02*
X231521Y764000D01*
X375137Y764000D02*
X377719Y764000D01*
X395120Y764000D02*
X395120Y764000D01*
X400836Y764000D02*
X416489Y764000D01*
X431871Y764000D02*
X441889Y764000D01*
X457271Y764000D02*
X466070Y764000D01*
X473964Y764000D02*
X475996Y764000D01*
X337713Y768000D02*
X231521Y768000D01*
X395120Y768000D02*
X395120Y768000D01*
X401430Y768000D02*
X471391Y768000D01*
X473964Y768000D02*
X475996Y768000D01*
X478569Y768000D02*
X483616Y768000D01*
X275106Y772000D02*
X231521Y772000D01*
X291314Y772000D02*
X300506Y772000D01*
X316714Y772000D02*
X346846Y772000D01*
X395120Y772000D02*
X395120Y772000D01*
X401430Y772000D02*
X483616Y772000D01*
X273064Y776000D02*
X231521Y776000D01*
X293356Y776000D02*
X298464Y776000D01*
X335067Y776000D02*
X346846Y776000D01*
X395120Y776000D02*
X395120Y776000D01*
X401430Y776000D02*
X483616Y776000D01*
X272876Y780000D02*
X231521Y780000D01*
X293544Y780000D02*
X298276Y780000D01*
X392938Y780000D02*
X483616Y780000D01*
X274299Y784000D02*
X231521Y784000D01*
X292121Y784000D02*
X299699Y784000D01*
X317521Y784000D02*
X330853Y784000D01*
X393021Y784000D02*
X483616Y784000D01*
X279117Y788000D02*
X231521Y788000D01*
X287303Y788000D02*
X304517Y788000D01*
X312703Y788000D02*
X346846Y788000D01*
X369434Y788000D02*
X370413Y788000D01*
X393914Y788000D02*
X483616Y788000D01*
X346846Y792000D02*
X231521Y792000D01*
X369434Y792000D02*
X374413Y792000D01*
X393914Y792000D02*
X483616Y792000D01*
X346846Y796000D02*
X230510Y796000D01*
X369434Y796000D02*
X383326Y796000D01*
X393914Y796000D02*
X483616Y796000D01*
X483616Y800000D02*
X227623Y800000D01*
X218440Y804000D02*
X483616Y804000D01*
X483616Y808000D02*
X218440Y808000D01*
X218440Y812000D02*
X483616Y812000D01*
X483616Y816000D02*
X218440Y816000D01*
X218440Y820000D02*
X443274Y820000D01*
X466046Y820000D02*
X483616Y820000D01*
X435664Y824000D02*
X218440Y824000D01*
X473656Y824000D02*
X483616Y824000D01*
X431182Y828000D02*
X218440Y828000D01*
X478138Y828000D02*
X483616Y828000D01*
X427705Y832000D02*
X218440Y832000D01*
X481615Y832000D02*
X483616Y832000D01*
X425395Y836000D02*
X218440Y836000D01*
X218440Y840000D02*
X423630Y840000D01*
X422558Y844000D02*
X218440Y844000D01*
X218440Y848000D02*
X421866Y848000D01*
X421866Y852000D02*
X218440Y852000D01*
X218440Y856000D02*
X422076Y856000D01*
X423148Y860000D02*
X218440Y860000D01*
X218440Y864000D02*
X424356Y864000D01*
X426665Y868000D02*
X218440Y868000D01*
X218440Y872000D02*
X429382Y872000D01*
X433382Y876000D02*
X218440Y876000D01*
X218440Y880000D02*
X439475Y880000D01*
X220000Y11049D02*
X220000Y-67310D01*
X220000Y803021D02*
X220000Y880618D01*
X224000Y11853D02*
X224000Y-67310D01*
X224000Y802217D02*
X224000Y880618D01*
X228000Y14447D02*
X228000Y-67310D01*
X228000Y799623D02*
X228000Y880618D01*
X232000Y298870D02*
X232000Y-67310D01*
X232000Y325852D02*
X232000Y572698D01*
X232000Y585542D02*
X232000Y880618D01*
X236000Y294870D02*
X236000Y-67310D01*
X236000Y329852D02*
X236000Y570693D01*
X236000Y585277D02*
X236000Y594264D01*
X236000Y598766D02*
X236000Y880618D01*
X240000Y292382D02*
X240000Y-67310D01*
X240000Y581046D02*
X240000Y590303D01*
X240000Y602728D02*
X240000Y880618D01*
X244000Y289643D02*
X244000Y-67310D01*
X244000Y620274D02*
X244000Y681958D01*
X244000Y711117D02*
X244000Y880618D01*
X248000Y285643D02*
X248000Y-67310D01*
X248000Y621256D02*
X248000Y677958D01*
X248000Y713273D02*
X248000Y880618D01*
X252000Y281643D02*
X252000Y-67310D01*
X252000Y714164D02*
X252000Y880618D01*
X256000Y278892D02*
X256000Y-67310D01*
X256000Y297477D02*
X256000Y429928D01*
X256000Y688637D02*
X256000Y693740D01*
X256000Y712348D02*
X256000Y880618D01*
X260000Y278892D02*
X260000Y-67310D01*
X260000Y295148D02*
X260000Y425928D01*
X260000Y757597D02*
X260000Y880618D01*
X264000Y275993D02*
X264000Y-67310D01*
X264000Y295148D02*
X264000Y406605D01*
X264000Y440607D02*
X264000Y496973D01*
X264000Y761597D02*
X264000Y880618D01*
X268000Y259293D02*
X268000Y-67310D01*
X268000Y295148D02*
X268000Y402605D01*
X268000Y436607D02*
X268000Y492973D01*
X268000Y765597D02*
X268000Y880618D01*
X272000Y203360D02*
X272000Y-67310D01*
X272000Y296987D02*
X272000Y395491D01*
X272000Y432607D02*
X272000Y492252D01*
X272000Y501187D02*
X272000Y692343D01*
X272000Y713745D02*
X272000Y757383D01*
X272000Y766318D02*
X272000Y880618D01*
X276000Y58636D02*
X276000Y-67310D01*
X276000Y73444D02*
X276000Y160236D01*
X276000Y175044D02*
X276000Y201704D01*
X276000Y297252D02*
X276000Y363436D01*
X276000Y378244D02*
X276000Y394546D01*
X276000Y428607D02*
X276000Y465036D01*
X276000Y479844D02*
X276000Y492252D01*
X276000Y500888D02*
X276000Y565366D01*
X276000Y580174D02*
X276000Y668236D01*
X276000Y683044D02*
X276000Y692078D01*
X276000Y714010D02*
X276000Y757682D01*
X276000Y766318D02*
X276000Y771106D01*
X276000Y785914D02*
X276000Y880618D01*
X280000Y35203D02*
X280000Y-67310D01*
X280000Y133807D02*
X280000Y135533D01*
X280000Y335637D02*
X280000Y340003D01*
X280000Y437337D02*
X280000Y441603D01*
X280000Y482296D02*
X280000Y492252D01*
X280000Y500888D02*
X280000Y500942D01*
X280000Y536347D02*
X280000Y541933D01*
X280000Y685496D02*
X280000Y694182D01*
X280000Y711906D02*
X280000Y757682D01*
X280000Y766318D02*
X280000Y768654D01*
X280000Y788366D02*
X280000Y880618D01*
X284000Y31203D02*
X284000Y-67310D01*
X284000Y482774D02*
X284000Y492252D01*
X284000Y685974D02*
X284000Y694182D01*
X284000Y711906D02*
X284000Y757682D01*
X284000Y766318D02*
X284000Y768176D01*
X284000Y788844D02*
X284000Y880618D01*
X288000Y27482D02*
X288000Y-67310D01*
X288000Y39417D02*
X288000Y56839D01*
X288000Y75241D02*
X288000Y129593D01*
X288000Y139747D02*
X288000Y158439D01*
X288000Y176841D02*
X288000Y231193D01*
X288000Y241347D02*
X288000Y260039D01*
X288000Y278441D02*
X288000Y284884D01*
X288000Y306191D02*
X288000Y331423D01*
X288000Y344217D02*
X288000Y361639D01*
X288000Y380041D02*
X288000Y395176D01*
X288000Y416156D02*
X288000Y433123D01*
X288000Y445817D02*
X288000Y463239D01*
X288000Y481641D02*
X288000Y492252D01*
X288000Y500888D02*
X288000Y502220D01*
X288000Y511240D02*
X288000Y532133D01*
X288000Y546147D02*
X288000Y563569D01*
X288000Y581971D02*
X288000Y635812D01*
X288000Y644448D02*
X288000Y666439D01*
X288000Y684841D02*
X288000Y692227D01*
X288000Y713861D02*
X288000Y757682D01*
X288000Y766318D02*
X288000Y769309D01*
X288000Y787711D02*
X288000Y880618D01*
X292000Y27482D02*
X292000Y-67310D01*
X292000Y36118D02*
X292000Y60257D01*
X292000Y71823D02*
X292000Y130352D01*
X292000Y138988D02*
X292000Y161857D01*
X292000Y173423D02*
X292000Y231952D01*
X292000Y240588D02*
X292000Y263457D01*
X292000Y275023D02*
X292000Y284254D01*
X292000Y306224D02*
X292000Y333552D01*
X292000Y342188D02*
X292000Y365057D01*
X292000Y376623D02*
X292000Y394546D01*
X292000Y416786D02*
X292000Y435152D01*
X292000Y443788D02*
X292000Y466657D01*
X292000Y478223D02*
X292000Y492252D01*
X292000Y500888D02*
X292000Y535482D01*
X292000Y544118D02*
X292000Y566987D01*
X292000Y578553D02*
X292000Y635812D01*
X292000Y644448D02*
X292000Y669857D01*
X292000Y681423D02*
X292000Y692194D01*
X292000Y713894D02*
X292000Y757682D01*
X292000Y766318D02*
X292000Y772727D01*
X292000Y784293D02*
X292000Y880618D01*
X296000Y27482D02*
X296000Y-67310D01*
X296000Y36118D02*
X296000Y130352D01*
X296000Y138988D02*
X296000Y231952D01*
X296000Y240588D02*
X296000Y286512D01*
X296000Y304236D02*
X296000Y333552D01*
X296000Y342188D02*
X296000Y396804D01*
X296000Y414528D02*
X296000Y435152D01*
X296000Y443788D02*
X296000Y492252D01*
X296000Y500888D02*
X296000Y535482D01*
X296000Y544118D02*
X296000Y635812D01*
X296000Y644448D02*
X296000Y695705D01*
X296000Y701295D02*
X296000Y704793D01*
X296000Y710383D02*
X296000Y757682D01*
X296000Y766318D02*
X296000Y880618D01*
X300000Y27482D02*
X300000Y-67310D01*
X300000Y36118D02*
X300000Y60036D01*
X300000Y72044D02*
X300000Y130352D01*
X300000Y138988D02*
X300000Y161636D01*
X300000Y173644D02*
X300000Y231952D01*
X300000Y240588D02*
X300000Y263236D01*
X300000Y275244D02*
X300000Y286512D01*
X300000Y303007D02*
X300000Y333552D01*
X300000Y342188D02*
X300000Y364836D01*
X300000Y376844D02*
X300000Y396804D01*
X300000Y414528D02*
X300000Y435152D01*
X300000Y443788D02*
X300000Y466436D01*
X300000Y478444D02*
X300000Y492252D01*
X300000Y500888D02*
X300000Y535482D01*
X300000Y544118D02*
X300000Y566766D01*
X300000Y578774D02*
X300000Y635812D01*
X300000Y644448D02*
X300000Y669636D01*
X300000Y681644D02*
X300000Y757682D01*
X300000Y766318D02*
X300000Y772506D01*
X300000Y784514D02*
X300000Y880618D01*
X304000Y27482D02*
X304000Y-67310D01*
X304000Y36118D02*
X304000Y56764D01*
X304000Y75316D02*
X304000Y130352D01*
X304000Y138988D02*
X304000Y158364D01*
X304000Y176916D02*
X304000Y231952D01*
X304000Y240588D02*
X304000Y259964D01*
X304000Y278516D02*
X304000Y286512D01*
X304000Y299720D02*
X304000Y333552D01*
X304000Y342188D02*
X304000Y361564D01*
X304000Y380116D02*
X304000Y399493D01*
X304000Y414528D02*
X304000Y435152D01*
X304000Y443788D02*
X304000Y463164D01*
X304000Y481716D02*
X304000Y492252D01*
X304000Y500888D02*
X304000Y535482D01*
X304000Y544118D02*
X304000Y563494D01*
X304000Y582046D02*
X304000Y635812D01*
X304000Y644448D02*
X304000Y666364D01*
X304000Y684916D02*
X304000Y757682D01*
X304000Y766318D02*
X304000Y769234D01*
X304000Y787786D02*
X304000Y880618D01*
X308000Y27482D02*
X308000Y-67310D01*
X308000Y36118D02*
X308000Y55706D01*
X308000Y76374D02*
X308000Y130352D01*
X308000Y138988D02*
X308000Y157306D01*
X308000Y177974D02*
X308000Y231952D01*
X308000Y240588D02*
X308000Y258906D01*
X308000Y279574D02*
X308000Y286512D01*
X308000Y299720D02*
X308000Y333552D01*
X308000Y342188D02*
X308000Y360506D01*
X308000Y381174D02*
X308000Y400812D01*
X308000Y414528D02*
X308000Y435152D01*
X308000Y443788D02*
X308000Y462106D01*
X308000Y482774D02*
X308000Y492252D01*
X308000Y500888D02*
X308000Y535482D01*
X308000Y544118D02*
X308000Y562436D01*
X308000Y583104D02*
X308000Y635812D01*
X308000Y644448D02*
X308000Y665306D01*
X308000Y685974D02*
X308000Y757682D01*
X308000Y766318D02*
X308000Y768176D01*
X308000Y788844D02*
X308000Y880618D01*
X312000Y27482D02*
X312000Y-67310D01*
X312000Y36118D02*
X312000Y56259D01*
X312000Y75821D02*
X312000Y130352D01*
X312000Y138988D02*
X312000Y157859D01*
X312000Y177421D02*
X312000Y231952D01*
X312000Y240588D02*
X312000Y259459D01*
X312000Y279021D02*
X312000Y286512D01*
X312000Y299720D02*
X312000Y333552D01*
X312000Y342188D02*
X312000Y361059D01*
X312000Y380621D02*
X312000Y400812D01*
X312000Y414528D02*
X312000Y435152D01*
X312000Y443788D02*
X312000Y462659D01*
X312000Y482221D02*
X312000Y492252D01*
X312000Y500888D02*
X312000Y535482D01*
X312000Y544118D02*
X312000Y562989D01*
X312000Y582551D02*
X312000Y635812D01*
X312000Y644448D02*
X312000Y665859D01*
X312000Y685421D02*
X312000Y757682D01*
X312000Y766318D02*
X312000Y768729D01*
X312000Y788291D02*
X312000Y880618D01*
X316000Y27482D02*
X316000Y-67310D01*
X316000Y36118D02*
X316000Y58816D01*
X316000Y73264D02*
X316000Y130352D01*
X316000Y138988D02*
X316000Y160416D01*
X316000Y174864D02*
X316000Y231952D01*
X316000Y240588D02*
X316000Y262016D01*
X316000Y276464D02*
X316000Y286512D01*
X316000Y299720D02*
X316000Y333552D01*
X316000Y342188D02*
X316000Y363616D01*
X316000Y378064D02*
X316000Y400812D01*
X316000Y414528D02*
X316000Y435152D01*
X316000Y443788D02*
X316000Y465216D01*
X316000Y479664D02*
X316000Y492252D01*
X316000Y500888D02*
X316000Y535482D01*
X316000Y544118D02*
X316000Y565546D01*
X316000Y579994D02*
X316000Y635812D01*
X316000Y644448D02*
X316000Y668416D01*
X316000Y682864D02*
X316000Y757682D01*
X316000Y766318D02*
X316000Y771286D01*
X316000Y785734D02*
X316000Y880618D01*
X320000Y27482D02*
X320000Y-67310D01*
X320000Y36118D02*
X320000Y61722D01*
X320000Y70358D02*
X320000Y130352D01*
X320000Y138988D02*
X320000Y163322D01*
X320000Y171958D02*
X320000Y231952D01*
X320000Y240588D02*
X320000Y264922D01*
X320000Y273558D02*
X320000Y286512D01*
X320000Y299720D02*
X320000Y333552D01*
X320000Y342188D02*
X320000Y366522D01*
X320000Y375158D02*
X320000Y400812D01*
X320000Y414528D02*
X320000Y435152D01*
X320000Y443788D02*
X320000Y468122D01*
X320000Y476758D02*
X320000Y492252D01*
X320000Y500888D02*
X320000Y535482D01*
X320000Y544118D02*
X320000Y568452D01*
X320000Y577088D02*
X320000Y635812D01*
X320000Y644448D02*
X320000Y671322D01*
X320000Y679958D02*
X320000Y757682D01*
X320000Y766318D02*
X320000Y774192D01*
X320000Y782828D02*
X320000Y880618D01*
X324000Y27482D02*
X324000Y-67310D01*
X324000Y36118D02*
X324000Y61722D01*
X324000Y70358D02*
X324000Y130352D01*
X324000Y138988D02*
X324000Y163322D01*
X324000Y171958D02*
X324000Y231952D01*
X324000Y240588D02*
X324000Y264922D01*
X324000Y273558D02*
X324000Y286512D01*
X324000Y299720D02*
X324000Y333552D01*
X324000Y342188D02*
X324000Y366522D01*
X324000Y375158D02*
X324000Y400812D01*
X324000Y414528D02*
X324000Y435152D01*
X324000Y443788D02*
X324000Y468122D01*
X324000Y476758D02*
X324000Y492252D01*
X324000Y500888D02*
X324000Y535482D01*
X324000Y544118D02*
X324000Y568452D01*
X324000Y577088D02*
X324000Y635812D01*
X324000Y644448D02*
X324000Y671322D01*
X324000Y679958D02*
X324000Y757682D01*
X324000Y766318D02*
X324000Y774192D01*
X324000Y782828D02*
X324000Y880618D01*
X328000Y27482D02*
X328000Y-67310D01*
X328000Y36118D02*
X328000Y61722D01*
X328000Y70358D02*
X328000Y130352D01*
X328000Y138988D02*
X328000Y163322D01*
X328000Y171958D02*
X328000Y231952D01*
X328000Y240588D02*
X328000Y264922D01*
X328000Y273558D02*
X328000Y286512D01*
X328000Y299720D02*
X328000Y333552D01*
X328000Y342188D02*
X328000Y366522D01*
X328000Y375158D02*
X328000Y400812D01*
X328000Y414528D02*
X328000Y435152D01*
X328000Y443788D02*
X328000Y468122D01*
X328000Y476758D02*
X328000Y492252D01*
X328000Y500888D02*
X328000Y535482D01*
X328000Y544118D02*
X328000Y568452D01*
X328000Y577088D02*
X328000Y635812D01*
X328000Y644448D02*
X328000Y671322D01*
X328000Y679958D02*
X328000Y757682D01*
X328000Y766318D02*
X328000Y774192D01*
X328000Y782828D02*
X328000Y880618D01*
X332000Y27482D02*
X332000Y-67310D01*
X332000Y36118D02*
X332000Y61722D01*
X332000Y70358D02*
X332000Y130352D01*
X332000Y138988D02*
X332000Y163322D01*
X332000Y173007D02*
X332000Y231952D01*
X332000Y240588D02*
X332000Y264922D01*
X332000Y273558D02*
X332000Y286512D01*
X332000Y299720D02*
X332000Y333552D01*
X332000Y342188D02*
X332000Y366522D01*
X332000Y375158D02*
X332000Y400812D01*
X332000Y414528D02*
X332000Y435152D01*
X332000Y443788D02*
X332000Y468122D01*
X332000Y476758D02*
X332000Y492252D01*
X332000Y500888D02*
X332000Y535482D01*
X332000Y544118D02*
X332000Y568452D01*
X332000Y577088D02*
X332000Y635812D01*
X332000Y644448D02*
X332000Y671322D01*
X332000Y681007D02*
X332000Y757682D01*
X332000Y766318D02*
X332000Y774192D01*
X332000Y785147D02*
X332000Y880618D01*
X336000Y27482D02*
X336000Y-67310D01*
X336000Y36118D02*
X336000Y61722D01*
X336000Y70358D02*
X336000Y130352D01*
X336000Y138988D02*
X336000Y164793D01*
X336000Y177007D02*
X336000Y231952D01*
X336000Y240588D02*
X336000Y265123D01*
X336000Y277337D02*
X336000Y286512D01*
X336000Y299720D02*
X336000Y333552D01*
X336000Y342188D02*
X336000Y366723D01*
X336000Y378937D02*
X336000Y400812D01*
X336000Y414528D02*
X336000Y435152D01*
X336000Y443788D02*
X336000Y468122D01*
X336000Y479267D02*
X336000Y492252D01*
X336000Y500888D02*
X336000Y535482D01*
X336000Y544118D02*
X336000Y568653D01*
X336000Y580867D02*
X336000Y635812D01*
X336000Y644448D02*
X336000Y672793D01*
X336000Y682498D02*
X336000Y739652D01*
X336000Y751328D02*
X336000Y757682D01*
X336000Y766318D02*
X336000Y776933D01*
X336000Y787858D02*
X336000Y880618D01*
X340000Y27482D02*
X340000Y-67310D01*
X340000Y36118D02*
X340000Y62113D01*
X340000Y74118D02*
X340000Y130352D01*
X340000Y138988D02*
X340000Y168402D01*
X340000Y177038D02*
X340000Y231952D01*
X340000Y240588D02*
X340000Y269123D01*
X340000Y278588D02*
X340000Y286512D01*
X340000Y299720D02*
X340000Y333552D01*
X340000Y342188D02*
X340000Y370723D01*
X340000Y380188D02*
X340000Y400812D01*
X340000Y414528D02*
X340000Y435152D01*
X340000Y443788D02*
X340000Y471053D01*
X340000Y483108D02*
X340000Y492252D01*
X340000Y500888D02*
X340000Y535482D01*
X340000Y544118D02*
X340000Y572653D01*
X340000Y582118D02*
X340000Y635812D01*
X340000Y644448D02*
X340000Y673862D01*
X340000Y682498D02*
X340000Y738914D01*
X340000Y752066D02*
X340000Y758073D01*
X340000Y770128D02*
X340000Y779222D01*
X340000Y787858D02*
X340000Y880618D01*
X344000Y27482D02*
X344000Y-67310D01*
X344000Y36118D02*
X344000Y65482D01*
X344000Y74118D02*
X344000Y130352D01*
X344000Y138988D02*
X344000Y168402D01*
X344000Y177038D02*
X344000Y231952D01*
X344000Y240588D02*
X344000Y269952D01*
X344000Y278588D02*
X344000Y286512D01*
X344000Y299720D02*
X344000Y333552D01*
X344000Y342188D02*
X344000Y371552D01*
X344000Y380188D02*
X344000Y400812D01*
X344000Y414528D02*
X344000Y435152D01*
X344000Y443788D02*
X344000Y474726D01*
X344000Y482854D02*
X344000Y492252D01*
X344000Y500888D02*
X344000Y535482D01*
X344000Y544118D02*
X344000Y573482D01*
X344000Y582118D02*
X344000Y635812D01*
X344000Y644448D02*
X344000Y673862D01*
X344000Y682498D02*
X344000Y741100D01*
X344000Y749880D02*
X344000Y761492D01*
X344000Y770128D02*
X344000Y779222D01*
X344000Y787858D02*
X344000Y880618D01*
X348000Y16739D02*
X348000Y-67310D01*
X348000Y46861D02*
X348000Y54739D01*
X348000Y84861D02*
X348000Y119609D01*
X348000Y149731D02*
X348000Y157609D01*
X348000Y198550D02*
X348000Y221209D01*
X348000Y251331D02*
X348000Y259209D01*
X348000Y299720D02*
X348000Y322809D01*
X348000Y352931D02*
X348000Y360809D01*
X348000Y390931D02*
X348000Y400812D01*
X348000Y414528D02*
X348000Y424409D01*
X348000Y454531D02*
X348000Y462409D01*
X348000Y500888D02*
X348000Y524739D01*
X348000Y554861D02*
X348000Y562739D01*
X348000Y592861D02*
X348000Y625069D01*
X348000Y655191D02*
X348000Y663069D01*
X348000Y693191D02*
X348000Y730479D01*
X348000Y760601D02*
X348000Y761492D01*
X348000Y798601D02*
X348000Y880618D01*
X352000Y16256D02*
X352000Y-67310D01*
X352000Y47344D02*
X352000Y54256D01*
X352000Y85344D02*
X352000Y119126D01*
X352000Y150214D02*
X352000Y157126D01*
X352000Y199616D02*
X352000Y220726D01*
X352000Y251814D02*
X352000Y258726D01*
X352000Y299720D02*
X352000Y322326D01*
X352000Y353414D02*
X352000Y360326D01*
X352000Y391414D02*
X352000Y400812D01*
X352000Y414528D02*
X352000Y423926D01*
X352000Y455014D02*
X352000Y461926D01*
X352000Y500888D02*
X352000Y524256D01*
X352000Y555344D02*
X352000Y562256D01*
X352000Y593344D02*
X352000Y624586D01*
X352000Y655674D02*
X352000Y662586D01*
X352000Y693674D02*
X352000Y729996D01*
X352000Y761084D02*
X352000Y761492D01*
X352000Y799084D02*
X352000Y880618D01*
X356000Y7463D02*
X356000Y-67310D01*
X356000Y47344D02*
X356000Y54256D01*
X356000Y85344D02*
X356000Y101443D01*
X356000Y150214D02*
X356000Y157126D01*
X356000Y198130D02*
X356000Y205583D01*
X356000Y251814D02*
X356000Y258726D01*
X356000Y299720D02*
X356000Y307183D01*
X356000Y353414D02*
X356000Y360326D01*
X356000Y391414D02*
X356000Y397122D01*
X356000Y455014D02*
X356000Y461926D01*
X356000Y500888D02*
X356000Y510383D01*
X356000Y555344D02*
X356000Y562256D01*
X356000Y593344D02*
X356000Y609443D01*
X356000Y655674D02*
X356000Y662586D01*
X356000Y693674D02*
X356000Y714853D01*
X356000Y761084D02*
X356000Y761492D01*
X356000Y799084D02*
X356000Y880618D01*
X360000Y3463D02*
X360000Y-67310D01*
X360000Y47344D02*
X360000Y54256D01*
X360000Y85344D02*
X360000Y97443D01*
X360000Y150214D02*
X360000Y157126D01*
X360000Y188214D02*
X360000Y188722D01*
X360000Y197358D02*
X360000Y201583D01*
X360000Y251814D02*
X360000Y258726D01*
X360000Y299720D02*
X360000Y304292D01*
X360000Y353414D02*
X360000Y360326D01*
X360000Y391414D02*
X360000Y395478D01*
X360000Y455014D02*
X360000Y461926D01*
X360000Y500888D02*
X360000Y506383D01*
X360000Y555344D02*
X360000Y562256D01*
X360000Y593344D02*
X360000Y607822D01*
X360000Y655674D02*
X360000Y662586D01*
X360000Y693674D02*
X360000Y711962D01*
X360000Y761084D02*
X360000Y761492D01*
X360000Y799084D02*
X360000Y880618D01*
X364000Y2032D02*
X364000Y-67310D01*
X364000Y11677D02*
X364000Y16256D01*
X364000Y47344D02*
X364000Y54256D01*
X364000Y85344D02*
X364000Y97282D01*
X364000Y105918D02*
X364000Y119126D01*
X364000Y150214D02*
X364000Y157126D01*
X364000Y188214D02*
X364000Y188722D01*
X364000Y197358D02*
X364000Y198882D01*
X364000Y209797D02*
X364000Y220726D01*
X364000Y251814D02*
X364000Y258726D01*
X364000Y299720D02*
X364000Y304292D01*
X364000Y312928D02*
X364000Y322326D01*
X364000Y353414D02*
X364000Y360326D01*
X364000Y391414D02*
X364000Y392112D01*
X364000Y414267D02*
X364000Y423926D01*
X364000Y455014D02*
X364000Y461926D01*
X364000Y500888D02*
X364000Y503682D01*
X364000Y514597D02*
X364000Y524256D01*
X364000Y555344D02*
X364000Y562256D01*
X364000Y593344D02*
X364000Y607822D01*
X364000Y616458D02*
X364000Y624586D01*
X364000Y655674D02*
X364000Y662586D01*
X364000Y693674D02*
X364000Y711962D01*
X364000Y720598D02*
X364000Y729996D01*
X364000Y761084D02*
X364000Y761492D01*
X364000Y799084D02*
X364000Y880618D01*
X368000Y2032D02*
X368000Y-67310D01*
X368000Y10668D02*
X368000Y16459D01*
X368000Y47141D02*
X368000Y53230D01*
X368000Y85141D02*
X368000Y95649D01*
X368000Y107551D02*
X368000Y119329D01*
X368000Y150011D02*
X368000Y157329D01*
X368000Y188011D02*
X368000Y188722D01*
X368000Y197358D02*
X368000Y198882D01*
X368000Y207518D02*
X368000Y220929D01*
X368000Y251611D02*
X368000Y257700D01*
X368000Y299720D02*
X368000Y302659D01*
X368000Y314561D02*
X368000Y322529D01*
X368000Y353211D02*
X368000Y359300D01*
X368000Y414891D02*
X368000Y424129D01*
X368000Y454811D02*
X368000Y460900D01*
X368000Y500888D02*
X368000Y503682D01*
X368000Y512318D02*
X368000Y524459D01*
X368000Y555141D02*
X368000Y562459D01*
X368000Y593141D02*
X368000Y606189D01*
X368000Y618091D02*
X368000Y624789D01*
X368000Y655471D02*
X368000Y662789D01*
X368000Y693471D02*
X368000Y710329D01*
X368000Y722231D02*
X368000Y730199D01*
X368000Y760881D02*
X368000Y761492D01*
X368000Y798881D02*
X368000Y880618D01*
X372000Y2032D02*
X372000Y-67310D01*
X372000Y10668D02*
X372000Y50604D01*
X372000Y74118D02*
X372000Y94306D01*
X372000Y108894D02*
X372000Y154000D01*
X372000Y178717D02*
X372000Y188722D01*
X372000Y210494D02*
X372000Y255074D01*
X372000Y315904D02*
X372000Y356674D01*
X372000Y416234D02*
X372000Y458274D01*
X372000Y515294D02*
X372000Y541373D01*
X372000Y566067D02*
X372000Y573482D01*
X372000Y585117D02*
X372000Y604846D01*
X372000Y619434D02*
X372000Y640433D01*
X372000Y666397D02*
X372000Y675773D01*
X372000Y687987D02*
X372000Y708986D01*
X372000Y723574D02*
X372000Y761492D01*
X372000Y789587D02*
X372000Y880618D01*
X376000Y2032D02*
X376000Y-67310D01*
X376000Y10668D02*
X376000Y50709D01*
X376000Y77307D02*
X376000Y94306D01*
X376000Y108894D02*
X376000Y153461D01*
X376000Y182717D02*
X376000Y188722D01*
X376000Y210494D02*
X376000Y255587D01*
X376000Y315904D02*
X376000Y357187D01*
X376000Y416234D02*
X376000Y458787D01*
X376000Y515294D02*
X376000Y537373D01*
X376000Y569628D02*
X376000Y576903D01*
X376000Y589117D02*
X376000Y604846D01*
X376000Y619434D02*
X376000Y636433D01*
X376000Y669958D02*
X376000Y679773D01*
X376000Y689958D02*
X376000Y708986D01*
X376000Y723574D02*
X376000Y764863D01*
X376000Y793587D02*
X376000Y880618D01*
X380000Y2032D02*
X380000Y-67310D01*
X380000Y10668D02*
X380000Y12879D01*
X380000Y26541D02*
X380000Y31879D01*
X380000Y45541D02*
X380000Y49516D01*
X380000Y81307D02*
X380000Y117019D01*
X380000Y130681D02*
X380000Y136019D01*
X380000Y149681D02*
X380000Y152386D01*
X380000Y184498D02*
X380000Y188722D01*
X380000Y209921D02*
X380000Y218619D01*
X380000Y232281D02*
X380000Y237619D01*
X380000Y251281D02*
X380000Y253986D01*
X380000Y303784D02*
X380000Y320219D01*
X380000Y333881D02*
X380000Y339219D01*
X380000Y352881D02*
X380000Y355586D01*
X380000Y387698D02*
X380000Y387759D01*
X380000Y391625D02*
X380000Y421819D01*
X380000Y435481D02*
X380000Y440819D01*
X380000Y454481D02*
X380000Y457186D01*
X380000Y500888D02*
X380000Y501279D01*
X380000Y514721D02*
X380000Y522149D01*
X380000Y573104D02*
X380000Y580903D01*
X380000Y589628D02*
X380000Y622479D01*
X380000Y673434D02*
X380000Y681322D01*
X380000Y689958D02*
X380000Y727889D01*
X380000Y741551D02*
X380000Y746889D01*
X380000Y760551D02*
X380000Y763256D01*
X380000Y795368D02*
X380000Y880618D01*
X384000Y2032D02*
X384000Y-67310D01*
X384000Y10668D02*
X384000Y12416D01*
X384000Y27004D02*
X384000Y31416D01*
X384000Y85104D02*
X384000Y94306D01*
X384000Y131144D02*
X384000Y135556D01*
X384000Y150144D02*
X384000Y152386D01*
X384000Y187011D02*
X384000Y188722D01*
X384000Y209381D02*
X384000Y218156D01*
X384000Y232744D02*
X384000Y237156D01*
X384000Y251744D02*
X384000Y253986D01*
X384000Y334344D02*
X384000Y338756D01*
X384000Y353344D02*
X384000Y355586D01*
X384000Y390211D02*
X384000Y401646D01*
X384000Y435944D02*
X384000Y440356D01*
X384000Y454944D02*
X384000Y457186D01*
X384000Y500888D02*
X384000Y501819D01*
X384000Y514181D02*
X384000Y521686D01*
X384000Y573104D02*
X384000Y578479D01*
X384000Y592141D02*
X384000Y604846D01*
X384000Y619434D02*
X384000Y622016D01*
X384000Y673434D02*
X384000Y678809D01*
X384000Y692471D02*
X384000Y708986D01*
X384000Y723574D02*
X384000Y727426D01*
X384000Y742014D02*
X384000Y746426D01*
X384000Y761014D02*
X384000Y763256D01*
X384000Y797881D02*
X384000Y880618D01*
X388000Y2032D02*
X388000Y-67310D01*
X388000Y10668D02*
X388000Y12416D01*
X388000Y27004D02*
X388000Y31416D01*
X388000Y85104D02*
X388000Y94306D01*
X388000Y131144D02*
X388000Y135556D01*
X388000Y187974D02*
X388000Y188722D01*
X388000Y232744D02*
X388000Y237156D01*
X388000Y334344D02*
X388000Y338756D01*
X388000Y391174D02*
X388000Y401646D01*
X388000Y435944D02*
X388000Y440356D01*
X388000Y593104D02*
X388000Y604846D01*
X388000Y693434D02*
X388000Y708986D01*
X388000Y742014D02*
X388000Y746426D01*
X388000Y798844D02*
X388000Y880618D01*
X392000Y2032D02*
X392000Y-67310D01*
X392000Y10668D02*
X392000Y12416D01*
X392000Y27004D02*
X392000Y31416D01*
X392000Y46004D02*
X392000Y48500D01*
X392000Y66120D02*
X392000Y70509D01*
X392000Y84111D02*
X392000Y94306D01*
X392000Y131144D02*
X392000Y135556D01*
X392000Y187974D02*
X392000Y188722D01*
X392000Y232744D02*
X392000Y237156D01*
X392000Y334344D02*
X392000Y338756D01*
X392000Y391174D02*
X392000Y401646D01*
X392000Y435944D02*
X392000Y440356D01*
X392000Y593104D02*
X392000Y604846D01*
X392000Y693434D02*
X392000Y708986D01*
X392000Y742014D02*
X392000Y746426D01*
X392000Y798844D02*
X392000Y880618D01*
X396000Y2032D02*
X396000Y-67310D01*
X396000Y10668D02*
X396000Y12416D01*
X396000Y27004D02*
X396000Y31416D01*
X396000Y46004D02*
X396000Y48500D01*
X396000Y57310D02*
X396000Y57310D01*
X396000Y66120D02*
X396000Y116556D01*
X396000Y131144D02*
X396000Y135556D01*
X396000Y150144D02*
X396000Y151370D01*
X396000Y160180D02*
X396000Y160180D01*
X396000Y168990D02*
X396000Y188722D01*
X396000Y197358D02*
X396000Y218156D01*
X396000Y232744D02*
X396000Y237156D01*
X396000Y251744D02*
X396000Y252970D01*
X396000Y261780D02*
X396000Y261780D01*
X396000Y270590D02*
X396000Y286512D01*
X396000Y303784D02*
X396000Y319756D01*
X396000Y334344D02*
X396000Y338756D01*
X396000Y353344D02*
X396000Y354570D01*
X396000Y363380D02*
X396000Y363380D01*
X396000Y372190D02*
X396000Y421356D01*
X396000Y435944D02*
X396000Y440356D01*
X396000Y454944D02*
X396000Y456170D01*
X396000Y473790D02*
X396000Y488163D01*
X396000Y555274D02*
X396000Y556500D01*
X396000Y565310D02*
X396000Y565310D01*
X396000Y574120D02*
X396000Y622016D01*
X396000Y655604D02*
X396000Y656830D01*
X396000Y665640D02*
X396000Y665640D01*
X396000Y674450D02*
X396000Y727426D01*
X396000Y742014D02*
X396000Y746426D01*
X396000Y761014D02*
X396000Y762240D01*
X396000Y771050D02*
X396000Y771050D01*
X396000Y779860D02*
X396000Y880618D01*
X400000Y2032D02*
X400000Y-67310D01*
X400000Y10668D02*
X400000Y14732D01*
X400000Y23368D02*
X400000Y51211D01*
X400000Y57310D02*
X400000Y57310D01*
X400000Y63409D02*
X400000Y152172D01*
X400000Y160180D02*
X400000Y160180D01*
X400000Y168188D02*
X400000Y188722D01*
X400000Y197358D02*
X400000Y253772D01*
X400000Y261780D02*
X400000Y261780D01*
X400000Y269788D02*
X400000Y286512D01*
X400000Y303784D02*
X400000Y355372D01*
X400000Y363380D02*
X400000Y363380D01*
X400000Y371388D02*
X400000Y450783D01*
X400000Y472988D02*
X400000Y484163D01*
X400000Y545468D02*
X400000Y557302D01*
X400000Y565310D02*
X400000Y565310D01*
X400000Y573318D02*
X400000Y634492D01*
X400000Y643128D02*
X400000Y657632D01*
X400000Y665640D02*
X400000Y665640D01*
X400000Y673648D02*
X400000Y763042D01*
X400000Y771050D02*
X400000Y771050D01*
X400000Y779058D02*
X400000Y880618D01*
X404000Y2032D02*
X404000Y-67310D01*
X404000Y10668D02*
X404000Y12659D01*
X404000Y25441D02*
X404000Y188722D01*
X404000Y197358D02*
X404000Y286512D01*
X404000Y307287D02*
X404000Y449989D01*
X404000Y477031D02*
X404000Y480549D01*
X404000Y546326D02*
X404000Y634492D01*
X404000Y643128D02*
X404000Y880618D01*
X408000Y2032D02*
X408000Y-67310D01*
X408000Y10668D02*
X408000Y11756D01*
X408000Y26344D02*
X408000Y188722D01*
X408000Y197358D02*
X408000Y286512D01*
X408000Y316691D02*
X408000Y362891D01*
X408000Y385229D02*
X408000Y431779D01*
X408000Y443820D02*
X408000Y443820D01*
X408000Y477584D02*
X408000Y479996D01*
X408000Y643128D02*
X408000Y880618D01*
X412000Y2032D02*
X412000Y-67310D01*
X412000Y10668D02*
X412000Y11756D01*
X412000Y26344D02*
X412000Y188722D01*
X412000Y197358D02*
X412000Y286512D01*
X412000Y324244D02*
X412000Y362891D01*
X412000Y385229D02*
X412000Y422235D01*
X412000Y477584D02*
X412000Y479996D01*
X412000Y641857D02*
X412000Y880618D01*
X416000Y2032D02*
X416000Y-67310D01*
X416000Y10668D02*
X416000Y188722D01*
X416000Y197358D02*
X416000Y286703D01*
X416000Y325346D02*
X416000Y362891D01*
X416000Y385229D02*
X416000Y421414D01*
X416000Y477584D02*
X416000Y479996D01*
X416000Y654291D02*
X416000Y683019D01*
X416000Y708901D02*
X416000Y737629D01*
X416000Y763511D02*
X416000Y880618D01*
X420000Y2032D02*
X420000Y-67310D01*
X420000Y26344D02*
X420000Y188722D01*
X420000Y197358D02*
X420000Y290703D01*
X420000Y338708D02*
X420000Y362891D01*
X420000Y385229D02*
X420000Y423400D01*
X420000Y477584D02*
X420000Y479996D01*
X420000Y657453D02*
X420000Y679857D01*
X420000Y766673D02*
X420000Y880618D01*
X424000Y-50382D02*
X424000Y-67310D01*
X424000Y-25818D02*
X424000Y3873D01*
X424000Y26344D02*
X424000Y167948D01*
X424000Y342708D02*
X424000Y362891D01*
X424000Y385229D02*
X424000Y432651D01*
X424000Y477584D02*
X424000Y479996D01*
X424000Y658368D02*
X424000Y678942D01*
X424000Y767588D02*
X424000Y838618D01*
X424000Y863182D02*
X424000Y880618D01*
X428000Y-57512D02*
X428000Y-67310D01*
X428000Y-18688D02*
X428000Y7873D01*
X428000Y26344D02*
X428000Y163948D01*
X428000Y346708D02*
X428000Y362891D01*
X428000Y385229D02*
X428000Y432651D01*
X428000Y477584D02*
X428000Y479996D01*
X428000Y657602D02*
X428000Y679708D01*
X428000Y766822D02*
X428000Y831488D01*
X428000Y870312D02*
X428000Y880618D01*
X432000Y-61818D02*
X432000Y-67310D01*
X432000Y-14382D02*
X432000Y114343D01*
X432000Y348742D02*
X432000Y362891D01*
X432000Y385229D02*
X432000Y432651D01*
X432000Y477584D02*
X432000Y479996D01*
X432000Y611378D02*
X432000Y628049D01*
X432000Y654651D02*
X432000Y682659D01*
X432000Y709261D02*
X432000Y737269D01*
X432000Y763871D02*
X432000Y827182D01*
X432000Y874618D02*
X432000Y880618D01*
X436000Y-65194D02*
X436000Y-67310D01*
X436000Y-11006D02*
X436000Y111252D01*
X436000Y348742D02*
X436000Y362891D01*
X436000Y385229D02*
X436000Y432651D01*
X436000Y477584D02*
X436000Y479996D01*
X436000Y611378D02*
X436000Y823806D01*
X436000Y877994D02*
X436000Y880618D01*
X440000Y59429D02*
X440000Y-8697D01*
X440000Y65170D02*
X440000Y67710D01*
X440000Y73451D02*
X440000Y111252D01*
X440000Y121331D02*
X440000Y163149D01*
X440000Y172931D02*
X440000Y213149D01*
X440000Y222931D02*
X440000Y264749D01*
X440000Y274531D02*
X440000Y290383D01*
X440000Y311151D02*
X440000Y314749D01*
X440000Y324531D02*
X440000Y330962D01*
X440000Y348742D02*
X440000Y362891D01*
X440000Y385229D02*
X440000Y432651D01*
X440000Y477584D02*
X440000Y479996D01*
X440000Y614604D02*
X440000Y631481D01*
X440000Y651219D02*
X440000Y686091D01*
X440000Y705829D02*
X440000Y740701D01*
X440000Y760439D02*
X440000Y821497D01*
X440000Y880303D02*
X440000Y880618D01*
X444000Y55503D02*
X444000Y-7005D01*
X444000Y65170D02*
X444000Y67710D01*
X444000Y77377D02*
X444000Y106501D01*
X444000Y126379D02*
X444000Y158101D01*
X444000Y177979D02*
X444000Y208101D01*
X444000Y227979D02*
X444000Y259701D01*
X444000Y279579D02*
X444000Y294383D01*
X444000Y307861D02*
X444000Y309701D01*
X444000Y329579D02*
X444000Y330962D01*
X444000Y348742D02*
X444000Y362891D01*
X444000Y385229D02*
X444000Y432651D01*
X444000Y477584D02*
X444000Y479996D01*
X444000Y614604D02*
X444000Y625827D01*
X444000Y656873D02*
X444000Y680437D01*
X444000Y711483D02*
X444000Y735047D01*
X444000Y766093D02*
X444000Y819806D01*
X448000Y53904D02*
X448000Y-5934D01*
X448000Y65170D02*
X448000Y67710D01*
X448000Y78976D02*
X448000Y104809D01*
X448000Y128071D02*
X448000Y156409D01*
X448000Y179671D02*
X448000Y206409D01*
X448000Y229671D02*
X448000Y258009D01*
X448000Y281271D02*
X448000Y308009D01*
X448000Y348742D02*
X448000Y362891D01*
X448000Y385229D02*
X448000Y432651D01*
X448000Y477584D02*
X448000Y479996D01*
X448000Y614604D02*
X448000Y624332D01*
X448000Y658368D02*
X448000Y678942D01*
X448000Y712978D02*
X448000Y733552D01*
X448000Y767588D02*
X448000Y818734D01*
X452000Y53630D02*
X452000Y-5306D01*
X452000Y65170D02*
X452000Y67710D01*
X452000Y79250D02*
X452000Y104646D01*
X452000Y128234D02*
X452000Y156246D01*
X452000Y179834D02*
X452000Y206246D01*
X452000Y229834D02*
X452000Y257846D01*
X452000Y281434D02*
X452000Y307846D01*
X452000Y348742D02*
X452000Y362891D01*
X452000Y385229D02*
X452000Y432651D01*
X452000Y477584D02*
X452000Y479996D01*
X452000Y596777D02*
X452000Y600469D01*
X452000Y613651D02*
X452000Y624518D01*
X452000Y658182D02*
X452000Y679128D01*
X452000Y712792D02*
X452000Y733738D01*
X452000Y767402D02*
X452000Y818106D01*
X456000Y53630D02*
X456000Y-5306D01*
X456000Y65170D02*
X456000Y67710D01*
X456000Y79250D02*
X456000Y104646D01*
X456000Y128234D02*
X456000Y156246D01*
X456000Y179834D02*
X456000Y206246D01*
X456000Y229834D02*
X456000Y257846D01*
X456000Y281434D02*
X456000Y307846D01*
X456000Y348742D02*
X456000Y362891D01*
X456000Y385229D02*
X456000Y432651D01*
X456000Y477584D02*
X456000Y479996D01*
X456000Y590151D02*
X456000Y599516D01*
X456000Y614604D02*
X456000Y626649D01*
X456000Y656051D02*
X456000Y681259D01*
X456000Y710661D02*
X456000Y735869D01*
X456000Y765271D02*
X456000Y818106D01*
X460000Y65170D02*
X460000Y-5580D01*
X460000Y67710D02*
X460000Y104646D01*
X460000Y128234D02*
X460000Y156246D01*
X460000Y179834D02*
X460000Y206246D01*
X460000Y229834D02*
X460000Y257846D01*
X460000Y281434D02*
X460000Y307846D01*
X460000Y385229D02*
X460000Y432651D01*
X460000Y477584D02*
X460000Y479996D01*
X460000Y614604D02*
X460000Y818380D01*
X464000Y53630D02*
X464000Y-6652D01*
X464000Y65170D02*
X464000Y67710D01*
X464000Y79250D02*
X464000Y104646D01*
X464000Y128234D02*
X464000Y156246D01*
X464000Y179834D02*
X464000Y206246D01*
X464000Y229834D02*
X464000Y257846D01*
X464000Y281434D02*
X464000Y307846D01*
X464000Y385229D02*
X464000Y423669D01*
X464000Y427231D02*
X464000Y432651D01*
X464000Y477584D02*
X464000Y479996D01*
X464000Y614604D02*
X464000Y819452D01*
X468000Y53630D02*
X468000Y-7935D01*
X468000Y65170D02*
X468000Y67710D01*
X468000Y79250D02*
X468000Y104646D01*
X468000Y128234D02*
X468000Y156246D01*
X468000Y179834D02*
X468000Y206246D01*
X468000Y229834D02*
X468000Y257846D01*
X468000Y281434D02*
X468000Y307846D01*
X468000Y385229D02*
X468000Y400595D01*
X468000Y477584D02*
X468000Y479996D01*
X468000Y592571D02*
X468000Y600469D01*
X468000Y613651D02*
X468000Y625809D01*
X468000Y640334D02*
X468000Y642366D01*
X468000Y656891D02*
X468000Y680419D01*
X468000Y694944D02*
X468000Y696976D01*
X468000Y711501D02*
X468000Y735029D01*
X468000Y749554D02*
X468000Y751586D01*
X468000Y766111D02*
X468000Y820735D01*
X472000Y54030D02*
X472000Y-10244D01*
X472000Y65170D02*
X472000Y67710D01*
X472000Y78850D02*
X472000Y105025D01*
X472000Y127855D02*
X472000Y156625D01*
X472000Y179455D02*
X472000Y206625D01*
X472000Y229455D02*
X472000Y258225D01*
X472000Y281055D02*
X472000Y308225D01*
X472000Y385229D02*
X472000Y399824D01*
X472000Y477584D02*
X472000Y479996D01*
X472000Y563118D02*
X472000Y563983D01*
X472000Y589177D02*
X472000Y623722D01*
X472000Y640334D02*
X472000Y642366D01*
X472000Y658978D02*
X472000Y678332D01*
X472000Y694944D02*
X472000Y696976D01*
X472000Y713588D02*
X472000Y732942D01*
X472000Y749554D02*
X472000Y751586D01*
X472000Y768198D02*
X472000Y823044D01*
X476000Y55881D02*
X476000Y-13062D01*
X476000Y65170D02*
X476000Y67710D01*
X476000Y76999D02*
X476000Y107021D01*
X476000Y125859D02*
X476000Y158621D01*
X476000Y177459D02*
X476000Y208621D01*
X476000Y227459D02*
X476000Y260221D01*
X476000Y279059D02*
X476000Y310221D01*
X476000Y385229D02*
X476000Y394638D01*
X476000Y477584D02*
X476000Y479996D01*
X476000Y563118D02*
X476000Y623341D01*
X476000Y659359D02*
X476000Y677951D01*
X476000Y713969D02*
X476000Y732561D01*
X476000Y768579D02*
X476000Y825862D01*
X480000Y60323D02*
X480000Y-17062D01*
X480000Y65170D02*
X480000Y67710D01*
X480000Y72557D02*
X480000Y112805D01*
X480000Y120075D02*
X480000Y164405D01*
X480000Y171675D02*
X480000Y214405D01*
X480000Y221675D02*
X480000Y264922D01*
X480000Y477584D02*
X480000Y479996D01*
X480000Y563118D02*
X480000Y624538D01*
X480000Y658162D02*
X480000Y679148D01*
X480000Y712772D02*
X480000Y733758D01*
X480000Y767382D02*
X480000Y829862D01*
D24*
X335280Y857250D03*
X345440Y857250D03*
X355600Y857250D03*
X365760Y857250D03*
X375920Y857250D03*
X375920Y847090D03*
X365760Y847090D03*
X355600Y847090D03*
X345440Y847090D03*
X335280Y847090D03*
X419100Y415290D03*
X330200Y457200D03*
X330200Y424180D03*
X325120Y511810D03*
X325120Y556260D03*
X328930Y593090D03*
X323850Y624840D03*
X322580Y659130D03*
X452120Y669290D03*
X410210Y665480D03*
X480060Y581660D03*
X463550Y292100D03*
X416560Y279400D03*
X455930Y237490D03*
X461010Y193040D03*
X414020Y182880D03*
X416560Y204470D03*
X462280Y140970D03*
X415290Y144780D03*
X458470Y90170D03*
X420370Y87630D03*
X462280Y12700D03*
X374650Y-21590D03*
X363220Y-21590D03*
X351790Y-21590D03*
X340360Y-21590D03*
X328930Y-21590D03*
X328930Y-31750D03*
X340360Y-31750D03*
X351790Y-31750D03*
X363220Y-31750D03*
X374650Y-31750D03*
X250190Y104140D03*
X304800Y105410D03*
X304800Y148590D03*
X248920Y151130D03*
X300990Y191770D03*
X250190Y191770D03*
X248920Y242570D03*
X306070Y251460D03*
X304800Y222250D03*
X306070Y317500D03*
X266700Y330200D03*
X314960Y353060D03*
X274320Y538480D03*
X398272Y477139D03*
D22*
X482790Y443820D02*
X482790Y414210D01*
X474980Y406400D02*
X471170Y406400D01*
D24*
X471170Y406400D03*
D22*
X474980Y406400D02*
X482790Y414210D01*
D24*
X290040Y707588D03*
D22*
X274320Y707588D01*
D24*
X274320Y707588D03*
X251460Y707588D03*
D22*
X246578Y707588D01*
X246888Y685176D02*
X254508Y677556D01*
X267208Y409504D02*
X275590Y401122D01*
D24*
X275590Y401122D03*
X290830Y401122D03*
D22*
X299522Y401122D01*
X354098Y405130D02*
X359432Y399796D01*
X363358Y399796D02*
X366268Y396886D01*
X363358Y399796D02*
X359432Y399796D01*
D24*
X373683Y389692D03*
D22*
X366268Y395951D02*
X366268Y396886D01*
X366268Y395951D02*
X372527Y389692D01*
X373683Y389692D01*
D24*
X471170Y416362D03*
D22*
X474782Y416362D01*
X477520Y419100D01*
X477520Y427990D01*
X476250Y429260D01*
X476250Y443780D01*
X476290Y443820D01*
X244630Y705640D02*
X246578Y707588D01*
X244630Y705640D02*
X244630Y695671D01*
X246888Y693413D01*
X246888Y685176D01*
X254508Y677556D02*
X254508Y437526D01*
X267208Y424826D01*
X267208Y409504D01*
X299522Y401122D02*
X303530Y405130D01*
X354098Y405130D01*
X469790Y426040D02*
X469790Y443820D01*
X469790Y426040D02*
X470380Y425450D01*
D24*
X470380Y425450D03*
X373098Y398780D03*
D22*
X370840Y398780D01*
X365252Y404368D01*
X355484Y410210D02*
X290830Y410210D01*
D24*
X290830Y410210D03*
X276380Y410210D03*
D22*
X271780Y414810D01*
X251460Y687070D02*
X251460Y698500D01*
D24*
X251460Y698500D03*
X274320Y698500D03*
D22*
X290040Y698500D01*
D24*
X290040Y698500D03*
D22*
X361326Y404368D02*
X365252Y404368D01*
X361326Y404368D02*
X355484Y410210D01*
X271780Y414810D02*
X271780Y426720D01*
X259080Y439420D01*
X259080Y679450D01*
X251460Y687070D01*
X476290Y374060D02*
X476290Y337860D01*
X435610Y335280D02*
X431800Y331470D01*
X473710Y335280D02*
X476290Y337860D01*
X473710Y335280D02*
X435610Y335280D01*
X436480Y168040D02*
X459740Y168040D01*
X431800Y297180D02*
X431800Y331470D01*
X431800Y297180D02*
X431800Y294640D01*
X431800Y290830D01*
X431800Y172720D01*
X436480Y168040D01*
D24*
X242185Y596515D03*
D22*
X245110Y593591D01*
X245110Y427990D01*
X245364Y427736D01*
X245364Y326644D01*
X242570Y323850D01*
X242570Y304066D01*
X243106Y303530D01*
D24*
X243106Y303530D03*
X290040Y299918D03*
D22*
X296982Y299918D01*
X301498Y295402D01*
X407162Y295402D01*
X414020Y302260D01*
D24*
X414020Y302260D03*
X438150Y304800D03*
D22*
X441960Y300990D01*
X441960Y298450D02*
X438150Y294640D01*
X435610Y294640D01*
X434340Y294640D02*
X431800Y294640D01*
X441960Y298450D02*
X441960Y300990D01*
X435610Y294640D02*
X434340Y294640D01*
X431800Y297180D01*
X435610Y294640D02*
X431800Y290830D01*
X469790Y342790D02*
X469790Y374060D01*
X466852Y339852D02*
X433716Y339852D01*
X466852Y339852D02*
X469790Y342790D01*
X433716Y339852D02*
X427228Y333364D01*
X427228Y198120D01*
X427228Y193040D01*
X427228Y187960D01*
X427228Y170826D01*
X433070Y119380D02*
X436880Y115570D01*
X458870Y115570D01*
X459740Y116440D01*
X433070Y164984D02*
X427228Y170826D01*
X433070Y164984D02*
X433070Y119380D01*
D24*
X233680Y579120D03*
D22*
X240538Y572262D01*
X240538Y328284D01*
X236276Y300701D02*
X240277Y296700D01*
X243050Y296700D01*
X236276Y324022D02*
X240538Y328284D01*
X236276Y324022D02*
X236276Y300701D01*
X243050Y296700D02*
X256540Y283210D01*
X262890Y283210D01*
X269240Y276860D01*
X269240Y264160D01*
X275590Y257810D01*
X275590Y226060D01*
X273050Y223520D01*
X273050Y211610D01*
X276380Y208280D01*
D24*
X276380Y208280D03*
X351790Y193040D03*
D22*
X422148Y193040D01*
X427228Y198120D01*
X422148Y193040D02*
X427228Y187960D01*
X427228Y193040D02*
X422148Y193040D01*
X480060Y269240D02*
X482790Y271970D01*
X480060Y269240D02*
X460140Y269240D01*
X459740Y269640D01*
X482790Y271970D02*
X482790Y374060D01*
X424180Y695960D02*
X424180Y750570D01*
X427990Y607060D02*
X445390Y607060D01*
X424180Y610870D02*
X424180Y641350D01*
X424180Y610870D02*
X427990Y607060D01*
X445390Y519050D02*
X445390Y510540D01*
X445390Y519050D02*
X450850Y524510D01*
X445390Y597280D02*
X445390Y607060D01*
X450850Y554990D02*
X450850Y524510D01*
X450850Y554990D02*
X450850Y562610D01*
X450850Y591820D01*
X445390Y597280D01*
X450850Y562610D02*
X454660Y558800D01*
X478790Y558800D02*
X482600Y554990D01*
X482600Y508000D02*
X480060Y505460D01*
X480060Y499879D01*
X481080Y498860D01*
D24*
X481080Y498860D03*
X481158Y398780D03*
D22*
X482600Y397338D01*
X482600Y374250D02*
X482790Y374060D01*
X478790Y558800D02*
X454660Y558800D01*
X482600Y554990D02*
X482600Y508000D01*
X482600Y397338D02*
X482600Y374250D01*
X450850Y554990D02*
X454660Y558800D01*
X463290Y374060D02*
X463290Y345434D01*
X462280Y344424D01*
X431822Y344424D01*
X422656Y335258D01*
X422656Y299466D01*
X414020Y290830D01*
X290830Y290830D01*
D24*
X290830Y290830D03*
X274320Y290830D03*
D22*
X256540Y290830D01*
X249936Y598424D02*
X246380Y601980D01*
X246380Y613382D01*
X247678Y614680D01*
D24*
X247678Y614680D03*
D22*
X249936Y297434D02*
X256540Y290830D01*
X249936Y297434D02*
X249936Y598424D01*
X356870Y640130D02*
X358140Y640130D01*
X356870Y640130D02*
X285700Y640130D01*
X283210Y642620D02*
X283210Y675640D01*
X283210Y642620D02*
X285700Y640130D01*
X360680Y716280D02*
X373750Y716280D01*
X358140Y718820D02*
X358140Y745540D01*
X358140Y718820D02*
X360680Y716280D01*
X359410Y612140D02*
X373750Y612140D01*
X359410Y612140D02*
X356870Y614680D01*
X356870Y640130D01*
X364490Y508000D02*
X375020Y508000D01*
X364490Y508000D02*
X358140Y514350D01*
X358140Y539800D01*
X289560Y539800D01*
X288240Y539800D01*
X283210Y544830D01*
X283210Y572770D01*
X283210Y472440D02*
X283210Y444500D01*
X288240Y439470D02*
X358140Y439470D01*
X288240Y439470D02*
X283210Y444500D01*
X358140Y439470D02*
X358140Y414020D01*
X363220Y408940D02*
X373750Y408940D01*
X363220Y408940D02*
X358140Y414020D01*
X358140Y337870D02*
X288340Y337870D01*
X288240Y337870D01*
X283210Y342900D02*
X283210Y370840D01*
X283210Y342900D02*
X288240Y337870D01*
X358140Y337870D02*
X358140Y311150D01*
X360680Y308610D01*
X373750Y308610D01*
X358140Y236270D02*
X286970Y236270D01*
X283210Y240030D01*
X283210Y269240D01*
X358140Y236270D02*
X358140Y209550D01*
X364490Y203200D02*
X375020Y203200D01*
X364490Y203200D02*
X358140Y209550D01*
X358140Y134670D02*
X286970Y134670D01*
X283210Y138430D02*
X283210Y167640D01*
X283210Y138430D02*
X286970Y134670D01*
X358140Y134670D02*
X358140Y105410D01*
X361950Y101600D02*
X373750Y101600D01*
X361950Y101600D02*
X358140Y105410D01*
X358140Y31800D02*
X289510Y31800D01*
X283210Y38100D02*
X283210Y66040D01*
X283210Y38100D02*
X289510Y31800D01*
X358140Y31800D02*
X358140Y11430D01*
X423810Y9790D02*
X423810Y19050D01*
X363220Y6350D02*
X358140Y11430D01*
X363220Y6350D02*
X420370Y6350D01*
X423810Y9790D01*
D24*
X339090Y745490D03*
D22*
X339140Y745540D01*
X358140Y745540D01*
X285700Y640130D02*
X283210Y637640D01*
X283210Y572770D01*
X289560Y539800D02*
X283210Y533450D01*
X283210Y506730D01*
D24*
X283210Y506730D03*
D22*
X288240Y439470D02*
X283210Y434440D01*
X283210Y370840D01*
X288340Y337870D02*
X283210Y332740D01*
X283210Y269240D01*
X286970Y236270D02*
X283210Y232510D01*
X283210Y167640D01*
X286970Y134670D02*
X283210Y130910D01*
X283210Y66040D01*
D23*
X373750Y301890D02*
X373750Y308610D01*
X373750Y301890D02*
X375920Y299720D01*
X405130Y299720D01*
X407444Y302034D01*
X407444Y304984D01*
X410210Y307750D01*
X410210Y313154D02*
X415826Y318770D01*
D24*
X415826Y318770D03*
D23*
X410210Y313154D02*
X410210Y307750D01*
D22*
X409310Y19050D02*
X389280Y19050D01*
X388620Y19710D01*
X337820Y66040D02*
X308610Y66040D01*
X341580Y69800D02*
X358140Y69800D01*
X341580Y69800D02*
X337820Y66040D01*
X358140Y69800D02*
X374600Y69800D01*
X382110Y77310D02*
X387350Y77310D01*
X382110Y77310D02*
X374600Y69800D01*
X387350Y77310D02*
X387350Y39980D01*
X388620Y38710D01*
X480060Y486040D02*
X480060Y490220D01*
D24*
X373380Y57150D03*
D22*
X373540Y57310D01*
X380850Y57310D01*
X480060Y490220D02*
X472440Y497840D01*
X469900Y497840D01*
D24*
X469900Y497840D03*
D22*
X388250Y123480D02*
X388250Y101600D01*
X388250Y123480D02*
X388620Y123850D01*
X332740Y167640D02*
X308610Y167640D01*
X332740Y167640D02*
X337820Y172720D01*
X358090Y172720D01*
X358140Y172670D01*
X372060Y172670D01*
X379570Y180180D02*
X388620Y180180D01*
X379570Y180180D02*
X372060Y172670D01*
X388620Y180180D02*
X388620Y142850D01*
X468630Y486040D02*
X468630Y488950D01*
X459740Y497840D01*
D24*
X459740Y497840D03*
X374650Y160020D03*
D22*
X374810Y160180D01*
X382120Y160180D01*
X389520Y203200D02*
X389520Y224550D01*
X388620Y225450D01*
X334010Y269240D02*
X308610Y269240D01*
X339040Y274270D02*
X358140Y274270D01*
X339040Y274270D02*
X334010Y269240D01*
X358140Y274270D02*
X370790Y274270D01*
X378300Y281780D02*
X388620Y281780D01*
X378300Y281780D02*
X370790Y274270D01*
X388620Y281780D02*
X388620Y244450D01*
X455930Y486040D02*
X455930Y491469D01*
X448988Y498411D01*
D24*
X448988Y498411D03*
X373380Y261620D03*
D22*
X373540Y261780D01*
X382120Y261780D01*
X388250Y308610D02*
X388250Y326680D01*
X388620Y327050D01*
X334010Y370840D02*
X308610Y370840D01*
X339040Y375870D02*
X358140Y375870D01*
X339040Y375870D02*
X334010Y370840D01*
X358140Y375870D02*
X369520Y375870D01*
X377030Y383380D02*
X388620Y383380D01*
X377030Y383380D02*
X369520Y375870D01*
X388620Y383380D02*
X388620Y346050D01*
X444500Y486040D02*
X444500Y493240D01*
X439900Y497840D01*
D24*
X439900Y497840D03*
X373380Y363220D03*
D22*
X373540Y363380D01*
X382120Y363380D01*
X388250Y408940D02*
X388250Y428280D01*
X388620Y428650D01*
X335280Y472440D02*
X308610Y472440D01*
X335280Y472440D02*
X341630Y478790D01*
X388620Y484980D02*
X388620Y447650D01*
D23*
X356820Y478790D02*
X341630Y478790D01*
X356820Y478790D02*
X358140Y477470D01*
X375870Y477470D01*
X383380Y484980D02*
X388620Y484980D01*
X383380Y484980D02*
X375870Y477470D01*
D22*
X433070Y486040D02*
X433070Y495300D01*
X430530Y497840D01*
D24*
X430530Y497840D03*
X373380Y464820D03*
D22*
X373540Y464980D01*
X382120Y464980D01*
X389520Y508000D02*
X389520Y528080D01*
X388620Y528980D01*
X334010Y572770D02*
X308610Y572770D01*
X339040Y577800D02*
X358140Y577800D01*
X339040Y577800D02*
X334010Y572770D01*
X358140Y577800D02*
X370790Y577800D01*
X378300Y585310D02*
X388620Y585310D01*
X378300Y585310D02*
X370790Y577800D01*
X389572Y584358D02*
X389572Y548932D01*
X388620Y547980D01*
X389572Y584358D02*
X388620Y585310D01*
X382120Y565310D02*
X377350Y565310D01*
X375920Y563880D01*
X375920Y543560D01*
D24*
X403380Y539750D03*
X417040Y539750D03*
D22*
X420370Y539750D01*
X421640Y538480D01*
X379730Y539750D02*
X375920Y543560D01*
X379730Y539750D02*
X403380Y539750D01*
X421640Y538480D02*
X421640Y486040D01*
X388620Y716650D02*
X388620Y734720D01*
X388620Y716650D02*
X388250Y716280D01*
X331470Y778510D02*
X308610Y778510D01*
X336500Y783540D02*
X358140Y783540D01*
X336500Y783540D02*
X331470Y778510D01*
X379570Y791050D02*
X388620Y791050D01*
X372060Y783540D02*
X358140Y783540D01*
X372060Y783540D02*
X379570Y791050D01*
X388620Y791050D02*
X388620Y753720D01*
X404230Y486040D02*
X410210Y486040D01*
X404230Y486040D02*
X400050Y490220D01*
X400050Y494030D01*
X397510Y496570D01*
X264160Y755650D02*
X270510Y762000D01*
X337820Y762000D02*
X341630Y765810D01*
X376080Y771050D02*
X382120Y771050D01*
X397510Y496570D02*
X270510Y496570D01*
X264160Y502920D01*
X264160Y755650D01*
X270510Y762000D02*
X337820Y762000D01*
X341630Y765810D02*
X370840Y765810D01*
X376080Y771050D01*
X388620Y629310D02*
X388620Y612510D01*
X388250Y612140D01*
X332740Y675640D02*
X308610Y675640D01*
X332740Y675640D02*
X335280Y678180D01*
X358090Y678180D01*
X358140Y678130D01*
X368250Y678130D01*
X375760Y685640D02*
X388620Y685640D01*
X375760Y685640D02*
X368250Y678130D01*
X388620Y685640D02*
X388620Y648310D01*
X410210Y637540D02*
X410210Y521600D01*
X410210Y637540D02*
X408940Y638810D01*
X379730Y638810D01*
X377350Y665640D02*
X382120Y665640D01*
X374650Y643890D02*
X379730Y638810D01*
X374650Y643890D02*
X374650Y662940D01*
X377350Y665640D01*
X461390Y607060D02*
X461390Y578740D01*
X463550Y576580D01*
X463550Y541020D02*
X463550Y519430D01*
X461390Y517270D02*
X461390Y510540D01*
X461390Y517270D02*
X463550Y519430D01*
D23*
X17381Y897890D02*
X16510Y897890D01*
X17381Y897890D02*
X15320Y896700D01*
X16510Y897890D01*
X0Y-71098D02*
X0Y-80010D01*
X8668Y-79766D02*
X0Y-71098D01*
X8668Y-79766D02*
X8668Y-79766D01*
X9090Y-80010D01*
X0Y-80010D01*
X197041Y803021D02*
X199390Y803021D01*
X197041Y803021D02*
X192700Y801223D01*
X189377Y797900D01*
X187579Y793559D01*
X187579Y787155D01*
X187464Y787271D01*
X183666Y788844D01*
X179554Y788844D01*
X175756Y787271D01*
X172849Y784364D01*
X171276Y780566D01*
X171276Y776454D01*
X172849Y772656D01*
X175756Y769749D01*
X179554Y768176D01*
X183666Y768176D01*
X187464Y769749D01*
X187579Y769865D01*
X187579Y684285D01*
X187464Y684401D01*
X183666Y685974D01*
X179554Y685974D01*
X175756Y684401D01*
X172849Y681494D01*
X171276Y677696D01*
X171276Y673584D01*
X172849Y669786D01*
X175756Y666879D01*
X179554Y665306D01*
X183666Y665306D01*
X187464Y666879D01*
X187579Y666995D01*
X187579Y581415D01*
X187464Y581531D01*
X183666Y583104D01*
X179554Y583104D01*
X175756Y581531D01*
X172849Y578624D01*
X171276Y574826D01*
X171276Y570714D01*
X172849Y566916D01*
X175756Y564009D01*
X179554Y562436D01*
X183666Y562436D01*
X187464Y564009D01*
X187579Y564125D01*
X187579Y481085D01*
X187464Y481201D01*
X183666Y482774D01*
X179554Y482774D01*
X175756Y481201D01*
X172849Y478294D01*
X171276Y474496D01*
X171276Y470384D01*
X172849Y466586D01*
X175756Y463679D01*
X179554Y462106D01*
X183666Y462106D01*
X187464Y463679D01*
X187579Y463795D01*
X187579Y379485D01*
X187464Y379601D01*
X183666Y381174D01*
X179554Y381174D01*
X175756Y379601D01*
X172849Y376694D01*
X171276Y372896D01*
X171276Y368784D01*
X172849Y364986D01*
X175756Y362079D01*
X179554Y360506D01*
X183666Y360506D01*
X187464Y362079D01*
X187579Y362195D01*
X187579Y277885D01*
X187464Y278001D01*
X183666Y279574D01*
X179554Y279574D01*
X175756Y278001D01*
X172849Y275094D01*
X171276Y271296D01*
X171276Y267184D01*
X172849Y263386D01*
X175756Y260479D01*
X179554Y258906D01*
X183666Y258906D01*
X187464Y260479D01*
X187579Y260595D01*
X187579Y176285D01*
X187464Y176401D01*
X183666Y177974D01*
X179554Y177974D01*
X175756Y176401D01*
X172849Y173494D01*
X171276Y169696D01*
X171276Y165584D01*
X172849Y161786D01*
X175756Y158879D01*
X179554Y157306D01*
X183666Y157306D01*
X187464Y158879D01*
X187579Y158995D01*
X187579Y74685D01*
X187464Y74801D01*
X183666Y76374D01*
X179554Y76374D01*
X175756Y74801D01*
X172849Y71894D01*
X171276Y68096D01*
X171276Y63984D01*
X172849Y60186D01*
X175756Y57279D01*
X179554Y55706D01*
X183666Y55706D01*
X187464Y57279D01*
X187579Y57395D01*
X187579Y20511D01*
X189377Y16170D01*
X192700Y12847D01*
X197041Y11049D01*
X199390Y11049D01*
X199390Y-67310D01*
X55635Y-67310D01*
X60776Y-64342D01*
X66882Y-58236D01*
X71199Y-50758D01*
X73434Y-42417D01*
X73434Y-33783D01*
X71199Y-25442D01*
X66882Y-17964D01*
X60776Y-11858D01*
X53298Y-7541D01*
X44957Y-5306D01*
X36323Y-5306D01*
X27982Y-7541D01*
X20504Y-11858D01*
X14398Y-17964D01*
X11430Y-23105D01*
X11430Y23580D01*
X12752Y20389D01*
X16069Y17072D01*
X20404Y15276D01*
X43096Y15276D01*
X47431Y17072D01*
X50748Y20389D01*
X52544Y24724D01*
X52544Y29416D01*
X50748Y33751D01*
X47431Y37068D01*
X43096Y38864D01*
X20404Y38864D01*
X16069Y37068D01*
X12752Y33751D01*
X11430Y30560D01*
X11430Y73580D01*
X12752Y70389D01*
X16069Y67072D01*
X20404Y65276D01*
X43096Y65276D01*
X47431Y67072D01*
X50748Y70389D01*
X52544Y74724D01*
X52544Y79416D01*
X50748Y83751D01*
X47431Y87068D01*
X43096Y88864D01*
X20404Y88864D01*
X16069Y87068D01*
X12752Y83751D01*
X11430Y80560D01*
X11430Y125180D01*
X12752Y121989D01*
X16069Y118672D01*
X20404Y116876D01*
X43096Y116876D01*
X47431Y118672D01*
X50748Y121989D01*
X52544Y126324D01*
X52544Y131016D01*
X50748Y135351D01*
X47431Y138668D01*
X43096Y140464D01*
X20404Y140464D01*
X16069Y138668D01*
X12752Y135351D01*
X11430Y132160D01*
X11430Y175180D01*
X12752Y171989D01*
X16069Y168672D01*
X20404Y166876D01*
X43096Y166876D01*
X47431Y168672D01*
X50748Y171989D01*
X52544Y176324D01*
X52544Y181016D01*
X50748Y185351D01*
X47431Y188668D01*
X43096Y190464D01*
X20404Y190464D01*
X16069Y188668D01*
X12752Y185351D01*
X11430Y182160D01*
X11430Y226780D01*
X12752Y223589D01*
X16069Y220272D01*
X20404Y218476D01*
X43096Y218476D01*
X47431Y220272D01*
X50748Y223589D01*
X52544Y227924D01*
X52544Y232616D01*
X50748Y236951D01*
X47431Y240268D01*
X43096Y242064D01*
X20404Y242064D01*
X16069Y240268D01*
X12752Y236951D01*
X11430Y233760D01*
X11430Y276780D01*
X12752Y273589D01*
X16069Y270272D01*
X20404Y268476D01*
X43096Y268476D01*
X47431Y270272D01*
X50748Y273589D01*
X52544Y277924D01*
X52544Y282616D01*
X50748Y286951D01*
X47431Y290268D01*
X43096Y292064D01*
X20404Y292064D01*
X16069Y290268D01*
X12752Y286951D01*
X11430Y283760D01*
X11430Y328380D01*
X12752Y325189D01*
X16069Y321872D01*
X20404Y320076D01*
X43096Y320076D01*
X47431Y321872D01*
X50748Y325189D01*
X52544Y329524D01*
X52544Y334216D01*
X50748Y338551D01*
X47431Y341868D01*
X43096Y343664D01*
X20404Y343664D01*
X16069Y341868D01*
X12752Y338551D01*
X11430Y335360D01*
X11430Y378380D01*
X12752Y375189D01*
X16069Y371872D01*
X20404Y370076D01*
X43096Y370076D01*
X47431Y371872D01*
X50748Y375189D01*
X52544Y379524D01*
X52544Y384216D01*
X50748Y388551D01*
X47431Y391868D01*
X43096Y393664D01*
X20404Y393664D01*
X16069Y391868D01*
X12752Y388551D01*
X11430Y385360D01*
X11430Y429980D01*
X12752Y426789D01*
X16069Y423472D01*
X20404Y421676D01*
X43096Y421676D01*
X47431Y423472D01*
X50748Y426789D01*
X52544Y431124D01*
X52544Y435816D01*
X50748Y440151D01*
X47431Y443468D01*
X43096Y445264D01*
X20404Y445264D01*
X16069Y443468D01*
X12752Y440151D01*
X11430Y436960D01*
X11430Y479980D01*
X12752Y476789D01*
X16069Y473472D01*
X20404Y471676D01*
X43096Y471676D01*
X47431Y473472D01*
X50748Y476789D01*
X52544Y481124D01*
X52544Y485816D01*
X50748Y490151D01*
X47431Y493468D01*
X43096Y495264D01*
X20404Y495264D01*
X16069Y493468D01*
X12752Y490151D01*
X11430Y486960D01*
X11430Y531580D01*
X12752Y528389D01*
X16069Y525072D01*
X20404Y523276D01*
X43096Y523276D01*
X47431Y525072D01*
X50748Y528389D01*
X52544Y532724D01*
X52544Y537416D01*
X50748Y541751D01*
X47431Y545068D01*
X43096Y546864D01*
X20404Y546864D01*
X16069Y545068D01*
X12752Y541751D01*
X11430Y538560D01*
X11430Y581580D01*
X12752Y578389D01*
X16069Y575072D01*
X20404Y573276D01*
X43096Y573276D01*
X47431Y575072D01*
X50748Y578389D01*
X52544Y582724D01*
X52544Y587416D01*
X50748Y591751D01*
X47431Y595068D01*
X43096Y596864D01*
X20404Y596864D01*
X16069Y595068D01*
X12752Y591751D01*
X11430Y588560D01*
X11430Y633180D01*
X12752Y629989D01*
X16069Y626672D01*
X20404Y624876D01*
X43096Y624876D01*
X47431Y626672D01*
X50748Y629989D01*
X52544Y634324D01*
X52544Y639016D01*
X50748Y643351D01*
X47431Y646668D01*
X43096Y648464D01*
X20404Y648464D01*
X16069Y646668D01*
X12752Y643351D01*
X11430Y640160D01*
X11430Y683180D01*
X12752Y679989D01*
X16069Y676672D01*
X20404Y674876D01*
X43096Y674876D01*
X47431Y676672D01*
X50748Y679989D01*
X52544Y684324D01*
X52544Y689016D01*
X50748Y693351D01*
X47431Y696668D01*
X43096Y698464D01*
X20404Y698464D01*
X16069Y696668D01*
X12752Y693351D01*
X11430Y690160D01*
X11430Y734780D01*
X12752Y731589D01*
X16069Y728272D01*
X20404Y726476D01*
X43096Y726476D01*
X47431Y728272D01*
X50748Y731589D01*
X52544Y735924D01*
X52544Y740616D01*
X50748Y744951D01*
X47431Y748268D01*
X43096Y750064D01*
X20404Y750064D01*
X16069Y748268D01*
X12752Y744951D01*
X11430Y741760D01*
X11430Y784780D01*
X12752Y781589D01*
X16069Y778272D01*
X20404Y776476D01*
X43096Y776476D01*
X47431Y778272D01*
X50748Y781589D01*
X52544Y785924D01*
X52544Y790616D01*
X50748Y794951D01*
X47431Y798268D01*
X43096Y800064D01*
X20404Y800064D01*
X16069Y798268D01*
X12752Y794951D01*
X11430Y791760D01*
X11430Y835905D01*
X14398Y830764D01*
X20504Y824658D01*
X27982Y820341D01*
X36323Y818106D01*
X44957Y818106D01*
X53298Y820341D01*
X60776Y824658D01*
X66882Y830764D01*
X71199Y838242D01*
X73434Y846583D01*
X73434Y855217D01*
X71199Y863558D01*
X66882Y871036D01*
X60776Y877142D01*
X54755Y880618D01*
X199390Y880618D01*
X199390Y803021D01*
X115744Y677696D02*
X115744Y673584D01*
X115744Y677696D02*
X114171Y681494D01*
X111264Y684401D01*
X107466Y685974D01*
X103354Y685974D01*
X99556Y684401D01*
X96649Y681494D01*
X95076Y677696D01*
X95076Y673584D01*
X96649Y669786D01*
X99556Y666879D01*
X103354Y665306D01*
X107466Y665306D01*
X111264Y666879D01*
X114171Y669786D01*
X115744Y673584D01*
X115744Y574826D02*
X115744Y570714D01*
X115744Y574826D02*
X114171Y578624D01*
X111264Y581531D01*
X107466Y583104D01*
X103354Y583104D01*
X99556Y581531D01*
X96649Y578624D01*
X95076Y574826D01*
X95076Y570714D01*
X96649Y566916D01*
X99556Y564009D01*
X103354Y562436D01*
X107466Y562436D01*
X111264Y564009D01*
X114171Y566916D01*
X115744Y570714D01*
X115744Y474496D02*
X115744Y470384D01*
X115744Y474496D02*
X114171Y478294D01*
X111264Y481201D01*
X107466Y482774D01*
X103354Y482774D01*
X99556Y481201D01*
X96649Y478294D01*
X95076Y474496D01*
X95076Y470384D01*
X96649Y466586D01*
X99556Y463679D01*
X103354Y462106D01*
X107466Y462106D01*
X111264Y463679D01*
X114171Y466586D01*
X115744Y470384D01*
X115744Y271296D02*
X115744Y267184D01*
X115744Y271296D02*
X114171Y275094D01*
X111264Y278001D01*
X107466Y279574D01*
X103354Y279574D01*
X99556Y278001D01*
X96649Y275094D01*
X95076Y271296D01*
X95076Y267184D01*
X96649Y263386D01*
X99556Y260479D01*
X103354Y258906D01*
X107466Y258906D01*
X111264Y260479D01*
X114171Y263386D01*
X115744Y267184D01*
X115744Y169696D02*
X115744Y165584D01*
X115744Y169696D02*
X114171Y173494D01*
X111264Y176401D01*
X107466Y177974D01*
X103354Y177974D01*
X99556Y176401D01*
X96649Y173494D01*
X95076Y169696D01*
X95076Y165584D01*
X96649Y161786D01*
X99556Y158879D01*
X103354Y157306D01*
X107466Y157306D01*
X111264Y158879D01*
X114171Y161786D01*
X115744Y165584D01*
X115744Y368784D02*
X115744Y372896D01*
X114171Y376694D01*
X111264Y379601D01*
X107466Y381174D01*
X103354Y381174D01*
X99556Y379601D01*
X96649Y376694D01*
X95076Y372896D01*
X95076Y368784D01*
X96649Y364986D01*
X99556Y362079D01*
X103354Y360506D01*
X107466Y360506D01*
X111264Y362079D01*
X114171Y364986D01*
X115744Y368784D01*
X115744Y68096D02*
X115744Y63984D01*
X115744Y68096D02*
X114171Y71894D01*
X111264Y74801D01*
X107466Y76374D01*
X103354Y76374D01*
X99556Y74801D01*
X96649Y71894D01*
X95076Y68096D01*
X95076Y63984D01*
X96649Y60186D01*
X99556Y57279D01*
X103354Y55706D01*
X107466Y55706D01*
X111264Y57279D01*
X114171Y60186D01*
X115744Y63984D01*
X115744Y776454D02*
X115744Y780566D01*
X114171Y784364D01*
X111264Y787271D01*
X107466Y788844D01*
X103354Y788844D01*
X99556Y787271D01*
X96649Y784364D01*
X95076Y780566D01*
X95076Y776454D01*
X96649Y772656D01*
X99556Y769749D01*
X103354Y768176D01*
X107466Y768176D01*
X111264Y769749D01*
X114171Y772656D01*
X115744Y776454D01*
X7432Y891540D02*
X0Y891540D01*
X7432Y891540D02*
X0Y884108D01*
X0Y891540D01*
X0Y-80000D02*
X9073Y-80000D01*
X4902Y-76000D02*
X0Y-76000D01*
X0Y-72000D02*
X902Y-72000D01*
X61118Y-64000D02*
X199390Y-64000D01*
X199390Y-60000D02*
X65118Y-60000D01*
X68173Y-56000D02*
X199390Y-56000D01*
X199390Y-52000D02*
X70482Y-52000D01*
X71938Y-48000D02*
X199390Y-48000D01*
X199390Y-44000D02*
X73010Y-44000D01*
X73434Y-40000D02*
X199390Y-40000D01*
X199390Y-36000D02*
X73434Y-36000D01*
X72956Y-32000D02*
X199390Y-32000D01*
X199390Y-28000D02*
X71885Y-28000D01*
X70367Y-24000D02*
X199390Y-24000D01*
X13223Y-20000D02*
X11430Y-20000D01*
X68057Y-20000D02*
X199390Y-20000D01*
X16362Y-16000D02*
X11430Y-16000D01*
X64918Y-16000D02*
X199390Y-16000D01*
X20362Y-12000D02*
X11430Y-12000D01*
X60918Y-12000D02*
X199390Y-12000D01*
X27187Y-8000D02*
X11430Y-8000D01*
X54093Y-8000D02*
X199390Y-8000D01*
X199390Y-4000D02*
X11430Y-4000D01*
X11430Y0D02*
X199390Y0D01*
X199390Y4000D02*
X11430Y4000D01*
X11430Y8000D02*
X199390Y8000D01*
X194745Y12000D02*
X11430Y12000D01*
X11430Y16000D02*
X18656Y16000D01*
X44844Y16000D02*
X189547Y16000D01*
X13141Y20000D02*
X11430Y20000D01*
X50359Y20000D02*
X187791Y20000D01*
X187579Y24000D02*
X52244Y24000D01*
X52544Y28000D02*
X187579Y28000D01*
X12026Y32000D02*
X11430Y32000D01*
X51474Y32000D02*
X187579Y32000D01*
X15001Y36000D02*
X11430Y36000D01*
X48499Y36000D02*
X187579Y36000D01*
X187579Y40000D02*
X11430Y40000D01*
X11430Y44000D02*
X187579Y44000D01*
X187579Y48000D02*
X11430Y48000D01*
X11430Y52000D02*
X187579Y52000D01*
X102645Y56000D02*
X11430Y56000D01*
X108175Y56000D02*
X178845Y56000D01*
X184375Y56000D02*
X187579Y56000D01*
X96836Y60000D02*
X11430Y60000D01*
X113984Y60000D02*
X173036Y60000D01*
X95076Y64000D02*
X11430Y64000D01*
X115744Y64000D02*
X171276Y64000D01*
X15141Y68000D02*
X11430Y68000D01*
X48359Y68000D02*
X95076Y68000D01*
X115744Y68000D02*
X171276Y68000D01*
X12084Y72000D02*
X11430Y72000D01*
X51416Y72000D02*
X96756Y72000D01*
X114064Y72000D02*
X172956Y72000D01*
X102452Y76000D02*
X52544Y76000D01*
X108368Y76000D02*
X178652Y76000D01*
X184568Y76000D02*
X187579Y76000D01*
X187579Y80000D02*
X52302Y80000D01*
X13001Y84000D02*
X11430Y84000D01*
X50499Y84000D02*
X187579Y84000D01*
X18318Y88000D02*
X11430Y88000D01*
X45182Y88000D02*
X187579Y88000D01*
X187579Y92000D02*
X11430Y92000D01*
X11430Y96000D02*
X187579Y96000D01*
X187579Y100000D02*
X11430Y100000D01*
X11430Y104000D02*
X187579Y104000D01*
X187579Y108000D02*
X11430Y108000D01*
X11430Y112000D02*
X187579Y112000D01*
X187579Y116000D02*
X11430Y116000D01*
X11430Y120000D02*
X14741Y120000D01*
X48759Y120000D02*
X187579Y120000D01*
X11919Y124000D02*
X11430Y124000D01*
X51581Y124000D02*
X187579Y124000D01*
X187579Y128000D02*
X52544Y128000D01*
X52136Y132000D02*
X187579Y132000D01*
X13401Y136000D02*
X11430Y136000D01*
X50099Y136000D02*
X187579Y136000D01*
X19284Y140000D02*
X11430Y140000D01*
X44216Y140000D02*
X187579Y140000D01*
X187579Y144000D02*
X11430Y144000D01*
X11430Y148000D02*
X187579Y148000D01*
X187579Y152000D02*
X11430Y152000D01*
X11430Y156000D02*
X187579Y156000D01*
X98436Y160000D02*
X11430Y160000D01*
X112384Y160000D02*
X174636Y160000D01*
X95732Y164000D02*
X11430Y164000D01*
X115088Y164000D02*
X171932Y164000D01*
X17690Y168000D02*
X11430Y168000D01*
X45810Y168000D02*
X95076Y168000D01*
X115744Y168000D02*
X171276Y168000D01*
X12747Y172000D02*
X11430Y172000D01*
X50753Y172000D02*
X96031Y172000D01*
X114789Y172000D02*
X172231Y172000D01*
X99156Y176000D02*
X52410Y176000D01*
X111664Y176000D02*
X175356Y176000D01*
X187579Y180000D02*
X52544Y180000D01*
X12192Y184000D02*
X11430Y184000D01*
X51308Y184000D02*
X187579Y184000D01*
X15401Y188000D02*
X11430Y188000D01*
X48099Y188000D02*
X187579Y188000D01*
X187579Y192000D02*
X11430Y192000D01*
X11430Y196000D02*
X187579Y196000D01*
X187579Y200000D02*
X11430Y200000D01*
X11430Y204000D02*
X187579Y204000D01*
X187579Y208000D02*
X11430Y208000D01*
X11430Y212000D02*
X187579Y212000D01*
X187579Y216000D02*
X11430Y216000D01*
X11430Y220000D02*
X16725Y220000D01*
X46775Y220000D02*
X187579Y220000D01*
X12581Y224000D02*
X11430Y224000D01*
X50919Y224000D02*
X187579Y224000D01*
X187579Y228000D02*
X52544Y228000D01*
X52544Y232000D02*
X187579Y232000D01*
X12358Y236000D02*
X11430Y236000D01*
X51142Y236000D02*
X187579Y236000D01*
X15801Y240000D02*
X11430Y240000D01*
X47699Y240000D02*
X187579Y240000D01*
X187579Y244000D02*
X11430Y244000D01*
X11430Y248000D02*
X187579Y248000D01*
X187579Y252000D02*
X11430Y252000D01*
X11430Y256000D02*
X187579Y256000D01*
X100713Y260000D02*
X11430Y260000D01*
X110107Y260000D02*
X176913Y260000D01*
X186307Y260000D02*
X187579Y260000D01*
X96395Y264000D02*
X11430Y264000D01*
X114425Y264000D02*
X172595Y264000D01*
X95076Y268000D02*
X11430Y268000D01*
X115744Y268000D02*
X171276Y268000D01*
X14341Y272000D02*
X11430Y272000D01*
X49159Y272000D02*
X95368Y272000D01*
X115452Y272000D02*
X171568Y272000D01*
X11753Y276000D02*
X11430Y276000D01*
X51747Y276000D02*
X97556Y276000D01*
X113264Y276000D02*
X173756Y276000D01*
X187579Y280000D02*
X52544Y280000D01*
X11529Y284000D02*
X11430Y284000D01*
X51971Y284000D02*
X187579Y284000D01*
X13801Y288000D02*
X11430Y288000D01*
X49699Y288000D02*
X187579Y288000D01*
X20250Y292000D02*
X11430Y292000D01*
X43250Y292000D02*
X187579Y292000D01*
X187579Y296000D02*
X11430Y296000D01*
X11430Y300000D02*
X187579Y300000D01*
X187579Y304000D02*
X11430Y304000D01*
X11430Y308000D02*
X187579Y308000D01*
X187579Y312000D02*
X11430Y312000D01*
X11430Y316000D02*
X187579Y316000D01*
X187579Y320000D02*
X11430Y320000D01*
X11430Y324000D02*
X13941Y324000D01*
X49559Y324000D02*
X187579Y324000D01*
X11587Y328000D02*
X11430Y328000D01*
X51913Y328000D02*
X187579Y328000D01*
X187579Y332000D02*
X52544Y332000D01*
X11695Y336000D02*
X11430Y336000D01*
X51805Y336000D02*
X187579Y336000D01*
X14201Y340000D02*
X11430Y340000D01*
X49299Y340000D02*
X187579Y340000D01*
X187579Y344000D02*
X11430Y344000D01*
X11430Y348000D02*
X187579Y348000D01*
X187579Y352000D02*
X11430Y352000D01*
X11430Y356000D02*
X187579Y356000D01*
X187579Y360000D02*
X11430Y360000D01*
X11430Y364000D02*
X97636Y364000D01*
X113184Y364000D02*
X173836Y364000D01*
X95401Y368000D02*
X11430Y368000D01*
X115419Y368000D02*
X171601Y368000D01*
X15941Y372000D02*
X11430Y372000D01*
X47559Y372000D02*
X95076Y372000D01*
X115744Y372000D02*
X171276Y372000D01*
X12416Y376000D02*
X11430Y376000D01*
X51084Y376000D02*
X96362Y376000D01*
X114458Y376000D02*
X172562Y376000D01*
X100520Y380000D02*
X52544Y380000D01*
X110300Y380000D02*
X176720Y380000D01*
X186500Y380000D02*
X187579Y380000D01*
X187579Y384000D02*
X52544Y384000D01*
X12523Y388000D02*
X11430Y388000D01*
X50977Y388000D02*
X187579Y388000D01*
X16387Y392000D02*
X11430Y392000D01*
X47113Y392000D02*
X187579Y392000D01*
X187579Y396000D02*
X11430Y396000D01*
X11430Y400000D02*
X187579Y400000D01*
X187579Y404000D02*
X11430Y404000D01*
X11430Y408000D02*
X187579Y408000D01*
X187579Y412000D02*
X11430Y412000D01*
X11430Y416000D02*
X187579Y416000D01*
X187579Y420000D02*
X11430Y420000D01*
X11430Y424000D02*
X15541Y424000D01*
X47959Y424000D02*
X187579Y424000D01*
X12250Y428000D02*
X11430Y428000D01*
X51250Y428000D02*
X187579Y428000D01*
X187579Y432000D02*
X52544Y432000D01*
X52468Y436000D02*
X187579Y436000D01*
X12689Y440000D02*
X11430Y440000D01*
X50811Y440000D02*
X187579Y440000D01*
X17353Y444000D02*
X11430Y444000D01*
X46147Y444000D02*
X187579Y444000D01*
X187579Y448000D02*
X11430Y448000D01*
X11430Y452000D02*
X187579Y452000D01*
X187579Y456000D02*
X11430Y456000D01*
X11430Y460000D02*
X187579Y460000D01*
X99236Y464000D02*
X11430Y464000D01*
X111584Y464000D02*
X175436Y464000D01*
X96064Y468000D02*
X11430Y468000D01*
X114756Y468000D02*
X172264Y468000D01*
X19622Y472000D02*
X11430Y472000D01*
X43878Y472000D02*
X95076Y472000D01*
X115744Y472000D02*
X171276Y472000D01*
X13541Y476000D02*
X11430Y476000D01*
X49959Y476000D02*
X95699Y476000D01*
X115121Y476000D02*
X171899Y476000D01*
X98356Y480000D02*
X52078Y480000D01*
X112464Y480000D02*
X174556Y480000D01*
X187579Y484000D02*
X52544Y484000D01*
X11861Y488000D02*
X11430Y488000D01*
X51639Y488000D02*
X187579Y488000D01*
X14601Y492000D02*
X11430Y492000D01*
X48899Y492000D02*
X187579Y492000D01*
X187579Y496000D02*
X11430Y496000D01*
X11430Y500000D02*
X187579Y500000D01*
X187579Y504000D02*
X11430Y504000D01*
X11430Y508000D02*
X187579Y508000D01*
X187579Y512000D02*
X11430Y512000D01*
X11430Y516000D02*
X187579Y516000D01*
X187579Y520000D02*
X11430Y520000D01*
X11430Y524000D02*
X18656Y524000D01*
X44844Y524000D02*
X187579Y524000D01*
X13141Y528000D02*
X11430Y528000D01*
X50359Y528000D02*
X187579Y528000D01*
X187579Y532000D02*
X52244Y532000D01*
X52544Y536000D02*
X187579Y536000D01*
X12026Y540000D02*
X11430Y540000D01*
X51474Y540000D02*
X187579Y540000D01*
X15001Y544000D02*
X11430Y544000D01*
X48499Y544000D02*
X187579Y544000D01*
X187579Y548000D02*
X11430Y548000D01*
X11430Y552000D02*
X187579Y552000D01*
X187579Y556000D02*
X11430Y556000D01*
X11430Y560000D02*
X187579Y560000D01*
X99579Y564000D02*
X11430Y564000D01*
X111241Y564000D02*
X175779Y564000D01*
X187441Y564000D02*
X187579Y564000D01*
X96200Y568000D02*
X11430Y568000D01*
X114620Y568000D02*
X172400Y568000D01*
X95076Y572000D02*
X11430Y572000D01*
X115744Y572000D02*
X171276Y572000D01*
X15141Y576000D02*
X11430Y576000D01*
X48359Y576000D02*
X95562Y576000D01*
X115258Y576000D02*
X171762Y576000D01*
X12084Y580000D02*
X11430Y580000D01*
X51416Y580000D02*
X98026Y580000D01*
X112794Y580000D02*
X174226Y580000D01*
X187579Y584000D02*
X52544Y584000D01*
X52302Y588000D02*
X187579Y588000D01*
X13001Y592000D02*
X11430Y592000D01*
X50499Y592000D02*
X187579Y592000D01*
X18318Y596000D02*
X11430Y596000D01*
X45182Y596000D02*
X187579Y596000D01*
X187579Y600000D02*
X11430Y600000D01*
X11430Y604000D02*
X187579Y604000D01*
X187579Y608000D02*
X11430Y608000D01*
X11430Y612000D02*
X187579Y612000D01*
X187579Y616000D02*
X11430Y616000D01*
X11430Y620000D02*
X187579Y620000D01*
X187579Y624000D02*
X11430Y624000D01*
X11430Y628000D02*
X14741Y628000D01*
X48759Y628000D02*
X187579Y628000D01*
X11919Y632000D02*
X11430Y632000D01*
X51581Y632000D02*
X187579Y632000D01*
X187579Y636000D02*
X52544Y636000D01*
X52136Y640000D02*
X187579Y640000D01*
X13401Y644000D02*
X11430Y644000D01*
X50099Y644000D02*
X187579Y644000D01*
X19284Y648000D02*
X11430Y648000D01*
X44216Y648000D02*
X187579Y648000D01*
X187579Y652000D02*
X11430Y652000D01*
X11430Y656000D02*
X187579Y656000D01*
X187579Y660000D02*
X11430Y660000D01*
X11430Y664000D02*
X187579Y664000D01*
X98436Y668000D02*
X11430Y668000D01*
X112384Y668000D02*
X174636Y668000D01*
X95732Y672000D02*
X11430Y672000D01*
X115088Y672000D02*
X171932Y672000D01*
X17690Y676000D02*
X11430Y676000D01*
X45810Y676000D02*
X95076Y676000D01*
X115744Y676000D02*
X171276Y676000D01*
X12747Y680000D02*
X11430Y680000D01*
X50753Y680000D02*
X96031Y680000D01*
X114789Y680000D02*
X172231Y680000D01*
X99156Y684000D02*
X52410Y684000D01*
X111664Y684000D02*
X175356Y684000D01*
X187579Y688000D02*
X52544Y688000D01*
X12192Y692000D02*
X11430Y692000D01*
X51308Y692000D02*
X187579Y692000D01*
X15401Y696000D02*
X11430Y696000D01*
X48099Y696000D02*
X187579Y696000D01*
X187579Y700000D02*
X11430Y700000D01*
X11430Y704000D02*
X187579Y704000D01*
X187579Y708000D02*
X11430Y708000D01*
X11430Y712000D02*
X187579Y712000D01*
X187579Y716000D02*
X11430Y716000D01*
X11430Y720000D02*
X187579Y720000D01*
X187579Y724000D02*
X11430Y724000D01*
X11430Y728000D02*
X16725Y728000D01*
X46775Y728000D02*
X187579Y728000D01*
X12581Y732000D02*
X11430Y732000D01*
X50919Y732000D02*
X187579Y732000D01*
X187579Y736000D02*
X52544Y736000D01*
X52544Y740000D02*
X187579Y740000D01*
X12358Y744000D02*
X11430Y744000D01*
X51142Y744000D02*
X187579Y744000D01*
X15801Y748000D02*
X11430Y748000D01*
X47699Y748000D02*
X187579Y748000D01*
X187579Y752000D02*
X11430Y752000D01*
X11430Y756000D02*
X187579Y756000D01*
X187579Y760000D02*
X11430Y760000D01*
X11430Y764000D02*
X187579Y764000D01*
X187579Y768000D02*
X11430Y768000D01*
X11430Y772000D02*
X97306Y772000D01*
X113514Y772000D02*
X173506Y772000D01*
X95264Y776000D02*
X11430Y776000D01*
X115556Y776000D02*
X171464Y776000D01*
X14341Y780000D02*
X11430Y780000D01*
X49159Y780000D02*
X95076Y780000D01*
X115744Y780000D02*
X171276Y780000D01*
X11753Y784000D02*
X11430Y784000D01*
X51747Y784000D02*
X96499Y784000D01*
X114321Y784000D02*
X172699Y784000D01*
X101317Y788000D02*
X52544Y788000D01*
X109503Y788000D02*
X177517Y788000D01*
X185703Y788000D02*
X187579Y788000D01*
X11529Y792000D02*
X11430Y792000D01*
X51971Y792000D02*
X187579Y792000D01*
X13801Y796000D02*
X11430Y796000D01*
X49699Y796000D02*
X188590Y796000D01*
X20250Y800000D02*
X11430Y800000D01*
X43250Y800000D02*
X191477Y800000D01*
X199390Y804000D02*
X11430Y804000D01*
X11430Y808000D02*
X199390Y808000D01*
X199390Y812000D02*
X11430Y812000D01*
X11430Y816000D02*
X199390Y816000D01*
X29254Y820000D02*
X11430Y820000D01*
X52026Y820000D02*
X199390Y820000D01*
X21644Y824000D02*
X11430Y824000D01*
X59636Y824000D02*
X199390Y824000D01*
X17162Y828000D02*
X11430Y828000D01*
X64118Y828000D02*
X199390Y828000D01*
X13685Y832000D02*
X11430Y832000D01*
X67595Y832000D02*
X199390Y832000D01*
X199390Y836000D02*
X69905Y836000D01*
X71670Y840000D02*
X199390Y840000D01*
X199390Y844000D02*
X72742Y844000D01*
X73434Y848000D02*
X199390Y848000D01*
X199390Y852000D02*
X73434Y852000D01*
X73224Y856000D02*
X199390Y856000D01*
X199390Y860000D02*
X72153Y860000D01*
X70944Y864000D02*
X199390Y864000D01*
X199390Y868000D02*
X68635Y868000D01*
X65918Y872000D02*
X199390Y872000D01*
X199390Y876000D02*
X61918Y876000D01*
X55825Y880000D02*
X199390Y880000D01*
X3892Y888000D02*
X0Y888000D01*
X0Y-71098D02*
X0Y-80010D01*
X0Y884108D02*
X0Y891540D01*
X4000Y-75098D02*
X4000Y-80010D01*
X4000Y888109D02*
X4000Y891540D01*
X8000Y-79098D02*
X8000Y-80010D01*
X12000Y-22118D02*
X12000Y22204D01*
X12000Y31936D02*
X12000Y72204D01*
X12000Y81936D02*
X12000Y123804D01*
X12000Y133536D02*
X12000Y173804D01*
X12000Y183536D02*
X12000Y225404D01*
X12000Y235136D02*
X12000Y275404D01*
X12000Y285136D02*
X12000Y327004D01*
X12000Y336736D02*
X12000Y377004D01*
X12000Y386736D02*
X12000Y428604D01*
X12000Y438336D02*
X12000Y478604D01*
X12000Y488336D02*
X12000Y530204D01*
X12000Y539936D02*
X12000Y580204D01*
X12000Y589936D02*
X12000Y631804D01*
X12000Y641536D02*
X12000Y681804D01*
X12000Y691536D02*
X12000Y733404D01*
X12000Y743136D02*
X12000Y783404D01*
X12000Y793136D02*
X12000Y834918D01*
X16000Y17141D02*
X16000Y-16362D01*
X16000Y36999D02*
X16000Y67141D01*
X16000Y86999D02*
X16000Y118741D01*
X16000Y138599D02*
X16000Y168741D01*
X16000Y188599D02*
X16000Y220341D01*
X16000Y240199D02*
X16000Y270341D01*
X16000Y290199D02*
X16000Y321941D01*
X16000Y341799D02*
X16000Y371941D01*
X16000Y391799D02*
X16000Y423541D01*
X16000Y443399D02*
X16000Y473541D01*
X16000Y493399D02*
X16000Y525141D01*
X16000Y544999D02*
X16000Y575141D01*
X16000Y594999D02*
X16000Y626741D01*
X16000Y646599D02*
X16000Y676741D01*
X16000Y696599D02*
X16000Y728341D01*
X16000Y748199D02*
X16000Y778341D01*
X16000Y798199D02*
X16000Y829162D01*
X16000Y897093D02*
X16000Y897380D01*
X20000Y15443D02*
X20000Y-12362D01*
X20000Y38697D02*
X20000Y65443D01*
X20000Y88697D02*
X20000Y117043D01*
X20000Y140297D02*
X20000Y167043D01*
X20000Y190297D02*
X20000Y218643D01*
X20000Y241897D02*
X20000Y268643D01*
X20000Y291897D02*
X20000Y320243D01*
X20000Y343497D02*
X20000Y370243D01*
X20000Y393497D02*
X20000Y421843D01*
X20000Y445097D02*
X20000Y471843D01*
X20000Y495097D02*
X20000Y523443D01*
X20000Y546697D02*
X20000Y573443D01*
X20000Y596697D02*
X20000Y625043D01*
X20000Y648297D02*
X20000Y675043D01*
X20000Y698297D02*
X20000Y726643D01*
X20000Y749897D02*
X20000Y776643D01*
X20000Y799897D02*
X20000Y825162D01*
X24000Y15276D02*
X24000Y-9840D01*
X24000Y38864D02*
X24000Y65276D01*
X24000Y88864D02*
X24000Y116876D01*
X24000Y140464D02*
X24000Y166876D01*
X24000Y190464D02*
X24000Y218476D01*
X24000Y242064D02*
X24000Y268476D01*
X24000Y292064D02*
X24000Y320076D01*
X24000Y343664D02*
X24000Y370076D01*
X24000Y393664D02*
X24000Y421676D01*
X24000Y445264D02*
X24000Y471676D01*
X24000Y495264D02*
X24000Y523276D01*
X24000Y546864D02*
X24000Y573276D01*
X24000Y596864D02*
X24000Y624876D01*
X24000Y648464D02*
X24000Y674876D01*
X24000Y698464D02*
X24000Y726476D01*
X24000Y750064D02*
X24000Y776476D01*
X24000Y800064D02*
X24000Y822640D01*
X28000Y15276D02*
X28000Y-7536D01*
X28000Y38864D02*
X28000Y65276D01*
X28000Y88864D02*
X28000Y116876D01*
X28000Y140464D02*
X28000Y166876D01*
X28000Y190464D02*
X28000Y218476D01*
X28000Y242064D02*
X28000Y268476D01*
X28000Y292064D02*
X28000Y320076D01*
X28000Y343664D02*
X28000Y370076D01*
X28000Y393664D02*
X28000Y421676D01*
X28000Y445264D02*
X28000Y471676D01*
X28000Y495264D02*
X28000Y523276D01*
X28000Y546864D02*
X28000Y573276D01*
X28000Y596864D02*
X28000Y624876D01*
X28000Y648464D02*
X28000Y674876D01*
X28000Y698464D02*
X28000Y726476D01*
X28000Y750064D02*
X28000Y776476D01*
X28000Y800064D02*
X28000Y820336D01*
X32000Y15276D02*
X32000Y-6464D01*
X32000Y38864D02*
X32000Y65276D01*
X32000Y88864D02*
X32000Y116876D01*
X32000Y140464D02*
X32000Y166876D01*
X32000Y190464D02*
X32000Y218476D01*
X32000Y242064D02*
X32000Y268476D01*
X32000Y292064D02*
X32000Y320076D01*
X32000Y343664D02*
X32000Y370076D01*
X32000Y393664D02*
X32000Y421676D01*
X32000Y445264D02*
X32000Y471676D01*
X32000Y495264D02*
X32000Y523276D01*
X32000Y546864D02*
X32000Y573276D01*
X32000Y596864D02*
X32000Y624876D01*
X32000Y648464D02*
X32000Y674876D01*
X32000Y698464D02*
X32000Y726476D01*
X32000Y750064D02*
X32000Y776476D01*
X32000Y800064D02*
X32000Y819264D01*
X36000Y15276D02*
X36000Y-5392D01*
X36000Y38864D02*
X36000Y65276D01*
X36000Y88864D02*
X36000Y116876D01*
X36000Y140464D02*
X36000Y166876D01*
X36000Y190464D02*
X36000Y218476D01*
X36000Y242064D02*
X36000Y268476D01*
X36000Y292064D02*
X36000Y320076D01*
X36000Y343664D02*
X36000Y370076D01*
X36000Y393664D02*
X36000Y421676D01*
X36000Y445264D02*
X36000Y471676D01*
X36000Y495264D02*
X36000Y523276D01*
X36000Y546864D02*
X36000Y573276D01*
X36000Y596864D02*
X36000Y624876D01*
X36000Y648464D02*
X36000Y674876D01*
X36000Y698464D02*
X36000Y726476D01*
X36000Y750064D02*
X36000Y776476D01*
X36000Y800064D02*
X36000Y818192D01*
X40000Y15276D02*
X40000Y-5306D01*
X40000Y38864D02*
X40000Y65276D01*
X40000Y88864D02*
X40000Y116876D01*
X40000Y140464D02*
X40000Y166876D01*
X40000Y190464D02*
X40000Y218476D01*
X40000Y242064D02*
X40000Y268476D01*
X40000Y292064D02*
X40000Y320076D01*
X40000Y343664D02*
X40000Y370076D01*
X40000Y393664D02*
X40000Y421676D01*
X40000Y445264D02*
X40000Y471676D01*
X40000Y495264D02*
X40000Y523276D01*
X40000Y546864D02*
X40000Y573276D01*
X40000Y596864D02*
X40000Y624876D01*
X40000Y648464D02*
X40000Y674876D01*
X40000Y698464D02*
X40000Y726476D01*
X40000Y750064D02*
X40000Y776476D01*
X40000Y800064D02*
X40000Y818106D01*
X44000Y15650D02*
X44000Y-5306D01*
X44000Y38490D02*
X44000Y65650D01*
X44000Y88490D02*
X44000Y117250D01*
X44000Y140090D02*
X44000Y167250D01*
X44000Y190090D02*
X44000Y218850D01*
X44000Y241690D02*
X44000Y268850D01*
X44000Y291690D02*
X44000Y320450D01*
X44000Y343290D02*
X44000Y370450D01*
X44000Y393290D02*
X44000Y422050D01*
X44000Y444890D02*
X44000Y472050D01*
X44000Y494890D02*
X44000Y523650D01*
X44000Y546490D02*
X44000Y573650D01*
X44000Y596490D02*
X44000Y625250D01*
X44000Y648090D02*
X44000Y675250D01*
X44000Y698090D02*
X44000Y726850D01*
X44000Y749690D02*
X44000Y776850D01*
X44000Y799690D02*
X44000Y818106D01*
X48000Y17641D02*
X48000Y-6121D01*
X48000Y36499D02*
X48000Y67641D01*
X48000Y86499D02*
X48000Y119241D01*
X48000Y138099D02*
X48000Y169241D01*
X48000Y188099D02*
X48000Y220841D01*
X48000Y239699D02*
X48000Y270841D01*
X48000Y289699D02*
X48000Y322441D01*
X48000Y341299D02*
X48000Y372441D01*
X48000Y391299D02*
X48000Y424041D01*
X48000Y442899D02*
X48000Y474041D01*
X48000Y492899D02*
X48000Y525641D01*
X48000Y544499D02*
X48000Y575641D01*
X48000Y594499D02*
X48000Y627241D01*
X48000Y646099D02*
X48000Y677241D01*
X48000Y696099D02*
X48000Y728841D01*
X48000Y747699D02*
X48000Y778841D01*
X48000Y797699D02*
X48000Y818921D01*
X52000Y23411D02*
X52000Y-7193D01*
X52000Y30729D02*
X52000Y73411D01*
X52000Y80729D02*
X52000Y125011D01*
X52000Y132329D02*
X52000Y175011D01*
X52000Y182329D02*
X52000Y226611D01*
X52000Y233929D02*
X52000Y276611D01*
X52000Y283929D02*
X52000Y328211D01*
X52000Y335529D02*
X52000Y378211D01*
X52000Y385529D02*
X52000Y429811D01*
X52000Y437129D02*
X52000Y479811D01*
X52000Y487129D02*
X52000Y531411D01*
X52000Y538729D02*
X52000Y581411D01*
X52000Y588729D02*
X52000Y633011D01*
X52000Y640329D02*
X52000Y683011D01*
X52000Y690329D02*
X52000Y734611D01*
X52000Y741929D02*
X52000Y784611D01*
X52000Y791929D02*
X52000Y819993D01*
X56000Y-67099D02*
X56000Y-67310D01*
X56000Y-9101D02*
X56000Y821901D01*
X56000Y879899D02*
X56000Y880618D01*
X60000Y-64790D02*
X60000Y-67310D01*
X60000Y-11410D02*
X60000Y824210D01*
X60000Y877590D02*
X60000Y880618D01*
X64000Y-61118D02*
X64000Y-67310D01*
X64000Y-15082D02*
X64000Y827882D01*
X64000Y873918D02*
X64000Y880618D01*
X68000Y-56299D02*
X68000Y-67310D01*
X68000Y-19901D02*
X68000Y832701D01*
X68000Y869099D02*
X68000Y880618D01*
X72000Y-47769D02*
X72000Y-67310D01*
X72000Y-28431D02*
X72000Y841231D01*
X72000Y860569D02*
X72000Y880618D01*
X76000Y880618D02*
X76000Y-67310D01*
X80000Y-67310D02*
X80000Y880618D01*
X84000Y880618D02*
X84000Y-67310D01*
X88000Y-67310D02*
X88000Y880618D01*
X92000Y880618D02*
X92000Y-67310D01*
X96000Y-67310D02*
X96000Y61754D01*
X96000Y70326D02*
X96000Y163354D01*
X96000Y171926D02*
X96000Y264954D01*
X96000Y273526D02*
X96000Y366554D01*
X96000Y375126D02*
X96000Y468154D01*
X96000Y476726D02*
X96000Y568484D01*
X96000Y577056D02*
X96000Y671354D01*
X96000Y679926D02*
X96000Y774224D01*
X96000Y782796D02*
X96000Y880618D01*
X100000Y57095D02*
X100000Y-67310D01*
X100000Y74985D02*
X100000Y158695D01*
X100000Y176585D02*
X100000Y260295D01*
X100000Y278185D02*
X100000Y361895D01*
X100000Y379785D02*
X100000Y463495D01*
X100000Y481385D02*
X100000Y563825D01*
X100000Y581715D02*
X100000Y666695D01*
X100000Y684585D02*
X100000Y769565D01*
X100000Y787455D02*
X100000Y880618D01*
X104000Y55706D02*
X104000Y-67310D01*
X104000Y76374D02*
X104000Y157306D01*
X104000Y177974D02*
X104000Y258906D01*
X104000Y279574D02*
X104000Y360506D01*
X104000Y381174D02*
X104000Y462106D01*
X104000Y482774D02*
X104000Y562436D01*
X104000Y583104D02*
X104000Y665306D01*
X104000Y685974D02*
X104000Y768176D01*
X104000Y788844D02*
X104000Y880618D01*
X108000Y55927D02*
X108000Y-67310D01*
X108000Y76153D02*
X108000Y157527D01*
X108000Y177753D02*
X108000Y259127D01*
X108000Y279353D02*
X108000Y360727D01*
X108000Y380953D02*
X108000Y462327D01*
X108000Y482553D02*
X108000Y562657D01*
X108000Y582883D02*
X108000Y665527D01*
X108000Y685753D02*
X108000Y768397D01*
X108000Y788623D02*
X108000Y880618D01*
X112000Y58016D02*
X112000Y-67310D01*
X112000Y74064D02*
X112000Y159616D01*
X112000Y175664D02*
X112000Y261216D01*
X112000Y277264D02*
X112000Y362816D01*
X112000Y378864D02*
X112000Y464416D01*
X112000Y480464D02*
X112000Y564746D01*
X112000Y580794D02*
X112000Y667616D01*
X112000Y683664D02*
X112000Y770486D01*
X112000Y786534D02*
X112000Y880618D01*
X116000Y880618D02*
X116000Y-67310D01*
X120000Y-67310D02*
X120000Y880618D01*
X124000Y880618D02*
X124000Y-67310D01*
X128000Y-67310D02*
X128000Y880618D01*
X132000Y880618D02*
X132000Y-67310D01*
X136000Y-67310D02*
X136000Y880618D01*
X140000Y880618D02*
X140000Y-67310D01*
X144000Y-67310D02*
X144000Y880618D01*
X148000Y880618D02*
X148000Y-67310D01*
X152000Y-67310D02*
X152000Y880618D01*
X156000Y880618D02*
X156000Y-67310D01*
X160000Y-67310D02*
X160000Y880618D01*
X164000Y880618D02*
X164000Y-67310D01*
X168000Y-67310D02*
X168000Y880618D01*
X172000Y62237D02*
X172000Y-67310D01*
X172000Y69843D02*
X172000Y163837D01*
X172000Y171443D02*
X172000Y265437D01*
X172000Y273043D02*
X172000Y367037D01*
X172000Y374643D02*
X172000Y468637D01*
X172000Y476243D02*
X172000Y568967D01*
X172000Y576573D02*
X172000Y671837D01*
X172000Y679443D02*
X172000Y774707D01*
X172000Y782313D02*
X172000Y880618D01*
X176000Y57178D02*
X176000Y-67310D01*
X176000Y74902D02*
X176000Y158778D01*
X176000Y176502D02*
X176000Y260378D01*
X176000Y278102D02*
X176000Y361978D01*
X176000Y379702D02*
X176000Y463578D01*
X176000Y481302D02*
X176000Y563908D01*
X176000Y581632D02*
X176000Y666778D01*
X176000Y684502D02*
X176000Y769648D01*
X176000Y787372D02*
X176000Y880618D01*
X180000Y55706D02*
X180000Y-67310D01*
X180000Y76374D02*
X180000Y157306D01*
X180000Y177974D02*
X180000Y258906D01*
X180000Y279574D02*
X180000Y360506D01*
X180000Y381174D02*
X180000Y462106D01*
X180000Y482774D02*
X180000Y562436D01*
X180000Y583104D02*
X180000Y665306D01*
X180000Y685974D02*
X180000Y768176D01*
X180000Y788844D02*
X180000Y880618D01*
X184000Y55845D02*
X184000Y-67310D01*
X184000Y76235D02*
X184000Y157445D01*
X184000Y177835D02*
X184000Y259045D01*
X184000Y279435D02*
X184000Y360645D01*
X184000Y381035D02*
X184000Y462245D01*
X184000Y482635D02*
X184000Y562575D01*
X184000Y582965D02*
X184000Y665445D01*
X184000Y685835D02*
X184000Y768315D01*
X184000Y788705D02*
X184000Y880618D01*
X188000Y19494D02*
X188000Y-67310D01*
X188000Y794576D02*
X188000Y880618D01*
X192000Y13547D02*
X192000Y-67310D01*
X192000Y800523D02*
X192000Y880618D01*
X196000Y11480D02*
X196000Y-67310D01*
X196000Y802590D02*
X196000Y880618D01*
M02*
