G04 EAGLE Gerber RS-274X export*
G75*
%MOMM*%
%FSLAX34Y34*%
%LPD*%
%INBottom Copper*%
%IPPOS*%
%AMOC8*
5,1,8,0,0,1.08239X$1,22.5*%
G01*
%ADD10C,1.508000*%
%ADD11C,1.800000*%
%ADD12C,1.422400*%
%ADD13C,6.000000*%
%ADD14C,1.008000*%
%ADD15C,0.756400*%
%ADD16C,0.254000*%
%ADD17C,0.304800*%
%ADD18C,1.270000*%


D10*
X105410Y167640D03*
X181610Y167640D03*
X283210Y167640D03*
X308610Y167640D03*
X105410Y269240D03*
X181610Y269240D03*
X283210Y269240D03*
X308610Y269240D03*
X105410Y370840D03*
X181610Y370840D03*
X283210Y370840D03*
X308610Y370840D03*
X105410Y472440D03*
X181610Y472440D03*
X283210Y472440D03*
X308610Y472440D03*
X105410Y66040D03*
X181610Y66040D03*
X283210Y66040D03*
X308610Y66040D03*
X105410Y572770D03*
X181610Y572770D03*
X283210Y572770D03*
X308610Y572770D03*
X105410Y778510D03*
X181610Y778510D03*
X283210Y778510D03*
X308610Y778510D03*
X105410Y675640D03*
X181610Y675640D03*
X283210Y675640D03*
X308610Y675640D03*
D11*
X40750Y77070D02*
X22750Y77070D01*
X22750Y27070D02*
X40750Y27070D01*
X40750Y178670D02*
X22750Y178670D01*
X22750Y128670D02*
X40750Y128670D01*
X40750Y280270D02*
X22750Y280270D01*
X22750Y230270D02*
X40750Y230270D01*
X40750Y381870D02*
X22750Y381870D01*
X22750Y331870D02*
X40750Y331870D01*
X40750Y483470D02*
X22750Y483470D01*
X22750Y433470D02*
X40750Y433470D01*
X40750Y585070D02*
X22750Y585070D01*
X22750Y535070D02*
X40750Y535070D01*
X40750Y788270D02*
X22750Y788270D01*
X22750Y738270D02*
X40750Y738270D01*
X40750Y686670D02*
X22750Y686670D01*
X22750Y636670D02*
X40750Y636670D01*
X450740Y66440D02*
X468740Y66440D01*
X468740Y116440D02*
X450740Y116440D01*
X450740Y168040D02*
X468740Y168040D01*
X468740Y218040D02*
X450740Y218040D01*
X450740Y269640D02*
X468740Y269640D01*
X468740Y319640D02*
X450740Y319640D01*
D12*
X424180Y634238D02*
X424180Y648462D01*
X449580Y648462D02*
X449580Y634238D01*
X474980Y634238D02*
X474980Y648462D01*
X424180Y743458D02*
X424180Y757682D01*
X449580Y757682D02*
X449580Y743458D01*
X474980Y743458D02*
X474980Y757682D01*
X424180Y703072D02*
X424180Y688848D01*
X449580Y688848D02*
X449580Y703072D01*
X474980Y703072D02*
X474980Y688848D01*
X463550Y583692D02*
X463550Y569468D01*
X438150Y569468D02*
X438150Y583692D01*
X463550Y548132D02*
X463550Y533908D01*
X438150Y533908D02*
X438150Y548132D01*
D13*
X40640Y850900D03*
D14*
X40640Y873125D03*
X40640Y828675D03*
X62865Y850900D03*
X18415Y850900D03*
X24765Y866775D03*
X56515Y866775D03*
X56515Y835025D03*
X24765Y835025D03*
D13*
X40640Y-38100D03*
D14*
X40640Y-15875D03*
X40640Y-60325D03*
X62865Y-38100D03*
X18415Y-38100D03*
X24765Y-22225D03*
X56515Y-22225D03*
X56515Y-53975D03*
X24765Y-53975D03*
D13*
X454660Y850900D03*
D14*
X454660Y873125D03*
X454660Y828675D03*
X476885Y850900D03*
X432435Y850900D03*
X438785Y866775D03*
X470535Y866775D03*
X470535Y835025D03*
X438785Y835025D03*
D13*
X454660Y-38100D03*
D14*
X454660Y-15875D03*
X454660Y-60325D03*
X476885Y-38100D03*
X432435Y-38100D03*
X438785Y-22225D03*
X470535Y-22225D03*
X470535Y-53975D03*
X438785Y-53975D03*
D15*
X410921Y461721D03*
D16*
X410921Y495097D01*
X410591Y495427D01*
D15*
X410591Y495427D03*
X415290Y427990D03*
D17*
X403860Y427990D01*
X400050Y431800D01*
D16*
X400050Y440690D01*
X403225Y443865D01*
X403225Y456565D01*
D15*
X403225Y456565D03*
D16*
X374991Y383116D02*
X372375Y383116D01*
X374991Y383116D02*
X377408Y384117D01*
X378665Y385374D01*
X378781Y385374D01*
X383297Y389890D01*
X435482Y389890D01*
X455802Y410210D01*
X465680Y410210D01*
X465595Y410125D01*
X464594Y407708D01*
X464594Y405931D01*
X463804Y405141D01*
X463804Y360575D01*
X457305Y354076D01*
X406505Y354076D01*
X403976Y351547D01*
X400812Y348383D01*
X400812Y221731D01*
X403341Y219202D01*
X408821Y213722D01*
X439763Y213722D01*
X440742Y211359D01*
X444059Y208042D01*
X448394Y206246D01*
X471086Y206246D01*
X475421Y208042D01*
X478738Y211359D01*
X480534Y215694D01*
X480534Y220386D01*
X478738Y224721D01*
X475421Y228038D01*
X471086Y229834D01*
X448394Y229834D01*
X444059Y228038D01*
X440742Y224721D01*
X439763Y222358D01*
X412399Y222358D01*
X409448Y225309D01*
X409448Y297532D01*
X410295Y296685D01*
X412712Y295684D01*
X415328Y295684D01*
X417745Y296685D01*
X419595Y298535D01*
X420401Y300482D01*
X433168Y300482D01*
X434425Y299225D01*
X436842Y298224D01*
X439458Y298224D01*
X441875Y299225D01*
X443725Y301075D01*
X444726Y303492D01*
X444726Y306108D01*
X443725Y308525D01*
X441875Y310375D01*
X439458Y311376D01*
X436842Y311376D01*
X434425Y310375D01*
X433168Y309118D01*
X414771Y309118D01*
X414489Y308836D01*
X412712Y308836D01*
X410295Y307835D01*
X409448Y306988D01*
X409448Y316984D01*
X410251Y315045D01*
X412101Y313195D01*
X414518Y312194D01*
X417134Y312194D01*
X419551Y313195D01*
X421401Y315045D01*
X421621Y315576D01*
X439658Y315576D01*
X440742Y312959D01*
X444059Y309642D01*
X448394Y307846D01*
X471086Y307846D01*
X475421Y309642D01*
X478738Y312959D01*
X480534Y317294D01*
X480534Y321986D01*
X478738Y326321D01*
X475421Y329638D01*
X471086Y331434D01*
X448394Y331434D01*
X444059Y329638D01*
X440742Y326321D01*
X439658Y323704D01*
X420192Y323704D01*
X419551Y324345D01*
X417134Y325346D01*
X414518Y325346D01*
X412101Y324345D01*
X410251Y322495D01*
X409448Y320556D01*
X409448Y344806D01*
X410082Y345440D01*
X460882Y345440D01*
X463412Y347969D01*
X463412Y347969D01*
X469911Y354468D01*
X469911Y354468D01*
X472440Y356998D01*
X472440Y399824D01*
X472478Y399824D01*
X474886Y400821D01*
X474582Y400088D01*
X474582Y397472D01*
X475583Y395055D01*
X477433Y393205D01*
X479850Y392204D01*
X482466Y392204D01*
X483616Y392680D01*
X483616Y-22665D01*
X480902Y-17964D01*
X474796Y-11858D01*
X467318Y-7541D01*
X458977Y-5306D01*
X450343Y-5306D01*
X442002Y-7541D01*
X434524Y-11858D01*
X428418Y-17964D01*
X424101Y-25442D01*
X421866Y-33783D01*
X421866Y-42417D01*
X424101Y-50758D01*
X428418Y-58236D01*
X434524Y-64342D01*
X439665Y-67310D01*
X217170Y-67310D01*
X217170Y11049D01*
X222059Y11049D01*
X226400Y12847D01*
X229723Y16170D01*
X231521Y20511D01*
X231521Y572897D01*
X232372Y572544D01*
X234988Y572544D01*
X237405Y573545D01*
X239255Y575395D01*
X240256Y577812D01*
X240256Y580428D01*
X239255Y582845D01*
X237405Y584695D01*
X236728Y584975D01*
X236728Y585367D01*
X248574Y585367D01*
X251103Y587897D01*
X253238Y590031D01*
X253238Y591802D01*
X253333Y591898D01*
X253333Y597747D01*
X256297Y600710D01*
X415418Y600710D01*
X421132Y594996D01*
X421132Y545581D01*
X428244Y538469D01*
X428244Y531938D01*
X429752Y528297D01*
X431253Y526796D01*
X367826Y526796D01*
X350763Y509733D01*
X348234Y507204D01*
X348234Y361592D01*
X352298Y357528D01*
X352298Y261124D01*
X356870Y256552D01*
X356870Y197260D01*
X355515Y198615D01*
X353098Y199616D01*
X350482Y199616D01*
X348065Y198615D01*
X346808Y197358D01*
X344689Y197358D01*
X329449Y212598D01*
X281362Y212598D01*
X280105Y213855D01*
X277688Y214856D01*
X275072Y214856D01*
X272655Y213855D01*
X270805Y212005D01*
X269804Y209588D01*
X269804Y206972D01*
X270805Y204555D01*
X272655Y202705D01*
X275072Y201704D01*
X277688Y201704D01*
X280105Y202705D01*
X281362Y203962D01*
X325871Y203962D01*
X338582Y191251D01*
X341111Y188722D01*
X346808Y188722D01*
X348065Y187465D01*
X350482Y186464D01*
X353098Y186464D01*
X355515Y187465D01*
X356870Y188820D01*
X356870Y161418D01*
X360114Y158174D01*
X361384Y156904D01*
X366522Y151766D01*
X366522Y57901D01*
X366804Y57619D01*
X366804Y55842D01*
X367805Y53425D01*
X369655Y51575D01*
X372072Y50574D01*
X374688Y50574D01*
X377105Y51575D01*
X378955Y53425D01*
X379956Y55842D01*
X379956Y58458D01*
X378955Y60875D01*
X377105Y62725D01*
X375158Y63531D01*
X375158Y153444D01*
X375958Y153444D01*
X378375Y154445D01*
X380225Y156295D01*
X381226Y158712D01*
X381226Y161328D01*
X380225Y163745D01*
X378375Y165595D01*
X375958Y166596D01*
X373342Y166596D01*
X371241Y165726D01*
X370078Y166889D01*
X370078Y255870D01*
X372072Y255044D01*
X374688Y255044D01*
X377105Y256045D01*
X378955Y257895D01*
X379956Y260312D01*
X379956Y262928D01*
X378955Y265345D01*
X377105Y267195D01*
X374688Y268196D01*
X372072Y268196D01*
X370869Y267698D01*
X370078Y268489D01*
X370078Y357470D01*
X372072Y356644D01*
X374688Y356644D01*
X377105Y357645D01*
X378955Y359495D01*
X379956Y361912D01*
X379956Y364528D01*
X378955Y366945D01*
X377105Y368795D01*
X374688Y369796D01*
X372072Y369796D01*
X371767Y369670D01*
X370586Y370851D01*
X370586Y383857D01*
X372375Y383116D01*
X289786Y505422D02*
X289786Y508038D01*
X288785Y510455D01*
X286935Y512305D01*
X284518Y513306D01*
X281902Y513306D01*
X279485Y512305D01*
X277635Y510455D01*
X276634Y508038D01*
X276634Y505422D01*
X277635Y503005D01*
X278892Y501748D01*
X278892Y481837D01*
X277356Y481201D01*
X274449Y478294D01*
X272876Y474496D01*
X272876Y470384D01*
X274449Y466586D01*
X277356Y463679D01*
X281154Y462106D01*
X285266Y462106D01*
X289064Y463679D01*
X291971Y466586D01*
X293544Y470384D01*
X293544Y474496D01*
X291971Y478294D01*
X289064Y481201D01*
X287528Y481837D01*
X287528Y501748D01*
X288785Y503005D01*
X289786Y505422D01*
X244414Y310106D02*
X246831Y309105D01*
X244414Y310106D02*
X241798Y310106D01*
X239381Y309105D01*
X237531Y307255D01*
X236530Y304838D01*
X236530Y302222D01*
X237531Y299805D01*
X239381Y297955D01*
X241798Y296954D01*
X244414Y296954D01*
X246831Y297955D01*
X248088Y299212D01*
X249671Y299212D01*
X252222Y296661D01*
X254751Y294132D01*
X268570Y294132D01*
X267744Y292138D01*
X267744Y289522D01*
X268745Y287105D01*
X270595Y285255D01*
X273012Y284254D01*
X275628Y284254D01*
X278045Y285255D01*
X279302Y286512D01*
X285848Y286512D01*
X287105Y285255D01*
X289522Y284254D01*
X292138Y284254D01*
X294555Y285255D01*
X296405Y287105D01*
X297406Y289522D01*
X297406Y292138D01*
X296405Y294555D01*
X295191Y295769D01*
X295615Y296193D01*
X296616Y298610D01*
X296616Y301226D01*
X295615Y303643D01*
X293765Y305493D01*
X291348Y306494D01*
X288732Y306494D01*
X286315Y305493D01*
X286130Y305308D01*
X277611Y305308D01*
X275082Y302779D01*
X275071Y302768D01*
X258329Y302768D01*
X253249Y307848D01*
X248088Y307848D01*
X246831Y309105D01*
X269014Y402430D02*
X270015Y404847D01*
X269014Y402430D02*
X269014Y399814D01*
X270015Y397397D01*
X271865Y395547D01*
X274282Y394546D01*
X276898Y394546D01*
X279315Y395547D01*
X280572Y396804D01*
X285848Y396804D01*
X287105Y395547D01*
X289522Y394546D01*
X292138Y394546D01*
X294555Y395547D01*
X296405Y397397D01*
X297406Y399814D01*
X297406Y402430D01*
X296405Y404847D01*
X295586Y405666D01*
X296405Y406485D01*
X297406Y408902D01*
X297406Y411518D01*
X296405Y413935D01*
X294555Y415785D01*
X292138Y416786D01*
X289522Y416786D01*
X287105Y415785D01*
X285848Y414528D01*
X281362Y414528D01*
X280105Y415785D01*
X277688Y416786D01*
X275072Y416786D01*
X272655Y415785D01*
X270805Y413935D01*
X269804Y411518D01*
X269804Y408902D01*
X270805Y406485D01*
X271229Y406061D01*
X270015Y404847D01*
X481509Y65170D02*
X481235Y63440D01*
X481509Y65170D02*
X461010Y65170D01*
X461010Y67710D01*
X481509Y67710D01*
X481235Y69440D01*
X480611Y71357D01*
X479696Y73154D01*
X478511Y74785D01*
X477085Y76211D01*
X475454Y77396D01*
X473657Y78311D01*
X471740Y78935D01*
X469748Y79250D01*
X461010Y79250D01*
X461010Y67710D01*
X458470Y67710D01*
X458470Y79250D01*
X449732Y79250D01*
X447740Y78935D01*
X445823Y78311D01*
X444026Y77396D01*
X442395Y76211D01*
X440969Y74785D01*
X439784Y73154D01*
X438869Y71357D01*
X438245Y69440D01*
X437971Y67710D01*
X458470Y67710D01*
X458470Y65170D01*
X437971Y65170D01*
X438245Y63440D01*
X438869Y61523D01*
X439784Y59726D01*
X440969Y58095D01*
X442395Y56669D01*
X444026Y55484D01*
X445823Y54569D01*
X447740Y53945D01*
X449732Y53630D01*
X458470Y53630D01*
X458470Y65170D01*
X461010Y65170D01*
X461010Y53630D01*
X469748Y53630D01*
X471740Y53945D01*
X473657Y54569D01*
X475454Y55484D01*
X477085Y56669D01*
X478511Y58095D01*
X479696Y59726D01*
X480611Y61523D01*
X481235Y63440D01*
X318944Y570714D02*
X318944Y574826D01*
X317371Y578624D01*
X314464Y581531D01*
X310666Y583104D01*
X306554Y583104D01*
X302756Y581531D01*
X299849Y578624D01*
X298276Y574826D01*
X298276Y570714D01*
X299849Y566916D01*
X302756Y564009D01*
X306554Y562436D01*
X310666Y562436D01*
X314464Y564009D01*
X317371Y566916D01*
X318944Y570714D01*
X293544Y570714D02*
X293544Y574826D01*
X291971Y578624D01*
X289064Y581531D01*
X285266Y583104D01*
X281154Y583104D01*
X277356Y581531D01*
X274449Y578624D01*
X272876Y574826D01*
X272876Y570714D01*
X274449Y566916D01*
X277356Y564009D01*
X281154Y562436D01*
X285266Y562436D01*
X289064Y564009D01*
X291971Y566916D01*
X293544Y570714D01*
X318944Y68096D02*
X318944Y63984D01*
X318944Y68096D02*
X317371Y71894D01*
X314464Y74801D01*
X310666Y76374D01*
X306554Y76374D01*
X302756Y74801D01*
X299849Y71894D01*
X298276Y68096D01*
X298276Y63984D01*
X299849Y60186D01*
X302756Y57279D01*
X306554Y55706D01*
X310666Y55706D01*
X314464Y57279D01*
X317371Y60186D01*
X318944Y63984D01*
X293544Y63984D02*
X293544Y68096D01*
X291971Y71894D01*
X289064Y74801D01*
X285266Y76374D01*
X281154Y76374D01*
X277356Y74801D01*
X274449Y71894D01*
X272876Y68096D01*
X272876Y63984D01*
X274449Y60186D01*
X277356Y57279D01*
X281154Y55706D01*
X285266Y55706D01*
X289064Y57279D01*
X291971Y60186D01*
X293544Y63984D01*
X318944Y470384D02*
X318944Y474496D01*
X317371Y478294D01*
X314464Y481201D01*
X310666Y482774D01*
X306554Y482774D01*
X302756Y481201D01*
X299849Y478294D01*
X298276Y474496D01*
X298276Y470384D01*
X299849Y466586D01*
X302756Y463679D01*
X306554Y462106D01*
X310666Y462106D01*
X314464Y463679D01*
X317371Y466586D01*
X318944Y470384D01*
X318944Y372896D02*
X318944Y368784D01*
X318944Y372896D02*
X317371Y376694D01*
X314464Y379601D01*
X310666Y381174D01*
X306554Y381174D01*
X302756Y379601D01*
X299849Y376694D01*
X298276Y372896D01*
X298276Y368784D01*
X299849Y364986D01*
X302756Y362079D01*
X306554Y360506D01*
X310666Y360506D01*
X314464Y362079D01*
X317371Y364986D01*
X318944Y368784D01*
X293544Y368784D02*
X293544Y372896D01*
X291971Y376694D01*
X289064Y379601D01*
X285266Y381174D01*
X281154Y381174D01*
X277356Y379601D01*
X274449Y376694D01*
X272876Y372896D01*
X272876Y368784D01*
X274449Y364986D01*
X277356Y362079D01*
X281154Y360506D01*
X285266Y360506D01*
X289064Y362079D01*
X291971Y364986D01*
X293544Y368784D01*
X318944Y271296D02*
X318944Y267184D01*
X318944Y271296D02*
X317371Y275094D01*
X314464Y278001D01*
X310666Y279574D01*
X306554Y279574D01*
X302756Y278001D01*
X299849Y275094D01*
X298276Y271296D01*
X298276Y267184D01*
X299849Y263386D01*
X302756Y260479D01*
X306554Y258906D01*
X310666Y258906D01*
X314464Y260479D01*
X317371Y263386D01*
X318944Y267184D01*
X293544Y267184D02*
X293544Y271296D01*
X291971Y275094D01*
X289064Y278001D01*
X285266Y279574D01*
X281154Y279574D01*
X277356Y278001D01*
X274449Y275094D01*
X272876Y271296D01*
X272876Y267184D01*
X274449Y263386D01*
X277356Y260479D01*
X281154Y258906D01*
X285266Y258906D01*
X289064Y260479D01*
X291971Y263386D01*
X293544Y267184D01*
X318944Y169696D02*
X318944Y165584D01*
X318944Y169696D02*
X317371Y173494D01*
X314464Y176401D01*
X310666Y177974D01*
X306554Y177974D01*
X302756Y176401D01*
X299849Y173494D01*
X298276Y169696D01*
X298276Y165584D01*
X299849Y161786D01*
X302756Y158879D01*
X306554Y157306D01*
X310666Y157306D01*
X314464Y158879D01*
X317371Y161786D01*
X318944Y165584D01*
X293544Y165584D02*
X293544Y169696D01*
X291971Y173494D01*
X289064Y176401D01*
X285266Y177974D01*
X281154Y177974D01*
X277356Y176401D01*
X274449Y173494D01*
X272876Y169696D01*
X272876Y165584D01*
X274449Y161786D01*
X277356Y158879D01*
X281154Y157306D01*
X285266Y157306D01*
X289064Y158879D01*
X291971Y161786D01*
X293544Y165584D01*
X448394Y128234D02*
X471086Y128234D01*
X448394Y128234D02*
X444059Y126438D01*
X440742Y123121D01*
X438946Y118786D01*
X438946Y114094D01*
X440742Y109759D01*
X444059Y106442D01*
X448394Y104646D01*
X471086Y104646D01*
X475421Y106442D01*
X478738Y109759D01*
X480534Y114094D01*
X480534Y118786D01*
X478738Y123121D01*
X475421Y126438D01*
X471086Y128234D01*
X471086Y179834D02*
X448394Y179834D01*
X444059Y178038D01*
X440742Y174721D01*
X438946Y170386D01*
X438946Y165694D01*
X440742Y161359D01*
X444059Y158042D01*
X448394Y156246D01*
X471086Y156246D01*
X475421Y158042D01*
X478738Y161359D01*
X480534Y165694D01*
X480534Y170386D01*
X478738Y174721D01*
X475421Y178038D01*
X471086Y179834D01*
X471086Y281434D02*
X448394Y281434D01*
X444059Y279638D01*
X440742Y276321D01*
X438946Y271986D01*
X438946Y267294D01*
X440742Y262959D01*
X444059Y259642D01*
X448394Y257846D01*
X471086Y257846D01*
X475421Y259642D01*
X478738Y262959D01*
X480534Y267294D01*
X480534Y271986D01*
X478738Y276321D01*
X475421Y279638D01*
X471086Y281434D01*
X407105Y545325D02*
X404688Y546326D01*
X402072Y546326D01*
X399655Y545325D01*
X397805Y543475D01*
X396804Y541058D01*
X396804Y538442D01*
X397805Y536025D01*
X399655Y534175D01*
X402072Y533174D01*
X404688Y533174D01*
X407105Y534175D01*
X408362Y535432D01*
X412058Y535432D01*
X413315Y534175D01*
X415732Y533174D01*
X418348Y533174D01*
X420765Y534175D01*
X422615Y536025D01*
X423616Y538442D01*
X423616Y541058D01*
X422615Y543475D01*
X420765Y545325D01*
X418348Y546326D01*
X415732Y546326D01*
X413315Y545325D01*
X412058Y544068D01*
X408362Y544068D01*
X407105Y545325D01*
X466175Y492265D02*
X468592Y491264D01*
X471208Y491264D01*
X473625Y492265D01*
X475475Y494115D01*
X475782Y494857D01*
X476762Y493878D01*
X476762Y427227D01*
X475955Y429175D01*
X474105Y431025D01*
X471688Y432026D01*
X469072Y432026D01*
X466655Y431025D01*
X464805Y429175D01*
X463804Y426758D01*
X463804Y424981D01*
X462241Y423418D01*
X450331Y423418D01*
X430011Y403098D01*
X378080Y403098D01*
X376823Y404355D01*
X374406Y405356D01*
X371790Y405356D01*
X370586Y404857D01*
X370586Y458860D01*
X372072Y458244D01*
X374688Y458244D01*
X377105Y459245D01*
X378955Y461095D01*
X379956Y463512D01*
X379956Y466128D01*
X378955Y468545D01*
X377105Y470395D01*
X375158Y471201D01*
X375158Y496051D01*
X378979Y499872D01*
X405736Y499872D01*
X405016Y499152D01*
X404015Y496735D01*
X404015Y494119D01*
X405016Y491702D01*
X406857Y489861D01*
X406857Y466957D01*
X405346Y465446D01*
X404392Y463141D01*
X401917Y463141D01*
X399500Y462140D01*
X397650Y460290D01*
X396649Y457873D01*
X396649Y455257D01*
X397650Y452840D01*
X399161Y451329D01*
X399161Y445548D01*
X395986Y442373D01*
X395986Y433843D01*
X395732Y433589D01*
X395732Y430011D01*
X402071Y423672D01*
X410308Y423672D01*
X411565Y422415D01*
X413982Y421414D01*
X416598Y421414D01*
X419015Y422415D01*
X420865Y424265D01*
X421866Y426682D01*
X421866Y429298D01*
X420865Y431715D01*
X419015Y433565D01*
X416598Y434566D01*
X413982Y434566D01*
X411565Y433565D01*
X410308Y432308D01*
X405649Y432308D01*
X404114Y433843D01*
X404114Y439007D01*
X404908Y439801D01*
X407289Y442182D01*
X407289Y451329D01*
X408800Y452840D01*
X409755Y455145D01*
X412229Y455145D01*
X414646Y456146D01*
X416496Y457996D01*
X417497Y460413D01*
X417497Y463029D01*
X416496Y465446D01*
X414985Y466957D01*
X414985Y490521D01*
X416166Y491702D01*
X417167Y494119D01*
X417167Y496735D01*
X416166Y499152D01*
X415446Y499872D01*
X422391Y499872D01*
X423954Y498309D01*
X423954Y496532D01*
X424955Y494115D01*
X426805Y492265D01*
X429222Y491264D01*
X431838Y491264D01*
X434255Y492265D01*
X435215Y493225D01*
X436175Y492265D01*
X438592Y491264D01*
X441208Y491264D01*
X443625Y492265D01*
X444730Y493370D01*
X445263Y492836D01*
X447680Y491835D01*
X450296Y491835D01*
X452713Y492836D01*
X454114Y494238D01*
X454165Y494115D01*
X456015Y492265D01*
X458432Y491264D01*
X461048Y491264D01*
X463465Y492265D01*
X464820Y493620D01*
X466175Y492265D01*
X439674Y632268D02*
X439674Y650432D01*
X439674Y632268D02*
X441182Y628627D01*
X442316Y627493D01*
X440171Y625348D01*
X428603Y625348D01*
X429791Y625840D01*
X432578Y628627D01*
X434086Y632268D01*
X434086Y650432D01*
X432578Y654073D01*
X429791Y656860D01*
X428498Y657396D01*
X428498Y679914D01*
X429791Y680450D01*
X432578Y683237D01*
X434086Y686878D01*
X434086Y705042D01*
X432578Y708683D01*
X429791Y711470D01*
X426150Y712978D01*
X422210Y712978D01*
X418569Y711470D01*
X415782Y708683D01*
X414528Y705655D01*
X414528Y708141D01*
X419619Y713232D01*
X440171Y713232D01*
X442951Y710452D01*
X441182Y708683D01*
X439674Y705042D01*
X439674Y686878D01*
X441182Y683237D01*
X443969Y680450D01*
X447610Y678942D01*
X451550Y678942D01*
X455191Y680450D01*
X457978Y683237D01*
X459486Y686878D01*
X459486Y705042D01*
X457978Y708683D01*
X455191Y711470D01*
X453408Y712209D01*
X446797Y718820D01*
X448310Y720333D01*
X453898Y725921D01*
X453898Y734524D01*
X455191Y735060D01*
X457978Y737847D01*
X459486Y741488D01*
X459486Y759652D01*
X457978Y763293D01*
X455191Y766080D01*
X451550Y767588D01*
X447610Y767588D01*
X443969Y766080D01*
X441182Y763293D01*
X439674Y759652D01*
X439674Y741488D01*
X441182Y737847D01*
X443969Y735060D01*
X445262Y734524D01*
X445262Y729499D01*
X442203Y726440D01*
X414148Y726440D01*
X411618Y723911D01*
X411618Y723911D01*
X401320Y713612D01*
X401320Y711072D01*
X398908Y708660D01*
X300747Y708660D01*
X297501Y711906D01*
X295022Y711906D01*
X293765Y713163D01*
X291348Y714164D01*
X288732Y714164D01*
X287528Y713665D01*
X287528Y737351D01*
X291349Y741172D01*
X334108Y741172D01*
X335365Y739915D01*
X337782Y738914D01*
X340398Y738914D01*
X342815Y739915D01*
X344665Y741765D01*
X345666Y744182D01*
X345666Y746798D01*
X344665Y749215D01*
X342815Y751065D01*
X340398Y752066D01*
X337782Y752066D01*
X335365Y751065D01*
X334108Y749808D01*
X290079Y749808D01*
X287528Y752359D01*
X287528Y769113D01*
X289064Y769749D01*
X291971Y772656D01*
X293544Y776454D01*
X293544Y780566D01*
X291971Y784364D01*
X289064Y787271D01*
X285266Y788844D01*
X281154Y788844D01*
X277356Y787271D01*
X274449Y784364D01*
X272876Y780566D01*
X272876Y776454D01*
X274449Y772656D01*
X277356Y769749D01*
X278892Y769113D01*
X278892Y748781D01*
X281421Y746252D01*
X281421Y746252D01*
X282818Y744855D01*
X281421Y743458D01*
X281421Y743458D01*
X278892Y740929D01*
X278892Y712316D01*
X278045Y713163D01*
X275628Y714164D01*
X273012Y714164D01*
X270595Y713163D01*
X269338Y711906D01*
X256442Y711906D01*
X255185Y713163D01*
X252768Y714164D01*
X250152Y714164D01*
X247735Y713163D01*
X245885Y711313D01*
X244884Y708896D01*
X244884Y706280D01*
X245885Y703863D01*
X246704Y703044D01*
X245885Y702225D01*
X244884Y699808D01*
X244884Y697192D01*
X245885Y694775D01*
X247735Y692925D01*
X250152Y691924D01*
X252768Y691924D01*
X255185Y692925D01*
X256442Y694182D01*
X269338Y694182D01*
X270595Y692925D01*
X273012Y691924D01*
X275628Y691924D01*
X278045Y692925D01*
X278892Y693772D01*
X278892Y685037D01*
X277356Y684401D01*
X274449Y681494D01*
X272876Y677696D01*
X272876Y673584D01*
X274449Y669786D01*
X277356Y666879D01*
X281154Y665306D01*
X285266Y665306D01*
X289064Y666879D01*
X291971Y669786D01*
X293544Y673584D01*
X293544Y677696D01*
X291971Y681494D01*
X289064Y684401D01*
X287528Y685037D01*
X287528Y692423D01*
X288732Y691924D01*
X291348Y691924D01*
X293765Y692925D01*
X295615Y694775D01*
X295895Y695452D01*
X404379Y695452D01*
X411999Y703072D01*
X414490Y705563D01*
X414274Y705042D01*
X414274Y686878D01*
X415782Y683237D01*
X418569Y680450D01*
X419862Y679914D01*
X419862Y657396D01*
X418569Y656860D01*
X415782Y654073D01*
X414274Y650432D01*
X414274Y632268D01*
X415782Y628627D01*
X418569Y625840D01*
X422210Y624332D01*
X425185Y624332D01*
X419851Y618998D01*
X252660Y618998D01*
X251403Y620255D01*
X248986Y621256D01*
X246370Y621256D01*
X243953Y620255D01*
X242103Y618405D01*
X241102Y615988D01*
X241102Y613372D01*
X242103Y610955D01*
X243136Y609922D01*
X240397Y607183D01*
X237867Y604654D01*
X237867Y601497D01*
X236611Y600240D01*
X235609Y597823D01*
X235609Y595207D01*
X236108Y594003D01*
X232297Y594003D01*
X231521Y593228D01*
X231521Y793559D01*
X229723Y797900D01*
X226400Y801223D01*
X222059Y803021D01*
X217170Y803021D01*
X217170Y880618D01*
X440545Y880618D01*
X434524Y877142D01*
X428418Y871036D01*
X424101Y863558D01*
X421866Y855217D01*
X421866Y846583D01*
X424101Y838242D01*
X428418Y830764D01*
X434524Y824658D01*
X442002Y820341D01*
X450343Y818106D01*
X458977Y818106D01*
X467318Y820341D01*
X474796Y824658D01*
X480902Y830764D01*
X483616Y835465D01*
X483616Y764377D01*
X483311Y764797D01*
X482095Y766013D01*
X480704Y767023D01*
X479173Y767804D01*
X477538Y768335D01*
X475996Y768579D01*
X475996Y751586D01*
X473964Y751586D01*
X473964Y768579D01*
X472422Y768335D01*
X470787Y767804D01*
X469256Y767023D01*
X467865Y766013D01*
X466649Y764797D01*
X465639Y763406D01*
X464858Y761875D01*
X464327Y760240D01*
X464058Y758542D01*
X464058Y751586D01*
X473964Y751586D01*
X473964Y749554D01*
X464058Y749554D01*
X464058Y742598D01*
X464327Y740900D01*
X464858Y739265D01*
X465639Y737734D01*
X466649Y736343D01*
X467865Y735127D01*
X469256Y734117D01*
X470787Y733336D01*
X472422Y732805D01*
X473964Y732561D01*
X473964Y749554D01*
X475996Y749554D01*
X475996Y732561D01*
X477538Y732805D01*
X479173Y733336D01*
X480704Y734117D01*
X482095Y735127D01*
X483311Y736343D01*
X483616Y736763D01*
X483616Y709767D01*
X483311Y710187D01*
X482095Y711403D01*
X480704Y712413D01*
X479173Y713194D01*
X477538Y713725D01*
X475996Y713969D01*
X475996Y696976D01*
X473964Y696976D01*
X473964Y713969D01*
X472422Y713725D01*
X470787Y713194D01*
X469256Y712413D01*
X467865Y711403D01*
X466649Y710187D01*
X465639Y708796D01*
X464858Y707265D01*
X464327Y705630D01*
X464058Y703932D01*
X464058Y696976D01*
X473964Y696976D01*
X473964Y694944D01*
X464058Y694944D01*
X464058Y687988D01*
X464327Y686290D01*
X464858Y684655D01*
X465639Y683124D01*
X466649Y681733D01*
X467865Y680517D01*
X469256Y679507D01*
X470787Y678726D01*
X472422Y678195D01*
X473964Y677951D01*
X473964Y694944D01*
X475996Y694944D01*
X475996Y677951D01*
X477538Y678195D01*
X479173Y678726D01*
X480704Y679507D01*
X482095Y680517D01*
X483311Y681733D01*
X483616Y682153D01*
X483616Y655157D01*
X483311Y655577D01*
X482095Y656793D01*
X480704Y657803D01*
X479173Y658584D01*
X477538Y659115D01*
X475996Y659359D01*
X475996Y642366D01*
X473964Y642366D01*
X473964Y659359D01*
X472422Y659115D01*
X470787Y658584D01*
X469256Y657803D01*
X467865Y656793D01*
X466649Y655577D01*
X465639Y654186D01*
X464858Y652655D01*
X464327Y651020D01*
X464058Y649322D01*
X464058Y642366D01*
X473964Y642366D01*
X473964Y640334D01*
X464058Y640334D01*
X464058Y633378D01*
X464327Y631680D01*
X464858Y630045D01*
X465639Y628514D01*
X466649Y627123D01*
X467865Y625907D01*
X469256Y624897D01*
X470787Y624116D01*
X472422Y623585D01*
X473964Y623341D01*
X473964Y640334D01*
X475996Y640334D01*
X475996Y623341D01*
X477538Y623585D01*
X479173Y624116D01*
X480704Y624897D01*
X482095Y625907D01*
X483311Y627123D01*
X483616Y627543D01*
X483616Y504927D01*
X482388Y505436D01*
X479772Y505436D01*
X477355Y504434D01*
X475505Y502585D01*
X475197Y501843D01*
X473625Y503415D01*
X471208Y504416D01*
X469431Y504416D01*
X464058Y509789D01*
X461529Y512318D01*
X457834Y512318D01*
X445886Y524267D01*
X444202Y525951D01*
X446548Y528297D01*
X448056Y531938D01*
X448056Y550102D01*
X446548Y553743D01*
X443761Y556530D01*
X440120Y558038D01*
X436180Y558038D01*
X432539Y556530D01*
X429768Y553759D01*
X429768Y563841D01*
X432539Y561070D01*
X436180Y559562D01*
X440120Y559562D01*
X443761Y561070D01*
X446548Y563857D01*
X448056Y567498D01*
X448056Y585662D01*
X446548Y589303D01*
X443761Y592090D01*
X441978Y592829D01*
X423937Y610870D01*
X429779Y616712D01*
X443749Y616712D01*
X451369Y624332D01*
X451550Y624332D01*
X455191Y625840D01*
X457978Y628627D01*
X459486Y632268D01*
X459486Y650432D01*
X457978Y654073D01*
X455191Y656860D01*
X451550Y658368D01*
X447610Y658368D01*
X443969Y656860D01*
X441182Y654073D01*
X439674Y650432D01*
X453644Y550102D02*
X453644Y531938D01*
X455152Y528297D01*
X457939Y525510D01*
X461580Y524002D01*
X465520Y524002D01*
X469161Y525510D01*
X471948Y528297D01*
X473456Y531938D01*
X473456Y550102D01*
X471948Y553743D01*
X469161Y556530D01*
X465520Y558038D01*
X461580Y558038D01*
X457939Y556530D01*
X455152Y553743D01*
X453644Y550102D01*
X453644Y567498D02*
X453644Y585662D01*
X453644Y567498D02*
X455152Y563857D01*
X457939Y561070D01*
X461580Y559562D01*
X465520Y559562D01*
X469161Y561070D01*
X471948Y563857D01*
X473456Y567498D01*
X473456Y585662D01*
X471948Y589303D01*
X469161Y592090D01*
X465520Y593598D01*
X461580Y593598D01*
X457939Y592090D01*
X455152Y589303D01*
X453644Y585662D01*
X414274Y741488D02*
X414274Y759652D01*
X414274Y741488D02*
X415782Y737847D01*
X418569Y735060D01*
X422210Y733552D01*
X426150Y733552D01*
X429791Y735060D01*
X432578Y737847D01*
X434086Y741488D01*
X434086Y759652D01*
X432578Y763293D01*
X429791Y766080D01*
X426150Y767588D01*
X422210Y767588D01*
X418569Y766080D01*
X415782Y763293D01*
X414274Y759652D01*
X318944Y677696D02*
X318944Y673584D01*
X318944Y677696D02*
X317371Y681494D01*
X314464Y684401D01*
X310666Y685974D01*
X306554Y685974D01*
X302756Y684401D01*
X299849Y681494D01*
X298276Y677696D01*
X298276Y673584D01*
X299849Y669786D01*
X302756Y666879D01*
X306554Y665306D01*
X310666Y665306D01*
X314464Y666879D01*
X317371Y669786D01*
X318944Y673584D01*
X318944Y776454D02*
X318944Y780566D01*
X317371Y784364D01*
X314464Y787271D01*
X310666Y788844D01*
X306554Y788844D01*
X302756Y787271D01*
X299849Y784364D01*
X298276Y780566D01*
X298276Y776454D01*
X299849Y772656D01*
X302756Y769749D01*
X306554Y768176D01*
X310666Y768176D01*
X314464Y769749D01*
X317371Y772656D01*
X318944Y776454D01*
X217170Y-64000D02*
X434182Y-64000D01*
X430182Y-60000D02*
X217170Y-60000D01*
X217170Y-56000D02*
X427127Y-56000D01*
X424818Y-52000D02*
X217170Y-52000D01*
X217170Y-48000D02*
X423362Y-48000D01*
X422290Y-44000D02*
X217170Y-44000D01*
X217170Y-40000D02*
X421866Y-40000D01*
X421866Y-36000D02*
X217170Y-36000D01*
X217170Y-32000D02*
X422344Y-32000D01*
X423415Y-28000D02*
X217170Y-28000D01*
X217170Y-24000D02*
X424933Y-24000D01*
X427243Y-20000D02*
X217170Y-20000D01*
X482077Y-20000D02*
X483616Y-20000D01*
X430382Y-16000D02*
X217170Y-16000D01*
X478938Y-16000D02*
X483616Y-16000D01*
X434382Y-12000D02*
X217170Y-12000D01*
X474938Y-12000D02*
X483616Y-12000D01*
X441207Y-8000D02*
X217170Y-8000D01*
X468113Y-8000D02*
X483616Y-8000D01*
X483616Y-4000D02*
X217170Y-4000D01*
X217170Y0D02*
X483616Y0D01*
X483616Y4000D02*
X217170Y4000D01*
X217170Y8000D02*
X483616Y8000D01*
X483616Y12000D02*
X224355Y12000D01*
X229553Y16000D02*
X483616Y16000D01*
X483616Y20000D02*
X231309Y20000D01*
X231521Y24000D02*
X483616Y24000D01*
X483616Y28000D02*
X231521Y28000D01*
X231521Y32000D02*
X483616Y32000D01*
X483616Y36000D02*
X231521Y36000D01*
X231521Y40000D02*
X483616Y40000D01*
X483616Y44000D02*
X231521Y44000D01*
X231521Y48000D02*
X483616Y48000D01*
X369230Y52000D02*
X231521Y52000D01*
X377530Y52000D02*
X483616Y52000D01*
X280445Y56000D02*
X231521Y56000D01*
X285975Y56000D02*
X305845Y56000D01*
X311375Y56000D02*
X366804Y56000D01*
X379956Y56000D02*
X443316Y56000D01*
X458470Y56000D02*
X461010Y56000D01*
X476164Y56000D02*
X483616Y56000D01*
X274636Y60000D02*
X231521Y60000D01*
X291784Y60000D02*
X300036Y60000D01*
X317184Y60000D02*
X366522Y60000D01*
X379317Y60000D02*
X439644Y60000D01*
X458470Y60000D02*
X461010Y60000D01*
X479836Y60000D02*
X483616Y60000D01*
X272876Y64000D02*
X231521Y64000D01*
X293544Y64000D02*
X298276Y64000D01*
X318944Y64000D02*
X366522Y64000D01*
X375158Y64000D02*
X438157Y64000D01*
X458470Y64000D02*
X461010Y64000D01*
X481323Y64000D02*
X483616Y64000D01*
X272876Y68000D02*
X231521Y68000D01*
X293544Y68000D02*
X298276Y68000D01*
X318944Y68000D02*
X366522Y68000D01*
X375158Y68000D02*
X438017Y68000D01*
X458470Y68000D02*
X461010Y68000D01*
X481463Y68000D02*
X483616Y68000D01*
X274556Y72000D02*
X231521Y72000D01*
X291864Y72000D02*
X299956Y72000D01*
X317264Y72000D02*
X366522Y72000D01*
X375158Y72000D02*
X439196Y72000D01*
X458470Y72000D02*
X461010Y72000D01*
X480284Y72000D02*
X483616Y72000D01*
X280252Y76000D02*
X231521Y76000D01*
X286168Y76000D02*
X305652Y76000D01*
X311568Y76000D02*
X366522Y76000D01*
X375158Y76000D02*
X442184Y76000D01*
X458470Y76000D02*
X461010Y76000D01*
X477296Y76000D02*
X483616Y76000D01*
X366522Y80000D02*
X231521Y80000D01*
X375158Y80000D02*
X483616Y80000D01*
X366522Y84000D02*
X231521Y84000D01*
X375158Y84000D02*
X483616Y84000D01*
X366522Y88000D02*
X231521Y88000D01*
X375158Y88000D02*
X483616Y88000D01*
X366522Y92000D02*
X231521Y92000D01*
X375158Y92000D02*
X483616Y92000D01*
X366522Y96000D02*
X231521Y96000D01*
X375158Y96000D02*
X483616Y96000D01*
X366522Y100000D02*
X231521Y100000D01*
X375158Y100000D02*
X483616Y100000D01*
X366522Y104000D02*
X231521Y104000D01*
X375158Y104000D02*
X483616Y104000D01*
X366522Y108000D02*
X231521Y108000D01*
X375158Y108000D02*
X442501Y108000D01*
X476979Y108000D02*
X483616Y108000D01*
X366522Y112000D02*
X231521Y112000D01*
X375158Y112000D02*
X439813Y112000D01*
X479667Y112000D02*
X483616Y112000D01*
X366522Y116000D02*
X231521Y116000D01*
X375158Y116000D02*
X438946Y116000D01*
X480534Y116000D02*
X483616Y116000D01*
X366522Y120000D02*
X231521Y120000D01*
X375158Y120000D02*
X439449Y120000D01*
X480031Y120000D02*
X483616Y120000D01*
X366522Y124000D02*
X231521Y124000D01*
X375158Y124000D02*
X441621Y124000D01*
X477859Y124000D02*
X483616Y124000D01*
X366522Y128000D02*
X231521Y128000D01*
X375158Y128000D02*
X447829Y128000D01*
X471651Y128000D02*
X483616Y128000D01*
X366522Y132000D02*
X231521Y132000D01*
X375158Y132000D02*
X483616Y132000D01*
X366522Y136000D02*
X231521Y136000D01*
X375158Y136000D02*
X483616Y136000D01*
X366522Y140000D02*
X231521Y140000D01*
X375158Y140000D02*
X483616Y140000D01*
X366522Y144000D02*
X231521Y144000D01*
X375158Y144000D02*
X483616Y144000D01*
X366522Y148000D02*
X231521Y148000D01*
X375158Y148000D02*
X483616Y148000D01*
X366288Y152000D02*
X231521Y152000D01*
X375158Y152000D02*
X483616Y152000D01*
X362288Y156000D02*
X231521Y156000D01*
X379930Y156000D02*
X483616Y156000D01*
X276236Y160000D02*
X231521Y160000D01*
X290184Y160000D02*
X301636Y160000D01*
X315584Y160000D02*
X358288Y160000D01*
X381226Y160000D02*
X442101Y160000D01*
X477379Y160000D02*
X483616Y160000D01*
X273532Y164000D02*
X231521Y164000D01*
X292888Y164000D02*
X298932Y164000D01*
X318288Y164000D02*
X356870Y164000D01*
X379970Y164000D02*
X439648Y164000D01*
X479832Y164000D02*
X483616Y164000D01*
X272876Y168000D02*
X231521Y168000D01*
X293544Y168000D02*
X298276Y168000D01*
X318944Y168000D02*
X356870Y168000D01*
X370078Y168000D02*
X438946Y168000D01*
X480534Y168000D02*
X483616Y168000D01*
X273831Y172000D02*
X231521Y172000D01*
X292589Y172000D02*
X299231Y172000D01*
X317989Y172000D02*
X356870Y172000D01*
X370078Y172000D02*
X439615Y172000D01*
X479865Y172000D02*
X483616Y172000D01*
X276956Y176000D02*
X231521Y176000D01*
X289464Y176000D02*
X302356Y176000D01*
X314864Y176000D02*
X356870Y176000D01*
X370078Y176000D02*
X442021Y176000D01*
X477459Y176000D02*
X483616Y176000D01*
X356870Y180000D02*
X231521Y180000D01*
X370078Y180000D02*
X483616Y180000D01*
X356870Y184000D02*
X231521Y184000D01*
X370078Y184000D02*
X483616Y184000D01*
X347530Y188000D02*
X231521Y188000D01*
X356050Y188000D02*
X356870Y188000D01*
X370078Y188000D02*
X483616Y188000D01*
X337833Y192000D02*
X231521Y192000D01*
X370078Y192000D02*
X483616Y192000D01*
X333833Y196000D02*
X231521Y196000D01*
X370078Y196000D02*
X483616Y196000D01*
X329833Y200000D02*
X231521Y200000D01*
X342047Y200000D02*
X356870Y200000D01*
X370078Y200000D02*
X483616Y200000D01*
X271360Y204000D02*
X231521Y204000D01*
X338047Y204000D02*
X356870Y204000D01*
X370078Y204000D02*
X483616Y204000D01*
X269804Y208000D02*
X231521Y208000D01*
X334047Y208000D02*
X356870Y208000D01*
X370078Y208000D02*
X444159Y208000D01*
X475320Y208000D02*
X483616Y208000D01*
X270803Y212000D02*
X231521Y212000D01*
X330047Y212000D02*
X356870Y212000D01*
X370078Y212000D02*
X440476Y212000D01*
X479004Y212000D02*
X483616Y212000D01*
X356870Y216000D02*
X231521Y216000D01*
X370078Y216000D02*
X406543Y216000D01*
X480534Y216000D02*
X483616Y216000D01*
X356870Y220000D02*
X231521Y220000D01*
X370078Y220000D02*
X402543Y220000D01*
X480534Y220000D02*
X483616Y220000D01*
X356870Y224000D02*
X231521Y224000D01*
X370078Y224000D02*
X400812Y224000D01*
X410757Y224000D02*
X440443Y224000D01*
X479037Y224000D02*
X483616Y224000D01*
X356870Y228000D02*
X231521Y228000D01*
X370078Y228000D02*
X400812Y228000D01*
X409448Y228000D02*
X444021Y228000D01*
X475459Y228000D02*
X483616Y228000D01*
X356870Y232000D02*
X231521Y232000D01*
X370078Y232000D02*
X400812Y232000D01*
X409448Y232000D02*
X483616Y232000D01*
X356870Y236000D02*
X231521Y236000D01*
X370078Y236000D02*
X400812Y236000D01*
X409448Y236000D02*
X483616Y236000D01*
X356870Y240000D02*
X231521Y240000D01*
X370078Y240000D02*
X400812Y240000D01*
X409448Y240000D02*
X483616Y240000D01*
X356870Y244000D02*
X231521Y244000D01*
X370078Y244000D02*
X400812Y244000D01*
X409448Y244000D02*
X483616Y244000D01*
X356870Y248000D02*
X231521Y248000D01*
X370078Y248000D02*
X400812Y248000D01*
X409448Y248000D02*
X483616Y248000D01*
X356870Y252000D02*
X231521Y252000D01*
X370078Y252000D02*
X400812Y252000D01*
X409448Y252000D02*
X483616Y252000D01*
X356870Y256000D02*
X231521Y256000D01*
X376996Y256000D02*
X400812Y256000D01*
X409448Y256000D02*
X483616Y256000D01*
X278513Y260000D02*
X231521Y260000D01*
X287907Y260000D02*
X303913Y260000D01*
X313307Y260000D02*
X353422Y260000D01*
X379827Y260000D02*
X400812Y260000D01*
X409448Y260000D02*
X443701Y260000D01*
X475779Y260000D02*
X483616Y260000D01*
X274195Y264000D02*
X231521Y264000D01*
X292225Y264000D02*
X299595Y264000D01*
X317625Y264000D02*
X352298Y264000D01*
X379512Y264000D02*
X400812Y264000D01*
X409448Y264000D02*
X440310Y264000D01*
X479170Y264000D02*
X483616Y264000D01*
X272876Y268000D02*
X231521Y268000D01*
X293544Y268000D02*
X298276Y268000D01*
X318944Y268000D02*
X352298Y268000D01*
X370567Y268000D02*
X371599Y268000D01*
X375161Y268000D02*
X400812Y268000D01*
X409448Y268000D02*
X438946Y268000D01*
X480534Y268000D02*
X483616Y268000D01*
X273168Y272000D02*
X231521Y272000D01*
X293252Y272000D02*
X298568Y272000D01*
X318652Y272000D02*
X352298Y272000D01*
X370078Y272000D02*
X400812Y272000D01*
X409448Y272000D02*
X438952Y272000D01*
X480528Y272000D02*
X483616Y272000D01*
X275356Y276000D02*
X231521Y276000D01*
X291064Y276000D02*
X300756Y276000D01*
X316464Y276000D02*
X352298Y276000D01*
X370078Y276000D02*
X400812Y276000D01*
X409448Y276000D02*
X440609Y276000D01*
X478871Y276000D02*
X483616Y276000D01*
X352298Y280000D02*
X231521Y280000D01*
X370078Y280000D02*
X400812Y280000D01*
X409448Y280000D02*
X444932Y280000D01*
X474548Y280000D02*
X483616Y280000D01*
X352298Y284000D02*
X231521Y284000D01*
X370078Y284000D02*
X400812Y284000D01*
X409448Y284000D02*
X483616Y284000D01*
X268374Y288000D02*
X231521Y288000D01*
X296776Y288000D02*
X352298Y288000D01*
X370078Y288000D02*
X400812Y288000D01*
X409448Y288000D02*
X483616Y288000D01*
X267744Y292000D02*
X231521Y292000D01*
X297406Y292000D02*
X352298Y292000D01*
X370078Y292000D02*
X400812Y292000D01*
X409448Y292000D02*
X483616Y292000D01*
X252883Y296000D02*
X231521Y296000D01*
X295422Y296000D02*
X352298Y296000D01*
X370078Y296000D02*
X400812Y296000D01*
X409448Y296000D02*
X411949Y296000D01*
X416091Y296000D02*
X483616Y296000D01*
X237450Y300000D02*
X231521Y300000D01*
X296616Y300000D02*
X352298Y300000D01*
X370078Y300000D02*
X400812Y300000D01*
X420202Y300000D02*
X433650Y300000D01*
X442650Y300000D02*
X483616Y300000D01*
X236530Y304000D02*
X231521Y304000D01*
X257097Y304000D02*
X276303Y304000D01*
X295258Y304000D02*
X352298Y304000D01*
X370078Y304000D02*
X400812Y304000D01*
X444726Y304000D02*
X483616Y304000D01*
X238276Y308000D02*
X231521Y308000D01*
X247936Y308000D02*
X352298Y308000D01*
X370078Y308000D02*
X400812Y308000D01*
X409448Y308000D02*
X410694Y308000D01*
X443942Y308000D02*
X448022Y308000D01*
X471458Y308000D02*
X483616Y308000D01*
X352298Y312000D02*
X231521Y312000D01*
X370078Y312000D02*
X400812Y312000D01*
X409448Y312000D02*
X441701Y312000D01*
X477779Y312000D02*
X483616Y312000D01*
X352298Y316000D02*
X231521Y316000D01*
X370078Y316000D02*
X400812Y316000D01*
X409448Y316000D02*
X409856Y316000D01*
X479998Y316000D02*
X483616Y316000D01*
X352298Y320000D02*
X231521Y320000D01*
X370078Y320000D02*
X400812Y320000D01*
X480534Y320000D02*
X483616Y320000D01*
X352298Y324000D02*
X231521Y324000D01*
X370078Y324000D02*
X400812Y324000D01*
X409448Y324000D02*
X411756Y324000D01*
X419896Y324000D02*
X439780Y324000D01*
X479700Y324000D02*
X483616Y324000D01*
X352298Y328000D02*
X231521Y328000D01*
X370078Y328000D02*
X400812Y328000D01*
X409448Y328000D02*
X442421Y328000D01*
X477059Y328000D02*
X483616Y328000D01*
X352298Y332000D02*
X231521Y332000D01*
X370078Y332000D02*
X400812Y332000D01*
X409448Y332000D02*
X483616Y332000D01*
X352298Y336000D02*
X231521Y336000D01*
X370078Y336000D02*
X400812Y336000D01*
X409448Y336000D02*
X483616Y336000D01*
X352298Y340000D02*
X231521Y340000D01*
X370078Y340000D02*
X400812Y340000D01*
X409448Y340000D02*
X483616Y340000D01*
X352298Y344000D02*
X231521Y344000D01*
X370078Y344000D02*
X400812Y344000D01*
X409448Y344000D02*
X483616Y344000D01*
X352298Y348000D02*
X231521Y348000D01*
X370078Y348000D02*
X400812Y348000D01*
X463442Y348000D02*
X483616Y348000D01*
X352298Y352000D02*
X231521Y352000D01*
X370078Y352000D02*
X404429Y352000D01*
X467442Y352000D02*
X483616Y352000D01*
X352298Y356000D02*
X231521Y356000D01*
X370078Y356000D02*
X459229Y356000D01*
X471442Y356000D02*
X483616Y356000D01*
X349826Y360000D02*
X231521Y360000D01*
X379164Y360000D02*
X463229Y360000D01*
X472440Y360000D02*
X483616Y360000D01*
X275436Y364000D02*
X231521Y364000D01*
X290984Y364000D02*
X300836Y364000D01*
X316384Y364000D02*
X348234Y364000D01*
X379956Y364000D02*
X463804Y364000D01*
X472440Y364000D02*
X483616Y364000D01*
X273201Y368000D02*
X231521Y368000D01*
X293219Y368000D02*
X298601Y368000D01*
X318619Y368000D02*
X348234Y368000D01*
X377900Y368000D02*
X463804Y368000D01*
X472440Y368000D02*
X483616Y368000D01*
X272876Y372000D02*
X231521Y372000D01*
X293544Y372000D02*
X298276Y372000D01*
X318944Y372000D02*
X348234Y372000D01*
X370586Y372000D02*
X463804Y372000D01*
X472440Y372000D02*
X483616Y372000D01*
X274162Y376000D02*
X231521Y376000D01*
X292258Y376000D02*
X299562Y376000D01*
X317658Y376000D02*
X348234Y376000D01*
X370586Y376000D02*
X463804Y376000D01*
X472440Y376000D02*
X483616Y376000D01*
X278320Y380000D02*
X231521Y380000D01*
X288100Y380000D02*
X303720Y380000D01*
X313500Y380000D02*
X348234Y380000D01*
X370586Y380000D02*
X463804Y380000D01*
X472440Y380000D02*
X483616Y380000D01*
X348234Y384000D02*
X231521Y384000D01*
X377125Y384000D02*
X463804Y384000D01*
X472440Y384000D02*
X483616Y384000D01*
X348234Y388000D02*
X231521Y388000D01*
X381407Y388000D02*
X463804Y388000D01*
X472440Y388000D02*
X483616Y388000D01*
X348234Y392000D02*
X231521Y392000D01*
X437592Y392000D02*
X463804Y392000D01*
X472440Y392000D02*
X483616Y392000D01*
X271412Y396000D02*
X231521Y396000D01*
X279768Y396000D02*
X286652Y396000D01*
X295008Y396000D02*
X348234Y396000D01*
X441592Y396000D02*
X463804Y396000D01*
X472440Y396000D02*
X475192Y396000D01*
X269014Y400000D02*
X231521Y400000D01*
X297406Y400000D02*
X348234Y400000D01*
X445592Y400000D02*
X463804Y400000D01*
X472903Y400000D02*
X474582Y400000D01*
X269664Y404000D02*
X231521Y404000D01*
X296756Y404000D02*
X348234Y404000D01*
X377178Y404000D02*
X430913Y404000D01*
X449592Y404000D02*
X463804Y404000D01*
X270178Y408000D02*
X231521Y408000D01*
X297032Y408000D02*
X348234Y408000D01*
X370586Y408000D02*
X434913Y408000D01*
X453592Y408000D02*
X464715Y408000D01*
X270004Y412000D02*
X231521Y412000D01*
X297206Y412000D02*
X348234Y412000D01*
X370586Y412000D02*
X438913Y412000D01*
X273174Y416000D02*
X231521Y416000D01*
X279586Y416000D02*
X287624Y416000D01*
X294036Y416000D02*
X348234Y416000D01*
X370586Y416000D02*
X442913Y416000D01*
X348234Y420000D02*
X231521Y420000D01*
X370586Y420000D02*
X446913Y420000D01*
X348234Y424000D02*
X231521Y424000D01*
X370586Y424000D02*
X401743Y424000D01*
X420600Y424000D02*
X462823Y424000D01*
X348234Y428000D02*
X231521Y428000D01*
X370586Y428000D02*
X397743Y428000D01*
X421866Y428000D02*
X464318Y428000D01*
X476442Y428000D02*
X476762Y428000D01*
X348234Y432000D02*
X231521Y432000D01*
X370586Y432000D02*
X395732Y432000D01*
X420580Y432000D02*
X469009Y432000D01*
X471751Y432000D02*
X476762Y432000D01*
X348234Y436000D02*
X231521Y436000D01*
X370586Y436000D02*
X395986Y436000D01*
X404114Y436000D02*
X476762Y436000D01*
X348234Y440000D02*
X231521Y440000D01*
X370586Y440000D02*
X395986Y440000D01*
X405107Y440000D02*
X476762Y440000D01*
X348234Y444000D02*
X231521Y444000D01*
X370586Y444000D02*
X397613Y444000D01*
X407289Y444000D02*
X476762Y444000D01*
X348234Y448000D02*
X231521Y448000D01*
X370586Y448000D02*
X399161Y448000D01*
X407289Y448000D02*
X476762Y448000D01*
X348234Y452000D02*
X231521Y452000D01*
X370586Y452000D02*
X398490Y452000D01*
X407960Y452000D02*
X476762Y452000D01*
X348234Y456000D02*
X231521Y456000D01*
X370586Y456000D02*
X396649Y456000D01*
X414293Y456000D02*
X476762Y456000D01*
X348234Y460000D02*
X231521Y460000D01*
X377860Y460000D02*
X397530Y460000D01*
X417326Y460000D02*
X476762Y460000D01*
X277036Y464000D02*
X231521Y464000D01*
X289384Y464000D02*
X302436Y464000D01*
X314784Y464000D02*
X348234Y464000D01*
X379956Y464000D02*
X404747Y464000D01*
X417095Y464000D02*
X476762Y464000D01*
X273864Y468000D02*
X231521Y468000D01*
X292556Y468000D02*
X299264Y468000D01*
X317956Y468000D02*
X348234Y468000D01*
X379181Y468000D02*
X406857Y468000D01*
X414985Y468000D02*
X476762Y468000D01*
X272876Y472000D02*
X231521Y472000D01*
X293544Y472000D02*
X298276Y472000D01*
X318944Y472000D02*
X348234Y472000D01*
X375158Y472000D02*
X406857Y472000D01*
X414985Y472000D02*
X476762Y472000D01*
X273499Y476000D02*
X231521Y476000D01*
X292921Y476000D02*
X298899Y476000D01*
X318321Y476000D02*
X348234Y476000D01*
X375158Y476000D02*
X406857Y476000D01*
X414985Y476000D02*
X476762Y476000D01*
X276156Y480000D02*
X231521Y480000D01*
X290264Y480000D02*
X301556Y480000D01*
X315664Y480000D02*
X348234Y480000D01*
X375158Y480000D02*
X406857Y480000D01*
X414985Y480000D02*
X476762Y480000D01*
X278892Y484000D02*
X231521Y484000D01*
X287528Y484000D02*
X348234Y484000D01*
X375158Y484000D02*
X406857Y484000D01*
X414985Y484000D02*
X476762Y484000D01*
X278892Y488000D02*
X231521Y488000D01*
X287528Y488000D02*
X348234Y488000D01*
X375158Y488000D02*
X406857Y488000D01*
X414985Y488000D02*
X476762Y488000D01*
X278892Y492000D02*
X231521Y492000D01*
X287528Y492000D02*
X348234Y492000D01*
X375158Y492000D02*
X404893Y492000D01*
X416289Y492000D02*
X427445Y492000D01*
X433615Y492000D02*
X436815Y492000D01*
X442985Y492000D02*
X447282Y492000D01*
X450694Y492000D02*
X456655Y492000D01*
X462825Y492000D02*
X466815Y492000D01*
X472985Y492000D02*
X476762Y492000D01*
X278892Y496000D02*
X231521Y496000D01*
X287528Y496000D02*
X348234Y496000D01*
X375158Y496000D02*
X404015Y496000D01*
X417167Y496000D02*
X424174Y496000D01*
X278892Y500000D02*
X231521Y500000D01*
X287528Y500000D02*
X348234Y500000D01*
X277223Y504000D02*
X231521Y504000D01*
X289197Y504000D02*
X348234Y504000D01*
X472212Y504000D02*
X476920Y504000D01*
X276634Y508000D02*
X231521Y508000D01*
X289786Y508000D02*
X349030Y508000D01*
X465847Y508000D02*
X483616Y508000D01*
X279180Y512000D02*
X231521Y512000D01*
X287240Y512000D02*
X353030Y512000D01*
X461847Y512000D02*
X483616Y512000D01*
X357030Y516000D02*
X231521Y516000D01*
X454152Y516000D02*
X483616Y516000D01*
X361030Y520000D02*
X231521Y520000D01*
X450152Y520000D02*
X483616Y520000D01*
X365030Y524000D02*
X231521Y524000D01*
X446152Y524000D02*
X483616Y524000D01*
X430049Y528000D02*
X231521Y528000D01*
X446251Y528000D02*
X455449Y528000D01*
X471651Y528000D02*
X483616Y528000D01*
X428244Y532000D02*
X231521Y532000D01*
X448056Y532000D02*
X453644Y532000D01*
X473456Y532000D02*
X483616Y532000D01*
X397830Y536000D02*
X231521Y536000D01*
X422590Y536000D02*
X428244Y536000D01*
X448056Y536000D02*
X453644Y536000D01*
X473456Y536000D02*
X483616Y536000D01*
X396804Y540000D02*
X231521Y540000D01*
X423616Y540000D02*
X426713Y540000D01*
X448056Y540000D02*
X453644Y540000D01*
X473456Y540000D02*
X483616Y540000D01*
X398330Y544000D02*
X231521Y544000D01*
X422090Y544000D02*
X422713Y544000D01*
X448056Y544000D02*
X453644Y544000D01*
X473456Y544000D02*
X483616Y544000D01*
X421132Y548000D02*
X231521Y548000D01*
X448056Y548000D02*
X453644Y548000D01*
X473456Y548000D02*
X483616Y548000D01*
X421132Y552000D02*
X231521Y552000D01*
X447270Y552000D02*
X454430Y552000D01*
X472670Y552000D02*
X483616Y552000D01*
X421132Y556000D02*
X231521Y556000D01*
X429768Y556000D02*
X432009Y556000D01*
X444291Y556000D02*
X457409Y556000D01*
X469691Y556000D02*
X483616Y556000D01*
X421132Y560000D02*
X231521Y560000D01*
X429768Y560000D02*
X435122Y560000D01*
X441178Y560000D02*
X460522Y560000D01*
X466578Y560000D02*
X483616Y560000D01*
X277379Y564000D02*
X231521Y564000D01*
X289041Y564000D02*
X302779Y564000D01*
X314441Y564000D02*
X421132Y564000D01*
X446607Y564000D02*
X455093Y564000D01*
X472007Y564000D02*
X483616Y564000D01*
X274000Y568000D02*
X231521Y568000D01*
X292420Y568000D02*
X299400Y568000D01*
X317820Y568000D02*
X421132Y568000D01*
X448056Y568000D02*
X453644Y568000D01*
X473456Y568000D02*
X483616Y568000D01*
X272876Y572000D02*
X231521Y572000D01*
X293544Y572000D02*
X298276Y572000D01*
X318944Y572000D02*
X421132Y572000D01*
X448056Y572000D02*
X453644Y572000D01*
X473456Y572000D02*
X483616Y572000D01*
X273362Y576000D02*
X239505Y576000D01*
X293058Y576000D02*
X298762Y576000D01*
X318458Y576000D02*
X421132Y576000D01*
X448056Y576000D02*
X453644Y576000D01*
X473456Y576000D02*
X483616Y576000D01*
X275826Y580000D02*
X240256Y580000D01*
X290594Y580000D02*
X301226Y580000D01*
X315994Y580000D02*
X421132Y580000D01*
X448056Y580000D02*
X453644Y580000D01*
X473456Y580000D02*
X483616Y580000D01*
X421132Y584000D02*
X238100Y584000D01*
X448056Y584000D02*
X453644Y584000D01*
X473456Y584000D02*
X483616Y584000D01*
X421132Y588000D02*
X251207Y588000D01*
X447088Y588000D02*
X454612Y588000D01*
X472488Y588000D02*
X483616Y588000D01*
X421132Y592000D02*
X253333Y592000D01*
X443851Y592000D02*
X457849Y592000D01*
X469251Y592000D02*
X483616Y592000D01*
X235609Y596000D02*
X231521Y596000D01*
X253333Y596000D02*
X420128Y596000D01*
X438807Y596000D02*
X483616Y596000D01*
X236511Y600000D02*
X231521Y600000D01*
X255587Y600000D02*
X416128Y600000D01*
X434807Y600000D02*
X483616Y600000D01*
X237867Y604000D02*
X231521Y604000D01*
X430807Y604000D02*
X483616Y604000D01*
X241213Y608000D02*
X231521Y608000D01*
X426807Y608000D02*
X483616Y608000D01*
X241670Y612000D02*
X231521Y612000D01*
X425067Y612000D02*
X483616Y612000D01*
X241107Y616000D02*
X231521Y616000D01*
X429067Y616000D02*
X483616Y616000D01*
X243698Y620000D02*
X231521Y620000D01*
X251658Y620000D02*
X420853Y620000D01*
X447037Y620000D02*
X483616Y620000D01*
X424853Y624000D02*
X231521Y624000D01*
X451037Y624000D02*
X471145Y624000D01*
X473964Y624000D02*
X475996Y624000D01*
X478815Y624000D02*
X483616Y624000D01*
X416409Y628000D02*
X231521Y628000D01*
X431951Y628000D02*
X441809Y628000D01*
X457351Y628000D02*
X466012Y628000D01*
X473964Y628000D02*
X475996Y628000D01*
X414385Y632000D02*
X231521Y632000D01*
X433975Y632000D02*
X439785Y632000D01*
X459375Y632000D02*
X464276Y632000D01*
X473964Y632000D02*
X475996Y632000D01*
X414274Y636000D02*
X231521Y636000D01*
X434086Y636000D02*
X439674Y636000D01*
X459486Y636000D02*
X464058Y636000D01*
X473964Y636000D02*
X475996Y636000D01*
X414274Y640000D02*
X231521Y640000D01*
X434086Y640000D02*
X439674Y640000D01*
X459486Y640000D02*
X464058Y640000D01*
X473964Y640000D02*
X475996Y640000D01*
X414274Y644000D02*
X231521Y644000D01*
X434086Y644000D02*
X439674Y644000D01*
X459486Y644000D02*
X464058Y644000D01*
X473964Y644000D02*
X475996Y644000D01*
X414274Y648000D02*
X231521Y648000D01*
X434086Y648000D02*
X439674Y648000D01*
X459486Y648000D02*
X464058Y648000D01*
X473964Y648000D02*
X475996Y648000D01*
X414923Y652000D02*
X231521Y652000D01*
X433437Y652000D02*
X440323Y652000D01*
X458837Y652000D02*
X464646Y652000D01*
X473964Y652000D02*
X475996Y652000D01*
X417709Y656000D02*
X231521Y656000D01*
X430651Y656000D02*
X443109Y656000D01*
X456051Y656000D02*
X467072Y656000D01*
X473964Y656000D02*
X475996Y656000D01*
X482888Y656000D02*
X483616Y656000D01*
X419862Y660000D02*
X231521Y660000D01*
X428498Y660000D02*
X483616Y660000D01*
X419862Y664000D02*
X231521Y664000D01*
X428498Y664000D02*
X483616Y664000D01*
X276236Y668000D02*
X231521Y668000D01*
X290184Y668000D02*
X301636Y668000D01*
X315584Y668000D02*
X419862Y668000D01*
X428498Y668000D02*
X483616Y668000D01*
X273532Y672000D02*
X231521Y672000D01*
X292888Y672000D02*
X298932Y672000D01*
X318288Y672000D02*
X419862Y672000D01*
X428498Y672000D02*
X483616Y672000D01*
X272876Y676000D02*
X231521Y676000D01*
X293544Y676000D02*
X298276Y676000D01*
X318944Y676000D02*
X419862Y676000D01*
X428498Y676000D02*
X483616Y676000D01*
X273831Y680000D02*
X231521Y680000D01*
X292589Y680000D02*
X299231Y680000D01*
X317989Y680000D02*
X419655Y680000D01*
X428705Y680000D02*
X445055Y680000D01*
X454105Y680000D02*
X468577Y680000D01*
X473964Y680000D02*
X475996Y680000D01*
X481383Y680000D02*
X483616Y680000D01*
X276956Y684000D02*
X231521Y684000D01*
X289464Y684000D02*
X302356Y684000D01*
X314864Y684000D02*
X415466Y684000D01*
X432894Y684000D02*
X440866Y684000D01*
X458294Y684000D02*
X465192Y684000D01*
X473964Y684000D02*
X475996Y684000D01*
X278892Y688000D02*
X231521Y688000D01*
X287528Y688000D02*
X414274Y688000D01*
X434086Y688000D02*
X439674Y688000D01*
X459486Y688000D02*
X464058Y688000D01*
X473964Y688000D02*
X475996Y688000D01*
X249968Y692000D02*
X231521Y692000D01*
X252952Y692000D02*
X272828Y692000D01*
X275812Y692000D02*
X278892Y692000D01*
X287528Y692000D02*
X288548Y692000D01*
X291532Y692000D02*
X414274Y692000D01*
X434086Y692000D02*
X439674Y692000D01*
X459486Y692000D02*
X464058Y692000D01*
X473964Y692000D02*
X475996Y692000D01*
X245378Y696000D02*
X231521Y696000D01*
X404927Y696000D02*
X414274Y696000D01*
X434086Y696000D02*
X439674Y696000D01*
X459486Y696000D02*
X473964Y696000D01*
X244964Y700000D02*
X231521Y700000D01*
X408927Y700000D02*
X414274Y700000D01*
X434086Y700000D02*
X439674Y700000D01*
X459486Y700000D02*
X464058Y700000D01*
X473964Y700000D02*
X475996Y700000D01*
X245828Y704000D02*
X231521Y704000D01*
X412927Y704000D02*
X414274Y704000D01*
X434086Y704000D02*
X439674Y704000D01*
X459486Y704000D02*
X464069Y704000D01*
X473964Y704000D02*
X475996Y704000D01*
X244884Y708000D02*
X231521Y708000D01*
X414528Y708000D02*
X415499Y708000D01*
X432861Y708000D02*
X440899Y708000D01*
X458261Y708000D02*
X465233Y708000D01*
X473964Y708000D02*
X475996Y708000D01*
X246572Y712000D02*
X231521Y712000D01*
X256348Y712000D02*
X269432Y712000D01*
X294928Y712000D02*
X401320Y712000D01*
X418387Y712000D02*
X419849Y712000D01*
X428511Y712000D02*
X441403Y712000D01*
X453911Y712000D02*
X468687Y712000D01*
X473964Y712000D02*
X475996Y712000D01*
X481273Y712000D02*
X483616Y712000D01*
X278892Y716000D02*
X231521Y716000D01*
X287528Y716000D02*
X403708Y716000D01*
X449617Y716000D02*
X483616Y716000D01*
X278892Y720000D02*
X231521Y720000D01*
X287528Y720000D02*
X407708Y720000D01*
X447977Y720000D02*
X483616Y720000D01*
X278892Y724000D02*
X231521Y724000D01*
X287528Y724000D02*
X411708Y724000D01*
X451977Y724000D02*
X483616Y724000D01*
X278892Y728000D02*
X231521Y728000D01*
X287528Y728000D02*
X443763Y728000D01*
X453898Y728000D02*
X483616Y728000D01*
X278892Y732000D02*
X231521Y732000D01*
X287528Y732000D02*
X445262Y732000D01*
X453898Y732000D02*
X483616Y732000D01*
X278892Y736000D02*
X231521Y736000D01*
X287528Y736000D02*
X417629Y736000D01*
X430731Y736000D02*
X443029Y736000D01*
X456131Y736000D02*
X466992Y736000D01*
X473964Y736000D02*
X475996Y736000D01*
X482968Y736000D02*
X483616Y736000D01*
X278892Y740000D02*
X231521Y740000D01*
X290177Y740000D02*
X335280Y740000D01*
X342900Y740000D02*
X414890Y740000D01*
X433470Y740000D02*
X440290Y740000D01*
X458870Y740000D02*
X464619Y740000D01*
X473964Y740000D02*
X475996Y740000D01*
X281963Y744000D02*
X231521Y744000D01*
X345591Y744000D02*
X414274Y744000D01*
X434086Y744000D02*
X439674Y744000D01*
X459486Y744000D02*
X464058Y744000D01*
X473964Y744000D02*
X475996Y744000D01*
X279673Y748000D02*
X231521Y748000D01*
X345168Y748000D02*
X414274Y748000D01*
X434086Y748000D02*
X439674Y748000D01*
X459486Y748000D02*
X464058Y748000D01*
X473964Y748000D02*
X475996Y748000D01*
X278892Y752000D02*
X231521Y752000D01*
X287887Y752000D02*
X337623Y752000D01*
X340557Y752000D02*
X414274Y752000D01*
X434086Y752000D02*
X439674Y752000D01*
X459486Y752000D02*
X464058Y752000D01*
X473964Y752000D02*
X475996Y752000D01*
X278892Y756000D02*
X231521Y756000D01*
X287528Y756000D02*
X414274Y756000D01*
X434086Y756000D02*
X439674Y756000D01*
X459486Y756000D02*
X464058Y756000D01*
X473964Y756000D02*
X475996Y756000D01*
X278892Y760000D02*
X231521Y760000D01*
X287528Y760000D02*
X414418Y760000D01*
X433942Y760000D02*
X439818Y760000D01*
X459342Y760000D02*
X464289Y760000D01*
X473964Y760000D02*
X475996Y760000D01*
X278892Y764000D02*
X231521Y764000D01*
X287528Y764000D02*
X416489Y764000D01*
X431871Y764000D02*
X441889Y764000D01*
X457271Y764000D02*
X466070Y764000D01*
X473964Y764000D02*
X475996Y764000D01*
X278892Y768000D02*
X231521Y768000D01*
X287528Y768000D02*
X471391Y768000D01*
X473964Y768000D02*
X475996Y768000D01*
X478569Y768000D02*
X483616Y768000D01*
X275106Y772000D02*
X231521Y772000D01*
X291314Y772000D02*
X300506Y772000D01*
X316714Y772000D02*
X483616Y772000D01*
X273064Y776000D02*
X231521Y776000D01*
X293356Y776000D02*
X298464Y776000D01*
X318756Y776000D02*
X483616Y776000D01*
X272876Y780000D02*
X231521Y780000D01*
X293544Y780000D02*
X298276Y780000D01*
X318944Y780000D02*
X483616Y780000D01*
X274299Y784000D02*
X231521Y784000D01*
X292121Y784000D02*
X299699Y784000D01*
X317521Y784000D02*
X483616Y784000D01*
X279117Y788000D02*
X231521Y788000D01*
X287303Y788000D02*
X304517Y788000D01*
X312703Y788000D02*
X483616Y788000D01*
X483616Y792000D02*
X231521Y792000D01*
X230510Y796000D02*
X483616Y796000D01*
X483616Y800000D02*
X227623Y800000D01*
X217170Y804000D02*
X483616Y804000D01*
X483616Y808000D02*
X217170Y808000D01*
X217170Y812000D02*
X483616Y812000D01*
X483616Y816000D02*
X217170Y816000D01*
X217170Y820000D02*
X443274Y820000D01*
X466046Y820000D02*
X483616Y820000D01*
X435664Y824000D02*
X217170Y824000D01*
X473656Y824000D02*
X483616Y824000D01*
X431182Y828000D02*
X217170Y828000D01*
X478138Y828000D02*
X483616Y828000D01*
X427705Y832000D02*
X217170Y832000D01*
X481615Y832000D02*
X483616Y832000D01*
X425395Y836000D02*
X217170Y836000D01*
X217170Y840000D02*
X423630Y840000D01*
X422558Y844000D02*
X217170Y844000D01*
X217170Y848000D02*
X421866Y848000D01*
X421866Y852000D02*
X217170Y852000D01*
X217170Y856000D02*
X422076Y856000D01*
X423148Y860000D02*
X217170Y860000D01*
X217170Y864000D02*
X424356Y864000D01*
X426665Y868000D02*
X217170Y868000D01*
X217170Y872000D02*
X429382Y872000D01*
X433382Y876000D02*
X217170Y876000D01*
X217170Y880000D02*
X439475Y880000D01*
X220000Y11049D02*
X220000Y-67310D01*
X220000Y803021D02*
X220000Y880618D01*
X224000Y11853D02*
X224000Y-67310D01*
X224000Y802217D02*
X224000Y880618D01*
X228000Y14447D02*
X228000Y-67310D01*
X228000Y799623D02*
X228000Y880618D01*
X232000Y572698D02*
X232000Y-67310D01*
X232000Y593707D02*
X232000Y880618D01*
X236000Y572963D02*
X236000Y-67310D01*
X236000Y594003D02*
X236000Y594265D01*
X236000Y598766D02*
X236000Y880618D01*
X240000Y297699D02*
X240000Y-67310D01*
X240000Y309361D02*
X240000Y577194D01*
X240000Y581046D02*
X240000Y585367D01*
X240000Y606787D02*
X240000Y880618D01*
X244000Y296954D02*
X244000Y-67310D01*
X244000Y310106D02*
X244000Y585367D01*
X244000Y620274D02*
X244000Y880618D01*
X248000Y299124D02*
X248000Y-67310D01*
X248000Y307936D02*
X248000Y585367D01*
X248000Y621256D02*
X248000Y692815D01*
X248000Y713273D02*
X248000Y880618D01*
X252000Y296883D02*
X252000Y-67310D01*
X252000Y307848D02*
X252000Y588793D01*
X252000Y619658D02*
X252000Y691924D01*
X252000Y714164D02*
X252000Y880618D01*
X256000Y294132D02*
X256000Y-67310D01*
X256000Y305097D02*
X256000Y600413D01*
X256000Y618998D02*
X256000Y693740D01*
X256000Y712348D02*
X256000Y880618D01*
X260000Y294132D02*
X260000Y-67310D01*
X260000Y302768D02*
X260000Y600710D01*
X260000Y618998D02*
X260000Y694182D01*
X260000Y711906D02*
X260000Y880618D01*
X264000Y294132D02*
X264000Y-67310D01*
X264000Y302768D02*
X264000Y600710D01*
X264000Y618998D02*
X264000Y694182D01*
X264000Y711906D02*
X264000Y880618D01*
X268000Y288904D02*
X268000Y-67310D01*
X268000Y292756D02*
X268000Y294132D01*
X268000Y302768D02*
X268000Y600710D01*
X268000Y618998D02*
X268000Y694182D01*
X268000Y711906D02*
X268000Y880618D01*
X272000Y203360D02*
X272000Y-67310D01*
X272000Y213200D02*
X272000Y284673D01*
X272000Y302768D02*
X272000Y395491D01*
X272000Y415130D02*
X272000Y600710D01*
X272000Y618998D02*
X272000Y692343D01*
X272000Y713745D02*
X272000Y880618D01*
X276000Y58636D02*
X276000Y-67310D01*
X276000Y73444D02*
X276000Y160236D01*
X276000Y175044D02*
X276000Y201704D01*
X276000Y214856D02*
X276000Y261836D01*
X276000Y276644D02*
X276000Y284408D01*
X276000Y303697D02*
X276000Y363436D01*
X276000Y378244D02*
X276000Y394546D01*
X276000Y416786D02*
X276000Y465036D01*
X276000Y479844D02*
X276000Y565366D01*
X276000Y580174D02*
X276000Y600710D01*
X276000Y618998D02*
X276000Y668236D01*
X276000Y683044D02*
X276000Y692078D01*
X276000Y714010D02*
X276000Y771106D01*
X276000Y785914D02*
X276000Y880618D01*
X280000Y56184D02*
X280000Y-67310D01*
X280000Y75896D02*
X280000Y157784D01*
X280000Y177496D02*
X280000Y202662D01*
X280000Y213898D02*
X280000Y259384D01*
X280000Y279096D02*
X280000Y286512D01*
X280000Y305308D02*
X280000Y360984D01*
X280000Y380696D02*
X280000Y396232D01*
X280000Y415828D02*
X280000Y462584D01*
X280000Y512518D02*
X280000Y562914D01*
X280000Y582626D02*
X280000Y600710D01*
X280000Y618998D02*
X280000Y665784D01*
X280000Y742037D02*
X280000Y747673D01*
X280000Y788366D02*
X280000Y880618D01*
X284000Y55706D02*
X284000Y-67310D01*
X284000Y76374D02*
X284000Y157306D01*
X284000Y177974D02*
X284000Y203962D01*
X284000Y212598D02*
X284000Y258906D01*
X284000Y279574D02*
X284000Y286512D01*
X284000Y305308D02*
X284000Y360506D01*
X284000Y381174D02*
X284000Y396804D01*
X284000Y414528D02*
X284000Y462106D01*
X284000Y513306D02*
X284000Y562436D01*
X284000Y583104D02*
X284000Y600710D01*
X284000Y618998D02*
X284000Y665306D01*
X284000Y788844D02*
X284000Y880618D01*
X288000Y56839D02*
X288000Y-67310D01*
X288000Y75241D02*
X288000Y158439D01*
X288000Y176841D02*
X288000Y203962D01*
X288000Y212598D02*
X288000Y260039D01*
X288000Y278441D02*
X288000Y284884D01*
X288000Y306191D02*
X288000Y361639D01*
X288000Y380041D02*
X288000Y395176D01*
X288000Y416156D02*
X288000Y463239D01*
X288000Y481641D02*
X288000Y502220D01*
X288000Y511240D02*
X288000Y563569D01*
X288000Y581971D02*
X288000Y600710D01*
X288000Y618998D02*
X288000Y666439D01*
X288000Y684841D02*
X288000Y692227D01*
X288000Y713861D02*
X288000Y737823D01*
X288000Y751887D02*
X288000Y769309D01*
X288000Y787711D02*
X288000Y880618D01*
X292000Y60257D02*
X292000Y-67310D01*
X292000Y71823D02*
X292000Y161857D01*
X292000Y173423D02*
X292000Y203962D01*
X292000Y212598D02*
X292000Y263457D01*
X292000Y275023D02*
X292000Y284254D01*
X292000Y306224D02*
X292000Y365057D01*
X292000Y376623D02*
X292000Y394546D01*
X292000Y416786D02*
X292000Y466657D01*
X292000Y478223D02*
X292000Y566987D01*
X292000Y578553D02*
X292000Y600710D01*
X292000Y618998D02*
X292000Y669857D01*
X292000Y681423D02*
X292000Y692194D01*
X292000Y713894D02*
X292000Y741172D01*
X292000Y749808D02*
X292000Y772727D01*
X292000Y784293D02*
X292000Y880618D01*
X296000Y203962D02*
X296000Y-67310D01*
X296000Y212598D02*
X296000Y286700D01*
X296000Y294960D02*
X296000Y297123D01*
X296000Y302713D02*
X296000Y396992D01*
X296000Y405252D02*
X296000Y406080D01*
X296000Y414340D02*
X296000Y600710D01*
X296000Y618998D02*
X296000Y695452D01*
X296000Y711906D02*
X296000Y741172D01*
X296000Y749808D02*
X296000Y880618D01*
X300000Y60036D02*
X300000Y-67310D01*
X300000Y72044D02*
X300000Y161636D01*
X300000Y173644D02*
X300000Y203962D01*
X300000Y212598D02*
X300000Y263236D01*
X300000Y275244D02*
X300000Y364836D01*
X300000Y376844D02*
X300000Y466436D01*
X300000Y478444D02*
X300000Y566766D01*
X300000Y578774D02*
X300000Y600710D01*
X300000Y618998D02*
X300000Y669636D01*
X300000Y681644D02*
X300000Y695452D01*
X300000Y709407D02*
X300000Y741172D01*
X300000Y749808D02*
X300000Y772506D01*
X300000Y784514D02*
X300000Y880618D01*
X304000Y56764D02*
X304000Y-67310D01*
X304000Y75316D02*
X304000Y158364D01*
X304000Y176916D02*
X304000Y203962D01*
X304000Y212598D02*
X304000Y259964D01*
X304000Y278516D02*
X304000Y361564D01*
X304000Y380116D02*
X304000Y463164D01*
X304000Y481716D02*
X304000Y563494D01*
X304000Y582046D02*
X304000Y600710D01*
X304000Y618998D02*
X304000Y666364D01*
X304000Y684916D02*
X304000Y695452D01*
X304000Y708660D02*
X304000Y741172D01*
X304000Y749808D02*
X304000Y769234D01*
X304000Y787786D02*
X304000Y880618D01*
X308000Y55706D02*
X308000Y-67310D01*
X308000Y76374D02*
X308000Y157306D01*
X308000Y177974D02*
X308000Y203962D01*
X308000Y212598D02*
X308000Y258906D01*
X308000Y279574D02*
X308000Y360506D01*
X308000Y381174D02*
X308000Y462106D01*
X308000Y482774D02*
X308000Y562436D01*
X308000Y583104D02*
X308000Y600710D01*
X308000Y618998D02*
X308000Y665306D01*
X308000Y685974D02*
X308000Y695452D01*
X308000Y708660D02*
X308000Y741172D01*
X308000Y749808D02*
X308000Y768176D01*
X308000Y788844D02*
X308000Y880618D01*
X312000Y56259D02*
X312000Y-67310D01*
X312000Y75821D02*
X312000Y157859D01*
X312000Y177421D02*
X312000Y203962D01*
X312000Y212598D02*
X312000Y259459D01*
X312000Y279021D02*
X312000Y361059D01*
X312000Y380621D02*
X312000Y462659D01*
X312000Y482221D02*
X312000Y562989D01*
X312000Y582551D02*
X312000Y600710D01*
X312000Y618998D02*
X312000Y665859D01*
X312000Y685421D02*
X312000Y695452D01*
X312000Y708660D02*
X312000Y741172D01*
X312000Y749808D02*
X312000Y768729D01*
X312000Y788291D02*
X312000Y880618D01*
X316000Y58816D02*
X316000Y-67310D01*
X316000Y73264D02*
X316000Y160416D01*
X316000Y174864D02*
X316000Y203962D01*
X316000Y212598D02*
X316000Y262016D01*
X316000Y276464D02*
X316000Y363616D01*
X316000Y378064D02*
X316000Y465216D01*
X316000Y479664D02*
X316000Y565546D01*
X316000Y579994D02*
X316000Y600710D01*
X316000Y618998D02*
X316000Y668416D01*
X316000Y682864D02*
X316000Y695452D01*
X316000Y708660D02*
X316000Y741172D01*
X316000Y749808D02*
X316000Y771286D01*
X316000Y785734D02*
X316000Y880618D01*
X320000Y203962D02*
X320000Y-67310D01*
X320000Y212598D02*
X320000Y600710D01*
X320000Y618998D02*
X320000Y695452D01*
X320000Y708660D02*
X320000Y741172D01*
X320000Y749808D02*
X320000Y880618D01*
X324000Y203962D02*
X324000Y-67310D01*
X324000Y212598D02*
X324000Y600710D01*
X324000Y618998D02*
X324000Y695452D01*
X324000Y708660D02*
X324000Y741172D01*
X324000Y749808D02*
X324000Y880618D01*
X328000Y201833D02*
X328000Y-67310D01*
X328000Y212598D02*
X328000Y600710D01*
X328000Y618998D02*
X328000Y695452D01*
X328000Y708660D02*
X328000Y741172D01*
X328000Y749808D02*
X328000Y880618D01*
X332000Y197833D02*
X332000Y-67310D01*
X332000Y210047D02*
X332000Y600710D01*
X332000Y618998D02*
X332000Y695452D01*
X332000Y708660D02*
X332000Y741172D01*
X332000Y749808D02*
X332000Y880618D01*
X336000Y193833D02*
X336000Y-67310D01*
X336000Y206047D02*
X336000Y600710D01*
X336000Y618998D02*
X336000Y695452D01*
X336000Y708660D02*
X336000Y739652D01*
X336000Y751328D02*
X336000Y880618D01*
X340000Y189833D02*
X340000Y-67310D01*
X340000Y202047D02*
X340000Y600710D01*
X340000Y618998D02*
X340000Y695452D01*
X340000Y708660D02*
X340000Y738914D01*
X340000Y752066D02*
X340000Y880618D01*
X344000Y188722D02*
X344000Y-67310D01*
X344000Y198047D02*
X344000Y600710D01*
X344000Y618998D02*
X344000Y695452D01*
X344000Y708660D02*
X344000Y741100D01*
X344000Y749880D02*
X344000Y880618D01*
X348000Y187530D02*
X348000Y-67310D01*
X348000Y198550D02*
X348000Y600710D01*
X348000Y618998D02*
X348000Y695452D01*
X348000Y708660D02*
X348000Y880618D01*
X352000Y186464D02*
X352000Y-67310D01*
X352000Y199616D02*
X352000Y357826D01*
X352000Y510970D02*
X352000Y600710D01*
X352000Y618998D02*
X352000Y695452D01*
X352000Y708660D02*
X352000Y880618D01*
X356000Y187950D02*
X356000Y-67310D01*
X356000Y198130D02*
X356000Y257422D01*
X356000Y514970D02*
X356000Y600710D01*
X356000Y618998D02*
X356000Y695452D01*
X356000Y708660D02*
X356000Y880618D01*
X360000Y158288D02*
X360000Y-67310D01*
X360000Y518970D02*
X360000Y600710D01*
X360000Y618998D02*
X360000Y695452D01*
X360000Y708660D02*
X360000Y880618D01*
X364000Y154288D02*
X364000Y-67310D01*
X364000Y522970D02*
X364000Y600710D01*
X364000Y618998D02*
X364000Y695452D01*
X364000Y708660D02*
X364000Y880618D01*
X368000Y53230D02*
X368000Y-67310D01*
X368000Y526796D02*
X368000Y600710D01*
X368000Y618998D02*
X368000Y695452D01*
X368000Y708660D02*
X368000Y880618D01*
X372000Y50604D02*
X372000Y-67310D01*
X372000Y166040D02*
X372000Y255074D01*
X372000Y268166D02*
X372000Y356674D01*
X372000Y369766D02*
X372000Y383271D01*
X372000Y405356D02*
X372000Y458274D01*
X372000Y526796D02*
X372000Y600710D01*
X372000Y618998D02*
X372000Y695452D01*
X372000Y708660D02*
X372000Y880618D01*
X376000Y51117D02*
X376000Y-67310D01*
X376000Y63183D02*
X376000Y153461D01*
X376000Y166579D02*
X376000Y255587D01*
X376000Y267653D02*
X376000Y357187D01*
X376000Y369253D02*
X376000Y383534D01*
X376000Y404696D02*
X376000Y458787D01*
X376000Y470853D02*
X376000Y496893D01*
X376000Y526796D02*
X376000Y600710D01*
X376000Y618998D02*
X376000Y695452D01*
X376000Y708660D02*
X376000Y880618D01*
X380000Y156070D02*
X380000Y-67310D01*
X380000Y163970D02*
X380000Y386593D01*
X380000Y403098D02*
X380000Y499872D01*
X380000Y526796D02*
X380000Y600710D01*
X380000Y618998D02*
X380000Y695452D01*
X380000Y708660D02*
X380000Y880618D01*
X384000Y389890D02*
X384000Y-67310D01*
X384000Y403098D02*
X384000Y499872D01*
X384000Y526796D02*
X384000Y600710D01*
X384000Y618998D02*
X384000Y695452D01*
X384000Y708660D02*
X384000Y880618D01*
X388000Y389890D02*
X388000Y-67310D01*
X388000Y403098D02*
X388000Y499872D01*
X388000Y526796D02*
X388000Y600710D01*
X388000Y618998D02*
X388000Y695452D01*
X388000Y708660D02*
X388000Y880618D01*
X392000Y389890D02*
X392000Y-67310D01*
X392000Y403098D02*
X392000Y499872D01*
X392000Y526796D02*
X392000Y600710D01*
X392000Y618998D02*
X392000Y695452D01*
X392000Y708660D02*
X392000Y880618D01*
X396000Y389890D02*
X396000Y-67310D01*
X396000Y403098D02*
X396000Y429743D01*
X396000Y442387D02*
X396000Y499872D01*
X396000Y526796D02*
X396000Y600710D01*
X396000Y618998D02*
X396000Y695452D01*
X396000Y708660D02*
X396000Y880618D01*
X400000Y389890D02*
X400000Y-67310D01*
X400000Y403098D02*
X400000Y425743D01*
X400000Y462347D02*
X400000Y499872D01*
X400000Y526796D02*
X400000Y534032D01*
X400000Y545468D02*
X400000Y600710D01*
X400000Y618998D02*
X400000Y695452D01*
X400000Y709752D02*
X400000Y880618D01*
X404000Y218543D02*
X404000Y-67310D01*
X404000Y351571D02*
X404000Y389890D01*
X404000Y403098D02*
X404000Y423672D01*
X404000Y463141D02*
X404000Y499872D01*
X404000Y526796D02*
X404000Y533174D01*
X404000Y546326D02*
X404000Y600710D01*
X404000Y618998D02*
X404000Y695452D01*
X404000Y716292D02*
X404000Y880618D01*
X408000Y214543D02*
X408000Y-67310D01*
X408000Y354076D02*
X408000Y389890D01*
X408000Y403098D02*
X408000Y423672D01*
X408000Y432308D02*
X408000Y452040D01*
X408000Y526796D02*
X408000Y535070D01*
X408000Y544430D02*
X408000Y600710D01*
X408000Y618998D02*
X408000Y699073D01*
X408000Y720292D02*
X408000Y880618D01*
X412000Y213722D02*
X412000Y-67310D01*
X412000Y222757D02*
X412000Y295979D01*
X412000Y308541D02*
X412000Y313296D01*
X412000Y324244D02*
X412000Y345440D01*
X412000Y354076D02*
X412000Y389890D01*
X412000Y403098D02*
X412000Y422235D01*
X412000Y433745D02*
X412000Y455145D01*
X412000Y526796D02*
X412000Y535432D01*
X412000Y544068D02*
X412000Y600710D01*
X412000Y618998D02*
X412000Y703073D01*
X412000Y724292D02*
X412000Y880618D01*
X416000Y213722D02*
X416000Y-67310D01*
X416000Y222358D02*
X416000Y295962D01*
X416000Y309118D02*
X416000Y312194D01*
X416000Y325346D02*
X416000Y345440D01*
X416000Y354076D02*
X416000Y389890D01*
X416000Y403098D02*
X416000Y421414D01*
X416000Y434566D02*
X416000Y457500D01*
X416000Y465942D02*
X416000Y491536D01*
X416000Y499318D02*
X416000Y499872D01*
X416000Y526796D02*
X416000Y533174D01*
X416000Y546326D02*
X416000Y600128D01*
X416000Y618998D02*
X416000Y628409D01*
X416000Y654291D02*
X416000Y683019D01*
X416000Y708901D02*
X416000Y709613D01*
X416000Y726440D02*
X416000Y737629D01*
X416000Y763511D02*
X416000Y880618D01*
X420000Y213722D02*
X420000Y-67310D01*
X420000Y222358D02*
X420000Y299513D01*
X420000Y309118D02*
X420000Y313644D01*
X420000Y323896D02*
X420000Y345440D01*
X420000Y354076D02*
X420000Y389890D01*
X420000Y403098D02*
X420000Y423400D01*
X420000Y432580D02*
X420000Y499872D01*
X420000Y526796D02*
X420000Y533858D01*
X420000Y545642D02*
X420000Y596128D01*
X420000Y619147D02*
X420000Y625247D01*
X420000Y712063D02*
X420000Y713232D01*
X420000Y726440D02*
X420000Y734467D01*
X420000Y766673D02*
X420000Y880618D01*
X424000Y-50382D02*
X424000Y-67310D01*
X424000Y-25818D02*
X424000Y213722D01*
X424000Y222358D02*
X424000Y300482D01*
X424000Y309118D02*
X424000Y315576D01*
X424000Y323704D02*
X424000Y345440D01*
X424000Y354076D02*
X424000Y389890D01*
X424000Y403098D02*
X424000Y496421D01*
X424000Y526796D02*
X424000Y542713D01*
X424000Y610807D02*
X424000Y610933D01*
X424000Y623147D02*
X424000Y624332D01*
X424000Y712978D02*
X424000Y713232D01*
X424000Y726440D02*
X424000Y733552D01*
X424000Y767588D02*
X424000Y838618D01*
X424000Y863182D02*
X424000Y880618D01*
X428000Y-57512D02*
X428000Y-67310D01*
X428000Y-18688D02*
X428000Y213722D01*
X428000Y222358D02*
X428000Y300482D01*
X428000Y309118D02*
X428000Y315576D01*
X428000Y323704D02*
X428000Y345440D01*
X428000Y354076D02*
X428000Y389890D01*
X428000Y403098D02*
X428000Y491770D01*
X428000Y526796D02*
X428000Y538713D01*
X428000Y606807D02*
X428000Y614933D01*
X428000Y712212D02*
X428000Y713232D01*
X428000Y726440D02*
X428000Y734318D01*
X428000Y766822D02*
X428000Y831488D01*
X428000Y870312D02*
X428000Y880618D01*
X432000Y-61818D02*
X432000Y-67310D01*
X432000Y-14382D02*
X432000Y213722D01*
X432000Y222358D02*
X432000Y300482D01*
X432000Y309118D02*
X432000Y315576D01*
X432000Y323704D02*
X432000Y345440D01*
X432000Y354076D02*
X432000Y389890D01*
X432000Y405087D02*
X432000Y491331D01*
X432000Y555991D02*
X432000Y561609D01*
X432000Y602807D02*
X432000Y616712D01*
X432000Y625348D02*
X432000Y628049D01*
X432000Y654651D02*
X432000Y682659D01*
X432000Y709261D02*
X432000Y713232D01*
X432000Y726440D02*
X432000Y737269D01*
X432000Y763871D02*
X432000Y827182D01*
X432000Y874618D02*
X432000Y880618D01*
X436000Y-65194D02*
X436000Y-67310D01*
X436000Y-11006D02*
X436000Y213722D01*
X436000Y222358D02*
X436000Y298573D01*
X436000Y311027D02*
X436000Y315576D01*
X436000Y323704D02*
X436000Y345440D01*
X436000Y354076D02*
X436000Y390408D01*
X436000Y409087D02*
X436000Y492440D01*
X436000Y557964D02*
X436000Y559636D01*
X436000Y598807D02*
X436000Y616712D01*
X436000Y625348D02*
X436000Y713232D01*
X436000Y726440D02*
X436000Y823806D01*
X436000Y877994D02*
X436000Y880618D01*
X440000Y59429D02*
X440000Y-8697D01*
X440000Y65170D02*
X440000Y67710D01*
X440000Y73451D02*
X440000Y111549D01*
X440000Y121331D02*
X440000Y163149D01*
X440000Y172931D02*
X440000Y213149D01*
X440000Y222931D02*
X440000Y264749D01*
X440000Y274531D02*
X440000Y298448D01*
X440000Y311151D02*
X440000Y314749D01*
X440000Y324531D02*
X440000Y345440D01*
X440000Y354076D02*
X440000Y394408D01*
X440000Y413087D02*
X440000Y491264D01*
X440000Y558038D02*
X440000Y559562D01*
X440000Y594807D02*
X440000Y616712D01*
X440000Y625348D02*
X440000Y631481D01*
X440000Y651219D02*
X440000Y686091D01*
X440000Y705829D02*
X440000Y713232D01*
X440000Y726440D02*
X440000Y740701D01*
X440000Y760439D02*
X440000Y821497D01*
X440000Y880303D02*
X440000Y880618D01*
X444000Y55503D02*
X444000Y-7005D01*
X444000Y65170D02*
X444000Y67710D01*
X444000Y77377D02*
X444000Y106501D01*
X444000Y126379D02*
X444000Y158101D01*
X444000Y177979D02*
X444000Y208101D01*
X444000Y227979D02*
X444000Y259701D01*
X444000Y279579D02*
X444000Y301739D01*
X444000Y307861D02*
X444000Y309701D01*
X444000Y329579D02*
X444000Y345440D01*
X444000Y354076D02*
X444000Y398408D01*
X444000Y417087D02*
X444000Y492640D01*
X444000Y556291D02*
X444000Y561309D01*
X444000Y591851D02*
X444000Y616963D01*
X444000Y656873D02*
X444000Y680437D01*
X444000Y728237D02*
X444000Y735047D01*
X444000Y766093D02*
X444000Y819806D01*
X448000Y53904D02*
X448000Y-5934D01*
X448000Y65170D02*
X448000Y67710D01*
X448000Y78976D02*
X448000Y104809D01*
X448000Y128071D02*
X448000Y156409D01*
X448000Y179671D02*
X448000Y206409D01*
X448000Y229671D02*
X448000Y258009D01*
X448000Y281271D02*
X448000Y308009D01*
X448000Y331271D02*
X448000Y345440D01*
X448000Y354076D02*
X448000Y402408D01*
X448000Y421087D02*
X448000Y491835D01*
X448000Y522152D02*
X448000Y531802D01*
X448000Y550238D02*
X448000Y567362D01*
X448000Y585798D02*
X448000Y620963D01*
X448000Y658368D02*
X448000Y678942D01*
X448000Y717617D02*
X448000Y720023D01*
X448000Y767588D02*
X448000Y818734D01*
X452000Y53630D02*
X452000Y-5306D01*
X452000Y65170D02*
X452000Y67710D01*
X452000Y79250D02*
X452000Y104646D01*
X452000Y128234D02*
X452000Y156246D01*
X452000Y179834D02*
X452000Y206246D01*
X452000Y229834D02*
X452000Y257846D01*
X452000Y281434D02*
X452000Y307846D01*
X452000Y331434D02*
X452000Y345440D01*
X452000Y354076D02*
X452000Y406408D01*
X452000Y423418D02*
X452000Y492541D01*
X452000Y518152D02*
X452000Y624518D01*
X452000Y658182D02*
X452000Y679128D01*
X452000Y713617D02*
X452000Y724023D01*
X452000Y767402D02*
X452000Y818106D01*
X456000Y53630D02*
X456000Y-5306D01*
X456000Y65170D02*
X456000Y67710D01*
X456000Y79250D02*
X456000Y104646D01*
X456000Y128234D02*
X456000Y156246D01*
X456000Y179834D02*
X456000Y206246D01*
X456000Y229834D02*
X456000Y257846D01*
X456000Y281434D02*
X456000Y307846D01*
X456000Y331434D02*
X456000Y345440D01*
X456000Y354076D02*
X456000Y410210D01*
X456000Y423418D02*
X456000Y492280D01*
X456000Y514152D02*
X456000Y527449D01*
X456000Y554591D02*
X456000Y563009D01*
X456000Y590151D02*
X456000Y626649D01*
X456000Y656051D02*
X456000Y681259D01*
X456000Y710661D02*
X456000Y735869D01*
X456000Y765271D02*
X456000Y818106D01*
X460000Y65170D02*
X460000Y-5580D01*
X460000Y67710D02*
X460000Y104646D01*
X460000Y128234D02*
X460000Y156246D01*
X460000Y179834D02*
X460000Y206246D01*
X460000Y229834D02*
X460000Y257846D01*
X460000Y281434D02*
X460000Y307846D01*
X460000Y331434D02*
X460000Y345440D01*
X460000Y356771D02*
X460000Y410210D01*
X460000Y423418D02*
X460000Y491264D01*
X460000Y512318D02*
X460000Y524656D01*
X460000Y557384D02*
X460000Y560216D01*
X460000Y592944D02*
X460000Y818380D01*
X464000Y53630D02*
X464000Y-6652D01*
X464000Y65170D02*
X464000Y67710D01*
X464000Y79250D02*
X464000Y104646D01*
X464000Y128234D02*
X464000Y156246D01*
X464000Y179834D02*
X464000Y206246D01*
X464000Y229834D02*
X464000Y257846D01*
X464000Y281434D02*
X464000Y307846D01*
X464000Y331434D02*
X464000Y348558D01*
X464000Y405337D02*
X464000Y410210D01*
X464000Y427231D02*
X464000Y492800D01*
X464000Y509847D02*
X464000Y524002D01*
X464000Y558038D02*
X464000Y559562D01*
X464000Y593598D02*
X464000Y819452D01*
X468000Y53630D02*
X468000Y-7935D01*
X468000Y65170D02*
X468000Y67710D01*
X468000Y79250D02*
X468000Y104646D01*
X468000Y128234D02*
X468000Y156246D01*
X468000Y179834D02*
X468000Y206246D01*
X468000Y229834D02*
X468000Y257846D01*
X468000Y281434D02*
X468000Y307846D01*
X468000Y331434D02*
X468000Y352558D01*
X468000Y431582D02*
X468000Y491509D01*
X468000Y505847D02*
X468000Y525029D01*
X468000Y557011D02*
X468000Y560589D01*
X468000Y592571D02*
X468000Y625809D01*
X468000Y640334D02*
X468000Y642366D01*
X468000Y656891D02*
X468000Y680419D01*
X468000Y694944D02*
X468000Y696976D01*
X468000Y711501D02*
X468000Y735029D01*
X468000Y749554D02*
X468000Y751586D01*
X468000Y766111D02*
X468000Y820735D01*
X472000Y54030D02*
X472000Y-10244D01*
X472000Y65170D02*
X472000Y67710D01*
X472000Y78850D02*
X472000Y105025D01*
X472000Y127855D02*
X472000Y156625D01*
X472000Y179455D02*
X472000Y206625D01*
X472000Y229455D02*
X472000Y258225D01*
X472000Y281055D02*
X472000Y308225D01*
X472000Y331055D02*
X472000Y356558D01*
X472000Y431897D02*
X472000Y491592D01*
X472000Y504088D02*
X472000Y528423D01*
X472000Y553617D02*
X472000Y563983D01*
X472000Y589177D02*
X472000Y623722D01*
X472000Y640334D02*
X472000Y642366D01*
X472000Y658978D02*
X472000Y678332D01*
X472000Y694944D02*
X472000Y696976D01*
X472000Y713588D02*
X472000Y732942D01*
X472000Y749554D02*
X472000Y751586D01*
X472000Y768198D02*
X472000Y823044D01*
X476000Y55881D02*
X476000Y-13062D01*
X476000Y65170D02*
X476000Y67710D01*
X476000Y76999D02*
X476000Y107021D01*
X476000Y125859D02*
X476000Y158621D01*
X476000Y177459D02*
X476000Y208621D01*
X476000Y227459D02*
X476000Y260221D01*
X476000Y279059D02*
X476000Y310221D01*
X476000Y329059D02*
X476000Y394638D01*
X476000Y429066D02*
X476000Y494639D01*
X476000Y503080D02*
X476000Y623341D01*
X476000Y659359D02*
X476000Y677951D01*
X476000Y713969D02*
X476000Y732561D01*
X476000Y768579D02*
X476000Y825862D01*
X480000Y60323D02*
X480000Y-17062D01*
X480000Y65170D02*
X480000Y67710D01*
X480000Y72557D02*
X480000Y112805D01*
X480000Y120075D02*
X480000Y164405D01*
X480000Y171675D02*
X480000Y214405D01*
X480000Y221675D02*
X480000Y266005D01*
X480000Y273275D02*
X480000Y316005D01*
X480000Y323275D02*
X480000Y392204D01*
X480000Y505436D02*
X480000Y624538D01*
X480000Y658162D02*
X480000Y679148D01*
X480000Y712772D02*
X480000Y733758D01*
X480000Y767382D02*
X480000Y829862D01*
D15*
X335280Y857250D03*
X345440Y857250D03*
X355600Y857250D03*
X365760Y857250D03*
X375920Y857250D03*
X375920Y847090D03*
X365760Y847090D03*
X355600Y847090D03*
X345440Y847090D03*
X335280Y847090D03*
X419100Y415290D03*
X330200Y457200D03*
X330200Y424180D03*
X325120Y511810D03*
X325120Y556260D03*
X328930Y593090D03*
X323850Y624840D03*
X322580Y659130D03*
X452120Y669290D03*
X410210Y665480D03*
X480060Y581660D03*
X463550Y292100D03*
X416560Y279400D03*
X455930Y237490D03*
X461010Y193040D03*
X414020Y182880D03*
X416560Y204470D03*
X462280Y140970D03*
X415290Y144780D03*
X458470Y90170D03*
X420370Y87630D03*
X462280Y12700D03*
X374650Y-21590D03*
X363220Y-21590D03*
X351790Y-21590D03*
X340360Y-21590D03*
X328930Y-21590D03*
X328930Y-31750D03*
X340360Y-31750D03*
X351790Y-31750D03*
X363220Y-31750D03*
X374650Y-31750D03*
X250190Y104140D03*
X304800Y105410D03*
X304800Y148590D03*
X248920Y151130D03*
X300990Y191770D03*
X250190Y191770D03*
X248920Y242570D03*
X306070Y251460D03*
X304800Y222250D03*
X306070Y317500D03*
X266700Y330200D03*
X314960Y353060D03*
X274320Y538480D03*
D17*
X410610Y218040D02*
X459740Y218040D01*
X410610Y218040D02*
X405130Y223520D01*
X405130Y346594D01*
X408294Y349758D01*
X459094Y349758D01*
X468122Y358786D01*
D15*
X471170Y406400D03*
D17*
X468122Y403352D01*
X468122Y358786D01*
X449580Y727710D02*
X449580Y750570D01*
X405638Y711824D02*
X405638Y709284D01*
X405638Y711824D02*
X415936Y722122D01*
X295712Y707588D02*
X290040Y707588D01*
D15*
X290040Y707588D03*
X274320Y707588D03*
D17*
X251460Y707588D01*
D15*
X251460Y707588D03*
X275590Y401122D03*
D17*
X290830Y401122D01*
D15*
X290830Y401122D03*
X373683Y389692D03*
D17*
X376992Y389692D01*
X454014Y414528D02*
X465924Y414528D01*
X467758Y416362D02*
X471170Y416362D01*
D15*
X471170Y416362D03*
D17*
X443992Y722122D02*
X449580Y727710D01*
X443992Y722122D02*
X415936Y722122D01*
X405638Y709284D02*
X400696Y704342D01*
X298958Y704342D01*
X295712Y707588D01*
X381508Y394208D02*
X376992Y389692D01*
X381508Y394208D02*
X433694Y394208D01*
X454014Y414528D01*
X465924Y414528D02*
X467758Y416362D01*
D15*
X470380Y425450D03*
D17*
X464030Y419100D01*
X431800Y398780D02*
X373098Y398780D01*
D15*
X373098Y398780D03*
X290830Y410210D03*
D17*
X276380Y410210D01*
D15*
X276380Y410210D03*
X251460Y698500D03*
D17*
X274320Y698500D01*
D15*
X274320Y698500D03*
X290040Y698500D03*
D17*
X291310Y699770D01*
X402590Y699770D01*
X410210Y707390D01*
X410210Y709930D01*
X417830Y717550D01*
X441960Y717550D01*
X449580Y709930D02*
X449580Y695960D01*
X452120Y419100D02*
X464030Y419100D01*
X452120Y419100D02*
X431800Y398780D01*
X449580Y709930D02*
X441960Y717550D01*
X438150Y590550D02*
X438150Y576580D01*
X438150Y590550D02*
X419100Y609600D01*
X252257Y609600D01*
X250507Y607850D01*
X247170Y607850D01*
X242185Y602865D01*
X242185Y596515D01*
D15*
X242185Y596515D03*
X243106Y303530D03*
D17*
X251460Y303530D01*
X256540Y298450D01*
X276860Y298450D01*
X279400Y300990D01*
X288968Y300990D01*
X290040Y299918D01*
D15*
X290040Y299918D03*
X414020Y302260D03*
D17*
X416560Y304800D01*
X438150Y304800D01*
D15*
X438150Y304800D03*
D17*
X438150Y541020D02*
X431800Y541020D01*
X425450Y547370D01*
X425450Y596784D01*
X417206Y605028D01*
X254508Y605028D01*
X249015Y593686D02*
X248920Y593591D01*
X248920Y591820D01*
X249015Y599535D02*
X254508Y605028D01*
X249015Y599535D02*
X249015Y593686D01*
X248920Y591820D02*
X246785Y589685D01*
X234085Y589685D01*
X232410Y588010D01*
X232410Y580390D01*
X233680Y579120D01*
D15*
X233680Y579120D03*
X276380Y208280D03*
D17*
X327660Y208280D01*
X342900Y193040D01*
X351790Y193040D01*
D15*
X351790Y193040D03*
D17*
X424180Y641350D02*
X424180Y695960D01*
D15*
X481080Y498860D03*
D17*
X481080Y398858D01*
X481158Y398780D01*
D15*
X481158Y398780D03*
X290830Y290830D03*
D17*
X274320Y290830D01*
D15*
X274320Y290830D03*
X247678Y614680D03*
D17*
X421640Y614680D01*
X427990Y621030D02*
X441960Y621030D01*
X449580Y628650D01*
X449580Y641350D01*
X427990Y621030D02*
X421640Y614680D01*
X283210Y750570D02*
X283210Y778510D01*
X288290Y745490D02*
X289560Y745490D01*
D15*
X339090Y745490D03*
D17*
X289560Y745490D01*
X288290Y745490D02*
X283210Y750570D01*
X289560Y745490D02*
X283210Y739140D01*
X283210Y675640D01*
D15*
X283210Y506730D03*
D17*
X283210Y472440D01*
D15*
X415826Y318770D03*
D16*
X416696Y319640D01*
X459740Y319640D01*
D17*
X370840Y59690D02*
X373380Y57150D01*
D15*
X373380Y57150D03*
X469900Y497840D03*
D17*
X459740Y508000D01*
X456046Y508000D01*
X441568Y522478D01*
X369615Y522478D01*
X352552Y505415D01*
X352552Y363381D01*
X356616Y359317D01*
X356616Y262912D01*
X361188Y258340D01*
X361188Y163206D01*
X364432Y159962D01*
X365702Y158692D01*
X370840Y153554D01*
X370840Y59690D01*
D18*
X31750Y585070D02*
X31750Y597789D01*
X37465Y603504D01*
X176149Y603504D01*
X181737Y597916D01*
X181737Y572897D01*
X181610Y572770D01*
X95777Y535070D02*
X31750Y535070D01*
X95777Y535070D02*
X105410Y544703D01*
X105410Y572770D01*
D15*
X459740Y497840D03*
D17*
X439674Y517906D01*
X371509Y517906D02*
X357124Y503521D01*
X357124Y365274D02*
X361188Y361210D01*
X370840Y160020D02*
X374650Y160020D01*
D15*
X374650Y160020D03*
D17*
X371509Y517906D02*
X439674Y517906D01*
X357124Y503521D02*
X357124Y365274D01*
X361188Y361210D02*
X361188Y264806D01*
X365760Y260234D01*
X365760Y165100D01*
X370840Y160020D01*
D15*
X448988Y498411D03*
D17*
X434065Y513334D01*
X373402Y513334D02*
X361696Y501628D01*
X365760Y266700D02*
X370840Y261620D01*
X373380Y261620D01*
D15*
X373380Y261620D03*
D17*
X373402Y513334D02*
X434065Y513334D01*
X361696Y501628D02*
X361696Y367168D01*
X365760Y363104D01*
X365760Y266700D01*
D15*
X439900Y497840D03*
D17*
X437360Y500380D01*
X437360Y500669D01*
X429267Y508762D01*
X375296Y508762D02*
X366268Y499734D01*
X372110Y363220D02*
X373380Y363220D01*
D15*
X373380Y363220D03*
D17*
X375296Y508762D02*
X429267Y508762D01*
X366268Y499734D02*
X366268Y369062D01*
X372110Y363220D01*
D15*
X430530Y497840D03*
D17*
X424180Y504190D01*
X373380Y464820D02*
X370840Y467360D01*
D15*
X373380Y464820D03*
D17*
X377190Y504190D02*
X424180Y504190D01*
X377190Y504190D02*
X370840Y497840D01*
X370840Y467360D01*
D15*
X403380Y539750D03*
D17*
X417040Y539750D01*
D15*
X417040Y539750D03*
D18*
X93745Y27070D02*
X31750Y27070D01*
X105410Y38735D02*
X105410Y66040D01*
X105410Y38735D02*
X93745Y27070D01*
X31750Y77070D02*
X31750Y87376D01*
X37719Y93345D01*
X176276Y93345D01*
X181737Y87884D01*
X181610Y87757D02*
X181610Y66040D01*
X181610Y87757D02*
X181737Y87884D01*
X90697Y128670D02*
X31750Y128670D01*
X90697Y128670D02*
X105664Y143637D01*
X105664Y167386D01*
X105410Y167640D01*
X31750Y178670D02*
X31750Y191770D01*
X37465Y197485D01*
X175768Y197485D01*
X181610Y191643D02*
X181610Y167640D01*
X181610Y191643D02*
X175768Y197485D01*
X97936Y230270D02*
X31750Y230270D01*
X105410Y237744D02*
X105410Y269240D01*
X105410Y237744D02*
X97936Y230270D01*
X181610Y269240D02*
X182499Y270129D01*
X31750Y280270D02*
X31750Y294386D01*
X36830Y299466D01*
X167767Y299466D01*
X182499Y284734D01*
X182499Y270129D01*
X98190Y331870D02*
X31750Y331870D01*
X98190Y331870D02*
X105410Y339090D01*
X105410Y370840D01*
X31750Y381870D02*
X31750Y395351D01*
X37211Y400812D01*
X174117Y400812D01*
X181610Y393319D01*
X181610Y370840D01*
X31750Y483470D02*
X31750Y496316D01*
X38100Y502666D01*
X174625Y502666D01*
X181610Y495681D01*
X181610Y472440D01*
X96793Y433470D02*
X31750Y433470D01*
X96793Y433470D02*
X105410Y442087D01*
X105410Y472440D01*
X95777Y738270D02*
X31750Y738270D01*
X95777Y738270D02*
X105410Y747903D01*
X105410Y778510D01*
X170307Y806958D02*
X182499Y794766D01*
X170307Y806958D02*
X37846Y806958D01*
X31750Y800862D02*
X31750Y788270D01*
X181610Y778510D02*
X182499Y779399D01*
X182499Y794766D01*
X37846Y806958D02*
X31750Y800862D01*
X31750Y698627D02*
X31750Y686670D01*
X181610Y695198D02*
X181610Y675640D01*
X39116Y705993D02*
X31750Y698627D01*
X39116Y705993D02*
X170815Y705993D01*
X181610Y695198D01*
X106172Y674878D02*
X105410Y675640D01*
X96666Y636670D02*
X31750Y636670D01*
X106172Y646176D02*
X106172Y674878D01*
X106172Y646176D02*
X96666Y636670D01*
D16*
X115744Y776454D02*
X115744Y780566D01*
X114171Y784364D01*
X111264Y787271D01*
X107466Y788844D01*
X103354Y788844D01*
X99556Y787271D01*
X96649Y784364D01*
X95076Y780566D01*
X95076Y776454D01*
X96266Y773582D01*
X96266Y751691D01*
X91989Y747414D01*
X48285Y747414D01*
X47431Y748268D01*
X43096Y750064D01*
X20404Y750064D01*
X16069Y748268D01*
X12752Y744951D01*
X11430Y741760D01*
X11430Y784780D01*
X12752Y781589D01*
X16069Y778272D01*
X20404Y776476D01*
X43096Y776476D01*
X47431Y778272D01*
X50748Y781589D01*
X52544Y785924D01*
X52544Y790616D01*
X50748Y794951D01*
X47885Y797814D01*
X166519Y797814D01*
X173355Y790978D01*
X173355Y784869D01*
X172849Y784364D01*
X171276Y780566D01*
X171276Y776454D01*
X172849Y772656D01*
X175756Y769749D01*
X179554Y768176D01*
X183666Y768176D01*
X187464Y769749D01*
X187579Y769865D01*
X187579Y702161D01*
X175995Y713745D01*
X172634Y715137D01*
X37297Y715137D01*
X33936Y713745D01*
X31364Y711173D01*
X23998Y703807D01*
X22606Y700446D01*
X22606Y698464D01*
X20404Y698464D01*
X16069Y696668D01*
X12752Y693351D01*
X11430Y690160D01*
X11430Y734780D01*
X12752Y731589D01*
X16069Y728272D01*
X20404Y726476D01*
X43096Y726476D01*
X47431Y728272D01*
X48285Y729126D01*
X97596Y729126D01*
X100957Y730518D01*
X110590Y740151D01*
X113162Y742723D01*
X114554Y746084D01*
X114554Y773582D01*
X115744Y776454D01*
X172466Y680568D02*
X171276Y677696D01*
X171276Y673584D01*
X172849Y669786D01*
X175756Y666879D01*
X179554Y665306D01*
X183666Y665306D01*
X187464Y666879D01*
X187579Y666995D01*
X187579Y605006D01*
X186917Y605668D01*
X181329Y611256D01*
X177968Y612648D01*
X35646Y612648D01*
X32285Y611256D01*
X29713Y608684D01*
X23998Y602969D01*
X22606Y599608D01*
X22606Y596864D01*
X20404Y596864D01*
X16069Y595068D01*
X12752Y591751D01*
X11430Y588560D01*
X11430Y633180D01*
X12752Y629989D01*
X16069Y626672D01*
X20404Y624876D01*
X43096Y624876D01*
X47431Y626672D01*
X48285Y627526D01*
X98485Y627526D01*
X101846Y628918D01*
X113924Y640996D01*
X115316Y644357D01*
X115316Y672551D01*
X115744Y673584D01*
X115744Y677696D01*
X114171Y681494D01*
X111264Y684401D01*
X107466Y685974D01*
X103354Y685974D01*
X99556Y684401D01*
X96649Y681494D01*
X95076Y677696D01*
X95076Y673584D01*
X96649Y669786D01*
X97028Y669408D01*
X97028Y649964D01*
X92878Y645814D01*
X48285Y645814D01*
X47431Y646668D01*
X43096Y648464D01*
X20404Y648464D01*
X16069Y646668D01*
X12752Y643351D01*
X11430Y640160D01*
X11430Y683180D01*
X12752Y679989D01*
X16069Y676672D01*
X20404Y674876D01*
X43096Y674876D01*
X47431Y676672D01*
X50748Y679989D01*
X52544Y684324D01*
X52544Y689016D01*
X50748Y693351D01*
X47431Y696668D01*
X46995Y696849D01*
X167027Y696849D01*
X172466Y691410D01*
X172466Y680568D01*
X20404Y800064D02*
X16069Y798268D01*
X12752Y794951D01*
X11430Y791760D01*
X11430Y835905D01*
X14398Y830764D01*
X20504Y824658D01*
X27982Y820341D01*
X36323Y818106D01*
X44957Y818106D01*
X53298Y820341D01*
X60776Y824658D01*
X66882Y830764D01*
X71199Y838242D01*
X73434Y846583D01*
X73434Y855217D01*
X71199Y863558D01*
X66882Y871036D01*
X60776Y877142D01*
X54755Y880618D01*
X198120Y880618D01*
X198120Y803021D01*
X197041Y803021D01*
X192700Y801223D01*
X190594Y799117D01*
X190251Y799946D01*
X187679Y802518D01*
X178059Y812138D01*
X175487Y814710D01*
X172126Y816102D01*
X36027Y816102D01*
X32666Y814710D01*
X23998Y806042D01*
X22606Y802681D01*
X22606Y800064D01*
X20404Y800064D01*
X35646Y206629D02*
X32285Y205237D01*
X29713Y202665D01*
X23998Y196950D01*
X22606Y193589D01*
X22606Y190464D01*
X20404Y190464D01*
X16069Y188668D01*
X12752Y185351D01*
X11430Y182160D01*
X11430Y226780D01*
X12752Y223589D01*
X16069Y220272D01*
X20404Y218476D01*
X43096Y218476D01*
X47431Y220272D01*
X48285Y221126D01*
X99755Y221126D01*
X103116Y222518D01*
X113162Y232564D01*
X114554Y235925D01*
X114554Y264312D01*
X115744Y267184D01*
X115744Y271296D01*
X114171Y275094D01*
X111264Y278001D01*
X107466Y279574D01*
X103354Y279574D01*
X99556Y278001D01*
X96649Y275094D01*
X95076Y271296D01*
X95076Y267184D01*
X96266Y264312D01*
X96266Y241532D01*
X94148Y239414D01*
X48285Y239414D01*
X47431Y240268D01*
X43096Y242064D01*
X20404Y242064D01*
X16069Y240268D01*
X12752Y236951D01*
X11430Y233760D01*
X11430Y276780D01*
X12752Y273589D01*
X16069Y270272D01*
X20404Y268476D01*
X43096Y268476D01*
X47431Y270272D01*
X50748Y273589D01*
X52544Y277924D01*
X52544Y282616D01*
X50748Y286951D01*
X47431Y290268D01*
X47301Y290322D01*
X163979Y290322D01*
X173355Y280946D01*
X173355Y275599D01*
X172849Y275094D01*
X171276Y271296D01*
X171276Y267184D01*
X172849Y263386D01*
X175756Y260479D01*
X179554Y258906D01*
X183666Y258906D01*
X187464Y260479D01*
X187579Y260595D01*
X187579Y198606D01*
X180948Y205237D01*
X177587Y206629D01*
X173949Y206629D01*
X35646Y206629D01*
X31650Y307218D02*
X35011Y308610D01*
X31650Y307218D02*
X29078Y304646D01*
X23998Y299566D01*
X22606Y296205D01*
X22606Y292064D01*
X20404Y292064D01*
X16069Y290268D01*
X12752Y286951D01*
X11430Y283760D01*
X11430Y328380D01*
X12752Y325189D01*
X16069Y321872D01*
X20404Y320076D01*
X43096Y320076D01*
X47431Y321872D01*
X48285Y322726D01*
X100009Y322726D01*
X103370Y324118D01*
X113162Y333910D01*
X114554Y337271D01*
X114554Y365912D01*
X115744Y368784D01*
X115744Y372896D01*
X114171Y376694D01*
X111264Y379601D01*
X107466Y381174D01*
X103354Y381174D01*
X99556Y379601D01*
X96649Y376694D01*
X95076Y372896D01*
X95076Y368784D01*
X96266Y365912D01*
X96266Y342878D01*
X94402Y341014D01*
X48285Y341014D01*
X47431Y341868D01*
X43096Y343664D01*
X20404Y343664D01*
X16069Y341868D01*
X12752Y338551D01*
X11430Y335360D01*
X11430Y378380D01*
X12752Y375189D01*
X16069Y371872D01*
X20404Y370076D01*
X43096Y370076D01*
X47431Y371872D01*
X50748Y375189D01*
X52544Y379524D01*
X52544Y384216D01*
X50748Y388551D01*
X47631Y391668D01*
X170329Y391668D01*
X172466Y389531D01*
X172466Y375768D01*
X171276Y372896D01*
X171276Y368784D01*
X172849Y364986D01*
X175756Y362079D01*
X179554Y360506D01*
X183666Y360506D01*
X187464Y362079D01*
X187579Y362195D01*
X187579Y292586D01*
X172947Y307218D01*
X169586Y308610D01*
X165948Y308610D01*
X35011Y308610D01*
X32920Y510418D02*
X36281Y511810D01*
X32920Y510418D02*
X30348Y507846D01*
X23998Y501496D01*
X22606Y498135D01*
X22606Y495264D01*
X20404Y495264D01*
X16069Y493468D01*
X12752Y490151D01*
X11430Y486960D01*
X11430Y531580D01*
X12752Y528389D01*
X16069Y525072D01*
X20404Y523276D01*
X43096Y523276D01*
X47431Y525072D01*
X48285Y525926D01*
X97596Y525926D01*
X100957Y527318D01*
X113162Y539523D01*
X114554Y542884D01*
X114554Y567842D01*
X115744Y570714D01*
X115744Y574826D01*
X114171Y578624D01*
X111264Y581531D01*
X107466Y583104D01*
X103354Y583104D01*
X99556Y581531D01*
X96649Y578624D01*
X95076Y574826D01*
X95076Y570714D01*
X96266Y567842D01*
X96266Y548491D01*
X91989Y544214D01*
X48285Y544214D01*
X47431Y545068D01*
X43096Y546864D01*
X20404Y546864D01*
X16069Y545068D01*
X12752Y541751D01*
X11430Y538560D01*
X11430Y581580D01*
X12752Y578389D01*
X16069Y575072D01*
X20404Y573276D01*
X43096Y573276D01*
X47431Y575072D01*
X50748Y578389D01*
X52544Y582724D01*
X52544Y587416D01*
X50748Y591751D01*
X48139Y594360D01*
X172361Y594360D01*
X172593Y594128D01*
X172593Y578005D01*
X171276Y574826D01*
X171276Y570714D01*
X172849Y566916D01*
X175756Y564009D01*
X179554Y562436D01*
X183666Y562436D01*
X187464Y564009D01*
X187579Y564125D01*
X187579Y502644D01*
X186790Y503433D01*
X179805Y510418D01*
X176444Y511810D01*
X172806Y511810D01*
X36281Y511810D01*
X35900Y102489D02*
X32539Y101097D01*
X29967Y98525D01*
X23998Y92556D01*
X22606Y89195D01*
X22606Y88864D01*
X20404Y88864D01*
X16069Y87068D01*
X12752Y83751D01*
X11430Y80560D01*
X11430Y125180D01*
X12752Y121989D01*
X16069Y118672D01*
X20404Y116876D01*
X43096Y116876D01*
X47431Y118672D01*
X48285Y119526D01*
X92516Y119526D01*
X95877Y120918D01*
X110844Y135885D01*
X113416Y138457D01*
X114808Y141818D01*
X114808Y163325D01*
X115744Y165584D01*
X115744Y169696D01*
X114171Y173494D01*
X111264Y176401D01*
X107466Y177974D01*
X103354Y177974D01*
X99556Y176401D01*
X96649Y173494D01*
X95076Y169696D01*
X95076Y165584D01*
X96520Y162098D01*
X96520Y147425D01*
X86909Y137814D01*
X48285Y137814D01*
X47431Y138668D01*
X43096Y140464D01*
X20404Y140464D01*
X16069Y138668D01*
X12752Y135351D01*
X11430Y132160D01*
X11430Y175180D01*
X12752Y171989D01*
X16069Y168672D01*
X20404Y166876D01*
X43096Y166876D01*
X47431Y168672D01*
X50748Y171989D01*
X52544Y176324D01*
X52544Y181016D01*
X50748Y185351D01*
X47758Y188341D01*
X171980Y188341D01*
X172466Y187855D01*
X172466Y172568D01*
X171276Y169696D01*
X171276Y165584D01*
X172849Y161786D01*
X175756Y158879D01*
X179554Y157306D01*
X183666Y157306D01*
X187464Y158879D01*
X187579Y158995D01*
X187579Y94974D01*
X186917Y95636D01*
X181456Y101097D01*
X178095Y102489D01*
X174457Y102489D01*
X35900Y102489D01*
X115744Y68096D02*
X115744Y63984D01*
X115744Y68096D02*
X114171Y71894D01*
X111264Y74801D01*
X107466Y76374D01*
X103354Y76374D01*
X99556Y74801D01*
X96649Y71894D01*
X95076Y68096D01*
X95076Y63984D01*
X96266Y61112D01*
X96266Y42523D01*
X89957Y36214D01*
X48285Y36214D01*
X47431Y37068D01*
X43096Y38864D01*
X20404Y38864D01*
X16069Y37068D01*
X12752Y33751D01*
X11430Y30560D01*
X11430Y73580D01*
X12752Y70389D01*
X16069Y67072D01*
X20404Y65276D01*
X43096Y65276D01*
X47431Y67072D01*
X50748Y70389D01*
X52544Y74724D01*
X52544Y79416D01*
X50748Y83751D01*
X50298Y84201D01*
X172466Y84201D01*
X172466Y70968D01*
X171276Y68096D01*
X171276Y63984D01*
X172849Y60186D01*
X175756Y57279D01*
X179554Y55706D01*
X183666Y55706D01*
X187464Y57279D01*
X187579Y57395D01*
X187579Y20511D01*
X189377Y16170D01*
X192700Y12847D01*
X197041Y11049D01*
X198120Y11049D01*
X198120Y-67310D01*
X55635Y-67310D01*
X60776Y-64342D01*
X66882Y-58236D01*
X71199Y-50758D01*
X73434Y-42417D01*
X73434Y-33783D01*
X71199Y-25442D01*
X66882Y-17964D01*
X60776Y-11858D01*
X53298Y-7541D01*
X44957Y-5306D01*
X36323Y-5306D01*
X27982Y-7541D01*
X20504Y-11858D01*
X14398Y-17964D01*
X11430Y-23105D01*
X11430Y23580D01*
X12752Y20389D01*
X16069Y17072D01*
X20404Y15276D01*
X43096Y15276D01*
X47431Y17072D01*
X48285Y17926D01*
X95564Y17926D01*
X98925Y19318D01*
X113162Y33555D01*
X114554Y36916D01*
X114554Y61112D01*
X115744Y63984D01*
X0Y-71098D02*
X0Y-78740D01*
X0Y-71098D02*
X7642Y-78740D01*
X0Y-78740D01*
X0Y891540D02*
X7432Y891540D01*
X0Y884108D01*
X0Y891540D01*
X115744Y474496D02*
X115744Y470384D01*
X115744Y474496D02*
X114171Y478294D01*
X111264Y481201D01*
X107466Y482774D01*
X103354Y482774D01*
X99556Y481201D01*
X96649Y478294D01*
X95076Y474496D01*
X95076Y470384D01*
X96266Y467512D01*
X96266Y445875D01*
X93005Y442614D01*
X48285Y442614D01*
X47431Y443468D01*
X43096Y445264D01*
X20404Y445264D01*
X16069Y443468D01*
X12752Y440151D01*
X11430Y436960D01*
X11430Y479980D01*
X12752Y476789D01*
X16069Y473472D01*
X20404Y471676D01*
X43096Y471676D01*
X47431Y473472D01*
X50748Y476789D01*
X52544Y481124D01*
X52544Y485816D01*
X50748Y490151D01*
X47431Y493468D01*
X47301Y493522D01*
X170837Y493522D01*
X172466Y491893D01*
X172466Y477368D01*
X171276Y474496D01*
X171276Y470384D01*
X172849Y466586D01*
X175756Y463679D01*
X179554Y462106D01*
X183666Y462106D01*
X187464Y463679D01*
X187579Y463795D01*
X187579Y400282D01*
X186790Y401071D01*
X179297Y408564D01*
X175936Y409956D01*
X35392Y409956D01*
X32031Y408564D01*
X29459Y405992D01*
X29459Y405992D01*
X23998Y400531D01*
X22606Y397170D01*
X22606Y393664D01*
X20404Y393664D01*
X16069Y391868D01*
X12752Y388551D01*
X11430Y385360D01*
X11430Y429980D01*
X12752Y426789D01*
X16069Y423472D01*
X20404Y421676D01*
X43096Y421676D01*
X47431Y423472D01*
X48285Y424326D01*
X98612Y424326D01*
X101973Y425718D01*
X110590Y434335D01*
X113162Y436907D01*
X114554Y440268D01*
X114554Y467512D01*
X115744Y470384D01*
X4902Y-76000D02*
X0Y-76000D01*
X0Y-72000D02*
X902Y-72000D01*
X61118Y-64000D02*
X198120Y-64000D01*
X198120Y-60000D02*
X65118Y-60000D01*
X68173Y-56000D02*
X198120Y-56000D01*
X198120Y-52000D02*
X70482Y-52000D01*
X71938Y-48000D02*
X198120Y-48000D01*
X198120Y-44000D02*
X73010Y-44000D01*
X73434Y-40000D02*
X198120Y-40000D01*
X198120Y-36000D02*
X73434Y-36000D01*
X72956Y-32000D02*
X198120Y-32000D01*
X198120Y-28000D02*
X71885Y-28000D01*
X70367Y-24000D02*
X198120Y-24000D01*
X13223Y-20000D02*
X11430Y-20000D01*
X68057Y-20000D02*
X198120Y-20000D01*
X16362Y-16000D02*
X11430Y-16000D01*
X64918Y-16000D02*
X198120Y-16000D01*
X20362Y-12000D02*
X11430Y-12000D01*
X60918Y-12000D02*
X198120Y-12000D01*
X27187Y-8000D02*
X11430Y-8000D01*
X54093Y-8000D02*
X198120Y-8000D01*
X198120Y-4000D02*
X11430Y-4000D01*
X11430Y0D02*
X198120Y0D01*
X198120Y4000D02*
X11430Y4000D01*
X11430Y8000D02*
X198120Y8000D01*
X194745Y12000D02*
X11430Y12000D01*
X11430Y16000D02*
X18656Y16000D01*
X44844Y16000D02*
X189547Y16000D01*
X13141Y20000D02*
X11430Y20000D01*
X99607Y20000D02*
X187791Y20000D01*
X187579Y24000D02*
X103607Y24000D01*
X107607Y28000D02*
X187579Y28000D01*
X12026Y32000D02*
X11430Y32000D01*
X111607Y32000D02*
X187579Y32000D01*
X15001Y36000D02*
X11430Y36000D01*
X114174Y36000D02*
X187579Y36000D01*
X93743Y40000D02*
X11430Y40000D01*
X114554Y40000D02*
X187579Y40000D01*
X96266Y44000D02*
X11430Y44000D01*
X114554Y44000D02*
X187579Y44000D01*
X96266Y48000D02*
X11430Y48000D01*
X114554Y48000D02*
X187579Y48000D01*
X96266Y52000D02*
X11430Y52000D01*
X114554Y52000D02*
X187579Y52000D01*
X96266Y56000D02*
X11430Y56000D01*
X114554Y56000D02*
X178845Y56000D01*
X184375Y56000D02*
X187579Y56000D01*
X96266Y60000D02*
X11430Y60000D01*
X114554Y60000D02*
X173036Y60000D01*
X95076Y64000D02*
X11430Y64000D01*
X115744Y64000D02*
X171276Y64000D01*
X15141Y68000D02*
X11430Y68000D01*
X48359Y68000D02*
X95076Y68000D01*
X115744Y68000D02*
X171276Y68000D01*
X12084Y72000D02*
X11430Y72000D01*
X51416Y72000D02*
X96756Y72000D01*
X114064Y72000D02*
X172466Y72000D01*
X102452Y76000D02*
X52544Y76000D01*
X108368Y76000D02*
X172466Y76000D01*
X172466Y80000D02*
X52302Y80000D01*
X13001Y84000D02*
X11430Y84000D01*
X50499Y84000D02*
X172466Y84000D01*
X18318Y88000D02*
X11430Y88000D01*
X11430Y92000D02*
X23768Y92000D01*
X27442Y96000D02*
X11430Y96000D01*
X186553Y96000D02*
X187579Y96000D01*
X31442Y100000D02*
X11430Y100000D01*
X182553Y100000D02*
X187579Y100000D01*
X187579Y104000D02*
X11430Y104000D01*
X11430Y108000D02*
X187579Y108000D01*
X187579Y112000D02*
X11430Y112000D01*
X11430Y116000D02*
X187579Y116000D01*
X14741Y120000D02*
X11430Y120000D01*
X93660Y120000D02*
X187579Y120000D01*
X11919Y124000D02*
X11430Y124000D01*
X98959Y124000D02*
X187579Y124000D01*
X187579Y128000D02*
X102959Y128000D01*
X106959Y132000D02*
X187579Y132000D01*
X13401Y136000D02*
X11430Y136000D01*
X110959Y136000D02*
X187579Y136000D01*
X19284Y140000D02*
X11430Y140000D01*
X44216Y140000D02*
X89095Y140000D01*
X114055Y140000D02*
X187579Y140000D01*
X93095Y144000D02*
X11430Y144000D01*
X114808Y144000D02*
X187579Y144000D01*
X96520Y148000D02*
X11430Y148000D01*
X114808Y148000D02*
X187579Y148000D01*
X96520Y152000D02*
X11430Y152000D01*
X114808Y152000D02*
X187579Y152000D01*
X96520Y156000D02*
X11430Y156000D01*
X114808Y156000D02*
X187579Y156000D01*
X96520Y160000D02*
X11430Y160000D01*
X114808Y160000D02*
X174636Y160000D01*
X95732Y164000D02*
X11430Y164000D01*
X115088Y164000D02*
X171932Y164000D01*
X17690Y168000D02*
X11430Y168000D01*
X45810Y168000D02*
X95076Y168000D01*
X115744Y168000D02*
X171276Y168000D01*
X12747Y172000D02*
X11430Y172000D01*
X50753Y172000D02*
X96031Y172000D01*
X114789Y172000D02*
X172231Y172000D01*
X99156Y176000D02*
X52410Y176000D01*
X111664Y176000D02*
X172466Y176000D01*
X172466Y180000D02*
X52544Y180000D01*
X12192Y184000D02*
X11430Y184000D01*
X51308Y184000D02*
X172466Y184000D01*
X15401Y188000D02*
X11430Y188000D01*
X48099Y188000D02*
X172321Y188000D01*
X22606Y192000D02*
X11430Y192000D01*
X11430Y196000D02*
X23605Y196000D01*
X27048Y200000D02*
X11430Y200000D01*
X186185Y200000D02*
X187579Y200000D01*
X31048Y204000D02*
X11430Y204000D01*
X182185Y204000D02*
X187579Y204000D01*
X187579Y208000D02*
X11430Y208000D01*
X11430Y212000D02*
X187579Y212000D01*
X187579Y216000D02*
X11430Y216000D01*
X11430Y220000D02*
X16725Y220000D01*
X46775Y220000D02*
X187579Y220000D01*
X12581Y224000D02*
X11430Y224000D01*
X104598Y224000D02*
X187579Y224000D01*
X187579Y228000D02*
X108598Y228000D01*
X112598Y232000D02*
X187579Y232000D01*
X12358Y236000D02*
X11430Y236000D01*
X114554Y236000D02*
X187579Y236000D01*
X15801Y240000D02*
X11430Y240000D01*
X47699Y240000D02*
X94734Y240000D01*
X114554Y240000D02*
X187579Y240000D01*
X96266Y244000D02*
X11430Y244000D01*
X114554Y244000D02*
X187579Y244000D01*
X96266Y248000D02*
X11430Y248000D01*
X114554Y248000D02*
X187579Y248000D01*
X96266Y252000D02*
X11430Y252000D01*
X114554Y252000D02*
X187579Y252000D01*
X96266Y256000D02*
X11430Y256000D01*
X114554Y256000D02*
X187579Y256000D01*
X96266Y260000D02*
X11430Y260000D01*
X114554Y260000D02*
X176913Y260000D01*
X186307Y260000D02*
X187579Y260000D01*
X96266Y264000D02*
X11430Y264000D01*
X114554Y264000D02*
X172595Y264000D01*
X95076Y268000D02*
X11430Y268000D01*
X115744Y268000D02*
X171276Y268000D01*
X14341Y272000D02*
X11430Y272000D01*
X49159Y272000D02*
X95368Y272000D01*
X115452Y272000D02*
X171568Y272000D01*
X11753Y276000D02*
X11430Y276000D01*
X51747Y276000D02*
X97556Y276000D01*
X113264Y276000D02*
X173355Y276000D01*
X173355Y280000D02*
X52544Y280000D01*
X11529Y284000D02*
X11430Y284000D01*
X51971Y284000D02*
X170301Y284000D01*
X13801Y288000D02*
X11430Y288000D01*
X49699Y288000D02*
X166301Y288000D01*
X20250Y292000D02*
X11430Y292000D01*
X11430Y296000D02*
X22606Y296000D01*
X184165Y296000D02*
X187579Y296000D01*
X24432Y300000D02*
X11430Y300000D01*
X180165Y300000D02*
X187579Y300000D01*
X28432Y304000D02*
X11430Y304000D01*
X176165Y304000D02*
X187579Y304000D01*
X33539Y308000D02*
X11430Y308000D01*
X171058Y308000D02*
X187579Y308000D01*
X187579Y312000D02*
X11430Y312000D01*
X11430Y316000D02*
X187579Y316000D01*
X187579Y320000D02*
X11430Y320000D01*
X11430Y324000D02*
X13941Y324000D01*
X103085Y324000D02*
X187579Y324000D01*
X11587Y328000D02*
X11430Y328000D01*
X107252Y328000D02*
X187579Y328000D01*
X187579Y332000D02*
X111252Y332000D01*
X11695Y336000D02*
X11430Y336000D01*
X114027Y336000D02*
X187579Y336000D01*
X14201Y340000D02*
X11430Y340000D01*
X114554Y340000D02*
X187579Y340000D01*
X96266Y344000D02*
X11430Y344000D01*
X114554Y344000D02*
X187579Y344000D01*
X96266Y348000D02*
X11430Y348000D01*
X114554Y348000D02*
X187579Y348000D01*
X96266Y352000D02*
X11430Y352000D01*
X114554Y352000D02*
X187579Y352000D01*
X96266Y356000D02*
X11430Y356000D01*
X114554Y356000D02*
X187579Y356000D01*
X96266Y360000D02*
X11430Y360000D01*
X114554Y360000D02*
X187579Y360000D01*
X96266Y364000D02*
X11430Y364000D01*
X114554Y364000D02*
X173836Y364000D01*
X95401Y368000D02*
X11430Y368000D01*
X115419Y368000D02*
X171601Y368000D01*
X15941Y372000D02*
X11430Y372000D01*
X47559Y372000D02*
X95076Y372000D01*
X115744Y372000D02*
X171276Y372000D01*
X12416Y376000D02*
X11430Y376000D01*
X51084Y376000D02*
X96362Y376000D01*
X114458Y376000D02*
X172466Y376000D01*
X100520Y380000D02*
X52544Y380000D01*
X110300Y380000D02*
X172466Y380000D01*
X172466Y384000D02*
X52544Y384000D01*
X12523Y388000D02*
X11430Y388000D01*
X50977Y388000D02*
X172466Y388000D01*
X16387Y392000D02*
X11430Y392000D01*
X11430Y396000D02*
X22606Y396000D01*
X23778Y400000D02*
X11430Y400000D01*
X11430Y404000D02*
X27467Y404000D01*
X183861Y404000D02*
X187579Y404000D01*
X31467Y408000D02*
X11430Y408000D01*
X179861Y408000D02*
X187579Y408000D01*
X187579Y412000D02*
X11430Y412000D01*
X11430Y416000D02*
X187579Y416000D01*
X187579Y420000D02*
X11430Y420000D01*
X11430Y424000D02*
X15541Y424000D01*
X47959Y424000D02*
X187579Y424000D01*
X12250Y428000D02*
X11430Y428000D01*
X104255Y428000D02*
X187579Y428000D01*
X187579Y432000D02*
X108255Y432000D01*
X112255Y436000D02*
X187579Y436000D01*
X12689Y440000D02*
X11430Y440000D01*
X114443Y440000D02*
X187579Y440000D01*
X17353Y444000D02*
X11430Y444000D01*
X46147Y444000D02*
X94391Y444000D01*
X114554Y444000D02*
X187579Y444000D01*
X96266Y448000D02*
X11430Y448000D01*
X114554Y448000D02*
X187579Y448000D01*
X96266Y452000D02*
X11430Y452000D01*
X114554Y452000D02*
X187579Y452000D01*
X96266Y456000D02*
X11430Y456000D01*
X114554Y456000D02*
X187579Y456000D01*
X96266Y460000D02*
X11430Y460000D01*
X114554Y460000D02*
X187579Y460000D01*
X96266Y464000D02*
X11430Y464000D01*
X114554Y464000D02*
X175436Y464000D01*
X96064Y468000D02*
X11430Y468000D01*
X114756Y468000D02*
X172264Y468000D01*
X19622Y472000D02*
X11430Y472000D01*
X43878Y472000D02*
X95076Y472000D01*
X115744Y472000D02*
X171276Y472000D01*
X13541Y476000D02*
X11430Y476000D01*
X49959Y476000D02*
X95699Y476000D01*
X115121Y476000D02*
X171899Y476000D01*
X98356Y480000D02*
X52078Y480000D01*
X112464Y480000D02*
X172466Y480000D01*
X172466Y484000D02*
X52544Y484000D01*
X11861Y488000D02*
X11430Y488000D01*
X51639Y488000D02*
X172466Y488000D01*
X14601Y492000D02*
X11430Y492000D01*
X48899Y492000D02*
X172359Y492000D01*
X22606Y496000D02*
X11430Y496000D01*
X11430Y500000D02*
X23379Y500000D01*
X26502Y504000D02*
X11430Y504000D01*
X186223Y504000D02*
X187579Y504000D01*
X30502Y508000D02*
X11430Y508000D01*
X182223Y508000D02*
X187579Y508000D01*
X187579Y512000D02*
X11430Y512000D01*
X11430Y516000D02*
X187579Y516000D01*
X187579Y520000D02*
X11430Y520000D01*
X11430Y524000D02*
X18656Y524000D01*
X44844Y524000D02*
X187579Y524000D01*
X13141Y528000D02*
X11430Y528000D01*
X101639Y528000D02*
X187579Y528000D01*
X187579Y532000D02*
X105639Y532000D01*
X109639Y536000D02*
X187579Y536000D01*
X12026Y540000D02*
X11430Y540000D01*
X113359Y540000D02*
X187579Y540000D01*
X15001Y544000D02*
X11430Y544000D01*
X114554Y544000D02*
X187579Y544000D01*
X95775Y548000D02*
X11430Y548000D01*
X114554Y548000D02*
X187579Y548000D01*
X96266Y552000D02*
X11430Y552000D01*
X114554Y552000D02*
X187579Y552000D01*
X96266Y556000D02*
X11430Y556000D01*
X114554Y556000D02*
X187579Y556000D01*
X96266Y560000D02*
X11430Y560000D01*
X114554Y560000D02*
X187579Y560000D01*
X96266Y564000D02*
X11430Y564000D01*
X114554Y564000D02*
X175779Y564000D01*
X187441Y564000D02*
X187579Y564000D01*
X96200Y568000D02*
X11430Y568000D01*
X114620Y568000D02*
X172400Y568000D01*
X95076Y572000D02*
X11430Y572000D01*
X115744Y572000D02*
X171276Y572000D01*
X15141Y576000D02*
X11430Y576000D01*
X48359Y576000D02*
X95562Y576000D01*
X115258Y576000D02*
X171763Y576000D01*
X12084Y580000D02*
X11430Y580000D01*
X51416Y580000D02*
X98026Y580000D01*
X112794Y580000D02*
X172593Y580000D01*
X172593Y584000D02*
X52544Y584000D01*
X52302Y588000D02*
X172593Y588000D01*
X13001Y592000D02*
X11430Y592000D01*
X50499Y592000D02*
X172593Y592000D01*
X18318Y596000D02*
X11430Y596000D01*
X11430Y600000D02*
X22768Y600000D01*
X25029Y604000D02*
X11430Y604000D01*
X11430Y608000D02*
X29029Y608000D01*
X184585Y608000D02*
X187579Y608000D01*
X34082Y612000D02*
X11430Y612000D01*
X179532Y612000D02*
X187579Y612000D01*
X187579Y616000D02*
X11430Y616000D01*
X11430Y620000D02*
X187579Y620000D01*
X187579Y624000D02*
X11430Y624000D01*
X11430Y628000D02*
X14741Y628000D01*
X99629Y628000D02*
X187579Y628000D01*
X11919Y632000D02*
X11430Y632000D01*
X104928Y632000D02*
X187579Y632000D01*
X187579Y636000D02*
X108928Y636000D01*
X112928Y640000D02*
X187579Y640000D01*
X13401Y644000D02*
X11430Y644000D01*
X115168Y644000D02*
X187579Y644000D01*
X19284Y648000D02*
X11430Y648000D01*
X44216Y648000D02*
X95064Y648000D01*
X115316Y648000D02*
X187579Y648000D01*
X97028Y652000D02*
X11430Y652000D01*
X115316Y652000D02*
X187579Y652000D01*
X97028Y656000D02*
X11430Y656000D01*
X115316Y656000D02*
X187579Y656000D01*
X97028Y660000D02*
X11430Y660000D01*
X115316Y660000D02*
X187579Y660000D01*
X97028Y664000D02*
X11430Y664000D01*
X115316Y664000D02*
X187579Y664000D01*
X97028Y668000D02*
X11430Y668000D01*
X115316Y668000D02*
X174636Y668000D01*
X95732Y672000D02*
X11430Y672000D01*
X115316Y672000D02*
X171932Y672000D01*
X17690Y676000D02*
X11430Y676000D01*
X45810Y676000D02*
X95076Y676000D01*
X115744Y676000D02*
X171276Y676000D01*
X12747Y680000D02*
X11430Y680000D01*
X50753Y680000D02*
X96031Y680000D01*
X114789Y680000D02*
X172231Y680000D01*
X99156Y684000D02*
X52410Y684000D01*
X111664Y684000D02*
X172466Y684000D01*
X172466Y688000D02*
X52544Y688000D01*
X12192Y692000D02*
X11430Y692000D01*
X51308Y692000D02*
X171876Y692000D01*
X15401Y696000D02*
X11430Y696000D01*
X48099Y696000D02*
X167876Y696000D01*
X22606Y700000D02*
X11430Y700000D01*
X11430Y704000D02*
X24191Y704000D01*
X185740Y704000D02*
X187579Y704000D01*
X28191Y708000D02*
X11430Y708000D01*
X181740Y708000D02*
X187579Y708000D01*
X32191Y712000D02*
X11430Y712000D01*
X177740Y712000D02*
X187579Y712000D01*
X187579Y716000D02*
X11430Y716000D01*
X11430Y720000D02*
X187579Y720000D01*
X187579Y724000D02*
X11430Y724000D01*
X11430Y728000D02*
X16725Y728000D01*
X46775Y728000D02*
X187579Y728000D01*
X12581Y732000D02*
X11430Y732000D01*
X102439Y732000D02*
X187579Y732000D01*
X187579Y736000D02*
X106439Y736000D01*
X110439Y740000D02*
X187579Y740000D01*
X12358Y744000D02*
X11430Y744000D01*
X113691Y744000D02*
X187579Y744000D01*
X15801Y748000D02*
X11430Y748000D01*
X47699Y748000D02*
X92575Y748000D01*
X114554Y748000D02*
X187579Y748000D01*
X96266Y752000D02*
X11430Y752000D01*
X114554Y752000D02*
X187579Y752000D01*
X96266Y756000D02*
X11430Y756000D01*
X114554Y756000D02*
X187579Y756000D01*
X96266Y760000D02*
X11430Y760000D01*
X114554Y760000D02*
X187579Y760000D01*
X96266Y764000D02*
X11430Y764000D01*
X114554Y764000D02*
X187579Y764000D01*
X96266Y768000D02*
X11430Y768000D01*
X114554Y768000D02*
X187579Y768000D01*
X96266Y772000D02*
X11430Y772000D01*
X114554Y772000D02*
X173506Y772000D01*
X95264Y776000D02*
X11430Y776000D01*
X115556Y776000D02*
X171464Y776000D01*
X14341Y780000D02*
X11430Y780000D01*
X49159Y780000D02*
X95076Y780000D01*
X115744Y780000D02*
X171276Y780000D01*
X11753Y784000D02*
X11430Y784000D01*
X51747Y784000D02*
X96499Y784000D01*
X114321Y784000D02*
X172699Y784000D01*
X101317Y788000D02*
X52544Y788000D01*
X109503Y788000D02*
X173355Y788000D01*
X11529Y792000D02*
X11430Y792000D01*
X51971Y792000D02*
X172333Y792000D01*
X13801Y796000D02*
X11430Y796000D01*
X49699Y796000D02*
X168333Y796000D01*
X20250Y800000D02*
X11430Y800000D01*
X190197Y800000D02*
X191477Y800000D01*
X23152Y804000D02*
X11430Y804000D01*
X186197Y804000D02*
X198120Y804000D01*
X25956Y808000D02*
X11430Y808000D01*
X182197Y808000D02*
X198120Y808000D01*
X29956Y812000D02*
X11430Y812000D01*
X178197Y812000D02*
X198120Y812000D01*
X35781Y816000D02*
X11430Y816000D01*
X172372Y816000D02*
X198120Y816000D01*
X29254Y820000D02*
X11430Y820000D01*
X52026Y820000D02*
X198120Y820000D01*
X21644Y824000D02*
X11430Y824000D01*
X59636Y824000D02*
X198120Y824000D01*
X17162Y828000D02*
X11430Y828000D01*
X64118Y828000D02*
X198120Y828000D01*
X13685Y832000D02*
X11430Y832000D01*
X67595Y832000D02*
X198120Y832000D01*
X198120Y836000D02*
X69905Y836000D01*
X71670Y840000D02*
X198120Y840000D01*
X198120Y844000D02*
X72742Y844000D01*
X73434Y848000D02*
X198120Y848000D01*
X198120Y852000D02*
X73434Y852000D01*
X73224Y856000D02*
X198120Y856000D01*
X198120Y860000D02*
X72153Y860000D01*
X70944Y864000D02*
X198120Y864000D01*
X198120Y868000D02*
X68635Y868000D01*
X65918Y872000D02*
X198120Y872000D01*
X198120Y876000D02*
X61918Y876000D01*
X55825Y880000D02*
X198120Y880000D01*
X3892Y888000D02*
X0Y888000D01*
X0Y-71098D02*
X0Y-78740D01*
X0Y884108D02*
X0Y891540D01*
X4000Y-75098D02*
X4000Y-78740D01*
X4000Y888109D02*
X4000Y891540D01*
X12000Y22204D02*
X12000Y-22118D01*
X12000Y31936D02*
X12000Y72204D01*
X12000Y81936D02*
X12000Y123804D01*
X12000Y133536D02*
X12000Y173804D01*
X12000Y183536D02*
X12000Y225404D01*
X12000Y235136D02*
X12000Y275404D01*
X12000Y285136D02*
X12000Y327004D01*
X12000Y336736D02*
X12000Y377004D01*
X12000Y386736D02*
X12000Y428604D01*
X12000Y438336D02*
X12000Y478604D01*
X12000Y488336D02*
X12000Y530204D01*
X12000Y539936D02*
X12000Y580204D01*
X12000Y589936D02*
X12000Y631804D01*
X12000Y641536D02*
X12000Y681804D01*
X12000Y691536D02*
X12000Y733404D01*
X12000Y743136D02*
X12000Y783404D01*
X12000Y793136D02*
X12000Y834918D01*
X16000Y17141D02*
X16000Y-16362D01*
X16000Y36999D02*
X16000Y67141D01*
X16000Y86999D02*
X16000Y118741D01*
X16000Y138599D02*
X16000Y168741D01*
X16000Y188599D02*
X16000Y220341D01*
X16000Y240199D02*
X16000Y270341D01*
X16000Y290199D02*
X16000Y321941D01*
X16000Y341799D02*
X16000Y371941D01*
X16000Y391799D02*
X16000Y423541D01*
X16000Y443399D02*
X16000Y473541D01*
X16000Y493399D02*
X16000Y525141D01*
X16000Y544999D02*
X16000Y575141D01*
X16000Y594999D02*
X16000Y626741D01*
X16000Y646599D02*
X16000Y676741D01*
X16000Y696599D02*
X16000Y728341D01*
X16000Y748199D02*
X16000Y778341D01*
X16000Y798199D02*
X16000Y829162D01*
X20000Y15443D02*
X20000Y-12362D01*
X20000Y38697D02*
X20000Y65443D01*
X20000Y88697D02*
X20000Y117043D01*
X20000Y140297D02*
X20000Y167043D01*
X20000Y190297D02*
X20000Y218643D01*
X20000Y241897D02*
X20000Y268643D01*
X20000Y291897D02*
X20000Y320243D01*
X20000Y343497D02*
X20000Y370243D01*
X20000Y393497D02*
X20000Y421843D01*
X20000Y445097D02*
X20000Y471843D01*
X20000Y495097D02*
X20000Y523443D01*
X20000Y546697D02*
X20000Y573443D01*
X20000Y596697D02*
X20000Y625043D01*
X20000Y648297D02*
X20000Y675043D01*
X20000Y698297D02*
X20000Y726643D01*
X20000Y749897D02*
X20000Y776643D01*
X20000Y799897D02*
X20000Y825162D01*
X24000Y15276D02*
X24000Y-9840D01*
X24000Y38864D02*
X24000Y65276D01*
X24000Y92558D02*
X24000Y116876D01*
X24000Y140464D02*
X24000Y166876D01*
X24000Y196952D02*
X24000Y218476D01*
X24000Y242064D02*
X24000Y268476D01*
X24000Y299568D02*
X24000Y320076D01*
X24000Y343664D02*
X24000Y370076D01*
X24000Y400533D02*
X24000Y421676D01*
X24000Y445264D02*
X24000Y471676D01*
X24000Y501498D02*
X24000Y523276D01*
X24000Y546864D02*
X24000Y573276D01*
X24000Y602971D02*
X24000Y624876D01*
X24000Y648464D02*
X24000Y674876D01*
X24000Y703809D02*
X24000Y726476D01*
X24000Y750064D02*
X24000Y776476D01*
X24000Y806044D02*
X24000Y822640D01*
X28000Y15276D02*
X28000Y-7536D01*
X28000Y38864D02*
X28000Y65276D01*
X28000Y96558D02*
X28000Y116876D01*
X28000Y140464D02*
X28000Y166876D01*
X28000Y200952D02*
X28000Y218476D01*
X28000Y242064D02*
X28000Y268476D01*
X28000Y303568D02*
X28000Y320076D01*
X28000Y343664D02*
X28000Y370076D01*
X28000Y404533D02*
X28000Y421676D01*
X28000Y445264D02*
X28000Y471676D01*
X28000Y505498D02*
X28000Y523276D01*
X28000Y546864D02*
X28000Y573276D01*
X28000Y606971D02*
X28000Y624876D01*
X28000Y648464D02*
X28000Y674876D01*
X28000Y707809D02*
X28000Y726476D01*
X28000Y750064D02*
X28000Y776476D01*
X28000Y810044D02*
X28000Y820336D01*
X32000Y15276D02*
X32000Y-6464D01*
X32000Y38864D02*
X32000Y65276D01*
X32000Y100558D02*
X32000Y116876D01*
X32000Y140464D02*
X32000Y166876D01*
X32000Y204952D02*
X32000Y218476D01*
X32000Y242064D02*
X32000Y268476D01*
X32000Y307363D02*
X32000Y320076D01*
X32000Y343664D02*
X32000Y370076D01*
X32000Y408533D02*
X32000Y421676D01*
X32000Y445264D02*
X32000Y471676D01*
X32000Y509498D02*
X32000Y523276D01*
X32000Y546864D02*
X32000Y573276D01*
X32000Y610971D02*
X32000Y624876D01*
X32000Y648464D02*
X32000Y674876D01*
X32000Y711809D02*
X32000Y726476D01*
X32000Y750064D02*
X32000Y776476D01*
X32000Y814044D02*
X32000Y819264D01*
X36000Y15276D02*
X36000Y-5392D01*
X36000Y38864D02*
X36000Y65276D01*
X36000Y102489D02*
X36000Y116876D01*
X36000Y140464D02*
X36000Y166876D01*
X36000Y206629D02*
X36000Y218476D01*
X36000Y242064D02*
X36000Y268476D01*
X36000Y308610D02*
X36000Y320076D01*
X36000Y343664D02*
X36000Y370076D01*
X36000Y409956D02*
X36000Y421676D01*
X36000Y445264D02*
X36000Y471676D01*
X36000Y511694D02*
X36000Y523276D01*
X36000Y546864D02*
X36000Y573276D01*
X36000Y612648D02*
X36000Y624876D01*
X36000Y648464D02*
X36000Y674876D01*
X36000Y714600D02*
X36000Y726476D01*
X36000Y750064D02*
X36000Y776476D01*
X36000Y816091D02*
X36000Y818192D01*
X40000Y15276D02*
X40000Y-5306D01*
X40000Y38864D02*
X40000Y65276D01*
X40000Y102489D02*
X40000Y116876D01*
X40000Y140464D02*
X40000Y166876D01*
X40000Y206629D02*
X40000Y218476D01*
X40000Y242064D02*
X40000Y268476D01*
X40000Y308610D02*
X40000Y320076D01*
X40000Y343664D02*
X40000Y370076D01*
X40000Y409956D02*
X40000Y421676D01*
X40000Y445264D02*
X40000Y471676D01*
X40000Y511810D02*
X40000Y523276D01*
X40000Y546864D02*
X40000Y573276D01*
X40000Y612648D02*
X40000Y624876D01*
X40000Y648464D02*
X40000Y674876D01*
X40000Y715137D02*
X40000Y726476D01*
X40000Y750064D02*
X40000Y776476D01*
X40000Y816102D02*
X40000Y818106D01*
X44000Y15650D02*
X44000Y-5306D01*
X44000Y38490D02*
X44000Y65650D01*
X44000Y102489D02*
X44000Y117250D01*
X44000Y140090D02*
X44000Y167250D01*
X44000Y206629D02*
X44000Y218850D01*
X44000Y241690D02*
X44000Y268850D01*
X44000Y308610D02*
X44000Y320450D01*
X44000Y343290D02*
X44000Y370450D01*
X44000Y409956D02*
X44000Y422050D01*
X44000Y444890D02*
X44000Y472050D01*
X44000Y511810D02*
X44000Y523650D01*
X44000Y546490D02*
X44000Y573650D01*
X44000Y612648D02*
X44000Y625250D01*
X44000Y648090D02*
X44000Y675250D01*
X44000Y715137D02*
X44000Y726850D01*
X44000Y749690D02*
X44000Y776850D01*
X44000Y816102D02*
X44000Y818106D01*
X48000Y17641D02*
X48000Y-6121D01*
X48000Y36499D02*
X48000Y67641D01*
X48000Y102489D02*
X48000Y119241D01*
X48000Y138099D02*
X48000Y169241D01*
X48000Y188099D02*
X48000Y188341D01*
X48000Y206629D02*
X48000Y220841D01*
X48000Y239699D02*
X48000Y270841D01*
X48000Y289699D02*
X48000Y290322D01*
X48000Y308610D02*
X48000Y322441D01*
X48000Y341299D02*
X48000Y372441D01*
X48000Y391299D02*
X48000Y391668D01*
X48000Y409956D02*
X48000Y424041D01*
X48000Y442899D02*
X48000Y474041D01*
X48000Y492899D02*
X48000Y493522D01*
X48000Y511810D02*
X48000Y525641D01*
X48000Y544499D02*
X48000Y575641D01*
X48000Y612648D02*
X48000Y627241D01*
X48000Y646099D02*
X48000Y677241D01*
X48000Y696099D02*
X48000Y696849D01*
X48000Y715137D02*
X48000Y728841D01*
X48000Y747699D02*
X48000Y778841D01*
X48000Y797699D02*
X48000Y797814D01*
X48000Y816102D02*
X48000Y818921D01*
X52000Y17926D02*
X52000Y-7193D01*
X52000Y36214D02*
X52000Y73411D01*
X52000Y80729D02*
X52000Y84201D01*
X52000Y102489D02*
X52000Y119526D01*
X52000Y137814D02*
X52000Y175011D01*
X52000Y182329D02*
X52000Y188341D01*
X52000Y206629D02*
X52000Y221126D01*
X52000Y239414D02*
X52000Y276611D01*
X52000Y283929D02*
X52000Y290322D01*
X52000Y308610D02*
X52000Y322726D01*
X52000Y341014D02*
X52000Y378211D01*
X52000Y385529D02*
X52000Y391668D01*
X52000Y409956D02*
X52000Y424326D01*
X52000Y442614D02*
X52000Y479811D01*
X52000Y487129D02*
X52000Y493522D01*
X52000Y511810D02*
X52000Y525926D01*
X52000Y544214D02*
X52000Y581411D01*
X52000Y588729D02*
X52000Y594360D01*
X52000Y612648D02*
X52000Y627526D01*
X52000Y645814D02*
X52000Y683011D01*
X52000Y690329D02*
X52000Y696849D01*
X52000Y715137D02*
X52000Y729126D01*
X52000Y747414D02*
X52000Y784611D01*
X52000Y791929D02*
X52000Y797814D01*
X52000Y816102D02*
X52000Y819993D01*
X56000Y-67099D02*
X56000Y-67310D01*
X56000Y-9101D02*
X56000Y17926D01*
X56000Y36214D02*
X56000Y84201D01*
X56000Y102489D02*
X56000Y119526D01*
X56000Y137814D02*
X56000Y188341D01*
X56000Y206629D02*
X56000Y221126D01*
X56000Y239414D02*
X56000Y290322D01*
X56000Y308610D02*
X56000Y322726D01*
X56000Y341014D02*
X56000Y391668D01*
X56000Y409956D02*
X56000Y424326D01*
X56000Y442614D02*
X56000Y493522D01*
X56000Y511810D02*
X56000Y525926D01*
X56000Y544214D02*
X56000Y594360D01*
X56000Y612648D02*
X56000Y627526D01*
X56000Y645814D02*
X56000Y696849D01*
X56000Y715137D02*
X56000Y729126D01*
X56000Y747414D02*
X56000Y797814D01*
X56000Y816102D02*
X56000Y821901D01*
X56000Y879899D02*
X56000Y880618D01*
X60000Y-64790D02*
X60000Y-67310D01*
X60000Y-11410D02*
X60000Y17926D01*
X60000Y36214D02*
X60000Y84201D01*
X60000Y102489D02*
X60000Y119526D01*
X60000Y137814D02*
X60000Y188341D01*
X60000Y206629D02*
X60000Y221126D01*
X60000Y239414D02*
X60000Y290322D01*
X60000Y308610D02*
X60000Y322726D01*
X60000Y341014D02*
X60000Y391668D01*
X60000Y409956D02*
X60000Y424326D01*
X60000Y442614D02*
X60000Y493522D01*
X60000Y511810D02*
X60000Y525926D01*
X60000Y544214D02*
X60000Y594360D01*
X60000Y612648D02*
X60000Y627526D01*
X60000Y645814D02*
X60000Y696849D01*
X60000Y715137D02*
X60000Y729126D01*
X60000Y747414D02*
X60000Y797814D01*
X60000Y816102D02*
X60000Y824210D01*
X60000Y877590D02*
X60000Y880618D01*
X64000Y-61118D02*
X64000Y-67310D01*
X64000Y-15082D02*
X64000Y17926D01*
X64000Y36214D02*
X64000Y84201D01*
X64000Y102489D02*
X64000Y119526D01*
X64000Y137814D02*
X64000Y188341D01*
X64000Y206629D02*
X64000Y221126D01*
X64000Y239414D02*
X64000Y290322D01*
X64000Y308610D02*
X64000Y322726D01*
X64000Y341014D02*
X64000Y391668D01*
X64000Y409956D02*
X64000Y424326D01*
X64000Y442614D02*
X64000Y493522D01*
X64000Y511810D02*
X64000Y525926D01*
X64000Y544214D02*
X64000Y594360D01*
X64000Y612648D02*
X64000Y627526D01*
X64000Y645814D02*
X64000Y696849D01*
X64000Y715137D02*
X64000Y729126D01*
X64000Y747414D02*
X64000Y797814D01*
X64000Y816102D02*
X64000Y827882D01*
X64000Y873918D02*
X64000Y880618D01*
X68000Y-56299D02*
X68000Y-67310D01*
X68000Y-19901D02*
X68000Y17926D01*
X68000Y36214D02*
X68000Y84201D01*
X68000Y102489D02*
X68000Y119526D01*
X68000Y137814D02*
X68000Y188341D01*
X68000Y206629D02*
X68000Y221126D01*
X68000Y239414D02*
X68000Y290322D01*
X68000Y308610D02*
X68000Y322726D01*
X68000Y341014D02*
X68000Y391668D01*
X68000Y409956D02*
X68000Y424326D01*
X68000Y442614D02*
X68000Y493522D01*
X68000Y511810D02*
X68000Y525926D01*
X68000Y544214D02*
X68000Y594360D01*
X68000Y612648D02*
X68000Y627526D01*
X68000Y645814D02*
X68000Y696849D01*
X68000Y715137D02*
X68000Y729126D01*
X68000Y747414D02*
X68000Y797814D01*
X68000Y816102D02*
X68000Y832701D01*
X68000Y869099D02*
X68000Y880618D01*
X72000Y-47769D02*
X72000Y-67310D01*
X72000Y-28431D02*
X72000Y17926D01*
X72000Y36214D02*
X72000Y84201D01*
X72000Y102489D02*
X72000Y119526D01*
X72000Y137814D02*
X72000Y188341D01*
X72000Y206629D02*
X72000Y221126D01*
X72000Y239414D02*
X72000Y290322D01*
X72000Y308610D02*
X72000Y322726D01*
X72000Y341014D02*
X72000Y391668D01*
X72000Y409956D02*
X72000Y424326D01*
X72000Y442614D02*
X72000Y493522D01*
X72000Y511810D02*
X72000Y525926D01*
X72000Y544214D02*
X72000Y594360D01*
X72000Y612648D02*
X72000Y627526D01*
X72000Y645814D02*
X72000Y696849D01*
X72000Y715137D02*
X72000Y729126D01*
X72000Y747414D02*
X72000Y797814D01*
X72000Y816102D02*
X72000Y841231D01*
X72000Y860569D02*
X72000Y880618D01*
X76000Y17926D02*
X76000Y-67310D01*
X76000Y36214D02*
X76000Y84201D01*
X76000Y102489D02*
X76000Y119526D01*
X76000Y137814D02*
X76000Y188341D01*
X76000Y206629D02*
X76000Y221126D01*
X76000Y239414D02*
X76000Y290322D01*
X76000Y308610D02*
X76000Y322726D01*
X76000Y341014D02*
X76000Y391668D01*
X76000Y409956D02*
X76000Y424326D01*
X76000Y442614D02*
X76000Y493522D01*
X76000Y511810D02*
X76000Y525926D01*
X76000Y544214D02*
X76000Y594360D01*
X76000Y612648D02*
X76000Y627526D01*
X76000Y645814D02*
X76000Y696849D01*
X76000Y715137D02*
X76000Y729126D01*
X76000Y747414D02*
X76000Y797814D01*
X76000Y816102D02*
X76000Y880618D01*
X80000Y17926D02*
X80000Y-67310D01*
X80000Y36214D02*
X80000Y84201D01*
X80000Y102489D02*
X80000Y119526D01*
X80000Y137814D02*
X80000Y188341D01*
X80000Y206629D02*
X80000Y221126D01*
X80000Y239414D02*
X80000Y290322D01*
X80000Y308610D02*
X80000Y322726D01*
X80000Y341014D02*
X80000Y391668D01*
X80000Y409956D02*
X80000Y424326D01*
X80000Y442614D02*
X80000Y493522D01*
X80000Y511810D02*
X80000Y525926D01*
X80000Y544214D02*
X80000Y594360D01*
X80000Y612648D02*
X80000Y627526D01*
X80000Y645814D02*
X80000Y696849D01*
X80000Y715137D02*
X80000Y729126D01*
X80000Y747414D02*
X80000Y797814D01*
X80000Y816102D02*
X80000Y880618D01*
X84000Y17926D02*
X84000Y-67310D01*
X84000Y36214D02*
X84000Y84201D01*
X84000Y102489D02*
X84000Y119526D01*
X84000Y137814D02*
X84000Y188341D01*
X84000Y206629D02*
X84000Y221126D01*
X84000Y239414D02*
X84000Y290322D01*
X84000Y308610D02*
X84000Y322726D01*
X84000Y341014D02*
X84000Y391668D01*
X84000Y409956D02*
X84000Y424326D01*
X84000Y442614D02*
X84000Y493522D01*
X84000Y511810D02*
X84000Y525926D01*
X84000Y544214D02*
X84000Y594360D01*
X84000Y612648D02*
X84000Y627526D01*
X84000Y645814D02*
X84000Y696849D01*
X84000Y715137D02*
X84000Y729126D01*
X84000Y747414D02*
X84000Y797814D01*
X84000Y816102D02*
X84000Y880618D01*
X88000Y17926D02*
X88000Y-67310D01*
X88000Y36214D02*
X88000Y84201D01*
X88000Y102489D02*
X88000Y119526D01*
X88000Y138905D02*
X88000Y188341D01*
X88000Y206629D02*
X88000Y221126D01*
X88000Y239414D02*
X88000Y290322D01*
X88000Y308610D02*
X88000Y322726D01*
X88000Y341014D02*
X88000Y391668D01*
X88000Y409956D02*
X88000Y424326D01*
X88000Y442614D02*
X88000Y493522D01*
X88000Y511810D02*
X88000Y525926D01*
X88000Y544214D02*
X88000Y594360D01*
X88000Y612648D02*
X88000Y627526D01*
X88000Y645814D02*
X88000Y696849D01*
X88000Y715137D02*
X88000Y729126D01*
X88000Y747414D02*
X88000Y797814D01*
X88000Y816102D02*
X88000Y880618D01*
X92000Y17926D02*
X92000Y-67310D01*
X92000Y38257D02*
X92000Y84201D01*
X92000Y102489D02*
X92000Y119526D01*
X92000Y142905D02*
X92000Y188341D01*
X92000Y206629D02*
X92000Y221126D01*
X92000Y239414D02*
X92000Y290322D01*
X92000Y308610D02*
X92000Y322726D01*
X92000Y341014D02*
X92000Y391668D01*
X92000Y409956D02*
X92000Y424326D01*
X92000Y442614D02*
X92000Y493522D01*
X92000Y511810D02*
X92000Y525926D01*
X92000Y544225D02*
X92000Y594360D01*
X92000Y612648D02*
X92000Y627526D01*
X92000Y645814D02*
X92000Y696849D01*
X92000Y715137D02*
X92000Y729126D01*
X92000Y747425D02*
X92000Y797814D01*
X92000Y816102D02*
X92000Y880618D01*
X96000Y18107D02*
X96000Y-67310D01*
X96000Y42257D02*
X96000Y61754D01*
X96000Y70326D02*
X96000Y84201D01*
X96000Y102489D02*
X96000Y121041D01*
X96000Y146905D02*
X96000Y163354D01*
X96000Y171926D02*
X96000Y188341D01*
X96000Y206629D02*
X96000Y221126D01*
X96000Y241266D02*
X96000Y264954D01*
X96000Y273526D02*
X96000Y290322D01*
X96000Y308610D02*
X96000Y322726D01*
X96000Y342612D02*
X96000Y366554D01*
X96000Y375126D02*
X96000Y391668D01*
X96000Y409956D02*
X96000Y424326D01*
X96000Y445609D02*
X96000Y468154D01*
X96000Y476726D02*
X96000Y493522D01*
X96000Y511810D02*
X96000Y525926D01*
X96000Y548225D02*
X96000Y568484D01*
X96000Y577056D02*
X96000Y594360D01*
X96000Y612648D02*
X96000Y627526D01*
X96000Y648936D02*
X96000Y671354D01*
X96000Y679926D02*
X96000Y696849D01*
X96000Y715137D02*
X96000Y729126D01*
X96000Y751425D02*
X96000Y774224D01*
X96000Y782796D02*
X96000Y797814D01*
X96000Y816102D02*
X96000Y880618D01*
X100000Y20393D02*
X100000Y-67310D01*
X100000Y74985D02*
X100000Y84201D01*
X100000Y102489D02*
X100000Y125041D01*
X100000Y176585D02*
X100000Y188341D01*
X100000Y206629D02*
X100000Y221228D01*
X100000Y278185D02*
X100000Y290322D01*
X100000Y308610D02*
X100000Y322726D01*
X100000Y379785D02*
X100000Y391668D01*
X100000Y409956D02*
X100000Y424901D01*
X100000Y481385D02*
X100000Y493522D01*
X100000Y511810D02*
X100000Y526922D01*
X100000Y581715D02*
X100000Y594360D01*
X100000Y612648D02*
X100000Y628154D01*
X100000Y684585D02*
X100000Y696849D01*
X100000Y715137D02*
X100000Y730122D01*
X100000Y787455D02*
X100000Y797814D01*
X100000Y816102D02*
X100000Y880618D01*
X104000Y24393D02*
X104000Y-67310D01*
X104000Y76374D02*
X104000Y84201D01*
X104000Y102489D02*
X104000Y129041D01*
X104000Y177974D02*
X104000Y188341D01*
X104000Y206629D02*
X104000Y223402D01*
X104000Y279574D02*
X104000Y290322D01*
X104000Y308610D02*
X104000Y324748D01*
X104000Y381174D02*
X104000Y391668D01*
X104000Y409956D02*
X104000Y427745D01*
X104000Y482774D02*
X104000Y493522D01*
X104000Y511810D02*
X104000Y530361D01*
X104000Y583104D02*
X104000Y594360D01*
X104000Y612648D02*
X104000Y631072D01*
X104000Y685974D02*
X104000Y696849D01*
X104000Y715137D02*
X104000Y733561D01*
X104000Y788844D02*
X104000Y797814D01*
X104000Y816102D02*
X104000Y880618D01*
X108000Y28393D02*
X108000Y-67310D01*
X108000Y76153D02*
X108000Y84201D01*
X108000Y102489D02*
X108000Y133041D01*
X108000Y177753D02*
X108000Y188341D01*
X108000Y206629D02*
X108000Y227402D01*
X108000Y279353D02*
X108000Y290322D01*
X108000Y308610D02*
X108000Y328748D01*
X108000Y380953D02*
X108000Y391668D01*
X108000Y409956D02*
X108000Y431745D01*
X108000Y482553D02*
X108000Y493522D01*
X108000Y511810D02*
X108000Y534361D01*
X108000Y582883D02*
X108000Y594360D01*
X108000Y612648D02*
X108000Y635072D01*
X108000Y685753D02*
X108000Y696849D01*
X108000Y715137D02*
X108000Y737561D01*
X108000Y788623D02*
X108000Y797814D01*
X108000Y816102D02*
X108000Y880618D01*
X112000Y32393D02*
X112000Y-67310D01*
X112000Y74064D02*
X112000Y84201D01*
X112000Y102489D02*
X112000Y137041D01*
X112000Y175664D02*
X112000Y188341D01*
X112000Y206629D02*
X112000Y231402D01*
X112000Y277264D02*
X112000Y290322D01*
X112000Y308610D02*
X112000Y332748D01*
X112000Y378864D02*
X112000Y391668D01*
X112000Y409956D02*
X112000Y435745D01*
X112000Y480464D02*
X112000Y493522D01*
X112000Y511810D02*
X112000Y538361D01*
X112000Y580794D02*
X112000Y594360D01*
X112000Y612648D02*
X112000Y639072D01*
X112000Y683664D02*
X112000Y696849D01*
X112000Y715137D02*
X112000Y741561D01*
X112000Y786534D02*
X112000Y797814D01*
X112000Y816102D02*
X112000Y880618D01*
X116000Y84201D02*
X116000Y-67310D01*
X116000Y102489D02*
X116000Y188341D01*
X116000Y206629D02*
X116000Y290322D01*
X116000Y308610D02*
X116000Y391668D01*
X116000Y409956D02*
X116000Y493522D01*
X116000Y511810D02*
X116000Y594360D01*
X116000Y612648D02*
X116000Y696849D01*
X116000Y715137D02*
X116000Y797814D01*
X116000Y816102D02*
X116000Y880618D01*
X120000Y84201D02*
X120000Y-67310D01*
X120000Y102489D02*
X120000Y188341D01*
X120000Y206629D02*
X120000Y290322D01*
X120000Y308610D02*
X120000Y391668D01*
X120000Y409956D02*
X120000Y493522D01*
X120000Y511810D02*
X120000Y594360D01*
X120000Y612648D02*
X120000Y696849D01*
X120000Y715137D02*
X120000Y797814D01*
X120000Y816102D02*
X120000Y880618D01*
X124000Y84201D02*
X124000Y-67310D01*
X124000Y102489D02*
X124000Y188341D01*
X124000Y206629D02*
X124000Y290322D01*
X124000Y308610D02*
X124000Y391668D01*
X124000Y409956D02*
X124000Y493522D01*
X124000Y511810D02*
X124000Y594360D01*
X124000Y612648D02*
X124000Y696849D01*
X124000Y715137D02*
X124000Y797814D01*
X124000Y816102D02*
X124000Y880618D01*
X128000Y84201D02*
X128000Y-67310D01*
X128000Y102489D02*
X128000Y188341D01*
X128000Y206629D02*
X128000Y290322D01*
X128000Y308610D02*
X128000Y391668D01*
X128000Y409956D02*
X128000Y493522D01*
X128000Y511810D02*
X128000Y594360D01*
X128000Y612648D02*
X128000Y696849D01*
X128000Y715137D02*
X128000Y797814D01*
X128000Y816102D02*
X128000Y880618D01*
X132000Y84201D02*
X132000Y-67310D01*
X132000Y102489D02*
X132000Y188341D01*
X132000Y206629D02*
X132000Y290322D01*
X132000Y308610D02*
X132000Y391668D01*
X132000Y409956D02*
X132000Y493522D01*
X132000Y511810D02*
X132000Y594360D01*
X132000Y612648D02*
X132000Y696849D01*
X132000Y715137D02*
X132000Y797814D01*
X132000Y816102D02*
X132000Y880618D01*
X136000Y84201D02*
X136000Y-67310D01*
X136000Y102489D02*
X136000Y188341D01*
X136000Y206629D02*
X136000Y290322D01*
X136000Y308610D02*
X136000Y391668D01*
X136000Y409956D02*
X136000Y493522D01*
X136000Y511810D02*
X136000Y594360D01*
X136000Y612648D02*
X136000Y696849D01*
X136000Y715137D02*
X136000Y797814D01*
X136000Y816102D02*
X136000Y880618D01*
X140000Y84201D02*
X140000Y-67310D01*
X140000Y102489D02*
X140000Y188341D01*
X140000Y206629D02*
X140000Y290322D01*
X140000Y308610D02*
X140000Y391668D01*
X140000Y409956D02*
X140000Y493522D01*
X140000Y511810D02*
X140000Y594360D01*
X140000Y612648D02*
X140000Y696849D01*
X140000Y715137D02*
X140000Y797814D01*
X140000Y816102D02*
X140000Y880618D01*
X144000Y84201D02*
X144000Y-67310D01*
X144000Y102489D02*
X144000Y188341D01*
X144000Y206629D02*
X144000Y290322D01*
X144000Y308610D02*
X144000Y391668D01*
X144000Y409956D02*
X144000Y493522D01*
X144000Y511810D02*
X144000Y594360D01*
X144000Y612648D02*
X144000Y696849D01*
X144000Y715137D02*
X144000Y797814D01*
X144000Y816102D02*
X144000Y880618D01*
X148000Y84201D02*
X148000Y-67310D01*
X148000Y102489D02*
X148000Y188341D01*
X148000Y206629D02*
X148000Y290322D01*
X148000Y308610D02*
X148000Y391668D01*
X148000Y409956D02*
X148000Y493522D01*
X148000Y511810D02*
X148000Y594360D01*
X148000Y612648D02*
X148000Y696849D01*
X148000Y715137D02*
X148000Y797814D01*
X148000Y816102D02*
X148000Y880618D01*
X152000Y84201D02*
X152000Y-67310D01*
X152000Y102489D02*
X152000Y188341D01*
X152000Y206629D02*
X152000Y290322D01*
X152000Y308610D02*
X152000Y391668D01*
X152000Y409956D02*
X152000Y493522D01*
X152000Y511810D02*
X152000Y594360D01*
X152000Y612648D02*
X152000Y696849D01*
X152000Y715137D02*
X152000Y797814D01*
X152000Y816102D02*
X152000Y880618D01*
X156000Y84201D02*
X156000Y-67310D01*
X156000Y102489D02*
X156000Y188341D01*
X156000Y206629D02*
X156000Y290322D01*
X156000Y308610D02*
X156000Y391668D01*
X156000Y409956D02*
X156000Y493522D01*
X156000Y511810D02*
X156000Y594360D01*
X156000Y612648D02*
X156000Y696849D01*
X156000Y715137D02*
X156000Y797814D01*
X156000Y816102D02*
X156000Y880618D01*
X160000Y84201D02*
X160000Y-67310D01*
X160000Y102489D02*
X160000Y188341D01*
X160000Y206629D02*
X160000Y290322D01*
X160000Y308610D02*
X160000Y391668D01*
X160000Y409956D02*
X160000Y493522D01*
X160000Y511810D02*
X160000Y594360D01*
X160000Y612648D02*
X160000Y696849D01*
X160000Y715137D02*
X160000Y797814D01*
X160000Y816102D02*
X160000Y880618D01*
X164000Y84201D02*
X164000Y-67310D01*
X164000Y102489D02*
X164000Y188341D01*
X164000Y206629D02*
X164000Y290301D01*
X164000Y308610D02*
X164000Y391668D01*
X164000Y409956D02*
X164000Y493522D01*
X164000Y511810D02*
X164000Y594360D01*
X164000Y612648D02*
X164000Y696849D01*
X164000Y715137D02*
X164000Y797814D01*
X164000Y816102D02*
X164000Y880618D01*
X168000Y84201D02*
X168000Y-67310D01*
X168000Y102489D02*
X168000Y188341D01*
X168000Y206629D02*
X168000Y286301D01*
X168000Y308610D02*
X168000Y391668D01*
X168000Y409956D02*
X168000Y493522D01*
X168000Y511810D02*
X168000Y594360D01*
X168000Y612648D02*
X168000Y695876D01*
X168000Y715137D02*
X168000Y796333D01*
X168000Y816102D02*
X168000Y880618D01*
X172000Y62237D02*
X172000Y-67310D01*
X172000Y69843D02*
X172000Y84201D01*
X172000Y102489D02*
X172000Y163837D01*
X172000Y171443D02*
X172000Y188321D01*
X172000Y206629D02*
X172000Y265437D01*
X172000Y273043D02*
X172000Y282301D01*
X172000Y307610D02*
X172000Y367037D01*
X172000Y374643D02*
X172000Y389997D01*
X172000Y409956D02*
X172000Y468637D01*
X172000Y476243D02*
X172000Y492359D01*
X172000Y511810D02*
X172000Y568967D01*
X172000Y576573D02*
X172000Y594360D01*
X172000Y612648D02*
X172000Y671837D01*
X172000Y679443D02*
X172000Y691876D01*
X172000Y715137D02*
X172000Y774707D01*
X172000Y782313D02*
X172000Y792333D01*
X172000Y816102D02*
X172000Y880618D01*
X176000Y57178D02*
X176000Y-67310D01*
X176000Y102489D02*
X176000Y158778D01*
X176000Y206629D02*
X176000Y260378D01*
X176000Y304165D02*
X176000Y361978D01*
X176000Y409929D02*
X176000Y463578D01*
X176000Y511810D02*
X176000Y563908D01*
X176000Y612648D02*
X176000Y666778D01*
X176000Y713740D02*
X176000Y769648D01*
X176000Y814197D02*
X176000Y880618D01*
X180000Y55706D02*
X180000Y-67310D01*
X180000Y101700D02*
X180000Y157306D01*
X180000Y205629D02*
X180000Y258906D01*
X180000Y300165D02*
X180000Y360506D01*
X180000Y407861D02*
X180000Y462106D01*
X180000Y510223D02*
X180000Y562436D01*
X180000Y611806D02*
X180000Y665306D01*
X180000Y709740D02*
X180000Y768176D01*
X180000Y810197D02*
X180000Y880618D01*
X184000Y55845D02*
X184000Y-67310D01*
X184000Y98553D02*
X184000Y157445D01*
X184000Y202185D02*
X184000Y259045D01*
X184000Y296165D02*
X184000Y360645D01*
X184000Y403861D02*
X184000Y462245D01*
X184000Y506223D02*
X184000Y562575D01*
X184000Y608585D02*
X184000Y665445D01*
X184000Y705740D02*
X184000Y768315D01*
X184000Y806197D02*
X184000Y880618D01*
X188000Y19494D02*
X188000Y-67310D01*
X188000Y802197D02*
X188000Y880618D01*
X192000Y13547D02*
X192000Y-67310D01*
X192000Y800523D02*
X192000Y880618D01*
X196000Y11480D02*
X196000Y-67310D01*
X196000Y802590D02*
X196000Y880618D01*
M02*
