G04 EAGLE Gerber RS-274X export*
G75*
%MOMM*%
%FSLAX34Y34*%
%LPD*%
%IN*%
%IPPOS*%
%AMOC8*
5,1,8,0,0,1.08239X$1,22.5*%
G01*
%ADD10C,0.254000*%


D10*
X0Y-38100D02*
X155Y-41642D01*
X617Y-45157D01*
X1385Y-48618D01*
X2451Y-52000D01*
X3808Y-55275D01*
X5445Y-58420D01*
X7350Y-61410D01*
X9508Y-64223D01*
X11903Y-66837D01*
X14517Y-69232D01*
X17330Y-71390D01*
X20320Y-73295D01*
X23465Y-74932D01*
X26740Y-76289D01*
X30122Y-77355D01*
X33583Y-78123D01*
X37098Y-78585D01*
X40640Y-78740D01*
X454406Y-78740D01*
X457948Y-78585D01*
X461463Y-78123D01*
X464924Y-77355D01*
X468306Y-76289D01*
X471581Y-74932D01*
X474726Y-73295D01*
X477716Y-71390D01*
X480529Y-69232D01*
X483143Y-66837D01*
X485538Y-64223D01*
X487696Y-61410D01*
X489601Y-58420D01*
X491238Y-55275D01*
X492595Y-52000D01*
X493661Y-48618D01*
X494429Y-45157D01*
X494891Y-41642D01*
X495046Y-38100D01*
X495046Y851662D01*
X494892Y855182D01*
X494432Y858675D01*
X493670Y862115D01*
X492610Y865475D01*
X491262Y868730D01*
X489635Y871855D01*
X487742Y874826D01*
X485597Y877622D01*
X483217Y880219D01*
X480620Y882599D01*
X477824Y884744D01*
X474853Y886637D01*
X471728Y888264D01*
X468473Y889612D01*
X465113Y890672D01*
X461673Y891434D01*
X458180Y891894D01*
X454660Y892048D01*
X41148Y892048D01*
X37562Y891891D01*
X34003Y891423D01*
X30498Y890646D01*
X27075Y889566D01*
X23758Y888193D01*
X20574Y886535D01*
X17546Y884606D01*
X14699Y882421D01*
X12052Y879996D01*
X9627Y877349D01*
X7442Y874502D01*
X5513Y871474D01*
X3855Y868290D01*
X2482Y864973D01*
X1402Y861550D01*
X625Y858045D01*
X157Y854486D01*
X0Y850900D01*
X0Y-38100D01*
X199390Y22860D02*
X219710Y22860D01*
X219710Y791210D01*
X199390Y791210D01*
X199390Y22860D01*
M02*
