G04 EAGLE Gerber RS-274X export*
G75*
%MOMM*%
%FSLAX34Y34*%
%LPD*%
%INSoldermask Top*%
%IPPOS*%
%AMOC8*
5,1,8,0,0,1.08239X$1,22.5*%
G01*
%ADD10R,1.903200X2.753200*%
%ADD11R,0.653200X1.878200*%
%ADD12C,1.711200*%
%ADD13R,0.703200X1.203200*%
%ADD14R,0.853200X1.103200*%
%ADD15R,1.103200X0.853200*%
%ADD16R,1.603200X1.103200*%
%ADD17C,2.003200*%
%ADD18C,1.625600*%
%ADD19R,1.103200X1.153200*%
%ADD20C,6.203200*%


D10*
X358140Y134670D03*
X358140Y172670D03*
X358140Y236270D03*
X358140Y274270D03*
X358140Y337870D03*
X358140Y375870D03*
X358140Y31800D03*
X358140Y69800D03*
X358140Y439470D03*
X358140Y477470D03*
X358140Y539800D03*
X358140Y577800D03*
X358140Y745540D03*
X358140Y783540D03*
X358140Y640130D03*
X358140Y678130D03*
D11*
X482790Y443820D03*
X476290Y443820D03*
X469790Y443820D03*
X463290Y443820D03*
X456790Y443820D03*
X450290Y443820D03*
X443790Y443820D03*
X437290Y443820D03*
X430790Y443820D03*
X424290Y443820D03*
X417790Y443820D03*
X411290Y443820D03*
X411290Y374060D03*
X417790Y374060D03*
X424290Y374060D03*
X430790Y374060D03*
X437290Y374060D03*
X443790Y374060D03*
X450290Y374060D03*
X456790Y374060D03*
X463290Y374060D03*
X469790Y374060D03*
X476290Y374060D03*
X482790Y374060D03*
D12*
X105410Y167640D03*
X181610Y167640D03*
X283210Y167640D03*
X308610Y167640D03*
X105410Y269240D03*
X181610Y269240D03*
X283210Y269240D03*
X308610Y269240D03*
X105410Y370840D03*
X181610Y370840D03*
X283210Y370840D03*
X308610Y370840D03*
X105410Y472440D03*
X181610Y472440D03*
X283210Y472440D03*
X308610Y472440D03*
X105410Y66040D03*
X181610Y66040D03*
X283210Y66040D03*
X308610Y66040D03*
X105410Y572770D03*
X181610Y572770D03*
X283210Y572770D03*
X308610Y572770D03*
X105410Y778510D03*
X181610Y778510D03*
X283210Y778510D03*
X308610Y778510D03*
X105410Y675640D03*
X181610Y675640D03*
X283210Y675640D03*
X308610Y675640D03*
D13*
X382120Y160180D03*
X395120Y160180D03*
X388620Y180180D03*
X382120Y261780D03*
X395120Y261780D03*
X388620Y281780D03*
X382120Y363380D03*
X395120Y363380D03*
X388620Y383380D03*
X380850Y57310D03*
X393850Y57310D03*
X387350Y77310D03*
X382120Y464980D03*
X395120Y464980D03*
X388620Y484980D03*
X382120Y565310D03*
X395120Y565310D03*
X388620Y585310D03*
X382120Y771050D03*
X395120Y771050D03*
X388620Y791050D03*
X382120Y665640D03*
X395120Y665640D03*
X388620Y685640D03*
D14*
X388250Y101600D03*
X373750Y101600D03*
D15*
X433070Y486040D03*
X433070Y471540D03*
D14*
X389520Y508000D03*
X375020Y508000D03*
D15*
X421640Y486040D03*
X421640Y471540D03*
D14*
X388250Y716280D03*
X373750Y716280D03*
D15*
X410210Y486040D03*
X410210Y471540D03*
D14*
X388250Y612140D03*
X373750Y612140D03*
D15*
X410210Y521600D03*
X410210Y507100D03*
X468630Y486040D03*
X468630Y471540D03*
D14*
X389520Y203200D03*
X375020Y203200D03*
D15*
X455930Y486040D03*
X455930Y471540D03*
D14*
X388250Y308610D03*
X373750Y308610D03*
D15*
X444500Y486040D03*
X444500Y471540D03*
D14*
X409310Y19050D03*
X423810Y19050D03*
D15*
X480060Y486040D03*
X480060Y471540D03*
D14*
X388250Y408940D03*
X373750Y408940D03*
D16*
X388620Y142850D03*
X388620Y123850D03*
X388620Y244450D03*
X388620Y225450D03*
X388620Y346050D03*
X388620Y327050D03*
X388620Y38710D03*
X388620Y19710D03*
X388620Y447650D03*
X388620Y428650D03*
X388620Y547980D03*
X388620Y528980D03*
X388620Y753720D03*
X388620Y734720D03*
X388620Y648310D03*
X388620Y629310D03*
D17*
X40750Y77070D02*
X22750Y77070D01*
X22750Y27070D02*
X40750Y27070D01*
X40750Y178670D02*
X22750Y178670D01*
X22750Y128670D02*
X40750Y128670D01*
X40750Y280270D02*
X22750Y280270D01*
X22750Y230270D02*
X40750Y230270D01*
X40750Y381870D02*
X22750Y381870D01*
X22750Y331870D02*
X40750Y331870D01*
X40750Y483470D02*
X22750Y483470D01*
X22750Y433470D02*
X40750Y433470D01*
X40750Y585070D02*
X22750Y585070D01*
X22750Y535070D02*
X40750Y535070D01*
X40750Y788270D02*
X22750Y788270D01*
X22750Y738270D02*
X40750Y738270D01*
X40750Y686670D02*
X22750Y686670D01*
X22750Y636670D02*
X40750Y636670D01*
X450740Y66440D02*
X468740Y66440D01*
X468740Y116440D02*
X450740Y116440D01*
X450740Y168040D02*
X468740Y168040D01*
X468740Y218040D02*
X450740Y218040D01*
X450740Y269640D02*
X468740Y269640D01*
X468740Y319640D02*
X450740Y319640D01*
D18*
X424180Y634238D02*
X424180Y648462D01*
X449580Y648462D02*
X449580Y634238D01*
X474980Y634238D02*
X474980Y648462D01*
X424180Y743458D02*
X424180Y757682D01*
X449580Y757682D02*
X449580Y743458D01*
X474980Y743458D02*
X474980Y757682D01*
X424180Y703072D02*
X424180Y688848D01*
X449580Y688848D02*
X449580Y703072D01*
X474980Y703072D02*
X474980Y688848D01*
X463550Y583692D02*
X463550Y569468D01*
X438150Y569468D02*
X438150Y583692D01*
X463550Y548132D02*
X463550Y533908D01*
X438150Y533908D02*
X438150Y548132D01*
D19*
X461390Y607060D03*
X445390Y607060D03*
X461390Y510540D03*
X445390Y510540D03*
D20*
X40640Y850900D03*
X40640Y-38100D03*
X454660Y850900D03*
X454660Y-38100D03*
M02*
