G04 EAGLE Gerber RS-274X export*
G75*
%MOMM*%
%FSLAX34Y34*%
%LPD*%
%INSoldermask Bottom*%
%IPPOS*%
%AMOC8*
5,1,8,0,0,1.08239X$1,22.5*%
G01*
%ADD10C,1.270000*%
%ADD11C,1.711200*%
%ADD12C,2.003200*%
%ADD13C,1.625600*%
%ADD14C,6.203200*%
%ADD15C,0.959600*%


D10*
X37719Y806831D02*
X170053Y806831D01*
X37719Y806831D02*
X31750Y800862D01*
X31750Y788270D01*
X170053Y806831D02*
X182372Y794512D01*
X182372Y779272D01*
X105410Y778510D02*
X105410Y747776D01*
X95904Y738270D02*
X31750Y738270D01*
X95904Y738270D02*
X105410Y747776D01*
X39116Y705866D02*
X31750Y698500D01*
X31750Y686670D01*
X39116Y705866D02*
X170942Y705866D01*
X181610Y695198D01*
X181610Y675640D01*
X106172Y674878D02*
X106172Y646049D01*
X96793Y636670D02*
X31750Y636670D01*
X96793Y636670D02*
X106172Y646049D01*
X37465Y603504D02*
X176022Y603504D01*
X37465Y603504D02*
X31750Y597789D01*
X31750Y585070D01*
X176022Y603504D02*
X181610Y597916D01*
X181610Y572770D01*
X105410Y572770D02*
X105410Y544703D01*
X95777Y535070D02*
X31750Y535070D01*
X95777Y535070D02*
X105410Y544703D01*
X31750Y495935D02*
X31750Y483470D01*
X31750Y495935D02*
X38100Y502285D01*
X175006Y502285D01*
X181610Y495681D02*
X181610Y472440D01*
X181610Y495681D02*
X175006Y502285D01*
X96666Y433470D02*
X31750Y433470D01*
X96666Y433470D02*
X105410Y442214D01*
X105410Y472440D01*
X37211Y400812D02*
X174117Y400812D01*
X181610Y393319D02*
X181610Y370840D01*
X31750Y381870D02*
X31750Y395351D01*
X37211Y400812D01*
X174117Y400812D02*
X181610Y393319D01*
X98317Y331870D02*
X31750Y331870D01*
X98317Y331870D02*
X105410Y338963D01*
X105410Y370840D01*
X31750Y294259D02*
X31750Y280270D01*
X31750Y294259D02*
X36830Y299339D01*
X167894Y299339D01*
X182499Y284734D01*
X182499Y270129D01*
X97936Y230270D02*
X31750Y230270D01*
X105410Y237744D02*
X105410Y269240D01*
X105410Y237744D02*
X97936Y230270D01*
X31750Y191770D02*
X31750Y178670D01*
X31750Y191770D02*
X37465Y197485D01*
X175895Y197485D01*
X181610Y191770D02*
X181610Y167640D01*
X181610Y191770D02*
X175895Y197485D01*
X105410Y143510D02*
X90570Y128670D01*
X105410Y143510D02*
X105410Y167640D01*
X90570Y128670D02*
X31750Y128670D01*
X37592Y93345D02*
X176276Y93345D01*
X31750Y87503D02*
X31750Y77070D01*
X31750Y87503D02*
X37592Y93345D01*
X176276Y93345D02*
X181610Y88011D01*
X181610Y66040D01*
X105410Y66040D02*
X105410Y38608D01*
X93872Y27070D01*
X31750Y27070D01*
D11*
X105410Y167640D03*
X181610Y167640D03*
X283210Y167640D03*
X308610Y167640D03*
X105410Y269240D03*
X181610Y269240D03*
X283210Y269240D03*
X308610Y269240D03*
X105410Y370840D03*
X181610Y370840D03*
X283210Y370840D03*
X308610Y370840D03*
X105410Y472440D03*
X181610Y472440D03*
X283210Y472440D03*
X308610Y472440D03*
X105410Y66040D03*
X181610Y66040D03*
X283210Y66040D03*
X308610Y66040D03*
X105410Y572770D03*
X181610Y572770D03*
X283210Y572770D03*
X308610Y572770D03*
X105410Y778510D03*
X181610Y778510D03*
X283210Y778510D03*
X308610Y778510D03*
X105410Y675640D03*
X181610Y675640D03*
X283210Y675640D03*
X308610Y675640D03*
D12*
X40750Y77070D02*
X22750Y77070D01*
X22750Y27070D02*
X40750Y27070D01*
X40750Y178670D02*
X22750Y178670D01*
X22750Y128670D02*
X40750Y128670D01*
X40750Y280270D02*
X22750Y280270D01*
X22750Y230270D02*
X40750Y230270D01*
X40750Y381870D02*
X22750Y381870D01*
X22750Y331870D02*
X40750Y331870D01*
X40750Y483470D02*
X22750Y483470D01*
X22750Y433470D02*
X40750Y433470D01*
X40750Y585070D02*
X22750Y585070D01*
X22750Y535070D02*
X40750Y535070D01*
X40750Y788270D02*
X22750Y788270D01*
X22750Y738270D02*
X40750Y738270D01*
X40750Y686670D02*
X22750Y686670D01*
X22750Y636670D02*
X40750Y636670D01*
X450740Y66440D02*
X468740Y66440D01*
X468740Y116440D02*
X450740Y116440D01*
X450740Y168040D02*
X468740Y168040D01*
X468740Y218040D02*
X450740Y218040D01*
X450740Y269640D02*
X468740Y269640D01*
X468740Y319640D02*
X450740Y319640D01*
D13*
X424180Y634238D02*
X424180Y648462D01*
X449580Y648462D02*
X449580Y634238D01*
X474980Y634238D02*
X474980Y648462D01*
X424180Y743458D02*
X424180Y757682D01*
X449580Y757682D02*
X449580Y743458D01*
X474980Y743458D02*
X474980Y757682D01*
X424180Y703072D02*
X424180Y688848D01*
X449580Y688848D02*
X449580Y703072D01*
X474980Y703072D02*
X474980Y688848D01*
X463550Y583692D02*
X463550Y569468D01*
X438150Y569468D02*
X438150Y583692D01*
X463550Y548132D02*
X463550Y533908D01*
X438150Y533908D02*
X438150Y548132D01*
D14*
X40640Y850900D03*
X40640Y-38100D03*
X454660Y850900D03*
X454660Y-38100D03*
D15*
X410921Y461721D03*
X410591Y495427D03*
X415290Y427990D03*
X403225Y456565D03*
X335280Y857250D03*
X345440Y857250D03*
X355600Y857250D03*
X365760Y857250D03*
X375920Y857250D03*
X375920Y847090D03*
X365760Y847090D03*
X355600Y847090D03*
X345440Y847090D03*
X335280Y847090D03*
X419100Y415290D03*
X330200Y457200D03*
X330200Y424180D03*
X325120Y511810D03*
X325120Y556260D03*
X328930Y593090D03*
X323850Y624840D03*
X322580Y659130D03*
X452120Y669290D03*
X410210Y665480D03*
X480060Y581660D03*
X463550Y292100D03*
X416560Y279400D03*
X455930Y237490D03*
X461010Y193040D03*
X414020Y182880D03*
X416560Y204470D03*
X462280Y140970D03*
X415290Y144780D03*
X458470Y90170D03*
X420370Y87630D03*
X462280Y12700D03*
X374650Y-21590D03*
X363220Y-21590D03*
X351790Y-21590D03*
X340360Y-21590D03*
X328930Y-21590D03*
X328930Y-31750D03*
X340360Y-31750D03*
X351790Y-31750D03*
X363220Y-31750D03*
X374650Y-31750D03*
X250190Y104140D03*
X304800Y105410D03*
X304800Y148590D03*
X248920Y151130D03*
X300990Y191770D03*
X250190Y191770D03*
X248920Y242570D03*
X306070Y251460D03*
X304800Y222250D03*
X306070Y317500D03*
X266700Y330200D03*
X314960Y353060D03*
X274320Y538480D03*
X471170Y406400D03*
X290040Y707588D03*
X274320Y707588D03*
X251460Y707588D03*
X275590Y401122D03*
X290830Y401122D03*
X373683Y389692D03*
X471170Y416362D03*
X470380Y425450D03*
X373098Y398780D03*
X290830Y410210D03*
X276380Y410210D03*
X251460Y698500D03*
X274320Y698500D03*
X290040Y698500D03*
X242185Y596515D03*
X243106Y303530D03*
X290040Y299918D03*
X414020Y302260D03*
X438150Y304800D03*
X233680Y579120D03*
X276380Y208280D03*
X351790Y193040D03*
X481080Y498860D03*
X481158Y398780D03*
X290830Y290830D03*
X274320Y290830D03*
X247678Y614680D03*
X339090Y745490D03*
X283210Y506730D03*
X415826Y318770D03*
X373380Y57150D03*
X469900Y497840D03*
X459740Y497840D03*
X374650Y160020D03*
X448988Y498411D03*
X373380Y261620D03*
X439900Y497840D03*
X373380Y363220D03*
X430530Y497840D03*
X373380Y464820D03*
X403380Y539750D03*
X417040Y539750D03*
M02*
